# https://github.com/mikedh/trimesh
v 0.48736062 -0.26908729 -0.09571080
v 0.46540273 -0.26908729 -0.08664449
v 0.46540273 0.20603271 -0.08664449
v 0.48736062 0.20603271 -0.09571080
v 0.47829431 -0.26908729 -0.11766870
v 0.45633641 -0.26908729 -0.10860133
v 0.45633641 0.20603271 -0.10860133
v 0.47829431 0.20603271 -0.11766870
v -0.39094780 -0.26908729 0.26695867
v -0.41290569 -0.26908729 0.27602499
v -0.41290569 0.20603271 0.27602499
v -0.39094780 0.20603271 0.26695867
v -0.40001411 -0.26908729 0.24500077
v -0.42197201 -0.26908729 0.25406709
v -0.42197201 0.20603271 0.25406709
v -0.40001411 0.20603271 0.24500077
v 0.39669325 -0.26908729 -0.31528765
v 0.37473536 -0.26908729 -0.30622133
v 0.39669325 -0.03152729 -0.31528765
v 0.38762694 -0.26908729 -0.33724554
v 0.36566904 -0.26908729 -0.32817923
v 0.36566904 -0.03152729 -0.32817923
v 0.38762694 -0.03152729 -0.33724554
v -0.48161517 -0.26908729 0.04738183
v -0.50357306 -0.26908729 0.05644814
v -0.50357306 -0.03152729 0.05644814
v -0.48161517 -0.03152729 0.04738183
v -0.49068148 -0.26908729 0.02542393
v -0.51263938 -0.26908729 0.03449025
v -0.51263938 -0.03152729 0.03449025
v -0.49068148 -0.03152729 0.02542393
v 0.46540273 -0.05528308 -0.08664449
v -0.39094780 -0.05528308 0.26695867
v -0.39094780 -0.03152729 0.26695867
v 0.46540273 -0.03152729 -0.08664449
v -0.40001411 -0.05528308 0.24500077
v -0.40001411 -0.03152729 0.24500077
v -0.48161517 -0.05528308 0.04738183
v 0.36566904 -0.05528308 -0.32817923
v -0.49068148 -0.05528308 0.02542393
v 0.47829431 -0.05528308 -0.11766870
v 0.45633641 -0.05528308 -0.10860133
v 0.45633641 -0.03152729 -0.10860133
v 0.47829431 -0.03152729 -0.11766870
v 0.39669325 -0.05528308 -0.31528765
v 0.37473536 -0.05528308 -0.30622133
v 0.37473536 -0.03152729 -0.30622133
v -0.42197201 -0.05528308 0.25406709
v -0.42197201 -0.03152729 0.25406709
v -0.50357306 -0.05528308 0.05644814
v 0.47411536 0.07537481 -0.09666659
v -0.40419306 0.07537481 0.26600288
v -0.40419306 0.19415376 0.26600288
v 0.47411536 0.19415376 -0.09666659
v 0.46958168 0.07537481 -0.10764554
v -0.40872675 0.07537481 0.25502393
v -0.40872675 0.19415376 0.25502393
v 0.46958168 0.19415376 -0.10764554
v 0.45633641 -0.04340519 -0.10860133
v -0.40001411 -0.04340519 0.24500077
v -0.40001411 -0.01964940 0.24500077
v 0.45633641 -0.01964940 -0.10860133
v 0.37473536 -0.04340519 -0.30622133
v -0.48161517 -0.04340519 0.04738183
v -0.48161517 -0.01964940 0.04738183
v 0.37473536 -0.01964940 -0.30622133
vn 0.75399237 -0.57735024 0.31330850
vn -0.31330188 -0.57735107 0.75399448
vn -0.31330188 0.57735107 0.75399448
vn 0.75399237 0.57735024 0.31330850
vn 0.31329375 -0.57734795 -0.75400024
vn -0.75400055 -0.57735154 -0.31328641
vn -0.75400055 0.57735154 -0.31328641
vn 0.31329375 0.57734795 -0.75400024
vn 0.75399237 -0.57735024 0.31330850
vn -0.31330850 -0.57735024 0.75399237
vn -0.31330850 0.57735024 0.75399237
vn 0.75399237 0.57735024 0.31330850
vn 0.31330850 -0.57735024 -0.75399237
vn -0.75399237 -0.57735024 -0.31330850
vn -0.75399237 0.57735024 -0.31330850
vn 0.31330850 0.57735024 -0.75399237
vn 0.75399499 -0.57735083 0.31330108
vn -0.31330151 -0.57734951 0.75399582
vn 0.65358043 0.70710880 -0.26986991
vn 0.31330151 -0.57734951 -0.75399582
vn -0.75399499 -0.57735083 -0.31330108
vn -0.26987443 0.70710648 -0.65358107
vn 0.31330151 0.57734951 -0.75399582
vn 0.75399582 -0.57734951 0.31330151
vn -0.31330108 -0.57735083 0.75399499
vn -0.65358114 0.70710632 0.26987468
vn 0.39376266 0.90453419 0.16361193
vn 0.31330108 -0.57735083 -0.75399499
vn -0.75399582 -0.57734951 -0.31330151
vn -0.75399582 0.57734951 -0.31330151
vn -0.26986933 0.70710860 -0.65358088
vn 0.75399803 -0.57735033 0.31329472
vn -0.31330159 -0.57734912 0.75399609
vn -0.31330159 0.57734912 0.75399609
vn 0.75399803 0.57735033 0.31329472
vn -0.00001273 -1.00000000 -0.00000605
vn -0.00001273 1.00000000 -0.00000605
vn 0.00000668 -1.00000000 -0.00000541
vn 0.31330022 -0.57734943 -0.75399642
vn -0.75399778 -0.57735042 -0.31329513
vn 0.75400148 -0.57735134 0.31328452
vn 0.00001082 -1.00000000 -0.00000255
vn 0.00001082 1.00000000 -0.00000255
vn 0.75400148 0.57735134 0.31328452
vn 0.31329426 -0.57735058 -0.75399802
vn 0.00000477 -1.00000000 0.00000732
vn -0.16361215 0.90453395 0.39376311
vn -0.31330067 -0.57735130 0.75399481
vn -0.31330067 0.57735130 0.75399481
vn -0.75399651 -0.57734950 -0.31329989
vn 0.75400253 -0.57734917 0.31328601
vn -0.31328563 -0.57735140 0.75400097
vn -0.31328563 0.57735140 0.75400097
vn 0.75400253 0.57734917 0.31328601
vn 0.31328563 -0.57735140 -0.75400097
vn -0.75400253 -0.57734917 -0.31328601
vn -0.75400253 0.57734917 -0.31328601
vn 0.31328563 0.57735140 -0.75400097
vn 0.75399847 -0.57735032 0.31329367
vn -0.31329339 -0.57735059 0.75399837
vn -0.31329339 0.57735059 0.75399837
vn 0.75399847 0.57735032 0.31329367
vn 0.31329328 -0.57735033 -0.75399862
vn -0.75399871 -0.57735022 -0.31329325
vn -0.75399871 0.57735022 -0.31329325
vn 0.31329328 0.57735033 -0.75399862
f 1//1 4//4 2//2
f 2//2 4//4 3//3
f 1//1 6//6 5//5
f 1//1 2//2 6//6
f 1//1 5//5 4//4
f 4//4 5//5 8//8
f 4//4 8//8 7//7
f 4//4 7//7 3//3
f 2//2 7//7 6//6
f 2//2 3//3 7//7
f 6//6 8//8 5//5
f 6//6 7//7 8//8
f 9//9 12//12 10//10
f 10//10 12//12 11//11
f 9//9 14//14 13//13
f 9//9 10//10 14//14
f 9//9 13//13 12//12
f 12//12 13//13 16//16
f 12//12 16//16 15//15
f 12//12 15//15 11//11
f 10//10 15//15 14//14
f 10//10 11//11 15//15
f 14//14 16//16 13//13
f 14//14 15//15 16//16
f 17//17 19//19 18//18
f 18//18 19//19 47//47
f 17//17 21//21 20//20
f 17//17 18//18 21//21
f 17//17 20//20 19//19
f 19//19 20//20 23//23
f 19//19 23//23 22//22
f 19//19 22//22 47//47
f 18//18 22//22 21//21
f 18//18 47//47 22//22
f 21//21 23//23 20//20
f 21//21 22//22 23//23
f 24//24 27//27 25//25
f 25//25 27//27 26//26
f 24//24 29//29 28//28
f 24//24 25//25 29//29
f 24//24 28//28 27//27
f 27//27 28//28 31//31
f 27//27 31//31 30//30
f 27//27 30//30 26//26
f 25//25 30//30 29//29
f 25//25 26//26 30//30
f 29//29 31//31 28//28
f 29//29 30//30 31//31
f 32//32 35//35 33//33
f 33//33 35//35 34//34
f 32//32 36//36 42//42
f 32//32 33//33 36//36
f 32//32 42//42 35//35
f 35//35 42//42 43//43
f 35//35 43//43 37//37
f 35//35 37//37 34//34
f 33//33 37//37 36//36
f 33//33 34//34 37//37
f 36//36 43//43 42//42
f 36//36 37//37 43//43
f 46//46 47//47 38//38
f 38//38 47//47 27//27
f 46//46 40//40 39//39
f 46//46 38//38 40//40
f 46//46 39//39 47//47
f 47//47 39//39 22//22
f 47//47 22//22 31//31
f 47//47 31//31 27//27
f 38//38 31//31 40//40
f 38//38 27//27 31//31
f 40//40 22//22 39//39
f 40//40 31//31 22//22
f 41//41 44//44 42//42
f 42//42 44//44 43//43
f 41//41 46//46 45//45
f 41//41 42//42 46//46
f 41//41 45//45 44//44
f 44//44 45//45 19//19
f 44//44 19//19 47//47
f 44//44 47//47 43//43
f 42//42 47//47 46//46
f 42//42 43//43 47//47
f 46//46 19//19 45//45
f 46//46 47//47 19//19
f 36//36 37//37 48//48
f 48//48 37//37 49//49
f 36//36 50//50 38//38
f 36//36 48//48 50//50
f 36//36 38//38 37//37
f 37//37 38//38 27//27
f 37//37 27//27 26//26
f 37//37 26//26 49//49
f 48//48 26//26 50//50
f 48//48 49//49 26//26
f 50//50 27//27 38//38
f 50//50 26//26 27//27
f 51//51 54//54 52//52
f 52//52 54//54 53//53
f 51//51 56//56 55//55
f 51//51 52//52 56//56
f 51//51 55//55 54//54
f 54//54 55//55 58//58
f 54//54 58//58 57//57
f 54//54 57//57 53//53
f 52//52 57//57 56//56
f 52//52 53//53 57//57
f 56//56 58//58 55//55
f 56//56 57//57 58//58
f 59//59 62//62 60//60
f 60//60 62//62 61//61
f 59//59 64//64 63//63
f 59//59 60//60 64//64
f 59//59 63//63 62//62
f 62//62 63//63 66//66
f 62//62 66//66 65//65
f 62//62 65//65 61//61
f 60//60 65//65 64//64
f 60//60 61//61 65//65
f 64//64 66//66 63//63
f 64//64 65//65 66//66

