# https://github.com/mikedh/trimesh
v 0.39865125 -0.14302307 -0.13421923
v -0.41668349 -0.14302307 -0.13426555
v 0.37317230 0.24092220 -0.13422134
v 0.24577651 0.27813588 -0.13422871
v 0.11837967 0.27597483 -0.13423502
v -0.00901612 0.24994325 -0.13424239
v -0.13641191 0.21799483 -0.13424871
v -0.26380875 0.19318956 -0.13425607
v 0.49098388 0.18108851 -0.13421502
v -0.50901612 0.17394535 -0.13426976
v 0.45596072 0.20037272 -0.13421607
v -0.46956138 0.17629483 -0.13426765
v -0.39120454 0.17919588 -0.13426344
v 0.49096599 0.18108851 0.19701445
v 0.39863335 -0.14302307 0.19701024
v -0.41670244 -0.14302307 0.19696498
v 0.45596072 0.20037272 -0.09599818
v 0.36949862 -0.05384622 -0.09600239
v -0.38769717 -0.05384622 -0.09604449
v -0.46956138 0.17629483 -0.09604871
v 0.45594177 0.20037272 0.19701340
v 0.36948072 -0.05384622 0.19700814
v -0.38771507 -0.05384622 0.19696603
v -0.46957928 0.17629483 0.19696182
v 0.37317230 0.24092220 -0.09600239
v 0.24577546 0.27813588 -0.09600976
v 0.11837967 0.27597483 -0.09601713
v -0.00901612 0.24994325 -0.09602344
v -0.13641191 0.21799483 -0.09603081
v -0.26380875 0.19318956 -0.09603818
v -0.39120454 0.17919588 -0.09604449
v -0.00867507 0.06444956 -0.13424239
v -0.50779823 0.17629483 0.19696182
v -0.00862875 0.06444956 -0.09602344
v -0.38697086 -0.05672201 0.18920077
v -0.39966244 -0.01213359 0.18920077
v -0.38696559 -0.05672201 -0.08781607
v -0.39965717 -0.01213359 -0.08781607
v -0.39823823 -0.00762833 0.18802708
v -0.39823296 -0.00762833 -0.08664134
v -0.38516138 -0.05672201 0.19357024
v -0.39779191 -0.01213359 0.19357024
v -0.38515612 -0.05672201 -0.09218555
v -0.39778559 -0.01213359 -0.09218555
v -0.39636770 -0.00762833 0.19239656
v -0.39636244 -0.00762833 -0.09101081
v -0.39480138 -0.00576307 0.18519235
v -0.39479612 -0.00576307 -0.08380660
v -0.38079191 -0.05672201 0.19537972
v -0.39327612 -0.01213359 0.19537972
v -0.39293191 -0.00576307 0.18956182
v -0.39292665 -0.00576307 -0.08817607
v -0.39185191 -0.00762833 0.19420603
v -0.38841612 -0.00576307 0.19137129
v -0.01957296 -0.00576307 0.19137761
v -0.01624875 -0.00762833 0.19421129
v -0.01520349 -0.00576307 0.18956814
v -0.01519928 -0.00576307 -0.08816976
v -0.01487086 -0.05672201 0.19538603
v -0.01487086 -0.01213359 0.19538603
v -0.01339401 -0.00576307 0.18519866
v -0.01187928 -0.00762833 0.19240182
v -0.01187401 -0.00762833 -0.09100449
v -0.01050244 -0.05672201 0.19357656
v -0.01050244 -0.01213359 0.19357656
v -0.01049717 -0.05672201 -0.09217818
v -0.01049717 -0.01213359 -0.09217818
v -0.01006875 -0.00762833 0.18803340
v -0.00869296 -0.05672201 0.18920708
v -0.00869296 -0.01213359 0.18920708
v -0.39185191 -0.00762833 -0.09281607
v -0.01624770 -0.00762833 -0.09281923
v -0.01957191 -0.00576307 -0.08998449
v -0.38841507 -0.00576307 -0.08998134
v -0.39327507 -0.01213359 -0.09398976
v -0.01487086 -0.01213359 -0.09399397
v -0.38079191 -0.05672201 -0.09398976
v -0.01487086 -0.05672201 -0.09399397
v -0.01339296 -0.00576307 -0.08380555
v -0.01006875 -0.00762833 -0.08664028
v -0.00869191 -0.01213359 -0.08781502
v -0.00869191 -0.05672201 -0.08781502
v -0.20424454 -0.00576307 0.06875024
v 0.37444914 -0.00762833 -0.09281818
v 0.37896914 -0.00762833 -0.09100344
v 0.38039335 -0.01213359 -0.09217713
v 0.37587230 -0.01213359 -0.09399292
v 0.36774177 -0.05672201 -0.09217713
v 0.36336809 -0.05672201 -0.09399292
v -0.00255296 -0.05672201 -0.09398871
v -0.00691717 -0.05672201 -0.09218449
v -0.00691717 -0.01213359 -0.09218449
v -0.00255296 -0.01213359 -0.09398871
v -0.00554033 -0.00762833 -0.09100976
v -0.00117507 -0.00762833 -0.09281502
v -0.00872665 -0.01213359 -0.08781502
v -0.00734980 -0.00762833 -0.08664028
v -0.00872665 -0.05672201 -0.08781502
v -0.00873191 -0.05672201 0.18920182
v -0.00692244 -0.05672201 0.19357129
v -0.00692244 -0.01213359 0.19357129
v -0.00873191 -0.01213359 0.18920182
v -0.00554559 -0.00762833 0.19239761
v -0.00735507 -0.00762833 0.18802814
v -0.00255296 -0.01213359 0.19538077
v -0.00117612 -0.00762833 0.19420708
v -0.00255296 -0.05672201 0.19538077
v 0.36336809 -0.05672201 0.19538708
v 0.36773651 -0.05672201 0.19357761
v 0.38038704 -0.01213359 0.19357761
v 0.37587125 -0.01213359 0.19538708
v 0.37896388 -0.00762833 0.19240287
v 0.37444809 -0.00762833 0.19421235
v 0.38225756 -0.01213359 0.18920814
v 0.38083441 -0.00762833 0.18803445
v 0.36954599 -0.05672201 0.18920814
v 0.36954704 -0.05672201 -0.08781397
v 0.38225862 -0.01213359 -0.08781397
v 0.38083546 -0.00762833 -0.08664028
v 0.37101230 -0.00576307 -0.08998344
v 0.37553335 -0.00576307 -0.08816871
v -0.00221507 -0.00576307 -0.08817502
v 0.00214914 -0.00576307 -0.08998028
v -0.00402559 -0.00576307 -0.08380555
v -0.00222033 -0.00576307 0.18956287
v -0.00402980 -0.00576307 0.18519340
v 0.00214914 -0.00576307 0.19137235
v 0.37552809 -0.00576307 0.18956919
v 0.37101230 -0.00576307 0.19137866
v 0.37739862 -0.00576307 0.18519972
v 0.37739862 -0.00576307 -0.08380449
v 0.17399441 -0.00576307 0.06875129
v 0.38591125 -0.14300412 -0.10049081
v 0.37954177 -0.23536622 -0.10686028
v 0.36680177 -0.23536622 -0.10686028
v 0.36043230 -0.14300412 -0.10049081
v 0.38591125 -0.14300412 -0.12596976
v 0.37954177 -0.23536622 -0.11960028
v 0.36680177 -0.23536622 -0.11960028
v 0.36043230 -0.14300412 -0.12596976
v -0.37846454 -0.14300412 -0.10049186
v -0.38483507 -0.23536622 -0.10686239
v -0.39757401 -0.23536622 -0.10686239
v -0.40394454 -0.14300412 -0.10049292
v -0.40394349 -0.14300412 -0.12597186
v -0.39757401 -0.23536622 -0.11960239
v -0.38483507 -0.23536622 -0.11960239
v -0.37846454 -0.14300412 -0.12597186
v 0.38591125 -0.14300412 0.18857129
v 0.37954072 -0.23536622 0.18220182
v 0.36680177 -0.23536622 0.18220182
v 0.36043125 -0.14300412 0.18857129
v 0.36043125 -0.14300412 0.16309235
v 0.36680177 -0.23536622 0.16946287
v 0.37954072 -0.23536622 0.16946287
v 0.38591125 -0.14300412 0.16309235
v -0.37846559 -0.14300412 0.18857024
v -0.38483507 -0.23536622 0.18219972
v -0.39757507 -0.23536622 0.18219972
v -0.40394454 -0.14300412 0.18857024
v -0.40394454 -0.14300412 0.16309024
v -0.39757507 -0.23536622 0.16946077
v -0.38483507 -0.23536622 0.16946077
v -0.37846559 -0.14300412 0.16309024
vn 0.48500787 -0.64243059 -0.59333828
vn -0.48287054 -0.64364423 -0.59376608
vn 0.26222313 0.67632501 -0.68834840
vn 0.09834846 0.73137707 -0.67484455
vn -0.07920817 0.72238367 -0.68694097
vn -0.15787106 0.69428030 -0.70217633
vn -0.15225944 0.68425575 -0.71316978
vn -0.10478727 0.68961221 -0.71655748
vn 0.74516007 0.31062888 -0.59012386
vn -0.67421395 0.47481269 -0.56567522
vn 0.32861934 0.63210740 -0.70174751
vn -0.03418288 0.70879146 -0.70458939
vn -0.05106955 0.69690076 -0.71534693
vn 0.74510060 0.31063624 0.59019507
vn 0.48494275 -0.64242882 0.59339342
vn -0.48376290 -0.64288089 0.59386666
vn 0.14325321 0.93005056 0.33835554
vn -0.46731414 0.65249213 0.59654967
vn 0.46230387 0.65517726 0.59750974
vn 0.22361442 0.94733490 0.22924482
vn -0.29735042 0.76694141 0.56866827
vn -0.29312421 0.40924296 0.86405926
vn 0.29194425 0.41376663 0.86230257
vn 0.46147506 0.65710891 0.59602739
vn 0.26215493 0.67633799 0.68836161
vn 0.09827777 0.73137784 0.67485401
vn -0.07928065 0.72238148 0.68693491
vn -0.15794373 0.69427235 0.70216784
vn -0.15233868 0.68424462 0.71316353
vn -0.10486654 0.68960850 0.71654946
vn -0.05114795 0.69690059 0.71534150
vn 0.00005523 0.00000000 -1.00000000
vn -0.65736927 0.50020056 0.56361781
vn -0.00005539 0.00000000 1.00000000
vn -0.94343602 -0.26853833 0.19446247
vn -0.97749215 0.03810473 0.20750210
vn -0.94351063 -0.26794516 -0.19491816
vn -0.97743211 0.03788020 -0.20782580
vn -0.74423719 0.65097947 0.14945483
vn -0.74421629 0.65099115 -0.14950797
vn -0.65822813 -0.18700453 0.72922222
vn -0.71572008 0.08574765 0.69310325
vn -0.65815391 -0.18571513 -0.72961862
vn -0.71550826 0.08519525 -0.69339001
vn -0.52326879 0.65888762 0.54042287
vn -0.52317171 0.65883761 -0.54057782
vn -0.25206857 0.96711504 0.03391060
vn -0.25206357 0.96711567 -0.03392988
vn -0.16153742 -0.04571970 0.98580696
vn -0.21717009 0.12225238 0.96844799
vn -0.16507074 0.96941032 0.18164601
vn -0.16504470 0.96939761 -0.18173753
vn -0.14679235 0.61958178 0.77108393
vn -0.02971123 0.95639417 0.29056399
vn 0.03141349 0.95623287 0.29091562
vn 0.15149537 0.61835005 0.77116300
vn 0.17105081 0.96859879 0.18043839
vn 0.17108398 0.96862831 -0.18024838
vn 0.19508366 -0.00000032 0.98078661
vn 0.20551632 0.15232197 0.96672698
vn 0.25865866 0.96539795 0.03320378
vn 0.53279086 0.65470919 0.53618073
vn 0.53315154 0.65468531 -0.53585127
vn 0.70713693 0.00000000 0.70707663
vn 0.69742108 0.18129919 0.69335016
vn 0.70750097 0.00000000 -0.70671237
vn 0.69780030 0.18128209 -0.69297298
vn 0.75106605 0.64368096 0.14688295
vn 0.98079295 0.00000000 0.19505177
vn 0.96516214 0.16609395 0.20217530
vn -0.14662216 0.61958247 -0.77111575
vn 0.15174535 0.61837359 -0.77109497
vn 0.03147811 0.95625560 -0.29083390
vn -0.02966034 0.95638641 -0.29059474
vn -0.21705803 0.12190835 -0.96851648
vn 0.20585362 0.15228000 -0.96666183
vn -0.16167668 -0.04526589 -0.98580508
vn 0.19542138 0.00000000 -0.98071937
vn 0.25871647 0.96538384 -0.03316374
vn 0.75108746 0.64370282 -0.14667753
vn 0.96518272 0.16618858 -0.20199918
vn 0.98082741 0.00000000 -0.19487839
vn 0.00000000 1.00000000 0.00000000
vn 0.14703130 0.61964243 -0.77098966
vn 0.52354616 0.65892460 -0.54010905
vn 0.71613496 0.08552656 -0.69270190
vn 0.21754544 0.12219550 -0.96837092
vn 0.65856637 -0.18740190 -0.72881470
vn 0.16178250 -0.04586543 -0.98576000
vn -0.19479976 0.00000000 -0.98084303
vn -0.70691051 0.00000000 -0.70730299
vn -0.69723740 0.18128671 -0.69353813
vn -0.20522466 0.15224119 -0.96680166
vn -0.53270135 0.65464974 -0.53634223
vn -0.15128617 0.61832197 -0.77122657
vn -0.96513886 0.16620274 -0.20219700
vn -0.75104907 0.64371333 -0.14682796
vn -0.98078817 0.00000000 -0.19507580
vn -0.98079518 0.00000000 0.19504053
vn -0.70710678 0.00000000 0.70710678
vn -0.69742795 0.18126766 0.69335149
vn -0.96514950 0.16618851 0.20215794
vn -0.53286618 0.65465801 0.53616837
vn -0.75103457 0.64373629 0.14680141
vn -0.20549483 0.15221099 0.96674903
vn -0.15152044 0.61830827 0.77119157
vn -0.19505832 0.00000000 0.98079164
vn 0.16186705 -0.04538989 0.98576813
vn 0.65832230 -0.18606637 0.72937717
vn 0.71575402 0.08501414 0.69315855
vn 0.21735852 0.12188664 0.96845182
vn 0.52329114 0.65888020 0.54041028
vn 0.14680044 0.61961296 0.77105733
vn 0.97747105 0.03756294 0.20770021
vn 0.74430475 0.65088960 0.14950977
vn 0.94340417 -0.26834841 0.19487867
vn 0.94335894 -0.26893934 -0.19428214
vn 0.97755523 0.03779133 -0.20726212
vn 0.74430988 0.65092723 -0.14932026
vn 0.02974872 0.95639381 -0.29056133
vn 0.16518833 0.96941813 -0.18149742
vn -0.17092764 0.96860926 -0.18049888
vn -0.03137890 0.95625106 -0.29085955
vn -0.25871405 0.96538298 -0.03320762
vn -0.17100152 0.96861763 0.18038393
vn -0.25865808 0.96539872 0.03318606
vn -0.03141036 0.95626082 0.29082404
vn 0.16507751 0.96940004 0.18169475
vn 0.02970726 0.95636710 0.29065348
vn 0.25212749 0.96709858 0.03394207
vn 0.25206519 0.96711669 -0.03388887
vn 0.00000000 1.00000000 0.00000000
vn 0.59458224 0.54124119 0.59458383
vn 0.55847037 -0.61337007 0.55846935
vn -0.55847037 -0.61337007 0.55846935
vn -0.59458224 0.54124119 0.59458383
vn 0.59458353 0.54124142 -0.59458234
vn 0.55847271 -0.61337015 -0.55846691
vn -0.55846837 -0.61336967 -0.55847178
vn -0.59458135 0.54124097 -0.59458492
vn 0.59458481 0.54123773 0.59458441
vn 0.55846463 -0.61337243 0.55847249
vn -0.55846873 -0.61337336 0.55846737
vn -0.59459817 0.54123758 0.59457119
vn -0.59456973 0.54124340 -0.59459433
vn -0.55846709 -0.61337230 -0.55847016
vn 0.55846674 -0.61337294 -0.55846981
vn 0.59458571 0.54123837 -0.59458293
vn 0.59458596 0.54123913 0.59458199
vn 0.55846674 -0.61337202 0.55847084
vn -0.55846674 -0.61337202 0.55847084
vn -0.59458596 0.54123913 0.59458199
vn -0.59458533 0.54123615 -0.59458533
vn -0.55846709 -0.61337511 -0.55846709
vn 0.55846709 -0.61337511 -0.55846709
vn 0.59458533 0.54123615 -0.59458533
vn 0.59458199 0.54123913 0.59458596
vn 0.55847084 -0.61337202 0.55846674
vn -0.55847084 -0.61337202 0.55846674
vn -0.59458199 0.54123913 0.59458596
vn -0.59458199 0.54123913 -0.59458596
vn -0.55847084 -0.61337202 -0.55846674
vn 0.55847084 -0.61337202 -0.55846674
vn 0.59458199 0.54123913 -0.59458596
f 14//14 15//15 1//1
f 9//9 14//14 1//1
f 15//15 16//16 2//2
f 1//1 15//15 2//2
f 22//22 21//21 17//17
f 18//18 22//22 17//17
f 23//23 22//22 18//18
f 19//19 23//23 18//18
f 24//24 23//23 19//19
f 20//20 24//24 19//19
f 25//25 17//17 11//11
f 3//3 25//25 11//11
f 26//26 25//25 3//3
f 4//4 26//26 3//3
f 27//27 26//26 4//4
f 5//5 27//27 4//4
f 28//28 27//27 5//5
f 6//6 28//28 5//5
f 29//29 28//28 6//6
f 7//7 29//29 6//6
f 30//30 29//29 7//7
f 8//8 30//30 7//7
f 31//31 30//30 8//8
f 13//13 31//31 8//8
f 20//20 31//31 13//13
f 12//12 20//20 13//13
f 32//32 10//10 12//12
f 32//32 12//12 13//13
f 32//32 13//13 8//8
f 32//32 8//8 7//7
f 32//32 7//7 6//6
f 32//32 6//6 5//5
f 32//32 5//5 4//4
f 32//32 4//4 3//3
f 32//32 3//3 11//11
f 32//32 11//11 9//9
f 32//32 9//9 1//1
f 32//32 1//1 2//2
f 32//32 2//2 10//10
f 33//33 16//16 23//23
f 24//24 33//33 23//23
f 10//10 2//2 16//16
f 33//33 10//10 16//16
f 22//22 15//15 14//14
f 21//21 22//22 14//14
f 23//23 16//16 15//15
f 22//22 23//23 15//15
f 34//34 20//20 19//19
f 34//34 19//19 18//18
f 34//34 18//18 17//17
f 34//34 17//17 25//25
f 34//34 25//25 26//26
f 34//34 26//26 27//27
f 34//34 27//27 28//28
f 34//34 28//28 29//29
f 34//34 29//29 30//30
f 34//34 30//30 31//31
f 34//34 31//31 20//20
f 20//20 12//12 10//10
f 10//10 33//33 24//24
f 20//20 10//10 24//24
f 17//17 9//9 11//11
f 9//9 17//17 21//21
f 14//14 9//9 21//21
f 63//63 67//67 76//76
f 72//72 63//63 76//76
f 67//67 66//66 78//78
f 76//76 67//67 78//78
f 43//43 44//44 75//75
f 77//77 43//43 75//75
f 46//46 71//71 75//75
f 44//44 46//46 75//75
f 40//40 46//46 44//44
f 38//38 40//40 44//44
f 44//44 43//43 37//37
f 38//38 44//44 37//37
f 41//41 42//42 36//36
f 35//35 41//41 36//36
f 45//45 39//39 36//36
f 42//42 45//45 36//36
f 53//53 45//45 42//42
f 50//50 53//53 42//42
f 42//42 41//41 49//49
f 50//50 42//42 49//49
f 64//64 65//65 60//60
f 59//59 64//64 60//60
f 62//62 56//56 60//60
f 65//65 62//62 60//60
f 68//68 62//62 65//65
f 70//70 68//68 65//65
f 65//65 64//64 69//69
f 70//70 65//65 69//69
f 66//66 67//67 81//81
f 82//82 66//66 81//81
f 80//80 81//81 67//67
f 63//63 80//80 67//67
f 58//58 63//63 72//72
f 73//73 58//58 72//72
f 52//52 74//74 71//71
f 46//46 52//52 71//71
f 48//48 52//52 46//46
f 40//40 48//48 46//46
f 51//51 47//47 39//39
f 45//45 51//51 39//39
f 54//54 51//51 45//45
f 53//53 54//54 45//45
f 57//57 55//55 56//56
f 62//62 57//57 56//56
f 61//61 57//57 62//62
f 68//68 61//61 62//62
f 79//79 80//80 63//63
f 58//58 79//79 63//63
f 56//56 55//55 54//54
f 53//53 56//56 54//54
f 60//60 56//56 53//53
f 50//50 60//60 53//53
f 59//59 60//60 50//50
f 49//49 59//59 50//50
f 73//73 72//72 71//71
f 74//74 73//73 71//71
f 72//72 76//76 75//75
f 71//71 72//72 75//75
f 76//76 78//78 77//77
f 75//75 76//76 77//77
f 48//48 40//40 39//39
f 47//47 48//48 39//39
f 40//40 38//38 36//36
f 39//39 40//40 36//36
f 38//38 37//37 35//35
f 36//36 38//38 35//35
f 80//80 79//79 61//61
f 68//68 80//80 61//61
f 81//81 80//80 68//68
f 70//70 81//81 68//68
f 82//82 81//81 70//70
f 69//69 82//82 70//70
f 83//83 55//55 57//57
f 83//83 57//57 61//61
f 83//83 61//61 79//79
f 83//83 79//79 58//58
f 83//83 58//58 73//73
f 83//83 73//73 74//74
f 83//83 74//74 52//52
f 83//83 52//52 48//48
f 83//83 48//48 47//47
f 83//83 47//47 51//51
f 83//83 51//51 54//54
f 83//83 54//54 55//55
f 85//85 86//86 87//87
f 84//84 85//85 87//87
f 86//86 88//88 89//89
f 87//87 86//86 89//89
f 91//91 92//92 93//93
f 90//90 91//91 93//93
f 94//94 95//95 93//93
f 92//92 94//94 93//93
f 97//97 94//94 92//92
f 96//96 97//97 92//92
f 92//92 91//91 98//98
f 96//96 92//92 98//98
f 100//100 101//101 102//102
f 99//99 100//100 102//102
f 103//103 104//104 102//102
f 101//101 103//103 102//102
f 106//106 103//103 101//101
f 105//105 106//106 101//101
f 101//101 100//100 107//107
f 105//105 101//101 107//107
f 109//109 110//110 111//111
f 108//108 109//109 111//111
f 112//112 113//113 111//111
f 110//110 112//112 111//111
f 115//115 112//112 110//110
f 114//114 115//115 110//110
f 110//110 109//109 116//116
f 114//114 110//110 116//116
f 88//88 86//86 118//118
f 117//117 88//88 118//118
f 119//119 118//118 86//86
f 85//85 119//119 86//86
f 121//121 85//85 84//84
f 120//120 121//121 84//84
f 122//122 123//123 95//95
f 94//94 122//122 95//95
f 124//124 122//122 94//94
f 97//97 124//124 94//94
f 125//125 126//126 104//104
f 103//103 125//125 104//104
f 127//127 125//125 103//103
f 106//106 127//127 103//103
f 128//128 129//129 113//113
f 112//112 128//128 113//113
f 130//130 128//128 112//112
f 115//115 130//130 112//112
f 131//131 119//119 85//85
f 121//121 131//131 85//85
f 113//113 129//129 127//127
f 106//106 113//113 127//127
f 111//111 113//113 106//106
f 105//105 111//111 106//106
f 108//108 111//111 105//105
f 107//107 108//108 105//105
f 120//120 84//84 95//95
f 123//123 120//120 95//95
f 84//84 87//87 93//93
f 95//95 84//84 93//93
f 87//87 89//89 90//90
f 93//93 87//87 90//90
f 124//124 97//97 104//104
f 126//126 124//124 104//104
f 97//97 96//96 102//102
f 104//104 97//97 102//102
f 96//96 98//98 99//99
f 102//102 96//96 99//99
f 119//119 131//131 130//130
f 115//115 119//119 130//130
f 118//118 119//119 115//115
f 114//114 118//118 115//115
f 117//117 118//118 114//114
f 116//116 117//117 114//114
f 132//132 129//129 128//128
f 132//132 128//128 130//130
f 132//132 130//130 131//131
f 132//132 131//131 121//121
f 132//132 121//121 120//120
f 132//132 120//120 123//123
f 132//132 123//123 122//122
f 132//132 122//122 124//124
f 132//132 124//124 126//126
f 132//132 126//126 125//125
f 132//132 125//125 127//127
f 132//132 127//127 129//129
f 135//135 134//134 133//133
f 136//136 135//135 133//133
f 138//138 139//139 140//140
f 137//137 138//138 140//140
f 139//139 135//135 136//136
f 140//140 139//139 136//136
f 136//136 133//133 137//137
f 140//140 136//136 137//137
f 134//134 138//138 137//137
f 133//133 134//134 137//137
f 139//139 138//138 134//134
f 135//135 139//139 134//134
f 143//143 142//142 141//141
f 144//144 143//143 141//141
f 147//147 146//146 145//145
f 148//148 147//147 145//145
f 146//146 143//143 144//144
f 145//145 146//146 144//144
f 144//144 141//141 148//148
f 145//145 144//144 148//148
f 142//142 147//147 148//148
f 141//141 142//142 148//148
f 146//146 147//147 142//142
f 143//143 146//146 142//142
f 151//151 150//150 149//149
f 152//152 151//151 149//149
f 155//155 154//154 153//153
f 156//156 155//155 153//153
f 154//154 151//151 152//152
f 153//153 154//154 152//152
f 152//152 149//149 156//156
f 153//153 152//152 156//156
f 150//150 155//155 156//156
f 149//149 150//150 156//156
f 154//154 155//155 150//150
f 151//151 154//154 150//150
f 159//159 158//158 157//157
f 160//160 159//159 157//157
f 163//163 162//162 161//161
f 164//164 163//163 161//161
f 162//162 159//159 160//160
f 161//161 162//162 160//160
f 160//160 157//157 164//164
f 161//161 160//160 164//164
f 158//158 163//163 164//164
f 157//157 158//158 164//164
f 162//162 163//163 158//158
f 159//159 162//162 158//158

