# https://github.com/mikedh/trimesh
v 0.50000000 -0.24921154 0.29976991
v -0.50000000 -0.24921154 0.29976991
v -0.42800000 -0.09921154 0.29976991
v 0.42800000 -0.09921154 0.29976991
v 0.42800000 0.07578846 0.29976991
v 0.50000000 0.07578846 0.29976991
v -0.42800000 0.07578846 0.29976991
v -0.50000000 0.07578846 0.29976991
v 0.50000000 -0.24921154 -0.20023009
v 0.50000000 0.07578846 -0.09717430
v 0.50000000 0.25078846 -0.13961851
v 0.50000000 0.25078846 -0.20023009
v -0.50000000 -0.24921154 -0.20023009
v -0.50000000 0.07578846 -0.09717430
v -0.50000000 0.25078846 -0.13961851
v -0.50000000 0.25078846 -0.20023009
v -0.17000000 -0.09921154 0.29976991
v -0.17000000 0.00078846 0.29976991
v -0.42800000 0.00078846 0.29976991
v -0.42800000 0.00078846 -0.07900798
v -0.17000000 0.00078846 -0.07900798
v 0.42800000 0.07578846 -0.09717430
v -0.42800000 0.07578846 -0.09717430
v 0.42800000 0.00078846 -0.07900798
v 0.17000000 -0.09921154 0.29976991
v 0.17000000 0.00078846 0.29976991
v 0.17000000 0.00078846 -0.07900798
v 0.42800000 0.00078846 0.29976991
vn 0.70710678 0.00000000 0.70710678
vn -0.70710678 0.00000000 0.70710678
vn 0.00000000 0.00000000 1.00000000
vn 0.00000000 0.00000000 1.00000000
vn -0.57735027 0.57735027 0.57735027
vn 0.57735027 0.57735027 0.57735027
vn 0.57735027 0.57735027 0.57735027
vn -0.57735027 0.57735027 0.57735027
vn 0.70710678 0.00000000 -0.70710678
vn 0.87551572 0.37980471 0.29869819
vn 0.59090546 0.63412776 0.49871106
vn 0.57735027 0.57735027 -0.57735027
vn -0.70710678 0.00000000 -0.70710678
vn -0.87551572 0.37980471 0.29869819
vn -0.59090546 0.63412776 0.49871106
vn -0.57735027 0.57735027 -0.57735027
vn 0.00000000 0.00000000 1.00000000
vn 0.00000000 0.70710678 0.70710678
vn 0.57735027 0.57735027 0.57735027
vn 0.59088677 0.63406238 0.49881632
vn 0.00000000 1.00000000 0.00000000
vn -0.24364629 0.48999029 0.83698626
vn 0.24364629 0.48999029 0.83698626
vn -0.59088677 0.63406238 0.49881632
vn 0.00000000 0.00000000 1.00000000
vn 0.00000000 0.70710678 0.70710678
vn 0.00000000 1.00000000 0.00000000
vn -0.57735027 0.57735027 0.57735027
f 3//3 2//2 1//1
f 4//4 3//3 1//1
f 1//1 6//6 5//5
f 4//4 1//1 5//5
f 2//2 3//3 7//7
f 2//2 7//7 8//8
f 6//6 1//1 9//9
f 6//6 9//9 10//10
f 11//11 10//10 9//9
f 12//12 11//11 9//9
f 13//13 14//14 15//15
f 13//13 15//15 16//16
f 13//13 2//2 8//8
f 14//14 13//13 8//8
f 3//3 17//17 18//18
f 3//3 18//18 19//19
f 20//20 19//19 18//18
f 21//21 20//20 18//18
f 15//15 11//11 12//12
f 15//15 12//12 16//16
f 22//22 11//11 15//15
f 23//23 22//22 15//15
f 22//22 23//23 20//20
f 22//22 20//20 24//24
f 22//22 10//10 11//11
f 14//14 23//23 15//15
f 17//17 25//25 26//26
f 17//17 26//26 18//18
f 21//21 18//18 26//26
f 27//27 21//21 26//26
f 25//25 4//4 28//28
f 25//25 28//28 26//26
f 27//27 26//26 28//28
f 24//24 27//27 28//28
f 19//19 20//20 23//23
f 19//19 23//23 7//7
f 8//8 7//7 23//23
f 14//14 8//8 23//23
f 22//22 24//24 28//28
f 5//5 22//22 28//28
f 22//22 5//5 6//6
f 22//22 6//6 10//10
f 12//12 9//9 13//13
f 16//16 12//12 13//13

