# https://github.com/mikedh/trimesh
v -0.21097499 -0.27679243 0.02639748
v -0.21349710 -0.27561559 0.01775327
v -0.21772131 -0.27275138 0.01034485
v -0.22322868 -0.26848296 0.00491643
v -0.22949710 -0.26321664 0.00198380
v -0.23589710 -0.25747980 0.00183433
v -0.24180657 -0.25182927 0.00449012
v -0.24665289 -0.24681559 0.00968485
v -0.24994973 -0.24293980 0.01690485
v -0.25138236 -0.24057138 0.02546485
v -0.25081289 -0.23994296 0.03450590
v -0.24829078 -0.24112085 0.04315012
v -0.24406657 -0.24398506 0.05055854
v -0.23855815 -0.24825348 0.05598590
v -0.23229078 -0.25351980 0.05891854
v -0.22589078 -0.25925664 0.05906801
v -0.21998131 -0.26490612 0.05641327
v -0.21513394 -0.26991980 0.05121854
v -0.21183815 -0.27379559 0.04399854
v -0.21040552 -0.27616401 0.03543854
v 0.65626922 0.72320757 -0.08702883
v -0.05064973 -0.01045769 0.00843433
v -0.00901920 -0.06923454 -0.00074146
v -0.03707078 -0.08342190 0.01111959
v -0.03868447 -0.08125454 0.01970485
v -0.04161920 -0.07697664 0.02687433
v -0.04610447 -0.07156085 0.03201854
v -0.05156236 -0.06540822 0.03460906
v -0.05687710 -0.05846506 0.03430801
v -0.06242131 -0.05239348 0.03127433
v -0.06693499 -0.04701980 0.02570590
v -0.07052657 -0.04345138 0.01820906
v -0.07304762 -0.04227454 0.00956485
v -0.07416026 -0.04350612 0.00059959
v -0.07318026 -0.04637664 -0.00789620
v -0.07069710 -0.05115769 -0.01500252
v -0.06612131 -0.05647348 -0.02015936
v -0.06093499 -0.06292717 -0.02271304
v -0.05598236 -0.07027243 -0.02236041
v -0.04998552 -0.07584085 -0.01938988
v -0.04502026 -0.08071243 -0.01388567
v -0.04151920 -0.08438085 -0.00637515
v -0.03818341 -0.08465348 0.00215433
v -0.06478236 -0.05775348 -0.02075831
v -0.07336762 -0.04480822 -0.00406567
v -0.07285815 -0.04222085 0.00988485
v -0.06998762 -0.04381559 0.01916590
v -0.06560447 -0.04822085 0.02711854
v -0.05696657 -0.05838927 0.03426696
v -0.04356657 -0.07418506 0.02930801
v -0.03704657 -0.08338927 0.00719012
v -0.03727394 -0.08364401 0.00500801
v -0.05924341 -0.06480822 -0.02265410
v -0.04664026 -0.07706506 -0.01688357
v -0.04256447 -0.01425138 0.00691854
v -0.03418026 -0.01832085 0.00534064
v -0.03184973 -0.02047664 0.00486906
v -0.01139815 -0.04860717 0.00038275
v -0.02874236 -0.02335033 0.00423433
v -0.03075289 -0.01910296 0.00903012
v -0.01280341 -0.04574190 0.02761748
v -0.00978131 -0.04963875 0.00373643
v -0.01998762 -0.04313664 -0.01747831
v -0.03774026 -0.02828296 -0.02628252
v -0.05550657 -0.01311769 -0.01818883
v -0.06565078 -0.00501348 0.00281643
v -0.06126447 -0.00594190 0.02672801
v -0.04652447 -0.01719454 0.04260590
v -0.02715289 -0.03274717 0.04286906
v -0.01196552 -0.08476296 0.04420696
v -0.00626657 -0.09177980 0.00013117
v -0.02416026 -0.07880190 -0.03908041
v -0.05784552 -0.05236401 -0.05510041
v -0.09112236 -0.02425769 -0.04044041
v -0.10798026 -0.00769875 -0.00173304
v -0.10131289 -0.01066401 0.04264485
v -0.07380657 -0.03151033 0.07202169
v -0.03836552 -0.06074190 0.07259327
v -0.02660868 -0.12858822 0.05632906
v -0.01932447 -0.13783454 -0.00138252
v -0.04314341 -0.12124085 -0.05272462
v -0.08685604 -0.08638822 -0.07351936
v -0.13018026 -0.04957243 -0.05417515
v -0.15263499 -0.02815559 -0.00377199
v -0.14376762 -0.03212717 0.05412380
v -0.10788762 -0.05937348 0.09246485
v -0.06160447 -0.09756085 0.09351959
v -0.08663499 -0.12906612 0.10016485
v -0.12777499 -0.08031559 0.09735748
v -0.15727815 -0.04431033 0.05610801
v -0.16777183 -0.04168296 -0.00367094
v -0.15242131 -0.07111348 -0.05626988
v -0.09948657 -0.14317454 -0.06835094
v -0.11354657 -0.11718927 -0.07748462
v -0.11231604 -0.11246822 -0.07637199
v -0.14891604 -0.06521348 -0.05286146
v -0.16456026 -0.03913664 -0.00131936
v -0.15625289 -0.04297664 0.05508485
v -0.12530657 -0.07361559 0.09388696
v -0.08480868 -0.12040717 0.09893327
v -0.04374973 -0.17461559 0.00121117
v -0.05115183 -0.16058190 0.06257854
v -0.04480552 -0.17673980 0.00010485
v -0.10383394 -0.12605033 -0.07266778
v -0.06898552 -0.15720717 -0.05522778
v -0.03140868 -0.12898401 0.00298801
v -0.03792657 -0.12089664 0.05116590
v -0.06680657 -0.09284612 0.08217748
v -0.10452762 -0.05852401 0.08098169
v -0.13334657 -0.03355875 0.04871538
v -0.13989710 -0.02994717 0.00011538
v -0.12091710 -0.04920085 -0.04190988
v -0.08556447 -0.08228506 -0.05797304
v -0.05007815 -0.11395769 -0.04006883
v -0.03647078 -0.08429033 0.00706169
v -0.03998552 -0.07987243 0.03302169
v -0.05563604 -0.06478085 0.04980590
v -0.07607394 -0.04610506 0.04923538
v -0.09169499 -0.03260506 0.03181012
v -0.09518236 -0.03058717 0.00550275
v -0.08492868 -0.04103454 -0.01730673
v -0.06571920 -0.05902612 -0.02588778
v -0.07148973 -0.16067454 -0.05548778
v -0.04526341 -0.17724190 0.00013643
v -0.04811394 -0.17078085 0.03103012
v -0.05112868 -0.16429033 0.06098275
v -0.05197394 -0.16339559 0.06204380
v -0.08155920 -0.15800296 -0.05954778
v -0.08119710 -0.15760085 -0.05959831
v -0.04518026 -0.17740506 -0.00056462
v -0.07154026 -0.16066506 -0.05577410
v -0.07851499 -0.15481138 -0.05909515
v -0.09215394 -0.06351454 0.00312485
v -0.07940447 -0.04933769 0.00133538
v -0.07666447 -0.04629664 0.01007222
v -0.09330236 -0.06479664 0.01240696
v -0.07655604 -0.04805664 0.01433854
v -0.07637289 -0.04728612 0.01303117
v -0.08826552 -0.06229243 0.01871748
v -0.08859604 -0.06256822 0.01853117
v -0.09121394 -0.06419664 0.01604485
v -0.09315183 -0.06486717 0.01291012
v -0.09367394 -0.06520190 0.00944801
v -0.09325815 -0.06472717 0.00599538
v -0.09192868 -0.06338085 0.00288275
v -0.08957710 -0.06176927 0.00042590
v -0.08684762 -0.05928612 -0.00115515
v -0.08419078 -0.05642190 -0.00167831
v -0.08182762 -0.05333769 -0.00110988
v -0.07988868 -0.05029138 0.00050485
v -0.07821394 -0.04800085 0.00297012
v -0.07659920 -0.04623559 0.00956064
v -0.07699710 -0.04668085 0.00610380
v -0.08626973 -0.05987243 0.02012696
v -0.08380131 -0.05688190 0.02070380
v -0.08131394 -0.05386822 0.02015538
v -0.07897289 -0.05103454 0.01859433
v -0.07722447 -0.04888401 0.01611222
v -0.08096973 -0.04267033 0.00957643
v -0.08134657 -0.04313454 0.00611854
v -0.08249815 -0.04451033 0.00300064
v -0.08428341 -0.04670717 0.00049959
v -0.08638026 -0.04943033 -0.00113725
v -0.08895815 -0.05250296 -0.00169725
v -0.09154552 -0.05542506 -0.00112883
v -0.09377183 -0.05817769 0.00044380
v -0.09547604 -0.06055664 0.00288169
v -0.09673078 -0.06178506 0.00601538
v -0.09707710 -0.06250822 0.00944801
v -0.09661078 -0.06194296 0.01288906
v -0.09545815 -0.06056717 0.01601433
v -0.09367289 -0.05837138 0.01851538
v -0.09158131 -0.05564717 0.02012380
v -0.08900341 -0.05257454 0.02068380
v -0.08660973 -0.04946927 0.02018485
v -0.08438341 -0.04671559 0.01861117
v -0.08248026 -0.04452085 0.01613327
v -0.08122552 -0.04329243 0.01299959
vn 0.08596858 -0.99523892 -0.04592267
vn 0.02529127 -0.96671676 -0.25459587
vn -0.07883674 -0.89502746 -0.43898817
vn -0.22213590 -0.78261844 -0.58151871
vn -0.39358132 -0.63754514 -0.66229143
vn -0.57470969 -0.47454247 -0.66672199
vn -0.74249200 -0.31479991 -0.59127544
vn -0.87592322 -0.17792311 -0.44844384
vn -0.96275310 -0.07741702 -0.25906193
vn -0.99874334 -0.01949397 -0.04617064
vn -0.98507446 -0.00454374 0.17206878
vn -0.92412023 -0.03275713 0.38069513
vn -0.81868139 -0.10302824 0.56493005
vn -0.67387400 -0.21381419 0.70723215
vn -0.50136966 -0.35762261 0.78786708
vn -0.31964060 -0.51986126 0.79219578
vn -0.15249153 -0.68033787 0.71685892
vn -0.02014467 -0.81849575 0.57415929
vn 0.06519522 -0.92061475 0.38499100
vn 0.09991839 -0.97996876 0.17227173
vn 0.00000000 0.00000000 0.00000000
vn 0.97993370 -0.10255120 -0.17091867
vn 0.93086563 0.11079250 -0.34815831
vn -0.27657182 -0.95928340 0.05730089
vn 0.95133032 -0.06149186 0.30197578
vn 0.87962269 0.05144646 0.47288178
vn -0.37480806 -0.73659525 0.56297989
vn 0.55089474 0.33095584 0.76614830
vn 0.49393571 0.66356445 0.56188054
vn -0.81807480 -0.31460386 0.48143332
vn -0.87319392 -0.29204041 0.39018556
vn -0.91442706 -0.26134145 0.30906923
vn -0.42276265 0.90613035 0.01412586
vn -0.24221578 0.94970672 -0.19846578
vn -0.11567284 0.87490101 -0.47028504
vn -0.07110078 0.75197678 -0.65534388
vn 0.10632576 0.64277978 -0.75863627
vn 0.31684217 0.42284757 -0.84900587
vn 0.35888364 0.06486843 -0.93112546
vn 0.49902793 -0.08471043 -0.86243566
vn 0.75118672 -0.26425506 -0.60488658
vn 0.84567141 -0.30763843 -0.43611750
vn -0.28306668 -0.92091222 0.26794390
vn -0.73363292 -0.46648561 -0.49413958
vn -0.98080855 -0.18717584 -0.05458745
vn -0.94384026 -0.20391680 0.25996826
vn -0.90339081 -0.23399725 0.35934708
vn -0.83627701 -0.28000650 0.47142033
vn -0.75798930 -0.31744539 0.56980755
vn -0.27906147 -0.77709481 0.56413504
vn -0.10056352 -0.99354757 0.05244245
vn -0.24229035 -0.90744514 0.34327641
vn -0.78028666 -0.51017913 -0.36175956
vn -0.49455261 -0.83418107 -0.24404847
vn 0.15271975 0.65061234 -0.74389533
vn 0.49830487 0.82791615 -0.25738514
vn 0.60502653 0.71203699 -0.35629513
vn 0.80355144 0.25046430 0.53997474
vn 0.69569653 0.65263006 -0.30013388
vn 0.63098714 0.77305551 -0.06511846
vn 0.90181085 0.35540960 0.24580727
vn 0.94374276 0.30556222 -0.12641727
vn 0.79534332 0.40874200 -0.44761478
vn 0.53307868 0.62217896 -0.57334149
vn 0.26051320 0.85697488 -0.44466496
vn 0.12579465 0.98109279 -0.14708037
vn 0.19059924 0.95852114 0.21191778
vn 0.40222089 0.78857462 0.46515420
vn 0.68482813 0.55343842 0.47404257
vn 0.91136020 -0.02145489 0.41105021
vn 0.98240598 -0.11057217 -0.15050678
vn 0.75267833 0.05965081 -0.65568065
vn 0.34069896 0.39217236 -0.85447356
vn -0.05255773 0.74321112 -0.66698944
vn -0.25090217 0.94988033 -0.18648181
vn -0.17599425 0.90957771 0.37642318
vn 0.15365232 0.64227723 0.75091340
vn 0.58264105 0.27492923 0.76481588
vn 0.81286901 -0.31265576 0.49141668
vn 0.89464346 -0.41613465 -0.16261931
vn 0.63014855 -0.22247616 -0.74392013
vn 0.15999799 0.16983090 -0.97239812
vn -0.29859123 0.57782561 -0.75957938
vn -0.54223229 0.81683682 -0.19688004
vn -0.44538300 0.77102754 0.45513791
vn -0.06199514 0.45862629 0.88646406
vn 0.43131097 0.03282975 0.90160582
vn -0.71447810 -0.47685153 0.51198991
vn -0.91315908 -0.30095190 0.27489716
vn -0.92640650 -0.17889106 -0.33131404
vn -0.89403898 -0.29580237 0.33644503
vn -0.96339038 -0.26323230 -0.05086969
vn -0.87908568 -0.40989093 -0.24330596
vn -0.83507600 -0.40473804 -0.37260594
vn -0.97286810 0.12376865 -0.19547117
vn -0.92295640 0.10502351 0.37029927
vn 0.46960019 -0.87144176 0.14165066
vn 0.42351597 -0.81261738 -0.40035887
vn 0.04618127 -0.53600010 -0.84295384
vn -0.41741086 -0.11123104 -0.90188460
vn -0.93603922 0.33833122 0.09676039
vn -0.51684796 -0.22668340 0.82551973
vn -0.82685749 0.54039581 0.15581737
vn -0.41594072 0.03900546 0.90855484
vn -0.64242117 0.21922143 0.73432758
vn -0.98606335 0.09189678 0.13868688
vn -0.91309768 0.00717430 -0.40767777
vn -0.60190224 -0.28487264 -0.74603034
vn -0.20841149 -0.64898593 -0.73169796
vn 0.09854165 -0.92485560 -0.36733044
vn 0.17556868 -0.96621582 0.18868658
vn -0.02180045 -0.75470878 0.65569764
vn -0.39120310 -0.40252732 0.82760612
vn -0.77442809 -0.07005732 0.62877111
vn -0.94943869 -0.29897430 0.09581511
vn -0.90336714 -0.35525203 -0.24025778
vn -0.70806301 -0.53927775 -0.45587968
vn -0.45987104 -0.76679798 -0.44781634
vn -0.26523329 -0.93943654 -0.21704904
vn -0.21766241 -0.96651823 0.13588816
vn -0.34223364 -0.83402838 0.43275028
vn -0.57581881 -0.61385350 0.54001535
vn -0.79841330 -0.35974449 0.48282513
vn -0.13086674 -0.34682181 0.92875644
vn -0.38679550 -0.91933781 0.07216119
vn 0.14317655 -0.87851014 0.45576354
vn -0.58510034 -0.31112428 0.74890539
vn -0.22034903 -0.96126779 0.16556127
vn 0.55982441 -0.51399051 -0.64993106
vn 0.21150431 -0.97470860 -0.07217388
vn -0.01615028 -0.81984997 -0.57235058
vn 0.02870353 -0.98312113 0.18069022
vn -0.83520003 0.02401257 -0.54942179
vn -0.91980271 0.25620467 0.29719043
vn 0.14664811 0.82341373 -0.54816435
vn -0.96926598 -0.13164864 0.20782707
vn 0.97030552 0.06312921 0.23349927
vn 0.99273163 0.08571832 0.08447656
vn 0.37716461 -0.77129034 0.51269686
vn 0.27709628 -0.83501196 0.47536584
vn 0.11156122 -0.94080815 0.32005329
vn 0.01973394 -0.99856248 0.04983524
vn 0.02443827 -0.99968121 -0.00634399
vn 0.03830377 -0.96648031 -0.25386736
vn 0.24979492 -0.91476599 -0.31749910
vn 0.28453938 -0.82426570 -0.48951343
vn 0.43987840 -0.66940526 -0.59866817
vn -0.47816974 0.41070029 -0.77632401
vn 0.74065219 -0.31332398 -0.59435883
vn 0.85915765 -0.13844737 -0.49262608
vn 0.87761992 0.00019181 -0.47935712
vn 0.99437236 0.10583288 0.00479790
vn 0.96354437 0.08275212 -0.25442944
vn 0.39418740 -0.58967482 0.70491127
vn 0.51961936 -0.43469182 0.73555336
vn 0.65167566 -0.28156260 0.70430202
vn 0.77278406 -0.12632424 0.62197024
vn 0.88640008 0.01440479 0.46269579
vn -0.12818640 0.99148562 0.02290204
vn -0.09766955 0.96597349 -0.23949085
vn -0.17517922 0.87118072 -0.45864626
vn -0.29415378 0.73769443 -0.60768452
vn -0.37922885 0.59212748 -0.71103482
vn -0.50586815 0.43694991 -0.74375547
vn -0.65588990 0.28586330 -0.69863482
vn -0.79102192 0.12965974 -0.59789019
vn -0.87144782 -0.02872856 -0.48964617
vn -0.96450515 -0.08153095 -0.25116233
vn -0.98452982 -0.17504787 0.00769862
vn -0.96042734 -0.10044115 0.25979010
vn -0.88321507 -0.00888290 0.46888404
vn -0.78337147 0.11552864 0.61072274
vn -0.67054094 0.27155338 0.69038656
vn -0.52595915 0.42802790 0.73495517
vn -0.43112572 0.58838031 0.68406083
vn -0.31171934 0.74206481 0.59343986
vn -0.18430273 0.88295015 0.43177719
vn -0.07290825 0.96448419 0.25387918
f 42//42 43//43 1//1
f 41//41 42//42 2//2
f 25//25 26//26 18//18
f 39//39 40//40 4//4
f 27//27 28//28 16//16
f 36//36 37//37 7//7
f 35//35 36//36 8//8
f 48//48 31//31 13//13
f 3//3 2//2 1//1
f 51//51 24//24 20//20
f 47//47 32//32 12//12
f 44//44 38//38 6//6
f 53//53 39//39 5//5
f 54//54 41//41 3//3
f 50//50 27//27 17//17
f 49//49 30//30 14//14
f 28//28 29//29 15//15
f 24//24 25//25 19//19
f 58//58 23//23 21//21
f 55//55 22//22 21//21
f 60//60 61//61 62//62
f 59//59 58//58 63//63
f 57//57 59//59 63//63
f 56//56 57//57 64//64
f 55//55 56//56 65//65
f 60//60 67//67 68//68
f 60//60 68//68 69//69
f 60//60 69//69 61//61
f 70//70 71//71 62//62
f 23//23 58//58 62//62
f 72//72 73//73 64//64
f 73//73 74//74 65//65
f 74//74 75//75 66//66
f 75//75 76//76 67//67
f 76//76 77//77 68//68
f 77//77 78//78 69//69
f 78//78 70//70 61//61
f 79//79 80//80 71//71
f 80//80 81//81 72//72
f 81//81 82//82 73//73
f 82//82 83//83 74//74
f 83//83 84//84 75//75
f 84//84 85//85 76//76
f 85//85 86//86 77//77
f 86//86 87//87 78//78
f 87//87 79//79 70//70
f 93//93 129//129 128//128
f 82//82 94//94 95//95
f 83//83 92//92 96//96
f 91//91 97//97 98//98
f 85//85 90//90 99//99
f 86//86 89//89 100//100
f 102//102 127//127 126//126
f 101//101 125//125 127//127
f 106//106 114//114 105//105
f 131//131 132//132 129//129
f 97//97 111//111 110//110
f 113//113 112//112 96//96
f 107//107 116//116 115//115
f 108//108 117//117 116//116
f 109//109 118//118 117//117
f 110//110 119//119 118//118
f 111//111 120//120 119//119
f 112//112 121//121 120//120
f 113//113 122//122 121//121
f 54//54 40//40 39//39
f 58//58 59//59 60//60
f 59//59 57//57 60//60
f 56//56 55//55 60//60
f 45//45 34//34 33//33
f 51//51 52//52 115//115
f 100//100 108//108 107//107
f 99//99 109//109 108//108
f 98//98 110//110 109//109
f 96//96 112//112 111//111
f 105//105 123//123 124//124
f 114//114 113//113 95//95
f 128//128 132//132 123//123
f 80//80 130//130 131//131
f 79//79 126//126 125//125
f 127//127 125//125 126//126
f 131//131 130//130 124//124
f 24//24 51//51 115//115
f 27//27 50//50 116//116
f 53//53 38//38 44//44
f 30//30 49//49 117//117
f 31//31 48//48 118//118
f 32//32 47//47 119//119
f 43//43 42//42 41//41
f 57//57 56//56 60//60
f 44//44 37//37 36//36
f 136//136 11//11 12//12
f 135//135 33//33 34//34
f 148//148 149//149 150//150
f 133//133 10//10 11//11
f 153//153 160//160 159//159
f 151//151 161//161 160//160
f 133//133 144//144 168//168
f 149//149 163//163 162//162
f 148//148 164//164 163//163
f 141//141 171//171 170//170
f 140//140 172//172 171//171
f 139//139 154//154 173//173
f 174//174 173//173 154//154
f 175//175 174//174 155//155
f 176//176 175//175 156//156
f 177//177 176//176 157//157
f 178//178 159//159 160//160
f 150//150 162//162 161//161
f 135//135 152//152 159//159
f 136//136 142//142 170//170
f 143//143 169//169 168//168
f 138//138 178//178 177//177
f 137//137 158//158 157//157
f 145//145 167//167 166//166
f 146//146 166//166 165//165
f 147//147 165//165 164//164
f 42//42 1//1 2//2
f 41//41 2//2 3//3
f 25//25 18//18 19//19
f 39//39 4//4 5//5
f 27//27 16//16 17//17
f 36//36 7//7 8//8
f 35//35 8//8 9//9
f 48//48 13//13 14//14
f 48//48 14//14 30//30
f 3//3 1//1 20//20
f 3//3 20//20 19//19
f 3//3 19//19 18//18
f 3//3 18//18 17//17
f 3//3 17//17 16//16
f 3//3 16//16 15//15
f 3//3 15//15 14//14
f 3//3 14//14 13//13
f 3//3 13//13 12//12
f 3//3 12//12 11//11
f 3//3 11//11 10//10
f 3//3 10//10 9//9
f 3//3 9//9 8//8
f 3//3 8//8 7//7
f 3//3 7//7 6//6
f 3//3 6//6 5//5
f 3//3 5//5 4//4
f 51//51 20//20 1//1
f 51//51 1//1 43//43
f 51//51 43//43 52//52
f 47//47 12//12 13//13
f 47//47 13//13 31//31
f 44//44 6//6 7//7
f 44//44 7//7 37//37
f 53//53 5//5 6//6
f 53//53 6//6 38//38
f 54//54 3//3 4//4
f 54//54 4//4 40//40
f 50//50 17//17 18//18
f 50//50 18//18 26//26
f 49//49 14//14 15//15
f 49//49 15//15 29//29
f 28//28 15//15 16//16
f 24//24 19//19 20//20
f 58//58 21//21 22//22
f 58//58 22//22 55//55
f 58//58 55//55 56//56
f 58//58 56//56 57//57
f 58//58 57//57 59//59
f 55//55 21//21 23//23
f 55//55 23//23 58//58
f 55//55 58//58 59//59
f 55//55 59//59 57//57
f 55//55 57//57 56//56
f 57//57 63//63 64//64
f 56//56 64//64 65//65
f 55//55 65//65 66//66
f 70//70 62//62 61//61
f 23//23 62//62 71//71
f 23//23 71//71 72//72
f 23//23 72//72 63//63
f 23//23 63//63 58//58
f 72//72 64//64 63//63
f 73//73 65//65 64//64
f 74//74 66//66 65//65
f 75//75 67//67 66//66
f 76//76 68//68 67//67
f 77//77 69//69 68//68
f 78//78 61//61 69//69
f 79//79 71//71 70//70
f 80//80 72//72 71//71
f 81//81 73//73 72//72
f 82//82 74//74 73//73
f 83//83 75//75 74//74
f 84//84 76//76 75//75
f 85//85 77//77 76//76
f 86//86 78//78 77//77
f 87//87 70//70 78//78
f 82//82 95//95 92//92
f 82//82 92//92 83//83
f 83//83 96//96 91//91
f 83//83 91//91 84//84
f 91//91 98//98 90//90
f 91//91 90//90 85//85
f 91//91 85//85 84//84
f 85//85 99//99 89//89
f 85//85 89//89 86//86
f 86//86 100//100 88//88
f 86//86 88//88 87//87
f 102//102 126//126 79//79
f 102//102 79//79 87//87
f 102//102 87//87 88//88
f 101//101 127//127 102//102
f 101//101 102//102 107//107
f 101//101 107//107 106//106
f 106//106 105//105 103//103
f 106//106 103//103 101//101
f 131//131 129//129 93//93
f 131//131 93//93 104//104
f 131//131 104//104 94//94
f 131//131 94//94 82//82
f 131//131 82//82 81//81
f 97//97 110//110 98//98
f 113//113 96//96 92//92
f 113//113 92//92 95//95
f 107//107 115//115 106//106
f 108//108 116//116 107//107
f 109//109 117//117 108//108
f 110//110 118//118 109//109
f 111//111 119//119 110//110
f 112//112 120//120 111//111
f 113//113 121//121 112//112
f 54//54 39//39 53//53
f 54//54 53//53 122//122
f 54//54 122//122 113//113
f 54//54 113//113 114//114
f 58//58 60//60 62//62
f 45//45 33//33 46//46
f 45//45 46//46 120//120
f 45//45 120//120 121//121
f 55//55 66//66 67//67
f 55//55 67//67 60//60
f 100//100 107//107 102//102
f 100//100 102//102 88//88
f 99//99 108//108 100//100
f 99//99 100//100 89//89
f 98//98 109//109 99//99
f 98//98 99//99 90//90
f 96//96 111//111 97//97
f 96//96 97//97 91//91
f 105//105 124//124 103//103
f 114//114 95//95 94//94
f 114//114 94//94 104//104
f 114//114 104//104 105//105
f 128//128 123//123 105//105
f 128//128 105//105 104//104
f 128//128 104//104 93//93
f 80//80 131//131 81//81
f 79//79 125//125 101//101
f 79//79 101//101 103//103
f 79//79 103//103 124//124
f 79//79 124//124 130//130
f 79//79 130//130 80//80
f 131//131 124//124 123//123
f 131//131 123//123 132//132
f 129//129 132//132 128//128
f 24//24 115//115 116//116
f 24//24 116//116 50//50
f 24//24 50//50 26//26
f 24//24 26//26 25//25
f 27//27 116//116 117//117
f 27//27 117//117 49//49
f 27//27 49//49 29//29
f 27//27 29//29 28//28
f 53//53 44//44 122//122
f 30//30 117//117 118//118
f 30//30 118//118 48//48
f 31//31 118//118 119//119
f 31//31 119//119 47//47
f 32//32 119//119 120//120
f 32//32 120//120 46//46
f 43//43 41//41 54//54
f 43//43 54//54 114//114
f 43//43 114//114 106//106
f 43//43 106//106 115//115
f 43//43 115//115 52//52
f 44//44 36//36 35//35
f 44//44 35//35 45//45
f 44//44 45//45 121//121
f 44//44 121//121 122//122
f 136//136 12//12 32//32
f 136//136 32//32 46//46
f 136//136 46//46 33//33
f 136//136 33//33 135//135
f 136//136 135//135 138//138
f 136//136 138//138 137//137
f 136//136 137//137 139//139
f 136//136 139//139 140//140
f 136//136 140//140 141//141
f 136//136 141//141 142//142
f 135//135 34//34 134//134
f 135//135 134//134 151//151
f 135//135 151//151 153//153
f 135//135 153//153 152//152
f 148//148 150//150 134//134
f 148//148 134//134 34//34
f 148//148 34//34 45//45
f 148//148 45//45 35//35
f 148//148 35//35 9//9
f 148//148 9//9 10//10
f 148//148 10//10 133//133
f 148//148 133//133 145//145
f 148//148 145//145 146//146
f 148//148 146//146 147//147
f 133//133 11//11 136//136
f 133//133 136//136 143//143
f 133//133 143//143 144//144
f 153//153 159//159 152//152
f 151//151 160//160 153//153
f 133//133 168//168 167//167
f 133//133 167//167 145//145
f 149//149 162//162 150//150
f 148//148 163//163 149//149
f 141//141 170//170 142//142
f 140//140 171//171 141//141
f 139//139 173//173 172//172
f 139//139 172//172 140//140
f 174//174 154//154 155//155
f 175//175 155//155 156//156
f 176//176 156//156 157//157
f 177//177 157//157 158//158
f 178//178 160//160 161//161
f 178//178 161//161 162//162
f 178//178 162//162 163//163
f 178//178 163//163 164//164
f 178//178 164//164 165//165
f 178//178 165//165 166//166
f 178//178 166//166 167//167
f 178//178 167//167 168//168
f 178//178 168//168 169//169
f 178//178 169//169 170//170
f 178//178 170//170 171//171
f 178//178 171//171 172//172
f 178//178 172//172 173//173
f 178//178 173//173 174//174
f 178//178 174//174 175//175
f 178//178 175//175 176//176
f 178//178 176//176 177//177
f 150//150 161//161 151//151
f 150//150 151//151 134//134
f 135//135 159//159 178//178
f 135//135 178//178 138//138
f 136//136 170//170 169//169
f 136//136 169//169 143//143
f 143//143 168//168 144//144
f 138//138 177//177 158//158
f 138//138 158//158 137//137
f 137//137 157//157 156//156
f 137//137 156//156 155//155
f 137//137 155//155 154//154
f 137//137 154//154 139//139
f 145//145 166//166 146//146
f 146//146 165//165 147//147
f 147//147 164//164 148//148

