# https://github.com/mikedh/trimesh
v 0.33304283 -0.52166919 0.08602398
v 0.28682809 -0.52166919 0.10510714
v 0.28682809 0.47833081 0.10510714
v 0.33304283 0.47833081 0.08602398
v 0.31395967 -0.52166919 0.03980924
v 0.26774493 -0.52166919 0.05889240
v 0.26774493 0.47833081 0.05889240
v 0.31395967 0.47833081 0.03980924
v -0.12910875 -0.52166919 0.27685451
v -0.17532349 -0.52166919 0.29593766
v -0.17532349 0.47833081 0.29593766
v -0.12910875 0.47833081 0.27685451
v -0.14819191 -0.52166919 0.23063977
v -0.19440665 -0.52166919 0.24972293
v -0.19440665 0.47833081 0.24972293
v -0.14819191 0.47833081 0.23063977
v 0.14221230 -0.52166919 -0.37612760
v 0.09599756 -0.52166919 -0.35704444
v 0.14221230 -0.02166919 -0.37612760
v 0.12312914 -0.52166919 -0.42234234
v 0.07691441 -0.52166919 -0.40325918
v 0.12312914 -0.02166919 -0.42234234
v -0.31993928 -0.52166919 -0.18529707
v -0.36615401 -0.52166919 -0.16621391
v -0.36615401 -0.02166919 -0.16621391
v -0.33902244 -0.52166919 -0.23151181
v -0.38523717 -0.52166919 -0.21242865
v -0.38523717 -0.02166919 -0.21242865
v 0.28682809 -0.07166919 0.10510714
v -0.12910875 -0.07166919 0.27685451
v -0.12910875 -0.02166919 0.27685451
v 0.28682809 -0.02166919 0.10510714
v 0.26774493 -0.07166919 0.05889240
v -0.14819191 -0.07166919 0.23063977
v -0.14819191 -0.02166919 0.23063977
v 0.26774493 -0.02166919 0.05889240
v 0.09599756 -0.07166919 -0.35704444
v -0.31993928 -0.07166919 -0.18529707
v -0.31993928 -0.02166919 -0.18529707
v 0.09599756 -0.02166919 -0.35704444
v 0.07691441 -0.07166919 -0.40325918
v -0.33902244 -0.07166919 -0.23151181
v -0.33902244 -0.02166919 -0.23151181
v 0.07691441 -0.02166919 -0.40325918
v 0.14216809 -0.07166919 -0.37611391
v 0.31399967 -0.07166919 0.03978714
v 0.31399967 -0.02166919 0.03978714
v 0.14216809 -0.02166919 -0.37611391
v 0.09595651 -0.07166919 -0.35702234
v 0.26778914 -0.07166919 0.05887872
v 0.26778914 -0.02166919 0.05887872
v 0.09595651 -0.02166919 -0.35702234
v -0.31994454 -0.07166919 -0.18518970
v -0.14811191 -0.07166919 0.23071135
v -0.14811191 -0.02166919 0.23071135
v -0.31994454 -0.02166919 -0.18518970
v -0.36615612 -0.07166919 -0.16609707
v -0.19432349 -0.07166919 0.24980398
v -0.19432349 -0.02166919 0.24980398
v -0.36615612 -0.02166919 -0.16609707
v 0.30516388 0.20333081 0.08401135
v -0.15698665 0.20333081 0.27484187
v -0.15698665 0.45333081 0.27484187
v 0.30516388 0.45333081 0.08401135
v 0.29562283 0.20333081 0.06090398
v -0.16652875 0.20333081 0.25173451
v -0.16652875 0.45333081 0.25173451
v 0.29562283 0.45333081 0.06090398
v 0.26774493 -0.04666919 0.05889240
v -0.14819191 -0.04666919 0.23063977
v -0.14819191 0.00333081 0.23063977
v 0.26774493 0.00333081 0.05889240
v 0.09599756 -0.04666919 -0.35704444
v -0.31993928 -0.04666919 -0.18529707
v -0.31993928 0.00333081 -0.18529707
v 0.09599756 0.00333081 -0.35704444
vn 0.75399995 -0.57735013 0.31329043
vn -0.31329043 -0.57735013 0.75399995
vn -0.31329043 0.57735013 0.75399995
vn 0.75399995 0.57735013 0.31329043
vn 0.31329043 -0.57735013 -0.75399995
vn -0.75399995 -0.57735013 -0.31329043
vn -0.75399995 0.57735013 -0.31329043
vn 0.31329043 0.57735013 -0.75399995
vn 0.75399995 -0.57735013 0.31329043
vn -0.31329043 -0.57735013 0.75399995
vn -0.31329043 0.57735013 0.75399995
vn 0.75399995 0.57735013 0.31329043
vn 0.31329043 -0.57735013 -0.75399995
vn -0.75399995 -0.57735013 -0.31329043
vn -0.75399995 0.57735013 -0.31329043
vn 0.31329043 0.57735013 -0.75399995
vn 0.75399895 -0.57735039 0.31329237
vn -0.31329250 -0.57735020 0.75399904
vn 0.75399895 0.57735039 0.31329237
vn 0.31329250 -0.57735020 -0.75399904
vn -0.75399895 -0.57735039 -0.31329237
vn 0.31329250 0.57735020 -0.75399904
vn 0.75399904 -0.57735020 0.31329250
vn -0.31329237 -0.57735039 0.75399895
vn -0.31329237 0.57735039 0.75399895
vn 0.31329237 -0.57735039 -0.75399895
vn -0.75399904 -0.57735020 -0.31329250
vn -0.75399904 0.57735020 -0.31329250
vn 0.75399906 -0.57735015 0.31329254
vn -0.31329242 -0.57735059 0.75399877
vn -0.31329242 0.57735059 0.75399877
vn 0.75399906 0.57735015 0.31329254
vn 0.31329242 -0.57735059 -0.75399877
vn -0.75399906 -0.57735015 -0.31329254
vn -0.75399906 0.57735015 -0.31329254
vn 0.31329242 0.57735059 -0.75399877
vn 0.75399863 -0.57734999 0.31329389
vn -0.31329348 -0.57735045 0.75399844
vn 0.26987509 0.70710719 0.65358003
vn 0.26987589 0.70710631 0.65358066
vn 0.31329346 -0.57735035 -0.75399853
vn -0.75399880 -0.57735012 -0.31329323
vn -0.26987551 0.70710658 -0.65358051
vn -0.26987575 0.70710716 -0.65357979
vn 0.31314237 -0.57735030 -0.75406133
vn 0.75406045 -0.57734981 0.31314540
vn 0.75406045 0.57734981 0.31314540
vn 0.31314237 0.57735030 -0.75406133
vn -0.75406186 -0.57735019 -0.31314130
vn -0.31314393 -0.57735112 0.75406005
vn -0.31314393 0.57735112 0.75406005
vn -0.75406186 0.57735019 -0.31314130
vn 0.31313941 -0.57735015 -0.75406268
vn 0.75406225 -0.57735028 0.31314018
vn 0.75406225 0.57735028 0.31314018
vn 0.31313941 0.57735015 -0.75406268
vn -0.75406250 -0.57735044 -0.31313930
vn -0.31314018 -0.57735028 0.75406225
vn -0.31314018 0.57735028 0.75406225
vn -0.75406250 0.57735044 -0.31313930
vn 0.75399565 -0.57735095 0.31329928
vn -0.31328449 -0.57735139 0.75400146
vn -0.31328449 0.57735139 0.75400146
vn 0.75399565 0.57735095 0.31329928
vn 0.31329992 -0.57734960 -0.75399642
vn -0.75400295 -0.57734896 -0.31328539
vn -0.75400295 0.57734896 -0.31328539
vn 0.31329992 0.57734960 -0.75399642
vn 0.75399820 -0.57735020 0.31329451
vn -0.31329493 -0.57735030 0.75399796
vn -0.31329493 0.57735030 0.75399796
vn 0.75399820 0.57735020 0.31329451
vn 0.31329478 -0.57735038 -0.75399796
vn -0.75399787 -0.57735032 -0.31329511
vn -0.75399787 0.57735032 -0.31329511
vn 0.31329478 0.57735038 -0.75399796
f 1//1 4//4 2//2
f 2//2 4//4 3//3
f 1//1 6//6 5//5
f 1//1 2//2 6//6
f 1//1 5//5 4//4
f 4//4 5//5 8//8
f 4//4 8//8 7//7
f 4//4 7//7 3//3
f 2//2 7//7 6//6
f 2//2 3//3 7//7
f 6//6 8//8 5//5
f 6//6 7//7 8//8
f 9//9 12//12 10//10
f 10//10 12//12 11//11
f 9//9 14//14 13//13
f 9//9 10//10 14//14
f 9//9 13//13 12//12
f 12//12 13//13 16//16
f 12//12 16//16 15//15
f 12//12 15//15 11//11
f 10//10 15//15 14//14
f 10//10 11//11 15//15
f 14//14 16//16 13//13
f 14//14 15//15 16//16
f 17//17 19//19 18//18
f 18//18 19//19 40//40
f 17//17 21//21 20//20
f 17//17 18//18 21//21
f 17//17 20//20 19//19
f 19//19 20//20 22//22
f 19//19 22//22 44//44
f 19//19 44//44 40//40
f 18//18 44//44 21//21
f 18//18 40//40 44//44
f 21//21 22//22 20//20
f 21//21 44//44 22//22
f 23//23 39//39 24//24
f 24//24 39//39 25//25
f 23//23 27//27 26//26
f 23//23 24//24 27//27
f 23//23 26//26 39//39
f 39//39 26//26 43//43
f 39//39 43//43 28//28
f 39//39 28//28 25//25
f 24//24 28//28 27//27
f 24//24 25//25 28//28
f 27//27 43//43 26//26
f 27//27 28//28 43//43
f 29//29 32//32 30//30
f 30//30 32//32 31//31
f 29//29 34//34 33//33
f 29//29 30//30 34//34
f 29//29 33//33 32//32
f 32//32 33//33 36//36
f 32//32 36//36 35//35
f 32//32 35//35 31//31
f 30//30 35//35 34//34
f 30//30 31//31 35//35
f 34//34 36//36 33//33
f 34//34 35//35 36//36
f 37//37 40//40 38//38
f 38//38 40//40 39//39
f 37//37 42//42 41//41
f 37//37 38//38 42//42
f 37//37 41//41 40//40
f 40//40 41//41 44//44
f 40//40 44//44 43//43
f 40//40 43//43 39//39
f 38//38 43//43 42//42
f 38//38 39//39 43//43
f 42//42 44//44 41//41
f 42//42 43//43 44//44
f 45//45 48//48 46//46
f 46//46 48//48 47//47
f 45//45 50//50 49//49
f 45//45 46//46 50//50
f 45//45 49//49 48//48
f 48//48 49//49 52//52
f 48//48 52//52 51//51
f 48//48 51//51 47//47
f 46//46 51//51 50//50
f 46//46 47//47 51//51
f 50//50 52//52 49//49
f 50//50 51//51 52//52
f 53//53 56//56 54//54
f 54//54 56//56 55//55
f 53//53 58//58 57//57
f 53//53 54//54 58//58
f 53//53 57//57 56//56
f 56//56 57//57 60//60
f 56//56 60//60 59//59
f 56//56 59//59 55//55
f 54//54 59//59 58//58
f 54//54 55//55 59//59
f 58//58 60//60 57//57
f 58//58 59//59 60//60
f 61//61 64//64 62//62
f 62//62 64//64 63//63
f 61//61 66//66 65//65
f 61//61 62//62 66//66
f 61//61 65//65 64//64
f 64//64 65//65 68//68
f 64//64 68//68 67//67
f 64//64 67//67 63//63
f 62//62 67//67 66//66
f 62//62 63//63 67//67
f 66//66 68//68 65//65
f 66//66 67//67 68//68
f 69//69 72//72 70//70
f 70//70 72//72 71//71
f 69//69 74//74 73//73
f 69//69 70//70 74//74
f 69//69 73//73 72//72
f 72//72 73//73 76//76
f 72//72 76//76 75//75
f 72//72 75//75 71//71
f 70//70 75//75 74//74
f 70//70 71//71 75//75
f 74//74 76//76 73//73
f 74//74 75//75 76//76

