# https://github.com/mikedh/trimesh
v 0.00508379 -0.00662123 0.30222172
v 0.00508379 0.00558508 0.30221961
v 0.00020485 0.00696508 0.30218172
v 0.00734485 0.05957351 0.22856698
v 0.00825432 0.06269245 0.14173119
v 0.00539116 0.11389245 0.14170593
v 0.01526379 0.00502614 0.22863224
v 0.02189748 -0.00037702 0.14184172
v 0.00825748 -0.06344649 0.14173751
v 0.01526379 -0.00577070 0.22863224
v -0.00843094 -0.00699176 0.22844487
v -0.00843094 0.00624614 0.22844487
v -0.03041831 0.00624087 0.14142908
v -0.00843305 0.05953245 0.22844172
v -0.03041936 0.05268824 0.14142593
v -0.00313410 0.10438614 0.32833224
v -0.00911305 0.06720403 0.29333961
v 0.00666485 0.06725140 0.29346382
v -0.00101199 0.11389561 0.20647540
v 0.00020485 -0.00800018 0.30218172
v -0.00302884 0.09864508 0.20646066
v -0.00408673 0.10625666 0.14163119
v -0.00100568 -0.11464439 0.20648803
v -0.00408042 -0.10701281 0.14164172
v 0.00539748 -0.11464755 0.14171856
v -0.03041621 -0.05344544 0.14143119
v -0.00302357 -0.09939281 0.20647014
v -0.00842989 -0.06027913 0.22844803
v -0.00312884 -0.10522228 0.32834277
v 0.00666801 -0.06828755 0.29347224
v 0.00734801 -0.06031913 0.22857330
v -0.00233621 -0.11143597 0.33346698
v -0.00910989 -0.06824123 0.29334593
v -0.03041831 -0.00699702 0.14142908
v -0.00234252 0.11059982 0.33345435
v -0.05043936 -0.00700228 0.04680277
v -0.05043936 0.00623456 0.04680066
v -0.06382673 0.00622298 -0.17958670
v -0.05044042 0.05268298 0.04679961
v -0.06382778 0.05267035 -0.17958881
v 0.00924379 0.06439666 0.04727014
v 0.01161432 0.06609456 -0.17899302
v 0.00302695 0.11425245 -0.17906355
v 0.00924695 -0.06516123 0.04727751
v 0.01161748 -0.06688334 -0.17898565
v 0.02811958 -0.00039386 -0.17885934
v 0.02574906 -0.00038228 0.04740487
v 0.00638064 0.11426403 0.04724593
v -0.00836778 0.10338824 0.04712803
v -0.05043831 -0.05345070 0.04680487
v -0.06382568 -0.05346228 -0.17958355
v 0.00303327 -0.11504018 -0.17905092
v -0.00836252 -0.10415281 0.04713961
v 0.00638695 -0.11502860 0.04725751
v -0.06382673 -0.00701492 -0.17958565
v 0.00539116 0.11389245 0.14170593
v 0.03782274 0.02264719 -0.32327407
v 0.03640695 0.02264508 -0.37057513
v -0.00479936 0.05053035 -0.37867828
v 0.04351222 0.00988193 -0.32320144
v 0.05292064 0.00987982 -0.35820460
v -0.06748568 0.05266193 -0.33188565
v -0.06890042 0.00621245 -0.37918355
v -0.06748463 0.00621456 -0.33188355
v 0.00233958 0.09698087 -0.33133513
v 0.00234064 0.05053245 -0.33133302
v 0.04351222 -0.01179070 -0.32320039
v 0.05292169 -0.01179281 -0.35820249
v -0.06890042 -0.00702544 -0.37918355
v -0.06748463 -0.00702334 -0.33188249
v 0.02890801 -0.00579597 -0.25409197
v -0.06829199 0.00621877 -0.25486144
v -0.06829305 0.05266614 -0.25486355
v 0.00381537 0.10569982 -0.25429618
v 0.01240274 0.05925245 -0.25422565
v 0.02890695 0.00500087 -0.25409197
v 0.03782379 -0.02344965 -0.32327197
v -0.06828989 -0.05346649 -0.25485828
v 0.00382064 -0.10649597 -0.25428460
v 0.00303327 -0.11504018 -0.17905092
v -0.06829094 -0.00701913 -0.25486039
v 0.01240590 -0.06004755 -0.25421934
v 0.00234274 -0.05133702 -0.33132776
v 0.00234485 -0.09778544 -0.33132565
v -0.06748357 -0.05347070 -0.33188039
v -0.00479621 -0.05134018 -0.37867407
v 0.03640801 -0.02345176 -0.37057197
v -0.06202042 0.00353666 -0.53944986
v -0.02659094 0.02999877 -0.54090144
v -0.04386357 -0.00041913 -0.63178144
v 0.00597643 0.01334824 -0.54237513
v -0.01988252 0.04182930 -0.50064355
v 0.02263432 0.01870403 -0.50242881
v -0.00999094 0.05052719 -0.42958776
v -0.06526042 0.00507666 -0.49887723
v 0.03121537 0.02264193 -0.42926039
v -0.06836778 0.00620930 -0.43004776
v -0.06836673 -0.00702860 -0.43004670
v -0.06525936 -0.00590228 -0.49887513
v -0.06202042 -0.00436649 -0.53944881
v 0.02263537 -0.01952544 -0.50242670
v 0.00597748 -0.01417492 -0.54237407
v -0.00998778 -0.05134334 -0.42958249
v 0.03121748 -0.02345492 -0.42925828
v -0.01988042 -0.04265386 -0.50063828
v -0.02658989 -0.03082649 -0.54089828
v 0.06390801 0.00802614 -0.44974565
v 0.06714169 0.00987772 -0.41818986
v 0.06714274 -0.01179492 -0.41818881
v 0.06390801 -0.00994755 -0.44974355
v 0.00113958 0.03674930 0.25684277
v 0.00114169 -0.03778965 0.25684593
v 0.00759011 -0.08595702 0.06893330
v 0.15839116 -0.16253281 0.14252803
v 0.15681958 -0.16376018 0.18070277
v 0.15916274 -0.16130228 0.18072172
v 0.15769011 -0.16252965 0.20948277
v 0.00292274 -0.08969702 0.17346382
v 0.00539853 -0.08594649 0.27805014
v 0.01006590 -0.08220544 0.17351961
v 0.15838379 0.16288508 0.13473540
v 0.00758485 0.08629456 0.06892382
v 0.00291748 0.09004508 0.17345435
v 0.15915432 0.16165877 0.17292908
v 0.15681116 0.16411666 0.17290908
v 0.00539432 0.08630508 0.27804066
v 0.15768169 0.16288824 0.20169014
v 0.01006169 0.08255351 0.17351119
v -0.00350463 0.14479772 0.36354803
v -0.00347515 0.15844193 0.24893330
v -0.00473094 0.14785351 0.20299540
v -0.00145831 0.17568298 0.24894698
v -0.00270673 0.15101140 0.36820277
v -0.00690147 0.23512930 0.34200698
v -0.01009305 0.23512614 0.28835119
v -0.00891936 0.23512930 0.34199014
v -0.00779199 0.23512930 0.34622593
v -0.00699094 0.23512930 0.35053014
v -0.00688884 -0.23616123 0.34203224
v -0.00144884 -0.17672334 0.24896698
v -0.00269936 -0.15184334 0.36821856
v -0.01008042 -0.23616439 0.28837540
v -0.00472252 -0.14860228 0.20301014
v -0.00890673 -0.23616123 0.34201645
v -0.00346673 -0.15948228 0.24894908
v -0.00777936 -0.23616123 0.34625224
v -0.00349621 -0.14563070 0.36356172
v -0.00697831 -0.23616018 0.35055435
v -0.01880357 0.35220193 0.07332277
v -0.01866463 0.35220087 0.03687961
v -0.02207621 0.35220193 0.07325330
v -0.02027410 0.35220403 0.10228698
v -0.01891305 0.35220403 0.10231751
v -0.01374884 0.31903035 0.14003751
v -0.00092884 0.15428508 0.19839751
v -0.00092042 -0.15503386 0.19841330
v -0.02205726 -0.35296649 0.07328908
v -0.02025621 -0.35296439 0.10232382
v -0.01373199 -0.31125702 0.14007119
v -0.01889410 -0.35296439 0.10235435
v -0.01878463 -0.35296649 0.07336066
v -0.01864568 -0.35296755 0.03691751
vn 0.59858259 -0.49116879 0.63281285
vn 0.59620864 0.51078417 0.61938258
vn -0.45624168 0.67230328 0.58296812
vn 0.96480058 0.05695586 0.25674085
vn 0.99160480 0.12767486 0.02047075
vn 0.42662335 0.90426741 -0.01711651
vn 0.94780183 0.17564092 0.26612397
vn 0.99884148 0.00363836 0.04798399
vn 0.98907512 -0.14259697 0.03736983
vn 0.94898190 -0.17559246 0.26191723
vn -0.92106564 -0.08991225 0.37888503
vn -0.91950238 0.08917239 0.38283632
vn -0.97412050 -0.00001735 0.22602930
vn -0.95086136 0.01114921 0.30941619
vn -0.95266189 0.24134470 0.18490015
vn -0.61969678 -0.49988675 0.60505300
vn -0.69642533 -0.62638332 0.35019380
vn 0.69895731 -0.61496684 0.36506774
vn 0.99163372 0.12862331 0.01089045
vn -0.46382164 -0.65286016 0.59886818
vn -0.99762485 0.06719799 0.01513582
vn -0.95693206 0.24818548 0.15061542
vn 0.99179347 -0.12716317 -0.01323810
vn -0.94408674 -0.28958860 0.15760288
vn 0.97900994 -0.06321383 0.19376155
vn -0.95919267 -0.20229512 0.19755026
vn -0.98940557 -0.13114394 0.06227260
vn -0.94287752 -0.00710768 0.33306375
vn -0.15106243 -0.40446168 -0.90199273
vn 0.71268194 0.60191048 0.36026133
vn 0.96475298 -0.07047622 0.25354447
vn 0.76535627 0.40017829 0.50407055
vn -0.70785846 0.61561478 0.34634498
vn -0.97412032 -0.00001910 0.22603009
vn 0.78383967 -0.38425826 0.48779192
vn -0.99106354 -0.00001165 0.13339061
vn -0.99106440 -0.00001229 0.13338425
vn -0.99825095 -0.00002737 0.05911890
vn -0.93498357 0.33225531 0.12414566
vn -0.91131287 0.41069172 0.02900274
vn 0.98815823 0.15307628 0.01053392
vn 0.97808458 0.20820728 0.00053353
vn 0.31162372 0.94791631 -0.06591906
vn 0.98830199 -0.15205345 0.01178649
vn 0.97807880 -0.20823305 0.00092823
vn 0.99988917 0.00487701 0.01406627
vn 0.99975237 0.00317998 0.02202481
vn 0.99669536 0.08119350 -0.00244490
vn -0.94895797 0.31318242 0.03735690
vn -0.94161382 -0.32389082 0.09196819
vn -0.91443416 -0.40109219 0.05417765
vn 0.30446714 -0.95218325 -0.02543265
vn -0.94547590 -0.32569122 -0.00074436
vn 0.99639903 -0.08471253 0.00357312
vn -0.99825094 -0.00002737 0.05911906
vn 0.96422204 -0.17197587 0.20174281
vn 0.76672933 0.63169787 0.11438504
vn 0.60626892 0.79502291 -0.01940528
vn 0.13635873 0.95255177 -0.27212390
vn 0.95088150 0.25254123 0.17901761
vn 0.85513899 0.48197236 0.19089249
vn -0.81384527 0.51865088 -0.26202509
vn -0.92697507 0.35732140 -0.11418687
vn -0.99995273 -0.00002499 0.00972269
vn 0.41061787 0.81857074 -0.40166517
vn 0.91356466 0.39839771 -0.08172434
vn 0.94488993 -0.22580134 0.23705860
vn 0.87815452 -0.44596120 0.17309896
vn -0.93102691 -0.34840960 -0.10862611
vn -0.99995274 -0.00002499 0.00972205
vn 0.98354063 -0.14531547 0.10738365
vn -0.99970277 -0.00002405 0.02437952
vn -0.89412356 0.44729933 0.02159573
vn 0.36873843 0.92757264 -0.06034053
vn 0.97521382 0.21445479 -0.05447161
vn 0.97762430 0.19861212 0.06931052
vn 0.79091284 -0.60675629 0.07939567
vn -0.89697383 -0.44207007 -0.00346522
vn 0.38667007 -0.91205814 -0.13651451
vn 0.32647022 -0.94423395 -0.04288862
vn -0.99970275 -0.00002405 0.02438064
vn 0.95825718 -0.28443865 -0.02894520
vn 0.87900442 -0.46247909 -0.11603587
vn 0.42839448 -0.83332011 -0.34936480
vn -0.81417931 -0.52729446 -0.24304856
vn 0.14341667 -0.94990385 -0.27769469
vn 0.54045550 -0.84137076 -0.00175998
vn -0.89101906 0.43054550 -0.14392917
vn -0.09725795 0.95577205 -0.27756202
vn -0.18728103 -0.00005573 -0.98230637
vn 0.76226369 0.48173920 -0.43229783
vn -0.08329616 0.98233393 -0.16757625
vn 0.73360380 0.56512754 -0.37743387
vn -0.02439788 0.99788233 -0.06029599
vn -0.89898480 0.43348150 -0.06261092
vn 0.45948499 0.88555513 -0.06830555
vn -0.89239302 0.45075037 -0.02141970
vn -0.89701711 -0.44133022 -0.02424743
vn -0.89834066 -0.43325950 -0.07259652
vn -0.88880306 -0.43708937 -0.13777521
vn 0.73797533 -0.55292835 -0.38686258
vn 0.76301071 -0.47671661 -0.43652712
vn -0.02365984 -0.99838596 -0.05163028
vn 0.44742340 -0.89127368 -0.07378023
vn -0.09587444 -0.97814523 -0.18449932
vn -0.10888485 -0.95603600 -0.27228524
vn 0.81383026 0.49372967 -0.30644954
vn 0.82921842 0.55706213 0.04559150
vn 0.83472429 -0.55017054 0.02340395
vn 0.80642044 -0.50575244 -0.30643195
vn -0.00692215 0.10226507 0.99473310
vn -0.00654124 -0.10669843 0.99426991
vn -0.34139685 0.17724154 -0.92305668
vn 0.62071514 -0.31133651 -0.71957091
vn 0.16369196 -0.98649136 0.00630445
vn 0.98453564 0.17448727 0.01561273
vn 0.58834979 -0.30380208 0.74936561
vn -0.98093728 -0.19403020 -0.01069309
vn -0.36919079 0.18156539 0.91144510
vn -0.14560120 0.98934132 -0.00200881
vn 0.60891068 0.30327830 -0.73297344
vn -0.35328920 -0.18391014 -0.91725885
vn -0.98109156 0.19330176 -0.00968390
vn 0.98434934 -0.17558225 0.01507501
vn 0.16505550 0.98627249 0.00482322
vn -0.35679971 -0.17596573 0.91745846
vn 0.60249856 0.30720668 0.73662713
vn -0.14491126 -0.98944424 -0.00090371
vn -0.47769056 -0.56239857 0.67492190
vn -0.99784949 -0.06121269 0.02343920
vn -0.47278836 0.73372624 -0.48797231
vn 0.78106169 0.53462135 -0.32268041
vn 0.09235709 -0.06016535 0.99390658
vn 0.68170034 0.73161037 -0.00556055
vn -0.10640900 0.72567707 -0.67975725
vn -0.74128730 0.66594798 0.08370441
vn -0.68155860 0.71466600 0.15725897
vn 0.04436328 0.61779366 0.78508782
vn 0.68694829 -0.72670377 0.00192121
vn 0.98114650 -0.15567155 -0.11453348
vn 0.09241642 0.05967824 0.99393044
vn -0.13687696 -0.91239080 -0.38575605
vn -0.11051964 -0.31497751 -0.94264234
vn -0.80866268 -0.56347966 0.16898329
vn -0.99670746 0.07579656 0.02879444
vn -0.67035914 0.73650120 0.09046882
vn -0.46201376 0.57037186 0.67913123
vn 0.04887853 -0.61271930 0.78878764
vn 0.67041661 0.74198483 -0.00028871
vn -0.01472444 0.73256322 -0.68053972
vn -0.74116737 0.67125736 -0.00919231
vn -0.65042243 0.69599240 0.30421250
vn 0.59012631 0.76062828 0.27054679
vn 0.05357341 0.55526131 0.82994866
vn 0.03202914 -0.06712333 0.99723046
vn 0.03106287 0.00214706 0.99951513
vn -0.73930567 -0.67336925 -0.00099439
vn -0.64113073 -0.68676450 0.34249949
vn 0.08349118 -0.25962589 0.96209335
vn 0.58328426 -0.74675467 0.31958870
vn 0.66948438 -0.74281940 0.00316375
vn -0.01712788 -0.81970497 -0.57252983
f 1//1 2//2 3//3
f 4//4 5//5 6//6
f 7//7 8//8 5//5
f 9//9 8//8 10//10
f 11//11 12//12 13//13
f 14//14 15//15 13//13
f 16//16 17//17 18//18
f 18//18 4//4 19//19
f 17//17 14//14 4//4
f 20//20 3//3 12//12
f 2//2 7//7 12//12
f 1//1 10//10 7//7
f 17//17 16//16 21//21
f 14//14 21//21 22//22
f 19//19 6//6 22//22
f 23//23 24//24 25//25
f 26//26 24//24 27//27
f 28//28 27//27 29//29
f 20//20 11//11 10//10
f 30//30 31//31 28//28
f 32//32 23//23 31//31
f 32//32 30//30 33//33
f 11//11 34//34 26//26
f 23//23 25//25 9//9
f 10//10 8//8 7//7
f 3//3 20//20 1//1
f 6//6 19//19 4//4
f 5//5 4//4 7//7
f 10//10 31//31 9//9
f 13//13 34//34 11//11
f 13//13 12//12 14//14
f 18//18 35//35 16//16
f 19//19 35//35 18//18
f 4//4 18//18 17//17
f 12//12 11//11 20//20
f 12//12 3//3 2//2
f 7//7 2//2 1//1
f 21//21 14//14 17//17
f 22//22 15//15 14//14
f 27//27 28//28 26//26
f 29//29 33//33 28//28
f 10//10 1//1 20//20
f 28//28 33//33 30//30
f 31//31 30//30 32//32
f 33//33 29//29 32//32
f 26//26 28//28 11//11
f 9//9 31//31 23//23
f 36//36 37//37 38//38
f 39//39 40//40 38//38
f 41//41 42//42 43//43
f 44//44 45//45 46//46
f 9//9 44//44 47//47
f 34//34 13//13 37//37
f 15//15 39//39 37//37
f 5//5 41//41 48//48
f 15//15 22//22 49//49
f 49//49 43//43 40//40
f 50//50 51//51 52//52
f 50//50 53//53 24//24
f 25//25 54//54 44//44
f 34//34 36//36 50//50
f 54//54 52//52 45//45
f 36//36 55//55 51//51
f 41//41 5//5 8//8
f 42//42 41//41 47//47
f 38//38 55//55 36//36
f 38//38 37//37 39//39
f 43//43 48//48 41//41
f 46//46 47//47 44//44
f 47//47 8//8 9//9
f 37//37 36//36 34//34
f 37//37 13//13 15//15
f 48//48 56//56 5//5
f 49//49 39//39 15//15
f 40//40 39//39 49//49
f 52//52 53//53 50//50
f 24//24 26//26 50//50
f 44//44 9//9 25//25
f 50//50 26//26 34//34
f 45//45 44//44 54//54
f 51//51 50//50 36//36
f 8//8 47//47 41//41
f 47//47 46//46 42//42
f 57//57 58//58 59//59
f 60//60 61//61 58//58
f 62//62 63//63 64//64
f 65//65 66//66 59//59
f 60//60 67//67 68//68
f 63//63 69//69 70//70
f 71//71 67//67 60//60
f 72//72 64//64 70//70
f 73//73 62//62 64//64
f 74//74 65//65 62//62
f 75//75 66//66 65//65
f 76//76 57//57 66//66
f 42//42 75//75 74//74
f 46//46 76//76 75//75
f 46//46 71//71 76//76
f 55//55 38//38 72//72
f 40//40 73//73 72//72
f 40//40 43//43 74//74
f 60//60 57//57 76//76
f 67//67 71//71 77//77
f 78//78 79//79 80//80
f 55//55 81//81 78//78
f 45//45 82//82 71//71
f 80//80 79//79 82//82
f 82//82 83//83 77//77
f 79//79 84//84 83//83
f 78//78 85//85 84//84
f 81//81 70//70 85//85
f 84//84 86//86 83//83
f 85//85 70//70 69//69
f 77//77 87//87 68//68
f 83//83 86//86 87//87
f 59//59 66//66 57//57
f 58//58 57//57 60//60
f 68//68 61//61 60//60
f 70//70 64//64 63//63
f 60//60 76//76 71//71
f 70//70 81//81 72//72
f 64//64 72//72 73//73
f 62//62 73//73 74//74
f 65//65 74//74 75//75
f 66//66 75//75 76//76
f 74//74 43//43 42//42
f 75//75 42//42 46//46
f 72//72 81//81 55//55
f 72//72 38//38 40//40
f 74//74 73//73 40//40
f 80//80 51//51 78//78
f 78//78 51//51 55//55
f 71//71 46//46 45//45
f 82//82 45//45 80//80
f 77//77 71//71 82//82
f 83//83 82//82 79//79
f 84//84 79//79 78//78
f 85//85 78//78 81//81
f 68//68 67//67 77//77
f 87//87 77//77 83//83
f 88//88 89//89 90//90
f 89//89 91//91 90//90
f 92//92 89//89 88//88
f 93//93 91//91 89//89
f 94//94 92//92 95//95
f 96//96 93//93 92//92
f 59//59 94//94 97//97
f 58//58 96//96 94//94
f 97//97 98//98 69//69
f 95//95 99//99 98//98
f 88//88 100//100 99//99
f 93//93 101//101 102//102
f 91//91 102//102 90//90
f 88//88 90//90 100//100
f 86//86 103//103 104//104
f 69//69 98//98 103//103
f 103//103 105//105 101//101
f 98//98 99//99 105//105
f 105//105 106//106 102//102
f 99//99 100//100 106//106
f 106//106 90//90 102//102
f 100//100 90//90 106//106
f 88//88 95//95 92//92
f 89//89 92//92 93//93
f 95//95 97//97 94//94
f 92//92 94//94 96//96
f 97//97 63//63 59//59
f 94//94 59//59 58//58
f 69//69 63//63 97//97
f 98//98 97//97 95//95
f 99//99 95//95 88//88
f 102//102 91//91 93//93
f 104//104 87//87 86//86
f 103//103 86//86 69//69
f 101//101 104//104 103//103
f 105//105 103//103 98//98
f 102//102 101//101 105//105
f 106//106 105//105 99//99
f 107//107 93//93 96//96
f 61//61 108//108 96//96
f 61//61 68//68 109//109
f 108//108 109//109 110//110
f 107//107 110//110 101//101
f 87//87 104//104 109//109
f 109//109 104//104 101//101
f 96//96 108//108 107//107
f 96//96 58//58 61//61
f 109//109 108//108 61//61
f 110//110 107//107 108//108
f 101//101 93//93 107//107
f 109//109 68//68 87//87
f 101//101 110//110 109//109
f 111//111 7//7 4//4
f 111//111 12//12 7//7
f 111//111 14//14 12//12
f 111//111 4//4 14//14
f 112//112 28//28 31//31
f 112//112 11//11 28//28
f 112//112 10//10 11//11
f 112//112 31//31 10//10
f 63//63 62//62 65//65
f 86//86 84//84 85//85
f 65//65 59//59 63//63
f 85//85 69//69 86//86
f 113//113 114//114 115//115
f 114//114 116//116 117//117
f 118//118 119//119 120//120
f 118//118 115//115 117//117
f 119//119 117//117 116//116
f 120//120 116//116 114//114
f 121//121 122//122 123//123
f 124//124 121//121 125//125
f 126//126 123//123 122//122
f 125//125 123//123 126//126
f 127//127 126//126 128//128
f 124//124 128//128 122//122
f 115//115 118//118 113//113
f 117//117 115//115 114//114
f 120//120 113//113 118//118
f 117//117 119//119 118//118
f 116//116 120//120 119//119
f 114//114 113//113 120//120
f 123//123 125//125 121//121
f 125//125 127//127 124//124
f 122//122 128//128 126//126
f 126//126 127//127 125//125
f 128//128 124//124 127//127
f 122//122 121//121 124//124
f 129//129 16//16 35//35
f 130//130 21//21 16//16
f 131//131 22//22 21//21
f 132//132 19//19 22//22
f 133//133 35//35 19//19
f 134//134 135//135 136//136
f 134//134 136//136 137//137
f 137//137 129//129 133//133
f 136//136 130//130 129//129
f 135//135 131//131 130//130
f 134//134 132//132 131//131
f 138//138 133//133 132//132
f 139//139 140//140 141//141
f 142//142 143//143 140//140
f 144//144 145//145 143//143
f 146//146 147//147 145//145
f 148//148 141//141 147//147
f 148//148 146//146 144//144
f 139//139 144//144 142//142
f 140//140 23//23 32//32
f 143//143 24//24 23//23
f 145//145 27//27 24//24
f 147//147 29//29 27//27
f 141//141 32//32 29//29
f 35//35 133//133 129//129
f 16//16 129//129 130//130
f 21//21 130//130 131//131
f 22//22 131//131 132//132
f 19//19 132//132 133//133
f 137//137 138//138 134//134
f 133//133 138//138 137//137
f 129//129 137//137 136//136
f 130//130 136//136 135//135
f 131//131 135//135 134//134
f 132//132 134//134 138//138
f 141//141 148//148 139//139
f 140//140 139//139 142//142
f 143//143 142//142 144//144
f 145//145 144//144 146//146
f 147//147 146//146 148//148
f 144//144 139//139 148//148
f 32//32 141//141 140//140
f 23//23 140//140 143//143
f 24//24 143//143 145//145
f 27//27 145//145 147//147
f 29//29 147//147 141//141
f 149//149 150//150 151//151
f 149//149 151//151 152//152
f 153//153 152//152 154//154
f 149//149 48//48 43//43
f 153//153 56//56 48//48
f 154//154 155//155 56//56
f 152//152 22//22 155//155
f 151//151 49//49 22//22
f 150//150 43//43 49//49
f 56//56 155//155 22//22
f 25//25 24//24 156//156
f 157//157 53//53 52//52
f 158//158 24//24 53//53
f 159//159 156//156 24//24
f 160//160 25//25 156//156
f 161//161 54//54 25//25
f 162//162 52//52 54//54
f 160//160 159//159 158//158
f 160//160 158//158 157//157
f 161//161 157//157 162//162
f 152//152 153//153 149//149
f 43//43 150//150 149//149
f 48//48 149//149 153//153
f 56//56 153//153 154//154
f 155//155 154//154 152//152
f 22//22 152//152 151//151
f 49//49 151//151 150//150
f 52//52 162//162 157//157
f 53//53 157//157 158//158
f 24//24 158//158 159//159
f 156//156 159//159 160//160
f 25//25 160//160 161//161
f 54//54 161//161 162//162
f 157//157 161//161 160//160

