# https://github.com/mikedh/trimesh
v 0.02755531 0.00711756 0.01000207
v -0.03803522 0.00711756 0.00016418
v -0.08722785 0.00711756 -0.00065582
v -0.09952575 0.00711756 -0.00024635
v -0.11182364 0.00711756 0.00016418
v -0.12002259 0.00711756 0.00180312
v -0.12822048 0.00711756 0.00344312
v -0.13641943 0.00711756 0.00918207
v -0.13641943 0.00711756 0.01082207
v -0.12822048 0.00711756 0.01656102
v -0.12002259 0.00711756 0.01820102
v -0.11182364 0.00711756 0.01984102
v -0.10362469 0.00711756 0.02025049
v -0.08722785 0.00711756 0.02066102
v -0.03803522 0.00711756 0.01984102
v 0.01455741 0.49998809 0.04549681
v -0.03412364 0.49998809 0.03819470
v -0.07063522 0.49998809 0.03758628
v -0.07976259 0.49998809 0.03789049
v -0.08888996 0.49998809 0.03819470
v -0.09497522 0.49998809 0.03941155
v -0.10106048 0.49998809 0.04062839
v -0.10714575 0.49998809 0.04488839
v -0.10714575 0.49998809 0.04610523
v -0.10106048 0.49998809 0.05036418
v -0.09497522 0.49998809 0.05158207
v -0.08888996 0.49998809 0.05279891
v -0.08280469 0.49998809 0.05310312
v -0.07063522 0.49998809 0.05340733
v -0.03412364 0.49998809 0.05279891
v 0.02755531 -0.00714138 0.01000207
v -0.03803522 -0.00714138 0.00016418
v -0.08722785 -0.00714138 -0.00065582
v -0.09952575 -0.00714138 -0.00024635
v -0.11182364 -0.00714138 0.00016418
v -0.12002259 -0.00714138 0.00180312
v -0.12822048 -0.00714138 0.00344312
v -0.13641943 -0.00714138 0.00918207
v -0.13641943 -0.00714138 0.01082207
v -0.12822048 -0.00714138 0.01656102
v -0.12002259 -0.00714138 0.01820102
v -0.11182364 -0.00714138 0.01984102
v -0.10362469 -0.00714138 0.02025049
v -0.08722785 -0.00714138 0.02066102
v -0.03803522 -0.00714138 0.01984102
v 0.01455741 -0.50001191 0.04549681
v -0.03412364 -0.50001191 0.03819470
v -0.07063522 -0.50001191 0.03758628
v -0.07976259 -0.50001191 0.03789049
v -0.08888996 -0.50001191 0.03819470
v -0.09497522 -0.50001191 0.03941155
v -0.10106048 -0.50001191 0.04062839
v -0.10714575 -0.50001191 0.04488839
v -0.10714575 -0.50001191 0.04610523
v -0.10106048 -0.50001191 0.05036418
v -0.09497522 -0.50001191 0.05158207
v -0.08888996 -0.50001191 0.05279891
v -0.08280469 -0.50001191 0.05310312
v -0.07063522 -0.50001191 0.05340733
v -0.03412364 -0.50001191 0.05279891
v 0.27708162 -0.00001191 -0.03529582
v 0.24000899 -0.00001191 -0.04085688
v 0.21220478 -0.00001191 -0.04132003
v 0.20525320 -0.00001191 -0.04108845
v 0.19830162 -0.00001191 -0.04085688
v 0.19366794 -0.00001191 -0.03993056
v 0.18903425 -0.00001191 -0.03900319
v 0.18439952 -0.00001191 -0.03575898
v 0.18439952 -0.00001191 -0.03483267
v 0.18903425 -0.00001191 -0.03158845
v 0.19366794 -0.00001191 -0.03066214
v 0.19830162 -0.00001191 -0.02973477
v 0.20293636 -0.00001191 -0.02950319
v 0.21220478 -0.00001191 -0.02927161
v 0.24000899 -0.00001191 -0.02973477
v 0.26995215 0.17822072 -0.03529582
v 0.24713847 0.17822072 -0.03871793
v 0.23002794 0.17822072 -0.03900319
v 0.22575004 0.17822072 -0.03886109
v 0.22147215 0.17822072 -0.03871793
v 0.21862057 0.17822072 -0.03814740
v 0.21576899 0.17822072 -0.03757793
v 0.21291741 0.17822072 -0.03558109
v 0.21291741 0.17822072 -0.03501056
v 0.21576899 0.17822072 -0.03301477
v 0.21862057 0.17822072 -0.03244424
v 0.22147215 0.17822072 -0.03187372
v 0.22432373 0.17822072 -0.03173161
v 0.23002794 0.17822072 -0.03158845
v 0.24713847 0.17822072 -0.03187372
v 0.26995215 -0.17824454 -0.03529582
v 0.24713847 -0.17824454 -0.03871793
v 0.23002794 -0.17824454 -0.03900319
v 0.22575004 -0.17824454 -0.03886109
v 0.22147215 -0.17824454 -0.03871793
v 0.21862057 -0.17824454 -0.03814740
v 0.21576899 -0.17824454 -0.03757793
v 0.21291741 -0.17824454 -0.03558109
v 0.21291741 -0.17824454 -0.03501056
v 0.21576899 -0.17824454 -0.03301477
v 0.21862057 -0.17824454 -0.03244424
v 0.22147215 -0.17824454 -0.03187372
v 0.22432373 -0.17824454 -0.03173161
v 0.23002794 -0.17824454 -0.03158845
v 0.24713847 -0.17824454 -0.03187372
v -0.24440890 0.00711756 -0.05668424
v -0.24440890 0.00502914 -0.05164319
v -0.24440890 -0.00001191 -0.04955477
v -0.24440890 -0.00505296 -0.05164319
v -0.24440890 -0.00714138 -0.05668424
v -0.24440890 -0.00505296 -0.06172530
v -0.24440890 -0.00001191 -0.06381372
v -0.24440890 0.00502914 -0.06172530
v -0.19734680 0.03205230 -0.06203477
v -0.19734680 0.02266072 -0.04018635
v -0.19734680 -0.00001191 -0.03113688
v -0.19734680 -0.02268454 -0.04018635
v -0.19734680 -0.03207612 -0.06203477
v -0.19734680 -0.02268454 -0.08388319
v -0.19734680 -0.00001191 -0.09293372
v -0.19734680 0.02266072 -0.08388319
v -0.17597732 0.04014914 -0.05932951
v -0.17597732 0.02838598 -0.03370424
v -0.17597732 -0.00001191 -0.02309056
v -0.17597732 -0.02840981 -0.03370424
v -0.17597732 -0.04017296 -0.05932951
v -0.17597732 -0.02840981 -0.08495372
v -0.17597732 -0.00001191 -0.09556845
v -0.17597732 0.02838598 -0.08495372
v -0.13641943 0.05283967 -0.04648319
v -0.13641943 0.03735967 -0.00832530
v -0.13641943 -0.00001191 0.00747997
v -0.13641943 -0.03738349 -0.00832530
v -0.13641943 -0.05286349 -0.04648319
v -0.13641943 -0.03738349 -0.08464003
v -0.13641943 -0.00001191 -0.10044530
v -0.13641943 0.03735967 -0.08464003
v -0.03555311 0.05292177 -0.04530845
v -0.03555311 0.03741756 -0.00478951
v -0.03555311 -0.00001191 0.01199365
v -0.03555311 -0.03744138 -0.00478951
v -0.03555311 -0.05294559 -0.04530845
v -0.03555311 -0.03744138 -0.08582635
v -0.03555311 -0.00001191 -0.10260951
v -0.03555311 0.03741756 -0.08582635
v 0.00434899 0.04700072 -0.04816740
v 0.00434899 0.03323125 -0.01124109
v 0.00434899 -0.00001191 0.00405365
v 0.00434899 -0.03325507 -0.01124109
v 0.00434899 -0.04702454 -0.04816740
v 0.00434899 -0.03325507 -0.08509267
v 0.00434899 -0.00001191 -0.10038740
v 0.00434899 0.03323125 -0.08509267
v 0.02957110 0.04325756 -0.05543372
v 0.02957110 0.03058493 -0.02464109
v 0.02957110 -0.00001191 -0.01188530
v 0.02957110 -0.03060875 -0.02464109
v 0.02957110 -0.04328138 -0.05543372
v 0.02957110 -0.03060875 -0.08622740
v 0.02957110 -0.00001191 -0.09898319
v 0.02957110 0.03058493 -0.08622740
v 0.29133952 0.00355230 -0.04598951
v 0.29133952 0.00250914 -0.04346951
v 0.29133952 -0.00001191 -0.04242530
v 0.29133952 -0.00253296 -0.04346951
v 0.29133952 -0.00357612 -0.04598951
v 0.29133952 -0.00253296 -0.04851056
v 0.29133952 -0.00001191 -0.04955477
v 0.29133952 0.00250914 -0.04851056
v 0.18439952 -0.00001191 -0.04955477
v 0.18974689 0.00327862 -0.04955477
v 0.19509425 0.00410072 -0.04955477
v 0.20044057 0.00492388 -0.04955477
v 0.20578794 0.00512914 -0.04955477
v 0.21648162 0.00533546 -0.04955477
v 0.24856373 0.00492388 -0.04955477
v 0.24856373 -0.00494770 -0.04955477
v 0.21648162 -0.00535928 -0.04955477
v 0.20578794 -0.00515296 -0.04955477
v 0.20044057 -0.00494770 -0.04955477
v 0.19509425 -0.00412454 -0.04955477
v 0.18974689 -0.00330244 -0.04955477
v 0.25569320 -0.00001191 0.05738523
v 0.25854478 0.00174283 0.05738523
v 0.26139636 0.00218177 0.05738523
v 0.26424794 0.00262072 0.05738523
v 0.26710057 0.00273019 0.05738523
v 0.27280373 0.00283967 0.05738523
v 0.28991425 0.00262072 0.05738523
v 0.31272794 -0.00001191 0.05738523
v 0.28991425 -0.00264454 0.05738523
v 0.27280373 -0.00286349 0.05738523
v 0.26710057 -0.00275402 0.05738523
v 0.26424794 -0.00264454 0.05738523
v 0.26139636 -0.00220559 0.05738523
v 0.25854478 -0.00176665 0.05738523
v -0.13641943 -0.00179402 -0.03529582
v -0.11503206 -0.00179402 -0.03529582
v -0.11503206 0.00889967 -0.03529582
v -0.13641943 0.00889967 -0.03529582
v -0.13641943 -0.00179402 -0.01747267
v -0.11503206 -0.00179402 -0.01747267
v -0.11503206 0.00889967 -0.01747267
v -0.13641943 0.00889967 -0.01747267
vn 0.99859206 0.02950733 -0.04408187
vn 0.08184725 0.07602886 -0.99374073
vn -0.00880372 0.07765000 -0.99694181
vn -0.03321857 0.07842727 -0.99636624
vn -0.11659969 0.08180046 -0.98980463
vn -0.19539214 0.08448520 -0.97707941
vn -0.39400241 0.09071710 -0.91462151
vn -0.87884017 0.08619431 -0.46926590
vn -0.89864381 0.02201055 0.43812650
vn -0.40218440 -0.04056901 0.91465942
vn -0.19584103 -0.05635356 0.97901510
vn -0.12565306 -0.06036994 0.99023572
vn -0.03773030 -0.06487347 0.99717995
vn -0.00462199 -0.06613831 0.99779976
vn 0.08240041 -0.06714471 0.99433483
vn 0.99866387 0.02300647 0.04627289
vn 0.08303954 0.07601236 -0.99364307
vn -0.00777931 0.07761564 -0.99695301
vn -0.03320800 0.07842710 -0.99636661
vn -0.11276699 0.08165748 -0.99026040
vn -0.19538210 0.08448485 -0.97708144
vn -0.38899128 0.09060362 -0.91677520
vn -0.88884202 0.08540547 -0.45018415
vn -0.87410333 0.01716574 0.48543661
vn -0.38359916 -0.04213348 0.92253805
vn -0.19584967 -0.05635280 0.97901342
vn -0.12060432 -0.06064577 0.99084645
vn -0.03703026 -0.06490464 0.99720417
vn -0.00370918 -0.06616968 0.99780149
vn 0.08259360 -0.06714465 0.99431881
vn -0.99859206 0.02950733 0.04408187
vn -0.08184725 0.07602886 0.99374073
vn 0.00880372 0.07765000 0.99694181
vn 0.03321857 0.07842727 0.99636624
vn 0.11659969 0.08180046 0.98980463
vn 0.19539214 0.08448520 0.97707941
vn 0.39400241 0.09071710 0.91462151
vn 0.87884017 0.08619431 0.46926590
vn 0.89864381 0.02201055 -0.43812650
vn 0.40218440 -0.04056901 -0.91465942
vn 0.19584103 -0.05635356 -0.97901510
vn 0.12565306 -0.06036994 -0.99023572
vn 0.03773030 -0.06487347 -0.99717995
vn 0.00462199 -0.06613831 -0.99779976
vn -0.08240041 -0.06714471 -0.99433483
vn -0.99866387 0.02300647 -0.04627289
vn -0.08303954 0.07601236 0.99364307
vn 0.00777931 0.07761564 0.99695301
vn 0.03320800 0.07842710 0.99636661
vn 0.11276699 0.08165748 0.99026040
vn 0.19538210 0.08448485 0.97708144
vn 0.38899128 0.09060362 0.91677520
vn 0.88884202 0.08540547 0.45018415
vn 0.87410333 0.01716574 -0.48543661
vn 0.38359916 -0.04213348 -0.92253805
vn 0.19584967 -0.05635280 -0.97901342
vn 0.12060432 -0.06064577 -0.99084645
vn 0.03703026 -0.06490464 -0.99720417
vn 0.00370918 -0.06616968 -0.99780149
vn -0.08259360 -0.06714465 -0.99431881
vn 0.00000000 1.00000000 0.00000000
vn 0.00000000 1.00000000 0.00000000
vn 0.00000000 1.00000000 0.00000000
vn 0.00000000 1.00000000 0.00000000
vn 0.00000000 1.00000000 0.00000000
vn 0.00000000 1.00000000 0.00000000
vn 0.00000000 1.00000000 0.00000000
vn 0.00000000 1.00000000 0.00000000
vn 0.00000000 1.00000000 0.00000000
vn 0.00000000 1.00000000 0.00000000
vn 0.00000000 1.00000000 0.00000000
vn 0.00000000 1.00000000 0.00000000
vn 0.00000000 1.00000000 0.00000000
vn 0.00000000 1.00000000 0.00000000
vn 0.00000000 1.00000000 0.00000000
vn 0.99920095 0.03996829 -0.00000209
vn 0.08439045 0.00858137 -0.99639581
vn -0.00673575 0.01367238 -0.99988384
vn -0.03330540 0.01632166 -0.99931194
vn -0.10847175 0.02602666 -0.99375877
vn -0.19598025 0.03723653 -0.97990060
vn -0.37607897 0.06380649 -0.92438809
vn -0.86778514 0.13932397 -0.47700921
vn -0.86778534 0.13932595 0.47700826
vn -0.37607800 0.06380746 0.92438842
vn -0.19598019 0.03723589 0.97990063
vn -0.11741549 0.02717677 0.99271095
vn -0.03651954 0.01687233 0.99919050
vn -0.00283785 0.01328233 0.99990776
vn 0.08439269 0.00858137 0.99639562
vn -0.99920095 0.03996829 0.00000209
vn -0.08439045 0.00858137 0.99639581
vn 0.00673575 0.01367238 0.99988384
vn 0.03330540 0.01632166 0.99931194
vn 0.10847175 0.02602666 0.99375877
vn 0.19598025 0.03723653 0.97990060
vn 0.37607897 0.06380649 0.92438809
vn 0.86778514 0.13932397 0.47700921
vn 0.86778534 0.13932595 -0.47700826
vn 0.37607800 0.06380746 -0.92438842
vn 0.19598019 0.03723589 -0.97990063
vn 0.11741549 0.02717677 -0.99271095
vn 0.03651954 0.01687233 -0.99919050
vn 0.00283785 0.01328233 -0.99990776
vn -0.08439269 0.00858137 -0.99639562
vn -0.46347705 0.88566814 0.02794579
vn -0.39627895 0.63187572 0.66610515
vn -0.36655040 0.00199616 0.93039605
vn -0.40038762 -0.63075492 0.66470895
vn -0.46416212 -0.88542046 0.02416896
vn -0.51078292 -0.61715050 -0.59851990
vn -0.52784090 -0.00180750 -0.84934135
vn -0.51423619 0.61560593 -0.59715198
vn -0.40214693 0.91530474 -0.02225033
vn -0.38399953 0.64925794 0.65651237
vn -0.36119956 0.00394113 0.93248021
vn -0.38971596 -0.64734482 0.65503142
vn -0.40076089 -0.91566396 -0.03082555
vn -0.35103804 -0.63162920 -0.69124297
vn -0.32036352 -0.00395375 -0.94728643
vn -0.35699401 0.63051382 -0.68920795
vn -0.31648224 0.94784181 -0.03787994
vn -0.46124852 0.63158250 0.62318003
vn -0.50004503 -0.00315291 0.86599367
vn -0.44567539 -0.63871868 0.62722555
vn -0.32188497 -0.94631034 -0.02977920
vn -0.18932989 -0.67117391 -0.71671458
vn -0.11953832 0.00295822 -0.99282518
vn -0.17117061 0.67261895 -0.71991970
vn -0.16264113 0.98639362 0.02398926
vn -0.27106245 0.67230246 0.68886468
vn -0.31754046 -0.00381760 0.94823704
vn -0.27452632 -0.67154476 0.68823175
vn -0.16606391 -0.98555553 0.03321264
vn -0.07871700 -0.72138032 -0.68805092
vn -0.06444049 0.00546572 -0.99790658
vn -0.08509632 0.72131931 -0.68735513
vn 0.06969817 0.99754638 0.00658639
vn 0.07875576 0.71871583 0.69082927
vn 0.07641857 -0.00232571 0.99707311
vn 0.07761986 -0.71863761 0.69103918
vn 0.06986200 -0.99749563 0.01103507
vn 0.04048349 -0.72990164 -0.68235232
vn 0.01994509 0.00241200 -0.99979817
vn 0.03941500 0.72986377 -0.68245537
vn 0.15945179 0.98693461 0.02313443
vn 0.30045963 0.68219152 0.66658739
vn 0.35284949 0.00168825 0.93567857
vn 0.28982723 -0.68507876 0.66833171
vn 0.15600200 -0.98761020 0.01701371
vn 0.07446975 -0.73009451 -0.67927628
vn 0.05163345 -0.00385020 -0.99865868
vn 0.06170562 0.73050057 -0.68011861
vn 0.14600933 0.98871613 -0.03349161
vn 0.26196083 0.71681391 0.64618445
vn 0.34686894 0.00610959 0.93789371
vn 0.27305731 -0.71304280 0.64576286
vn 0.14129464 -0.98895457 -0.04477360
vn 0.10165639 -0.69718657 -0.70964559
vn 0.11351659 -0.00585302 -0.99351886
vn 0.11227882 0.69709195 -0.70813577
vn 0.14975462 0.98868078 0.00915809
vn 0.12542397 0.69722192 0.70579772
vn 0.11573788 0.00009607 0.99327979
vn 0.12569186 -0.69720784 0.70576397
vn 0.14976752 -0.98868034 0.00899315
vn 0.17468541 -0.70101289 -0.69142313
vn 0.05457766 -0.00010062 -0.99850952
vn 0.17494473 0.70098964 -0.69138113
vn 0.83204862 0.00000000 -0.55470271
vn 0.38972969 -0.88245832 -0.26339720
vn 0.15108172 -0.98223603 -0.11129553
vn 0.11417366 -0.98942719 -0.08943270
vn 0.03194975 -0.99865957 -0.04072205
vn 0.00818133 -0.99958458 -0.02763571
vn -0.05183404 -0.99865464 -0.00146583
vn -0.05183181 0.99865475 -0.00146902
vn 0.00817878 0.99958468 -0.02763284
vn 0.03195071 0.99865957 -0.04072109
vn 0.11417366 0.98942725 -0.08943206
vn 0.15108300 0.98223540 -0.11129935
vn 0.38972845 0.88245855 -0.26339827
vn 0.83204873 0.00000000 -0.55470255
vn 0.27417400 -0.94273940 -0.18992377
vn 0.15119082 -0.98221131 -0.11136548
vn 0.07583266 -0.99488898 -0.06667324
vn 0.02558425 -0.99898481 -0.03707822
vn -0.00173397 -0.99974722 -0.02241617
vn -0.07576801 -0.99709481 0.00782001
vn -0.98057744 0.00000000 0.19613229
vn -0.07576453 0.99709508 0.00781969
vn -0.00173906 0.99974733 -0.02241076
vn 0.02558647 0.99898447 -0.03708586
vn 0.07583235 0.99488896 -0.06667387
vn 0.15119336 0.98221096 -0.11136516
vn 0.27417209 0.94274138 -0.18991670
vn -0.57735027 -0.57735027 -0.57735027
vn 0.57735027 -0.57735027 -0.57735027
vn 0.57735027 0.57735027 -0.57735027
vn -0.57735027 0.57735027 -0.57735027
vn -0.57735027 -0.57735027 0.57735027
vn 0.57735027 -0.57735027 0.57735027
vn 0.57735027 0.57735027 0.57735027
vn -0.57735027 0.57735027 0.57735027
f 1//1 17//17 16//16
f 2//2 18//18 17//17
f 3//3 19//19 18//18
f 4//4 20//20 19//19
f 5//5 21//21 20//20
f 6//6 22//22 21//21
f 7//7 23//23 22//22
f 8//8 24//24 23//23
f 9//9 25//25 24//24
f 10//10 26//26 25//25
f 11//11 27//27 26//26
f 12//12 28//28 27//27
f 13//13 29//29 28//28
f 14//14 30//30 29//29
f 15//15 16//16 30//30
f 1//1 2//2 17//17
f 2//2 3//3 18//18
f 3//3 4//4 19//19
f 4//4 5//5 20//20
f 5//5 6//6 21//21
f 6//6 7//7 22//22
f 7//7 8//8 23//23
f 8//8 9//9 24//24
f 9//9 10//10 25//25
f 10//10 11//11 26//26
f 11//11 12//12 27//27
f 12//12 13//13 28//28
f 13//13 14//14 29//29
f 14//14 15//15 30//30
f 15//15 1//1 16//16
f 31//31 47//47 46//46
f 32//32 48//48 47//47
f 33//33 49//49 48//48
f 34//34 50//50 49//49
f 35//35 51//51 50//50
f 36//36 52//52 51//51
f 37//37 53//53 52//52
f 38//38 54//54 53//53
f 39//39 55//55 54//54
f 40//40 56//56 55//55
f 41//41 57//57 56//56
f 42//42 58//58 57//57
f 43//43 59//59 58//58
f 44//44 60//60 59//59
f 45//45 46//46 60//60
f 31//31 32//32 47//47
f 32//32 33//33 48//48
f 33//33 34//34 49//49
f 34//34 35//35 50//50
f 35//35 36//36 51//51
f 36//36 37//37 52//52
f 37//37 38//38 53//53
f 38//38 39//39 54//54
f 39//39 40//40 55//55
f 40//40 41//41 56//56
f 41//41 42//42 57//57
f 42//42 43//43 58//58
f 43//43 44//44 59//59
f 44//44 45//45 60//60
f 45//45 31//31 46//46
f 61//61 77//77 76//76
f 62//62 78//78 77//77
f 63//63 79//79 78//78
f 64//64 80//80 79//79
f 65//65 81//81 80//80
f 66//66 82//82 81//81
f 67//67 83//83 82//82
f 68//68 84//84 83//83
f 69//69 85//85 84//84
f 70//70 86//86 85//85
f 71//71 87//87 86//86
f 72//72 88//88 87//87
f 73//73 89//89 88//88
f 74//74 90//90 89//89
f 75//75 76//76 90//90
f 61//61 62//62 77//77
f 62//62 63//63 78//78
f 63//63 64//64 79//79
f 64//64 65//65 80//80
f 65//65 66//66 81//81
f 66//66 67//67 82//82
f 67//67 68//68 83//83
f 68//68 69//69 84//84
f 69//69 70//70 85//85
f 70//70 71//71 86//86
f 71//71 72//72 87//87
f 72//72 73//73 88//88
f 73//73 74//74 89//89
f 74//74 75//75 90//90
f 75//75 61//61 76//76
f 61//61 92//92 91//91
f 62//62 93//93 92//92
f 63//63 94//94 93//93
f 64//64 95//95 94//94
f 65//65 96//96 95//95
f 66//66 97//97 96//96
f 67//67 98//98 97//97
f 68//68 99//99 98//98
f 69//69 100//100 99//99
f 70//70 101//101 100//100
f 71//71 102//102 101//101
f 72//72 103//103 102//102
f 73//73 104//104 103//103
f 74//74 105//105 104//104
f 75//75 91//91 105//105
f 61//61 62//62 92//92
f 62//62 63//63 93//93
f 63//63 64//64 94//94
f 64//64 65//65 95//95
f 65//65 66//66 96//96
f 66//66 67//67 97//97
f 67//67 68//68 98//98
f 68//68 69//69 99//99
f 69//69 70//70 100//100
f 70//70 71//71 101//101
f 71//71 72//72 102//102
f 72//72 73//73 103//103
f 73//73 74//74 104//104
f 74//74 75//75 105//105
f 75//75 61//61 91//91
f 106//106 115//115 114//114
f 107//107 116//116 115//115
f 108//108 117//117 116//116
f 109//109 118//118 117//117
f 110//110 119//119 118//118
f 111//111 120//120 119//119
f 112//112 121//121 120//120
f 113//113 114//114 121//121
f 114//114 123//123 122//122
f 115//115 124//124 123//123
f 116//116 125//125 124//124
f 117//117 126//126 125//125
f 118//118 127//127 126//126
f 119//119 128//128 127//127
f 120//120 129//129 128//128
f 121//121 122//122 129//129
f 122//122 131//131 130//130
f 123//123 132//132 131//131
f 124//124 133//133 132//132
f 125//125 134//134 133//133
f 126//126 135//135 134//134
f 127//127 136//136 135//135
f 128//128 137//137 136//136
f 129//129 130//130 137//137
f 130//130 139//139 138//138
f 131//131 140//140 139//139
f 132//132 141//141 140//140
f 133//133 142//142 141//141
f 134//134 143//143 142//142
f 135//135 144//144 143//143
f 136//136 145//145 144//144
f 137//137 138//138 145//145
f 138//138 147//147 146//146
f 139//139 148//148 147//147
f 140//140 149//149 148//148
f 141//141 150//150 149//149
f 142//142 151//151 150//150
f 143//143 152//152 151//151
f 144//144 153//153 152//152
f 145//145 146//146 153//153
f 146//146 155//155 154//154
f 147//147 156//156 155//155
f 148//148 157//157 156//156
f 149//149 158//158 157//157
f 150//150 159//159 158//158
f 151//151 160//160 159//159
f 152//152 161//161 160//160
f 153//153 154//154 161//161
f 154//154 163//163 162//162
f 155//155 164//164 163//163
f 156//156 165//165 164//164
f 157//157 166//166 165//165
f 158//158 167//167 166//166
f 159//159 168//168 167//167
f 160//160 169//169 168//168
f 161//161 162//162 169//169
f 106//106 107//107 115//115
f 107//107 108//108 116//116
f 108//108 109//109 117//117
f 109//109 110//110 118//118
f 110//110 111//111 119//119
f 111//111 112//112 120//120
f 112//112 113//113 121//121
f 113//113 106//106 114//114
f 114//114 115//115 123//123
f 115//115 116//116 124//124
f 116//116 117//117 125//125
f 117//117 118//118 126//126
f 118//118 119//119 127//127
f 119//119 120//120 128//128
f 120//120 121//121 129//129
f 121//121 114//114 122//122
f 122//122 123//123 131//131
f 123//123 124//124 132//132
f 124//124 125//125 133//133
f 125//125 126//126 134//134
f 126//126 127//127 135//135
f 127//127 128//128 136//136
f 128//128 129//129 137//137
f 129//129 122//122 130//130
f 130//130 131//131 139//139
f 131//131 132//132 140//140
f 132//132 133//133 141//141
f 133//133 134//134 142//142
f 134//134 135//135 143//143
f 135//135 136//136 144//144
f 136//136 137//137 145//145
f 137//137 130//130 138//138
f 138//138 139//139 147//147
f 139//139 140//140 148//148
f 140//140 141//141 149//149
f 141//141 142//142 150//150
f 142//142 143//143 151//151
f 143//143 144//144 152//152
f 144//144 145//145 153//153
f 145//145 138//138 146//146
f 146//146 147//147 155//155
f 147//147 148//148 156//156
f 148//148 149//149 157//157
f 149//149 150//150 158//158
f 150//150 151//151 159//159
f 151//151 152//152 160//160
f 152//152 153//153 161//161
f 153//153 146//146 154//154
f 154//154 155//155 163//163
f 155//155 156//156 164//164
f 156//156 157//157 165//165
f 157//157 158//158 166//166
f 158//158 159//159 167//167
f 159//159 160//160 168//168
f 160//160 161//161 169//169
f 161//161 154//154 162//162
f 170//170 184//184 183//183
f 171//171 185//185 184//184
f 172//172 186//186 185//185
f 173//173 187//187 186//186
f 174//174 188//188 187//187
f 175//175 189//189 188//188
f 176//176 190//190 189//189
f 168//168 191//191 190//190
f 177//177 192//192 191//191
f 178//178 193//193 192//192
f 179//179 194//194 193//193
f 180//180 195//195 194//194
f 181//181 196//196 195//195
f 182//182 183//183 196//196
f 170//170 171//171 184//184
f 171//171 172//172 185//185
f 172//172 173//173 186//186
f 173//173 174//174 187//187
f 174//174 175//175 188//188
f 175//175 176//176 189//189
f 176//176 168//168 190//190
f 168//168 177//177 191//191
f 177//177 178//178 192//192
f 178//178 179//179 193//193
f 179//179 180//180 194//194
f 180//180 181//181 195//195
f 181//181 182//182 196//196
f 182//182 170//170 183//183
f 197//197 200//200 198//198
f 198//198 200//200 199//199
f 197//197 202//202 201//201
f 197//197 198//198 202//202
f 197//197 201//201 200//200
f 200//200 201//201 204//204
f 200//200 204//204 203//203
f 200//200 203//203 199//199
f 198//198 203//203 202//202
f 198//198 199//199 203//203
f 202//202 204//204 201//201
f 202//202 203//203 204//204

