# https://github.com/mikedh/trimesh
v -0.07280994 -0.00189539 -0.00934390
v -0.06864362 -0.00189539 -0.00626706
v -0.06447625 -0.00189539 -0.00549758
v -0.06030888 -0.00189539 -0.00472811
v -0.05614257 -0.00189539 -0.00453653
v -0.04780888 -0.00189539 -0.00434390
v -0.02280678 -0.00189539 -0.00472811
v 0.01052901 -0.00189539 -0.00934390
v -0.02280678 -0.00189539 -0.01395969
v -0.04780888 -0.00189539 -0.01434495
v -0.05614257 -0.00189539 -0.01415232
v -0.06030888 -0.00189539 -0.01395969
v -0.06447625 -0.00189539 -0.01319021
v -0.06864362 -0.00189539 -0.01242074
v -0.07280994 0.25003724 -0.00934390
v -0.06864362 0.25003724 -0.00626706
v -0.06447625 0.25003724 -0.00549758
v -0.06030888 0.25003724 -0.00472811
v -0.05614257 0.25003724 -0.00453653
v -0.04780888 0.25003724 -0.00434390
v -0.02280678 0.25003724 -0.00472811
v 0.01052901 0.25003724 -0.00934390
v -0.02280678 0.25003724 -0.01395969
v -0.04780888 0.25003724 -0.01434495
v -0.05614257 0.25003724 -0.01415232
v -0.06030888 0.25003724 -0.01395969
v -0.06447625 0.25003724 -0.01319021
v -0.06864362 0.25003724 -0.01242074
v -0.07280994 0.00188988 -0.00934390
v -0.06864362 0.00188988 -0.00626706
v -0.06447625 0.00188988 -0.00549758
v -0.06030888 0.00188988 -0.00472811
v -0.05614257 0.00188988 -0.00453653
v -0.04780888 0.00188988 -0.00434390
v -0.02280678 0.00188988 -0.00472811
v 0.01052901 0.00188988 -0.00934390
v -0.02280678 0.00188988 -0.01395969
v -0.04780888 0.00188988 -0.01434495
v -0.05614257 0.00188988 -0.01415232
v -0.06030888 0.00188988 -0.01395969
v -0.06447625 0.00188988 -0.01319021
v -0.06864362 0.00188988 -0.01242074
v -0.07280994 -0.25004276 -0.00934390
v -0.06864362 -0.25004276 -0.00626706
v -0.06447625 -0.25004276 -0.00549758
v -0.06030888 -0.25004276 -0.00472811
v -0.05614257 -0.25004276 -0.00453653
v -0.04780888 -0.25004276 -0.00434390
v -0.02280678 -0.25004276 -0.00472811
v 0.01052901 -0.25004276 -0.00934390
v -0.02280678 -0.25004276 -0.01395969
v -0.04780888 -0.25004276 -0.01434495
v -0.05614257 -0.25004276 -0.01415232
v -0.06030888 -0.25004276 -0.01395969
v -0.06447625 -0.25004276 -0.01319021
v -0.06864362 -0.25004276 -0.01242074
v -0.07286046 0.24964777 -0.00934390
v -0.06869415 0.24964777 -0.00626706
v -0.06452678 0.24964777 -0.00549758
v -0.06036046 0.24964777 -0.00472811
v -0.05619309 0.24964777 -0.00453653
v -0.04785941 0.24964777 -0.00434390
v -0.02285731 0.24964777 -0.00472811
v 0.01047743 0.24964777 -0.00934390
v -0.02285731 0.24964777 -0.01395969
v -0.04785941 0.24964777 -0.01434495
v -0.05619309 0.24964777 -0.01415232
v -0.06036046 0.24964777 -0.01395969
v -0.06452678 0.24964777 -0.01319021
v -0.06869415 0.24964777 -0.01242074
v -0.07286046 0.49999724 0.03232557
v -0.06952783 0.49999724 0.03478663
v -0.06619415 0.49999724 0.03540242
v -0.06286046 0.49999724 0.03601821
v -0.05952678 0.49999724 0.03617189
v -0.05285941 0.49999724 0.03632557
v -0.03285836 0.49999724 0.03601821
v -0.00618994 0.49999724 0.03232557
v -0.03285836 0.49999724 0.02863294
v -0.05285941 0.49999724 0.02832452
v -0.05952678 0.49999724 0.02847926
v -0.06286046 0.49999724 0.02863294
v -0.06619415 0.49999724 0.02924768
v -0.06952783 0.49999724 0.02986347
v -0.07286046 -0.24965328 -0.00934390
v -0.06869415 -0.24965328 -0.00626706
v -0.06452678 -0.24965328 -0.00549758
v -0.06036046 -0.24965328 -0.00472811
v -0.05619309 -0.24965328 -0.00453653
v -0.04785941 -0.24965328 -0.00434390
v -0.02285731 -0.24965328 -0.00472811
v 0.01047743 -0.24965328 -0.00934390
v -0.02285731 -0.24965328 -0.01395969
v -0.04785941 -0.24965328 -0.01434495
v -0.05619309 -0.24965328 -0.01415232
v -0.06036046 -0.24965328 -0.01395969
v -0.06452678 -0.24965328 -0.01319021
v -0.06869415 -0.24965328 -0.01242074
v -0.07286046 -0.50000276 0.03232557
v -0.06952783 -0.50000276 0.03478663
v -0.06619415 -0.50000276 0.03540242
v -0.06286046 -0.50000276 0.03601821
v -0.05952678 -0.50000276 0.03617189
v -0.05285941 -0.50000276 0.03632557
v -0.03285836 -0.50000276 0.03601821
v -0.00618994 -0.50000276 0.03232557
v -0.03285836 -0.50000276 0.02863294
v -0.05285941 -0.50000276 0.02832452
v -0.05952678 -0.50000276 0.02847926
v -0.06286046 -0.50000276 0.02863294
v -0.06619415 -0.50000276 0.02924768
v -0.06952783 -0.50000276 0.02986347
v 0.19515954 0.00387935 -0.00293969
v 0.19724269 0.00387935 -0.00140074
v 0.19932585 0.00387935 -0.00101653
v 0.20140901 0.00387935 -0.00063127
v 0.20349322 0.00387935 -0.00053548
v 0.20765954 0.00387935 -0.00043969
v 0.22016059 0.00387935 -0.00063127
v 0.23682796 0.00387935 -0.00293969
v 0.22016059 0.00387935 -0.00524706
v 0.20765954 0.00387935 -0.00543969
v 0.20349322 0.00387935 -0.00534390
v 0.20140901 0.00387935 -0.00524706
v 0.19932585 0.00387935 -0.00486285
v 0.19724269 0.00387935 -0.00447758
v 0.21087112 0.12888777 -0.00293969
v 0.21218375 0.12888777 -0.00197021
v 0.21349638 0.12888777 -0.00172811
v 0.21480901 0.12888777 -0.00148600
v 0.21612164 0.12888777 -0.00142495
v 0.21874585 0.12888777 -0.00136495
v 0.22662059 0.12888777 -0.00148600
v 0.23711954 0.12888777 -0.00293969
v 0.22662059 0.12888777 -0.00439337
v 0.21874585 0.12888777 -0.00451443
v 0.21612164 0.12888777 -0.00445337
v 0.21480901 0.12888777 -0.00439337
v 0.21349638 0.12888777 -0.00415127
v 0.21218375 0.12888777 -0.00390811
v 0.19515954 -0.00388486 -0.00293969
v 0.19724269 -0.00388486 -0.00140074
v 0.19932585 -0.00388486 -0.00101653
v 0.20140901 -0.00388486 -0.00063127
v 0.20349322 -0.00388486 -0.00053548
v 0.20765954 -0.00388486 -0.00043969
v 0.22016059 -0.00388486 -0.00063127
v 0.23682796 -0.00388486 -0.00293969
v 0.22016059 -0.00388486 -0.00524706
v 0.20765954 -0.00388486 -0.00543969
v 0.20349322 -0.00388486 -0.00534390
v 0.20140901 -0.00388486 -0.00524706
v 0.19932585 -0.00388486 -0.00486285
v 0.19724269 -0.00388486 -0.00447758
v 0.21087112 -0.12889328 -0.00293969
v 0.21218375 -0.12889328 -0.00197021
v 0.21349638 -0.12889328 -0.00172811
v 0.21480901 -0.12889328 -0.00148600
v 0.21612164 -0.12889328 -0.00142495
v 0.21874585 -0.12889328 -0.00136495
v 0.22662059 -0.12889328 -0.00148600
v 0.23711954 -0.12889328 -0.00293969
v 0.22662059 -0.12889328 -0.00439337
v 0.21874585 -0.12889328 -0.00451443
v 0.21612164 -0.12889328 -0.00445337
v 0.21480901 -0.12889328 -0.00439337
v 0.21349638 -0.12889328 -0.00415127
v 0.21218375 -0.12889328 -0.00390811
v -0.17412678 0.00208040 -0.01179653
v -0.17412678 0.00147093 -0.01032390
v -0.17412678 -0.00000276 -0.00971337
v -0.17412678 -0.00147644 -0.01032390
v -0.17412678 -0.00208591 -0.01179653
v -0.17412678 -0.00147644 -0.01327021
v -0.17412678 -0.00000276 -0.01387969
v -0.17412678 0.00147093 -0.01327021
v -0.12770678 0.00833093 -0.01043758
v -0.12770678 0.00588988 -0.00454390
v -0.12770678 -0.00000276 -0.00210390
v -0.12770678 -0.00589539 -0.00454390
v -0.12770678 -0.00833644 -0.01043758
v -0.12770678 -0.00589539 -0.01633021
v -0.12770678 -0.00000276 -0.01877127
v -0.12770678 0.00588988 -0.01633021
v -0.09550467 0.00833093 -0.01018495
v -0.09550467 0.00588988 -0.00429232
v -0.09550467 -0.00000276 -0.00185127
v -0.09550467 -0.00589539 -0.00429232
v -0.09550467 -0.00833644 -0.01018495
v -0.09550467 -0.00589539 -0.01607864
v -0.09550467 -0.00000276 -0.01851864
v -0.09550467 0.00588988 -0.01607864
v 0.21397638 0.00163724 -0.01190706
v 0.21397638 0.00115724 -0.01011127
v 0.21397638 -0.00000276 -0.00936811
v 0.21397638 -0.00116276 -0.01011127
v 0.21397638 -0.00164381 -0.01190706
v 0.21397638 -0.00116276 -0.01370285
v 0.21397638 -0.00000276 -0.01444706
v 0.21397638 0.00115724 -0.01370285
v 0.18637743 -0.00000276 -0.01488600
v 0.18973848 0.00206567 -0.01488600
v 0.19309954 0.00258251 -0.01488600
v 0.19646059 0.00309935 -0.01488600
v 0.19982164 0.00322882 -0.01488600
v 0.20654375 0.00335830 -0.01488600
v 0.22671006 0.00309935 -0.01488600
v 0.25359848 -0.00000276 -0.01488600
v 0.22671006 -0.00310486 -0.01488600
v 0.20654375 -0.00336381 -0.01488600
v 0.19982164 -0.00323433 -0.01488600
v 0.19646059 -0.00310486 -0.01488600
v 0.19309954 -0.00258802 -0.01488600
v 0.18973848 -0.00207118 -0.01488600
v 0.22702585 -0.00000276 0.06845294
v 0.22833848 0.00080461 0.06845294
v 0.22965006 0.00100672 0.06845294
v 0.23096269 0.00120882 0.06845294
v 0.23227533 0.00125935 0.06845294
v 0.23490059 0.00130988 0.06845294
v 0.24277427 0.00120882 0.06845294
v 0.25327427 -0.00000276 0.06845294
v 0.24277427 -0.00121433 0.06845294
v 0.23490059 -0.00131539 0.06845294
v 0.23227533 -0.00126486 0.06845294
v 0.23096269 -0.00121433 0.06845294
v 0.22965006 -0.00101223 0.06845294
v 0.22833848 -0.00081012 0.06845294
v -0.07828888 -0.00082276 -0.01373021
v -0.06844573 -0.00082276 -0.01373021
v -0.06844573 0.00409830 -0.01373021
v -0.07828888 0.00409830 -0.01373021
v -0.07828888 -0.00082276 -0.00552706
v -0.06844573 -0.00082276 -0.00552706
v -0.06844573 0.00409830 -0.00552706
v -0.07828888 0.00409830 -0.00552706
vn -1.00000000 0.00000000 -0.00000804
vn -0.39800833 0.00000000 0.91738180
vn -0.18152544 0.00000000 0.98338625
vn -0.11408332 0.00000000 0.99347119
vn -0.03459303 0.00000000 0.99940148
vn -0.00384494 0.00000000 0.99999261
vn 0.07640963 0.00000000 0.99707651
vn 1.00000000 0.00000000 0.00000000
vn 0.07640963 0.00000000 -0.99707651
vn -0.00384494 0.00000000 -0.99999261
vn -0.03459303 0.00000000 -0.99940148
vn -0.11408332 0.00000000 -0.99347119
vn -0.18153723 0.00000000 -0.98338407
vn -0.39801205 0.00000000 -0.91738019
vn -1.00000000 0.00000000 -0.00000804
vn -0.39800833 0.00000000 0.91738180
vn -0.18152544 0.00000000 0.98338625
vn -0.11408332 0.00000000 0.99347119
vn -0.03459303 0.00000000 0.99940148
vn -0.00384494 0.00000000 0.99999261
vn 0.07640963 0.00000000 0.99707651
vn 1.00000000 0.00000000 0.00000000
vn 0.07640963 0.00000000 -0.99707651
vn -0.00384494 0.00000000 -0.99999261
vn -0.03459303 0.00000000 -0.99940148
vn -0.11408332 0.00000000 -0.99347119
vn -0.18153723 0.00000000 -0.98338407
vn -0.39801205 0.00000000 -0.91738019
vn 1.00000000 0.00000000 0.00000804
vn 0.39800833 0.00000000 -0.91738180
vn 0.18152544 0.00000000 -0.98338625
vn 0.11408332 0.00000000 -0.99347119
vn 0.03459303 0.00000000 -0.99940148
vn 0.00384494 0.00000000 -0.99999261
vn -0.07640963 0.00000000 -0.99707651
vn -1.00000000 0.00000000 0.00000000
vn -0.07640963 0.00000000 0.99707651
vn 0.00384494 0.00000000 0.99999261
vn 0.03459303 0.00000000 0.99940148
vn 0.11408332 0.00000000 0.99347119
vn 0.18153723 0.00000000 0.98338407
vn 0.39801205 0.00000000 0.91738019
vn 1.00000000 0.00000000 0.00000804
vn 0.39800833 0.00000000 -0.91738180
vn 0.18152544 0.00000000 -0.98338625
vn 0.11408332 0.00000000 -0.99347119
vn 0.03459303 0.00000000 -0.99940148
vn 0.00384494 0.00000000 -0.99999261
vn -0.07640963 0.00000000 -0.99707651
vn -1.00000000 0.00000000 0.00000000
vn -0.07640963 0.00000000 0.99707651
vn 0.00384494 0.00000000 0.99999261
vn 0.03459303 0.00000000 0.99940148
vn 0.11408332 0.00000000 0.99347119
vn 0.18153723 0.00000000 0.98338407
vn 0.39801205 0.00000000 0.91738019
vn -0.99637502 0.01396666 -0.08391520
vn -0.40175581 -0.14949329 0.90346224
vn -0.17921460 -0.15978619 0.97074739
vn -0.11298352 -0.16071385 0.98051302
vn -0.03408196 -0.16084442 0.98639115
vn -0.00356381 -0.16041623 0.98704303
vn 0.07745396 -0.15714593 0.98453341
vn 0.99192565 0.08212358 -0.09663961
vn 0.07629677 0.17019429 -0.98245239
vn -0.00354594 0.16794642 -0.98578975
vn -0.03396297 0.16733265 -0.98531533
vn -0.11130730 0.16559926 -0.97989161
vn -0.17912361 0.16327020 -0.97018430
vn -0.38461706 0.15248774 -0.91039398
vn -0.99637605 -0.01396605 0.08390296
vn -0.38574729 -0.15055050 0.91023820
vn -0.17920723 -0.15978622 0.97074875
vn -0.11224173 -0.16072044 0.98059713
vn -0.03418601 -0.16084523 0.98638741
vn -0.00402793 -0.16042480 0.98703985
vn 0.07350092 -0.15734773 0.98480420
vn 0.99286090 0.04792283 0.10922746
vn 0.07427766 0.17014155 -0.98261624
vn -0.00403910 0.16793661 -0.98578952
vn -0.03423075 0.16732796 -0.98530686
vn -0.11375308 0.16552906 -0.97962256
vn -0.17911836 0.16327067 -0.97018519
vn -0.40275319 0.15113499 -0.90274475
vn 0.99637502 0.01396666 0.08391520
vn 0.40175581 -0.14949329 -0.90346224
vn 0.17921460 -0.15978619 -0.97074739
vn 0.11298352 -0.16071385 -0.98051302
vn 0.03408196 -0.16084442 -0.98639115
vn 0.00356381 -0.16041623 -0.98704303
vn -0.07745396 -0.15714593 -0.98453341
vn -0.99192565 0.08212358 0.09663961
vn -0.07629677 0.17019429 0.98245239
vn 0.00354594 0.16794642 0.98578975
vn 0.03396297 0.16733265 0.98531533
vn 0.11130730 0.16559926 0.97989161
vn 0.17912361 0.16327020 0.97018430
vn 0.38461706 0.15248774 0.91039398
vn 0.99637605 -0.01396605 -0.08390296
vn 0.38574729 -0.15055050 -0.91023820
vn 0.17920723 -0.15978622 -0.97074875
vn 0.11224173 -0.16072044 -0.98059713
vn 0.03418601 -0.16084523 -0.98638741
vn 0.00402793 -0.16042480 -0.98703985
vn -0.07350092 -0.15734773 -0.98480420
vn -0.99286090 0.04792283 -0.10922746
vn -0.07427766 0.17014155 0.98261624
vn 0.00403910 0.16793661 0.98578952
vn 0.03423075 0.16732796 0.98530686
vn 0.11375308 0.16552906 0.97962256
vn 0.17911836 0.16327067 0.97018519
vn 0.40275319 0.15113499 0.90274475
vn -0.99219390 0.12470467 0.00000057
vn -0.41132207 0.05330589 0.90993002
vn -0.18150731 0.02617176 0.98304127
vn -0.11861759 0.01949706 0.99274857
vn -0.03532351 0.01068053 0.99931886
vn -0.00492213 0.00783740 0.99995717
vn 0.07439470 0.00296839 0.99722446
vn 0.99999728 -0.00233359 0.00000232
vn 0.07439757 0.00296871 -0.99722424
vn -0.00493519 0.00783899 -0.99995710
vn -0.03530852 0.01067893 -0.99931940
vn -0.11862000 0.01949746 -0.99274828
vn -0.18152984 0.02617398 -0.98303705
vn -0.41132170 0.05330457 -0.90993026
vn -0.99219380 0.12470552 0.00000100
vn -0.38317732 0.04999689 0.92232069
vn -0.18147388 0.02616762 0.98304755
vn -0.10949807 0.01852639 0.99381434
vn -0.03382578 0.01052926 0.99937228
vn -0.00276286 0.00764650 0.99996695
vn 0.07842464 0.00275823 0.99691623
vn 0.99999727 -0.00233574 0.00000000
vn 0.07843066 0.00275855 -0.99691575
vn -0.00277464 0.00764746 -0.99996691
vn -0.03384679 0.01053148 -0.99937154
vn -0.10949776 0.01852735 -0.99381436
vn -0.18147387 0.02616857 -0.98304753
vn -0.38317662 0.04999851 -0.92232089
vn 0.99219390 0.12470467 -0.00000057
vn 0.41132207 0.05330589 -0.90993002
vn 0.18150731 0.02617176 -0.98304127
vn 0.11861759 0.01949706 -0.99274857
vn 0.03532351 0.01068053 -0.99931886
vn 0.00492213 0.00783740 -0.99995717
vn -0.07439470 0.00296839 -0.99722446
vn -0.99999728 -0.00233359 -0.00000232
vn -0.07439757 0.00296871 0.99722424
vn 0.00493519 0.00783899 0.99995710
vn 0.03530852 0.01067893 0.99931940
vn 0.11862000 0.01949746 0.99274828
vn 0.18152984 0.02617398 0.98303705
vn 0.41132170 0.05330457 0.90993026
vn 0.99219380 0.12470552 -0.00000100
vn 0.38317732 0.04999689 -0.92232069
vn 0.18147388 0.02616762 -0.98304755
vn 0.10949807 0.01852639 -0.99381434
vn 0.03382578 0.01052926 -0.99937228
vn 0.00276286 0.00764650 -0.99996695
vn -0.07842464 0.00275823 -0.99691623
vn -0.99999727 -0.00233574 0.00000000
vn -0.07843066 0.00275855 0.99691575
vn 0.00277464 0.00764746 0.99996691
vn 0.03384679 0.01053148 0.99937154
vn 0.10949776 0.01852735 0.99381436
vn 0.18147387 0.02616857 0.98304753
vn 0.38317662 0.04999851 0.92232089
vn -0.13320211 0.99106181 -0.00732705
vn -0.15339783 0.70253951 0.69491535
vn -0.16176057 -0.00000562 0.98683003
vn -0.15342103 -0.70251831 0.69493166
vn -0.13319982 -0.99106181 -0.00736870
vn -0.11310451 -0.69901280 -0.70610798
vn -0.10477752 0.00000638 -0.99449569
vn -0.11312496 0.69899198 -0.70612531
vn -0.06589311 0.99782397 0.00232865
vn -0.07838428 0.70379152 0.70606897
vn -0.08350017 -0.00000106 0.99650776
vn -0.07838088 -0.70378925 0.70607162
vn -0.06589241 -0.99782403 0.00232391
vn -0.05321000 -0.70729616 -0.70491194
vn -0.04790041 0.00000070 -0.99885212
vn -0.05320732 0.70729390 -0.70491441
vn 0.01056821 0.99994303 0.00149992
vn 0.00903662 0.70647796 0.70767735
vn 0.00840462 -0.00012420 0.99996467
vn 0.00945676 -0.70647480 0.70767501
vn 0.01056977 -0.99994261 0.00174744
vn 0.01066308 -0.70809202 -0.70603965
vn 0.01069849 0.00012412 -0.99994276
vn 0.01108597 0.70808862 -0.70603655
vn 0.02022839 0.99979381 -0.00177592
vn 0.02486434 0.80759174 0.58921757
vn 0.02641014 -0.00117318 0.99965050
vn 0.02151510 -0.80731473 0.58972877
vn 0.02024988 -0.99979495 -0.00005288
vn 0.01828834 -0.80632261 -0.59119319
vn 0.01528738 0.00116681 -0.99988246
vn 0.01493727 0.80635153 -0.59124791
vn 0.89878693 -0.00000074 -0.43838574
vn 0.38317317 -0.90368219 -0.19114606
vn 0.15143754 -0.98480222 -0.08503682
vn 0.10911778 -0.99172266 -0.06767184
vn 0.03112395 -0.99887685 -0.03572601
vn 0.00655471 -0.99961932 -0.02680030
vn -0.05760525 -0.99827271 -0.01154267
vn -0.99999247 0.00000000 -0.00388112
vn -0.05760430 0.99827277 -0.01154235
vn 0.00655439 0.99961933 -0.02679999
vn 0.03112395 0.99887687 -0.03572538
vn 0.10911872 0.99172243 -0.06767374
vn 0.15143815 0.98480174 -0.08504126
vn 0.38317113 0.90368341 -0.19114438
vn 0.89878482 -0.00000453 -0.43839007
vn 0.29238093 -0.94451067 -0.14970966
vn 0.15166463 -0.98475825 -0.08514126
vn 0.08123518 -0.99510881 -0.05620766
vn 0.02657263 -0.99906996 -0.03395749
vn -0.00014259 -0.99969926 -0.02452303
vn -0.07001539 -0.99750410 -0.00913280
vn -0.99999251 -0.00000277 -0.00386984
vn -0.07001314 0.99750424 -0.00913535
vn -0.00014322 0.99969927 -0.02452240
vn 0.02657263 0.99906992 -0.03395876
vn 0.08123740 0.99510868 -0.05620670
vn 0.15166590 0.98475882 -0.08513234
vn 0.29237508 0.94451353 -0.14970308
vn -0.57735027 -0.57735027 -0.57735027
vn 0.57735027 -0.57735027 -0.57735027
vn 0.57735027 0.57735027 -0.57735027
vn -0.57735027 0.57735027 -0.57735027
vn -0.57735027 -0.57735027 0.57735027
vn 0.57735027 -0.57735027 0.57735027
vn 0.57735027 0.57735027 0.57735027
vn -0.57735027 0.57735027 0.57735027
f 1//1 16//16 15//15
f 2//2 17//17 16//16
f 3//3 18//18 17//17
f 4//4 19//19 18//18
f 5//5 20//20 19//19
f 6//6 21//21 20//20
f 7//7 22//22 21//21
f 8//8 23//23 22//22
f 9//9 24//24 23//23
f 10//10 25//25 24//24
f 11//11 26//26 25//25
f 12//12 27//27 26//26
f 13//13 28//28 27//27
f 14//14 15//15 28//28
f 1//1 2//2 16//16
f 2//2 3//3 17//17
f 3//3 4//4 18//18
f 4//4 5//5 19//19
f 5//5 6//6 20//20
f 6//6 7//7 21//21
f 7//7 8//8 22//22
f 8//8 9//9 23//23
f 9//9 10//10 24//24
f 10//10 11//11 25//25
f 11//11 12//12 26//26
f 12//12 13//13 27//27
f 13//13 14//14 28//28
f 14//14 1//1 15//15
f 29//29 44//44 43//43
f 30//30 45//45 44//44
f 31//31 46//46 45//45
f 32//32 47//47 46//46
f 33//33 48//48 47//47
f 34//34 49//49 48//48
f 35//35 50//50 49//49
f 36//36 51//51 50//50
f 37//37 52//52 51//51
f 38//38 53//53 52//52
f 39//39 54//54 53//53
f 40//40 55//55 54//54
f 41//41 56//56 55//55
f 42//42 43//43 56//56
f 29//29 30//30 44//44
f 30//30 31//31 45//45
f 31//31 32//32 46//46
f 32//32 33//33 47//47
f 33//33 34//34 48//48
f 34//34 35//35 49//49
f 35//35 36//36 50//50
f 36//36 37//37 51//51
f 37//37 38//38 52//52
f 38//38 39//39 53//53
f 39//39 40//40 54//54
f 40//40 41//41 55//55
f 41//41 42//42 56//56
f 42//42 29//29 43//43
f 57//57 72//72 71//71
f 58//58 73//73 72//72
f 59//59 74//74 73//73
f 60//60 75//75 74//74
f 61//61 76//76 75//75
f 62//62 77//77 76//76
f 63//63 78//78 77//77
f 64//64 79//79 78//78
f 65//65 80//80 79//79
f 66//66 81//81 80//80
f 67//67 82//82 81//81
f 68//68 83//83 82//82
f 69//69 84//84 83//83
f 70//70 71//71 84//84
f 57//57 58//58 72//72
f 58//58 59//59 73//73
f 59//59 60//60 74//74
f 60//60 61//61 75//75
f 61//61 62//62 76//76
f 62//62 63//63 77//77
f 63//63 64//64 78//78
f 64//64 65//65 79//79
f 65//65 66//66 80//80
f 66//66 67//67 81//81
f 67//67 68//68 82//82
f 68//68 69//69 83//83
f 69//69 70//70 84//84
f 70//70 57//57 71//71
f 85//85 100//100 99//99
f 86//86 101//101 100//100
f 87//87 102//102 101//101
f 88//88 103//103 102//102
f 89//89 104//104 103//103
f 90//90 105//105 104//104
f 91//91 106//106 105//105
f 92//92 107//107 106//106
f 93//93 108//108 107//107
f 94//94 109//109 108//108
f 95//95 110//110 109//109
f 96//96 111//111 110//110
f 97//97 112//112 111//111
f 98//98 99//99 112//112
f 85//85 86//86 100//100
f 86//86 87//87 101//101
f 87//87 88//88 102//102
f 88//88 89//89 103//103
f 89//89 90//90 104//104
f 90//90 91//91 105//105
f 91//91 92//92 106//106
f 92//92 93//93 107//107
f 93//93 94//94 108//108
f 94//94 95//95 109//109
f 95//95 96//96 110//110
f 96//96 97//97 111//111
f 97//97 98//98 112//112
f 98//98 85//85 99//99
f 113//113 128//128 127//127
f 114//114 129//129 128//128
f 115//115 130//130 129//129
f 116//116 131//131 130//130
f 117//117 132//132 131//131
f 118//118 133//133 132//132
f 119//119 134//134 133//133
f 120//120 135//135 134//134
f 121//121 136//136 135//135
f 122//122 137//137 136//136
f 123//123 138//138 137//137
f 124//124 139//139 138//138
f 125//125 140//140 139//139
f 126//126 127//127 140//140
f 113//113 114//114 128//128
f 114//114 115//115 129//129
f 115//115 116//116 130//130
f 116//116 117//117 131//131
f 117//117 118//118 132//132
f 118//118 119//119 133//133
f 119//119 120//120 134//134
f 120//120 121//121 135//135
f 121//121 122//122 136//136
f 122//122 123//123 137//137
f 123//123 124//124 138//138
f 124//124 125//125 139//139
f 125//125 126//126 140//140
f 126//126 113//113 127//127
f 141//141 156//156 155//155
f 142//142 157//157 156//156
f 143//143 158//158 157//157
f 144//144 159//159 158//158
f 145//145 160//160 159//159
f 146//146 161//161 160//160
f 147//147 162//162 161//161
f 148//148 163//163 162//162
f 149//149 164//164 163//163
f 150//150 165//165 164//164
f 151//151 166//166 165//165
f 152//152 167//167 166//166
f 153//153 168//168 167//167
f 154//154 155//155 168//168
f 141//141 142//142 156//156
f 142//142 143//143 157//157
f 143//143 144//144 158//158
f 144//144 145//145 159//159
f 145//145 146//146 160//160
f 146//146 147//147 161//161
f 147//147 148//148 162//162
f 148//148 149//149 163//163
f 149//149 150//150 164//164
f 150//150 151//151 165//165
f 151//151 152//152 166//166
f 152//152 153//153 167//167
f 153//153 154//154 168//168
f 154//154 141//141 155//155
f 169//169 178//178 177//177
f 170//170 179//179 178//178
f 171//171 180//180 179//179
f 172//172 181//181 180//180
f 173//173 182//182 181//181
f 174//174 183//183 182//182
f 175//175 184//184 183//183
f 176//176 177//177 184//184
f 177//177 186//186 185//185
f 178//178 187//187 186//186
f 179//179 188//188 187//187
f 180//180 189//189 188//188
f 181//181 190//190 189//189
f 182//182 191//191 190//190
f 183//183 192//192 191//191
f 184//184 185//185 192//192
f 185//185 194//194 193//193
f 186//186 195//195 194//194
f 187//187 196//196 195//195
f 188//188 197//197 196//196
f 189//189 198//198 197//197
f 190//190 199//199 198//198
f 191//191 200//200 199//199
f 192//192 193//193 200//200
f 169//169 170//170 178//178
f 170//170 171//171 179//179
f 171//171 172//172 180//180
f 172//172 173//173 181//181
f 173//173 174//174 182//182
f 174//174 175//175 183//183
f 175//175 176//176 184//184
f 176//176 169//169 177//177
f 177//177 178//178 186//186
f 178//178 179//179 187//187
f 179//179 180//180 188//188
f 180//180 181//181 189//189
f 181//181 182//182 190//190
f 182//182 183//183 191//191
f 183//183 184//184 192//192
f 184//184 177//177 185//185
f 185//185 186//186 194//194
f 186//186 187//187 195//195
f 187//187 188//188 196//196
f 188//188 189//189 197//197
f 189//189 190//190 198//198
f 190//190 191//191 199//199
f 191//191 192//192 200//200
f 192//192 185//185 193//193
f 201//201 216//216 215//215
f 202//202 217//217 216//216
f 203//203 218//218 217//217
f 204//204 219//219 218//218
f 205//205 220//220 219//219
f 206//206 221//221 220//220
f 207//207 222//222 221//221
f 208//208 223//223 222//222
f 209//209 224//224 223//223
f 210//210 225//225 224//224
f 211//211 226//226 225//225
f 212//212 227//227 226//226
f 213//213 228//228 227//227
f 214//214 215//215 228//228
f 201//201 202//202 216//216
f 202//202 203//203 217//217
f 203//203 204//204 218//218
f 204//204 205//205 219//219
f 205//205 206//206 220//220
f 206//206 207//207 221//221
f 207//207 208//208 222//222
f 208//208 209//209 223//223
f 209//209 210//210 224//224
f 210//210 211//211 225//225
f 211//211 212//212 226//226
f 212//212 213//213 227//227
f 213//213 214//214 228//228
f 214//214 201//201 215//215
f 229//229 232//232 230//230
f 230//230 232//232 231//231
f 229//229 234//234 233//233
f 229//229 230//230 234//234
f 229//229 233//233 232//232
f 232//232 233//233 236//236
f 232//232 236//236 235//235
f 232//232 235//235 231//231
f 230//230 235//235 234//234
f 230//230 231//231 235//235
f 234//234 236//236 233//233
f 234//234 235//235 236//236

