# https://github.com/mikedh/trimesh
v -0.35454572 0.28367298 0.13083040
v -0.35387099 0.26074666 0.16791777
v -0.34040783 0.26546666 0.09848093
v -0.34031309 0.25130666 0.12605777
v -0.33836257 0.24830561 0.12727040
v -0.33836257 0.25130666 0.12880724
v -0.33836257 0.25430772 0.13034409
v -0.33836257 0.26246666 0.09962409
v -0.33836257 0.26546666 0.10116093
v -0.33836257 0.26846772 0.10269777
v -0.33641099 0.25130666 0.13155777
v -0.33631730 0.26546666 0.10384093
v -0.33431625 0.28232456 0.09306935
v -0.33094467 0.24186666 0.15645461
v -0.33027099 0.27355930 0.11464724
v -0.32959625 0.26142140 0.13487672
v -0.21563835 0.14544035 0.42482935
v -0.21091835 0.15622877 0.41875988
v -0.19271204 0.15488035 0.39313672
v -0.18529414 0.01192666 0.30008198
v -0.18192257 0.00653298 0.30210514
v -0.17855099 0.00181193 0.27513251
v -0.17045941 0.01260140 0.26704093
v -0.16962151 0.10295824 0.11091356
v -0.16958572 0.10295824 0.11080935
v -0.16843625 0.00788140 0.27445777
v -0.16843625 0.10295824 0.10857777
v -0.16641309 0.10295824 0.11194935
v -0.16506467 0.14813719 0.35065461
v -0.16371625 0.00046351 0.27176093
v -0.16324046 0.10295824 0.11309040
v -0.16320467 0.10295824 0.11298619
v -0.15694678 0.12723403 -0.00405065
v -0.15690151 0.12723403 -0.00408434
v -0.15547309 0.09216982 0.06712303
v -0.15546151 0.09216982 0.06708303
v -0.15494993 0.12723403 -0.00133381
v -0.15407730 0.11172456 0.06765356
v -0.15392046 0.11172456 0.06728619
v -0.15299941 0.12723403 0.00141566
v -0.15295414 0.12723403 0.00138303
v -0.15292783 -0.00021018 0.23062830
v -0.15225309 0.09216982 0.06811988
v -0.14955625 0.02608772 0.20095882
v -0.14904467 0.09216982 0.06915566
v -0.14903309 0.09216982 0.06911672
v -0.14788888 0.11172456 0.07030198
v -0.14773204 0.11172456 0.06993461
v -0.14753309 0.11239930 0.07014303
v -0.14670783 0.09958666 0.03880198
v -0.14483520 0.09351824 0.08565145
v -0.14348678 0.09796245 0.04275251
v -0.14348678 0.09958666 0.03979882
v -0.14348678 0.10121193 0.03684409
v -0.14313099 0.11307298 0.04570830
v -0.14026678 0.09958666 0.04079566
v -0.14011520 0.11144772 0.05017040
v -0.14011520 0.11307298 0.04721566
v -0.14011520 0.11469824 0.04426198
v -0.13809309 0.11037614 0.01012935
v -0.13741835 0.03080772 0.20028409
v -0.13710046 0.11307298 0.04872409
v -0.13674362 0.10498140 0.01956935
v -0.13539520 0.10700456 0.07621145
v -0.13404678 0.06924351 0.13892198
v -0.13202362 0.00383509 0.48079672
v -0.12451204 0.10498140 -0.02775276
v -0.12390467 0.10498140 -0.02832644
v -0.12190888 0.10498140 -0.02560960
v -0.12123520 -0.02178807 0.21983882
v -0.11991309 0.10498140 -0.02289170
v -0.11930678 0.10498140 -0.02346644
v -0.11921204 0.00046351 0.48012198
v -0.11921204 0.01462456 0.21849040
v -0.11584046 0.08205509 0.00203777
v -0.11584046 0.10700456 0.05800514
v -0.11112046 -0.01437123 0.21781672
v -0.11112046 -0.00358176 0.15982619
v -0.10235414 0.00181193 0.45315040
v -0.10100572 0.11981614 -0.01414644
v -0.07942783 0.00383509 0.40729672
v -0.07875309 0.03013298 0.14971145
v -0.07673099 0.12049088 -0.05865065
v -0.06459309 0.00585824 0.15915145
v -0.05987309 -0.05617860 0.18814619
v -0.04706046 0.11779298 -0.10989802
v -0.04556888 -0.11012281 0.19121882
v -0.04487835 -0.11012281 0.18997251
v -0.04301520 -0.10607755 0.19556409
v -0.04234046 -0.11012281 0.19219251
v -0.04166678 0.13465088 -0.18946644
v -0.03980362 -0.11012281 0.19441356
v -0.03954888 0.09082140 -0.13092223
v -0.03911309 -0.11012281 0.19316619
v -0.03899099 0.09082140 -0.13145907
v -0.03694678 0.09082140 -0.12877802
v -0.03559730 -0.27735123 0.37897566
v -0.03492362 -0.25914491 0.35335251
v -0.03490151 0.09082140 -0.12609802
v -0.03434362 0.09082140 -0.12663486
v -0.03275625 -0.11484281 0.14873777
v -0.03206678 -0.11484281 0.14749040
v -0.03020362 -0.10068281 0.16184830
v -0.02952888 -0.11484281 0.14971145
v -0.02750572 0.02541298 0.10790409
v -0.02699099 -0.11484281 0.15193145
v -0.02630046 -0.11484281 0.15068514
v -0.02615730 0.10430772 -0.02493486
v -0.02516993 -0.28445649 0.33851777
v -0.02346046 0.11577088 -0.15440223
v -0.02278572 -0.28506597 0.33696619
v -0.02278572 -0.28207123 0.33851777
v -0.02278572 -0.27907755 0.34006830
v -0.02040151 -0.27968702 0.33851777
v -0.01679520 -0.12023755 0.15791145
v -0.01655730 -0.12023755 0.15760514
v -0.01334572 -0.01099965 -0.00740328
v -0.01323835 -0.12563228 0.13029145
v -0.01318572 -0.12563228 0.12591251
v -0.01199730 -0.27532912 0.34593461
v -0.01199730 -0.11686597 0.16049988
v -0.01148257 -0.12023755 0.16204619
v -0.01132257 -0.10270597 0.15847672
v -0.01124467 -0.12023755 0.16173988
v -0.01064783 -0.12563228 0.12813356
v -0.00811099 -0.12563228 0.13035356
v -0.00805835 -0.12563228 0.12597461
v -0.00660257 -0.30432386 0.36211882
v -0.00561520 -0.30401123 0.32368303
v -0.00330888 -0.12360912 0.13835672
v -0.00323099 -0.30467018 0.32223356
v -0.00323099 -0.30162702 0.32368303
v -0.00323099 -0.29858281 0.32513145
v -0.00312362 -0.12360912 0.14242935
v -0.00084678 -0.29924281 0.32368303
v -0.00053309 -0.12360912 0.14027040
v 0.00205638 -0.12360912 0.13811251
v 0.00216375 -0.11754070 0.08025777
v 0.00224165 -0.12360912 0.14218514
v 0.00351217 -0.29083755 0.33649461
v 0.00351217 -0.13237544 0.11262409
v 0.00486059 -0.09663649 0.13824830
v 0.01025533 -0.14046702 0.10857777
v 0.01497533 -0.30769544 0.32503145
v 0.01767322 -0.16842176 0.11177145
v 0.01767322 -0.16841018 0.11174724
v 0.01767322 -0.16541649 0.11329882
v 0.01767322 -0.16242281 0.11484935
v 0.01767322 -0.16241123 0.11482619
v 0.02283954 -0.14451228 0.07048935
v 0.02576480 -0.14751860 0.07063777
v 0.02576480 -0.14451228 0.07216514
v 0.02576480 -0.14150702 0.07369251
v 0.02869007 -0.14451228 0.07384198
v 0.04397112 0.09351824 -0.27375486
v 0.04464480 -0.12698070 0.08295461
v 0.04936480 0.08744982 -0.25554855
v 0.05543428 0.09823824 -0.15237907
v 0.06824586 0.07598666 -0.10517802
v 0.07229217 -0.13102702 0.04047356
v 0.07633743 -0.06831544 0.04317040
v 0.08892165 -0.12698070 -0.04481802
v 0.09184691 -0.13002491 -0.04459065
v 0.09184691 -0.12698070 -0.04314118
v 0.09184691 -0.12393649 -0.04169170
v 0.09387007 0.06789509 -0.32028223
v 0.09454375 0.07261509 -0.29330960
v 0.09477217 -0.12698070 -0.04146434
v 0.10128691 0.06991719 -0.30207591
v 0.10196165 -0.13372386 -0.01077486
v 0.10465849 0.03080772 -0.07820539
v 0.10803007 0.07733509 -0.25622328
v 0.12623638 -0.13776912 -0.05460434
v 0.12893322 -0.02718281 -0.06471907
v 0.14309428 -0.17485649 -0.06471907
v 0.14983743 0.03080772 -0.35197486
v 0.15051112 -0.02381123 -0.28724118
v 0.15186059 0.03350456 -0.33714012
v 0.15455743 -0.06899018 -0.08697170
v 0.15523217 0.04227088 -0.28724118
v 0.17478691 -0.12428386 -0.17260855
v 0.17681007 0.04496772 -0.27038328
v 0.18220375 -0.13979228 -0.18204855
v 0.18220375 -0.13844386 -0.18204855
v 0.18692375 0.01529824 -0.42345170
v 0.19838796 -0.10337965 -0.22385591
v 0.19838796 -0.07505860 -0.19620960
v 0.20310796 -0.11619123 -0.24813065
v 0.20310796 -0.10203123 -0.23464539
v 0.20513112 -0.04269228 -0.25420012
v 0.20782796 0.04766561 -0.24341065
v 0.20850165 -0.02853123 -0.38636434
v 0.21187322 -0.06831544 -0.29735591
v 0.21322270 -0.07708176 -0.30949276
v 0.21389638 -0.01774281 -0.24610855
v 0.21659428 0.02811088 -0.35602012
v 0.21861638 0.03552772 -0.23666749
v 0.22401112 0.02001824 -0.23262223
v 0.23142901 -0.01167334 -0.47132749
v 0.23952059 0.00922982 -0.39513065
v 0.24221743 0.02001824 -0.35939170
v 0.24289217 -0.07977860 -0.38636434
v 0.24761217 0.03620245 -0.27982328
v 0.24828586 -0.02515965 -0.33511697
v 0.25098375 -0.00560491 -0.39041065
v 0.25368059 0.00922982 -0.35736960
v 0.25637849 -0.00425649 -0.34995170
v 0.25772691 -0.02178807 -0.38299276
v 0.26042375 -0.06089860 -0.45177276
v 0.28469954 -0.03594912 -0.51920328
vn -0.64409055 0.74320675 0.18108310
vn -0.47851298 0.07773295 0.87463302
vn 0.33261800 0.90825866 -0.25383354
vn 0.39399340 0.87558793 -0.27949058
vn -1.00000000 0.00000000 0.00000000
vn -0.75503521 -0.63435275 -0.16588677
vn -1.00000000 0.00000000 0.00000000
vn -1.00000000 0.00000000 0.00000000
vn -0.84829038 -0.19587183 -0.49197323
vn -1.00000000 0.00000000 0.00000000
vn 0.39399318 0.87558801 -0.27949061
vn 0.33261877 0.90825856 -0.25383292
vn -0.29804385 0.83007891 -0.47131610
vn 0.07894695 -0.50556424 0.85916947
vn 0.58266840 0.74979302 0.31354101
vn 0.62705690 0.63463987 0.45169889
vn -0.39315688 0.12976651 0.91026827
vn -0.27025059 0.64178465 0.71768871
vn 0.39370233 0.90920650 0.13543268
vn -0.38288717 -0.67565058 0.62999501
vn -0.90523028 0.27002340 0.32809373
vn -0.72405500 -0.58425114 -0.36659919
vn -0.53979118 0.84021458 -0.05162305
vn 0.07009370 0.97364979 -0.21700913
vn -0.06351925 0.98221436 0.17669253
vn 0.59844754 0.56203419 0.57094494
vn -0.89853182 -0.34881594 -0.26639819
vn 0.70623685 0.56801343 0.42259940
vn 0.00000000 0.00000000 0.00000000
vn 0.39565126 -0.72749328 0.56054759
vn -0.06351884 0.98221440 0.17669250
vn 0.07009380 0.97364982 -0.21700895
vn 0.38439292 0.87889961 -0.28244920
vn 0.39397570 0.87558820 -0.27951466
vn -0.07177304 0.97010221 0.23184118
vn 0.07009380 0.97364982 -0.21700895
vn -0.63196749 -0.77070155 -0.08146289
vn -0.06351884 0.98221440 0.17669250
vn -0.02495708 0.99844165 0.04991416
vn 0.39397534 0.87558812 -0.27951544
vn 0.38439935 0.87889900 -0.28244236
vn -0.70537420 -0.60499510 -0.36936184
vn -0.77456720 -0.54173332 -0.32645161
vn 0.34438893 0.89198430 0.29284854
vn 0.07009370 0.97364979 -0.21700913
vn -0.07177113 0.97010237 0.23184109
vn -0.02495771 0.99844163 0.04991416
vn -0.06351925 0.98221436 0.17669253
vn 0.24067502 0.93850861 0.24754216
vn -0.07176296 0.97010278 0.23184191
vn 0.79012259 0.15145815 0.59394169
vn -0.97683781 0.18749206 0.10312426
vn -0.91896047 -0.19038715 -0.34534678
vn -0.97683851 0.18749288 0.10311615
vn -0.02496012 0.99844158 0.04991387
vn -0.07176128 0.97010279 0.23184239
vn -0.97683592 0.18748905 0.10314769
vn -0.04362785 0.90521798 0.42270204
vn -0.97683655 0.18749021 0.10313961
vn -0.76171132 -0.63485023 -0.12946445
vn -0.45170884 0.84627803 -0.28244047
vn -0.02496109 0.99844159 0.04991326
vn -0.88596783 -0.38775826 -0.25437085
vn 0.40959567 0.80611723 0.42709061
vn 0.44407276 0.76250809 0.47051122
vn 0.00000000 0.00000000 0.00000000
vn 0.06697297 0.99443440 -0.08133168
vn 0.38445830 0.87889316 -0.28238031
vn -0.68275790 -0.64635932 -0.34067768
vn 0.79486429 0.13958016 0.59051515
vn 0.38446555 0.87889236 -0.28237291
vn 0.06697356 0.99443438 -0.08133145
vn -0.00860762 -0.02756271 0.99958302
vn 0.68894661 0.59002248 0.42098224
vn -0.71955157 -0.59866382 -0.35191926
vn 0.32584856 0.88961133 0.32002249
vn 0.49404828 -0.79612253 0.34943556
vn -0.72813101 -0.55899781 -0.39666948
vn 0.64932039 0.01538772 0.76035929
vn 0.45849401 0.83022862 0.31702316
vn 0.92224739 0.08850241 0.37633373
vn 0.45390243 0.78375108 0.42391843
vn 0.45750436 0.85607866 0.24045599
vn 0.73154521 0.31166967 0.60638570
vn 0.68625886 0.34562226 0.63999533
vn 0.43985081 0.87617059 0.19712018
vn 0.03054815 0.99438974 -0.10127119
vn 0.15076699 0.97344193 -0.17227921
vn 0.69795380 0.59410088 0.39988078
vn -0.72357741 -0.67002065 -0.16585554
vn -0.36889175 0.59052857 -0.71777077
vn 0.15076670 0.97344198 -0.17227916
vn 0.06698333 0.99443429 -0.08132453
vn 0.03054824 0.99438973 -0.10127127
vn 0.33267078 0.90825804 -0.25376661
vn -0.67298945 -0.62309352 -0.39854694
vn -0.46802061 0.04421673 0.88261067
vn -0.63178355 0.66879031 0.39187890
vn 0.33267153 0.90825796 -0.25376589
vn 0.06698331 0.99443435 -0.08132378
vn 0.03054824 0.99438973 -0.10127127
vn 0.23191269 0.93592763 -0.26505844
vn 0.35266528 0.89419603 0.27575472
vn -0.73286920 -0.62055864 -0.27894393
vn 0.61055963 0.57568613 0.54387722
vn 0.23191696 0.93592728 -0.26505596
vn 0.03054815 0.99438974 -0.10127119
vn 0.39928883 0.86763222 0.29628156
vn 0.33426708 -0.33424480 0.88121844
vn 0.40871527 0.90696065 0.10185385
vn -0.98751527 0.07246035 -0.13986809
vn -0.84771564 -0.48202642 -0.22142430
vn -0.98751529 0.07246049 -0.13986789
vn 0.33426696 -0.33424468 0.88121853
vn 0.07978834 0.99007691 -0.11567861
vn 0.15076670 0.97344198 -0.17227916
vn -0.70279755 -0.57840155 -0.41415848
vn -0.08131270 0.99190121 -0.09757167
vn 0.23194007 0.93592522 -0.26504299
vn 0.69029696 0.52822569 0.49443677
vn 0.82345968 0.04160860 0.56584704
vn 0.15076699 0.97344193 -0.17227921
vn 0.75002147 0.23714987 0.61743642
vn 0.07978869 0.99007681 -0.11567922
vn -0.76529243 -0.19931866 -0.61204540
vn 0.23194492 0.93592477 -0.26504034
vn -0.08131307 0.99190121 -0.09757136
vn 0.17458343 -0.65439313 0.73572431
vn 0.33426696 -0.33424468 0.88121853
vn 0.07978869 0.99007681 -0.11567922
vn -0.97369253 0.09793943 -0.20574430
vn -0.41577851 -0.87505498 -0.24780440
vn -0.97369252 0.09794002 -0.20574407
vn -0.08131307 0.99190121 -0.09757136
vn 0.33426708 -0.33424480 0.88121844
vn 0.51361810 -0.09119453 0.85315884
vn -0.08131270 0.99190121 -0.09757167
vn -0.74391033 -0.55631443 -0.37028593
vn 0.07978834 0.99007691 -0.11567861
vn 0.80632504 0.37524449 0.45719963
vn -0.75462092 -0.62142049 -0.21067472
vn 0.76212156 0.12252439 0.63573462
vn -0.81127451 -0.40673415 -0.42000120
vn 0.66313459 -0.74195317 0.09878266
vn -0.98496866 0.07826068 -0.15398705
vn -0.98751525 0.07246522 -0.13986576
vn -0.91449848 -0.29621200 -0.27559204
vn -0.98751527 0.07246562 -0.13986539
vn -0.98496868 0.07826015 -0.15398716
vn -0.06502453 0.99141117 0.11347111
vn -0.98496895 0.07825006 -0.15399060
vn -0.77057202 -0.49911110 -0.39636708
vn -0.98496898 0.07824925 -0.15399077
vn -0.06502463 0.99141120 0.11347082
vn -0.40335989 0.60496615 -0.68652513
vn 0.80522900 0.24170148 0.54146713
vn 0.35308543 0.93541119 -0.01834615
vn 0.42352019 0.90122965 0.09173751
vn 0.53535683 0.78257110 0.31776648
vn 0.84340222 0.20518256 0.49656099
vn 0.80634169 0.18113266 0.56303112
vn -0.06503989 0.99141103 0.11346359
vn -0.97369248 0.09795864 -0.20573543
vn -0.71504837 -0.55133305 -0.42981123
vn -0.97369253 0.09795869 -0.20573515
vn -0.43084511 0.44817188 -0.78327164
vn 0.16890161 0.96966285 -0.17670940
vn -0.06504015 0.99141108 0.11346298
vn 0.26947942 0.93891350 -0.21406139
vn 0.86328381 0.16273569 0.47776371
vn 0.65651342 0.57868300 0.48385547
vn 0.44999389 0.89282230 0.01933494
vn 0.89762293 0.09398110 0.43062817
vn 0.80560746 0.32897472 0.49271925
vn 0.50293414 -0.86005920 -0.08576375
vn 0.35795905 0.93151792 -0.06434046
vn -0.71206105 -0.58248351 -0.39202299
vn 0.19799984 0.95924837 -0.20159024
vn 0.91057703 0.08092575 0.40533997
vn 0.12026514 0.98411971 -0.13055535
vn 0.92892600 -0.00945096 0.37014479
vn 0.04810775 0.98394244 -0.17188055
vn -0.71213914 -0.56836093 -0.41209670
vn 0.90213410 0.22856900 0.36593753
vn -0.58636298 0.40904800 -0.69918395
vn 0.90704704 -0.27972469 0.31467405
vn 0.93396237 0.08164676 0.34791966
vn 0.35423406 -0.89673547 -0.26529932
vn 0.93592272 -0.24031072 0.25748673
vn 0.87749342 -0.30191438 0.37262984
vn 0.34051339 0.93265728 0.11916808
vn -0.72551025 -0.58529245 -0.36203263
vn 0.92699312 -0.25475608 0.27528729
vn 0.94876870 -0.02976812 0.31456606
vn 0.85217651 -0.37790794 0.36191268
vn 0.15537935 0.96360025 -0.21755875
vn 0.66830828 0.57284968 0.47456011
vn 0.88025641 0.01574942 0.47423687
vn -0.50137059 0.32425382 -0.80217641
vn 0.56853978 0.77481127 -0.27645980
vn 0.49916489 0.82617590 -0.26128107
vn 0.20510346 -0.96811037 -0.14385714
vn 0.81797585 0.55033379 0.16747608
vn 0.90951921 -0.30812838 0.27898334
vn 0.87278361 0.45369985 -0.18001448
vn 0.87096624 0.46087749 -0.17032247
vn 0.99538467 -0.02366825 0.09300089
vn 0.99967463 0.02432817 0.00766669
vn 0.23347816 -0.92107090 -0.31163494
vn 0.43676466 -0.09219607 -0.89483882
f 12//12 99//99 95//95
f 7//7 10//10 8//8
f 34//34 4//4 11//11
f 68//68 33//33 41//41
f 93//93 67//67 72//72
f 47//47 62//62 55//55
f 31//31 48//48 38//38
f 36//36 24//24 32//32
f 50//50 35//35 46//46
f 59//59 54//54 52//52
f 149//149 153//153 151//151
f 113//113 148//148 146//146
f 135//135 114//114 109//109
f 163//163 131//131 133//133
f 154//154 168//168 162//162
f 106//106 126//126 119//119
f 94//94 107//107 101//101
f 116//116 88//88 92//92
f 130//130 115//115 124//124
f 118//118 134//134 137//137
f 171//171 197//197 191//191
f 191//191 197//197 203//203
f 105//105 171//171 159//159
f 108//108 159//159 158//158
f 182//182 196//196 180//180
f 196//196 185//185 176//176
f 159//159 180//180 172//172
f 191//191 203//203 182//182
f 203//203 196//196 182//182
f 203//203 201//201 196//196
f 180//180 196//196 178//178
f 178//178 176//176 166//166
f 176//176 185//185 166//166
f 172//172 167//167 157//157
f 167//167 166//166 157//157
f 166//166 167//167 169//169
f 172//172 157//157 110//110
f 191//191 182//182 159//159
f 182//182 180//180 159//159
f 108//108 83//83 80//80
f 108//108 80//80 58//58
f 108//108 76//76 105//105
f 205//205 210//210 199//199
f 200//200 205//205 199//199
f 205//205 200//200 201//201
f 201//201 200//200 185//185
f 200//200 199//199 185//185
f 206//206 201//201 203//203
f 76//76 58//58 49//49
f 64//64 49//49 28//28
f 28//28 51//51 64//64
f 74//74 105//105 82//82
f 74//74 23//23 26//26
f 82//82 29//29 19//19
f 74//74 19//19 18//18
f 26//26 18//18 17//17
f 82//82 61//61 19//19
f 61//61 23//23 18//18
f 23//23 20//20 17//17
f 105//105 76//76 64//64
f 105//105 65//65 82//82
f 44//44 51//51 28//28
f 44//44 23//23 61//61
f 82//82 65//65 61//61
f 157//157 166//166 155//155
f 110//110 157//157 155//155
f 158//158 110//110 86//86
f 158//158 86//86 83//83
f 110//110 91//91 13//13
f 110//110 15//15 86//86
f 83//83 15//15 16//16
f 86//86 15//15 83//83
f 80//80 16//16 14//14
f 15//15 13//13 1//1
f 15//15 1//1 2//2
f 16//16 2//2 14//14
f 199//199 210//210 192//192
f 199//199 192//192 185//185
f 185//185 192//192 177//177
f 166//166 177//177 155//155
f 155//155 177//177 96//96
f 91//91 96//96 9//9
f 13//13 9//9 1//1
f 9//9 6//6 2//2
f 14//14 2//2 6//6
f 69//69 60//60 37//37
f 75//75 63//63 60//60
f 60//60 63//63 58//58
f 58//58 63//63 53//53
f 37//37 58//58 14//14
f 96//96 117//117 69//69
f 177//177 117//117 96//96
f 117//117 75//75 69//69
f 117//117 78//78 75//75
f 75//75 43//43 63//63
f 75//75 43//43 53//53
f 75//75 53//53 63//63
f 43//43 42//42 22//22
f 78//78 42//42 43//43
f 197//197 171//171 174//174
f 197//197 198//198 203//203
f 171//171 105//105 161//161
f 174//174 161//161 179//179
f 204//204 195//195 190//190
f 202//202 204//204 193//193
f 190//190 174//174 179//179
f 203//203 198//198 195//195
f 204//204 203//203 195//195
f 207//207 203//203 204//204
f 204//204 190//190 193//193
f 194//194 193//193 189//189
f 202//202 194//194 188//188
f 186//186 187//187 181//181
f 188//188 186//186 181//181
f 186//186 188//188 189//189
f 181//181 187//187 179//179
f 195//195 198//198 174//174
f 190//190 195//195 174//174
f 160//160 161//161 156//156
f 156//156 161//161 142//142
f 142//142 161//161 105//105
f 210//210 205//205 209//209
f 205//205 208//208 209//209
f 208//208 205//205 206//206
f 208//208 207//207 204//204
f 209//209 208//208 202//202
f 207//207 206//206 203//203
f 136//136 142//142 123//123
f 121//121 123//123 89//89
f 103//103 89//89 123//123
f 105//105 74//74 84//84
f 30//30 74//74 26//26
f 81//81 84//84 74//74
f 79//79 74//74 26//26
f 73//73 26//26 21//21
f 77//77 84//84 81//81
f 30//30 77//77 79//79
f 21//21 30//30 73//73
f 142//142 105//105 85//85
f 85//85 105//105 84//84
f 103//103 70//70 30//30
f 30//30 70//70 77//77
f 85//85 84//84 77//77
f 188//188 181//181 184//184
f 181//181 173//173 175//175
f 173//173 179//179 170//170
f 170//170 179//179 161//161
f 175//175 173//173 140//140
f 140//140 173//173 170//170
f 140//140 160//160 156//156
f 140//140 170//170 160//160
f 120//120 156//156 136//136
f 144//144 140//140 128//128
f 128//128 140//140 120//120
f 97//97 120//120 98//98
f 210//210 209//209 192//192
f 192//192 209//209 202//202
f 192//192 202//202 188//188
f 177//177 188//188 183//183
f 177//177 183//183 175//175
f 164//164 175//175 144//144
f 132//132 144//144 128//128
f 112//112 132//132 128//128
f 97//97 98//98 112//112
f 143//143 152//152 147//147
f 141//141 138//138 152//152
f 141//141 143//143 147//147
f 141//141 136//136 125//125
f 136//136 147//147 112//112
f 117//117 164//164 152//152
f 117//117 177//177 164//164
f 138//138 117//117 152//152
f 78//78 117//117 138//138
f 104//104 138//138 141//141
f 104//104 138//138 141//141
f 42//42 104//104 90//90
f 42//42 78//78 138//138
f 12//12 95//95 3//3
f 7//7 8//8 5//5
f 34//34 11//11 40//40
f 68//68 41//41 71//71
f 93//93 72//72 100//100
f 47//47 55//55 39//39
f 31//31 38//38 25//25
f 36//36 32//32 45//45
f 50//50 46//46 56//56
f 59//59 52//52 57//57
f 149//149 151//151 145//145
f 113//113 146//146 111//111
f 135//135 109//109 129//129
f 163//163 133//133 165//165
f 154//154 162//162 150//150
f 106//106 119//119 102//102
f 94//94 101//101 87//87
f 116//116 92//92 122//122
f 130//130 124//124 139//139
f 118//118 137//137 127//127
f 171//171 191//191 159//159
f 105//105 159//159 108//108
f 196//196 176//176 178//178
f 159//159 172//172 158//158
f 178//178 166//166 169//169
f 172//172 110//110 158//158
f 108//108 58//58 76//76
f 205//205 201//201 206//206
f 201//201 185//185 196//196
f 76//76 49//49 64//64
f 82//82 19//19 74//74
f 74//74 18//18 26//26
f 26//26 17//17 20//20
f 82//82 19//19 29//29
f 61//61 18//18 19//19
f 23//23 17//17 18//18
f 105//105 64//64 65//65
f 44//44 28//28 23//23
f 110//110 155//155 91//91
f 158//158 83//83 108//108
f 110//110 13//13 15//15
f 83//83 16//16 80//80
f 80//80 14//14 58//58
f 15//15 2//2 16//16
f 185//185 177//177 166//166
f 155//155 96//96 91//91
f 91//91 9//9 13//13
f 9//9 2//2 1//1
f 75//75 60//60 69//69
f 60//60 58//58 37//37
f 37//37 14//14 6//6
f 43//43 22//22 27//27
f 78//78 43//43 75//75
f 197//197 174//174 198//198
f 171//171 161//161 174//174
f 202//202 193//193 194//194
f 190//190 179//179 187//187
f 194//194 189//189 188//188
f 181//181 179//179 173//173
f 156//156 142//142 136//136
f 208//208 206//206 207//207
f 208//208 204//204 202//202
f 136//136 123//123 121//121
f 81//81 74//74 79//79
f 79//79 26//26 73//73
f 73//73 21//21 66//66
f 77//77 81//81 79//79
f 30//30 79//79 73//73
f 21//21 73//73 66//66
f 142//142 85//85 123//123
f 103//103 30//30 89//89
f 181//181 175//175 184//184
f 170//170 161//161 160//160
f 175//175 140//140 144//144
f 140//140 156//156 120//120
f 120//120 136//136 98//98
f 128//128 120//120 97//97
f 192//192 188//188 177//177
f 177//177 175//175 164//164
f 164//164 144//144 132//132
f 112//112 128//128 97//97
f 141//141 152//152 143//143
f 141//141 147//147 136//136
f 136//136 112//112 98//98
f 104//104 141//141 125//125
f 42//42 90//90 22//22
f 42//42 138//138 104//104

