# https://github.com/mikedh/trimesh
v -0.28571421 -0.50000000 0.01232725
v 0.28571421 -0.50000000 0.01232725
v 0.28571421 0.50000000 0.01232725
v -0.28571421 0.50000000 0.01232725
v -0.28571421 -0.50000000 -0.01267275
v 0.28571421 -0.50000000 -0.01267275
v 0.28571421 0.50000000 -0.01267275
v -0.28571421 0.50000000 -0.01267275
v -0.28571421 -0.50000000 0.01447041
v 0.28571421 -0.50000000 0.01447041
v 0.28571421 0.50000000 0.01447041
v -0.28571421 0.50000000 0.01447041
v -0.28571421 -0.50000000 -0.01410117
v 0.28571421 -0.50000000 -0.01410117
v 0.28571421 0.50000000 -0.01410117
v -0.28571421 0.50000000 -0.01410117
vn 0.57735027 0.57735027 0.57735027
vn 0.57735027 0.57735027 0.57735027
vn 0.57735027 0.57735027 0.57735027
vn 0.57735027 0.57735027 0.57735027
vn 0.57735027 0.57735027 0.57735027
vn 0.57735027 0.57735027 0.57735027
vn 0.57735027 0.57735027 0.57735027
vn 0.57735027 0.57735027 0.57735027
vn 0.00000000 0.00000000 1.00000000
vn 0.00000000 0.00000000 1.00000000
vn 0.00000000 0.00000000 1.00000000
vn 0.00000000 0.00000000 1.00000000
vn 0.00000000 0.00000000 1.00000000
vn 0.00000000 0.00000000 1.00000000
vn 0.00000000 0.00000000 1.00000000
vn 0.00000000 0.00000000 1.00000000
f 1//1 2//2 3//3
f 5//5 6//6 7//7
f 1//1 2//2 6//6
f 2//2 6//6 7//7
f 3//3 7//7 8//8
f 8//8 4//4 1//1
f 9//9 10//10 11//11
f 13//13 14//14 15//15
f 1//1 3//3 4//4
f 5//5 7//7 8//8
f 1//1 6//6 5//5
f 2//2 7//7 3//3
f 3//3 8//8 4//4
f 8//8 1//1 5//5
f 9//9 11//11 12//12
f 13//13 15//15 16//16

