# https://github.com/mikedh/trimesh
v -0.04513233 0.03069994 0.46832550
v -0.06181555 0.03167274 0.48073465
v 0.19015620 0.31286845 0.32417078
v 0.22739120 0.37329646 0.24854247
v 0.11435534 0.38078875 0.30688036
v 0.14169085 0.44985226 0.21598490
v 0.40671993 -0.27915997 0.25341834
v 0.40691082 -0.31726208 0.25443213
v 0.44114761 -0.00099376 0.21657484
v 0.43049856 0.00556025 0.22042614
v -0.35111398 -0.00474800 -0.09505704
v -0.37930689 -0.00119867 -0.07986538
v 0.05553860 0.37221149 0.19514301
v 0.11401777 0.37944279 0.30697635
v 0.14210067 0.44820109 0.21532378
v -0.44517698 -0.09441937 -0.25901076
v -0.10290293 0.27785514 -0.22877411
v -0.44030435 -0.28314285 -0.24662210
v 0.01231688 -0.31413769 -0.48388428
v 0.16776451 0.36361697 0.13728073
v 0.22790564 0.37227297 0.24752869
v 0.14004830 -0.04082362 -0.35094589
v -0.05136495 -0.32084161 0.49747827
v 0.41216632 -0.00122671 0.23109244
v 0.15584068 0.30559400 0.27019431
v 0.11472850 0.25480126 0.29891676
v 0.06833277 0.24766271 0.21274726
v 0.11385708 0.29983700 0.18452631
v 0.20306254 0.24705551 0.25114164
v 0.15888096 0.24035160 0.16478987
v -0.07110354 0.03720541 0.47852697
v -0.34495255 -0.06446204 -0.08847823
v -0.20002346 0.17683262 -0.40088555
v -0.10847767 0.18600953 -0.23202684
v 0.08929977 -0.26998307 -0.34138504
v 0.13436571 -0.03424912 -0.33668820
v 0.10927779 -0.09316939 -0.33039843
v 0.02716774 -0.11915894 -0.50252173
v -0.03821595 -0.02996534 -0.47389203
v -0.33038965 -0.32677332 -0.02164397
vn -0.29687335 0.08414480 0.95120233
vn 0.46742707 0.07173738 0.88111616
vn 0.29560252 0.85108498 0.43390495
vn 0.91159992 0.29862164 0.28250788
vn -0.26966902 0.37767427 0.88579951
vn 0.63224879 0.76357326 0.13121491
vn 0.84029293 -0.06906197 -0.53771576
vn 0.46741290 0.05737689 0.88217520
vn 0.46742722 0.07173739 0.88111607
vn 0.81057008 0.28226514 -0.51313013
vn -0.68978462 -0.04571695 -0.72256982
vn -0.74756372 0.64026302 -0.17666850
vn -0.89746948 0.39894029 -0.18813607
vn -0.66744880 0.67928617 0.30509409
vn -0.36057626 0.91150269 -0.19785757
vn -0.93263005 0.26165815 -0.24846772
vn -0.21192424 0.81122622 -0.54497719
vn -0.96501849 -0.03885700 -0.25928642
vn 0.54662169 0.01234996 -0.83728860
vn 0.40106450 0.30438165 -0.86400178
vn 0.68467570 0.59549035 -0.42025044
vn 0.46540465 0.32827651 -0.82196900
vn -0.29337828 0.08155265 0.95251160
vn 0.46577552 0.06031032 0.88284531
vn 0.32689852 -0.04356123 0.94405497
vn -0.58187436 -0.05302113 0.81154851
vn -0.99439972 -0.10394371 0.01910263
vn -0.46211121 -0.18377380 -0.86757157
vn 0.98243554 -0.18008254 0.04889464
vn 0.55677204 -0.21894978 -0.80129014
vn -0.61035936 0.73865923 0.28608389
vn -0.90986154 0.38676324 0.15022042
vn 0.01543752 0.82451982 -0.56562244
vn -0.17709323 0.55796374 -0.81074931
vn 0.89643185 -0.09353350 -0.43319905
vn -0.35309864 0.05450686 -0.93399698
vn 0.65085886 -0.23861314 -0.72072638
vn 0.33062042 0.08550674 -0.93988230
vn 0.64997544 0.50626776 -0.56676704
vn -0.88075093 0.04812885 0.47112781
f 38//38 19//19 18//18
f 38//38 18//18 16//16
f 13//13 5//5 15//15
f 9//9 3//3 2//2
f 26//26 4//4 5//5
f 38//38 16//16 33//33
f 36//36 34//34 17//17
f 22//22 37//37 34//34
f 37//37 33//33 34//34
f 19//19 38//38 35//35
f 35//35 38//38 37//37
f 17//17 10//10 22//22
f 10//10 17//17 3//3
f 23//23 24//24 1//1
f 24//24 23//23 8//8
f 10//10 7//7 39//39
f 7//7 19//19 39//39
f 39//39 33//33 34//34
f 34//34 22//22 39//39
f 40//40 23//23 11//11
f 11//11 23//23 1//1
f 12//12 3//3 17//17
f 12//12 31//31 3//3
f 34//34 32//32 11//11
f 34//34 11//11 17//17
f 12//12 17//17 11//11
f 25//25 29//29 4//4
f 29//29 20//20 4//4
f 20//20 29//29 30//30
f 20//20 6//6 4//4
f 6//6 5//5 4//4
f 5//5 27//27 26//26
f 5//5 13//13 27//27
f 34//34 33//33 32//32
f 32//32 33//33 16//16
f 16//16 18//18 40//40
f 32//32 16//16 40//40
f 15//15 20//20 13//13
f 13//13 14//14 15//15
f 13//13 28//28 27//27
f 28//28 13//13 20//20
f 30//30 28//28 20//20
f 20//20 15//15 21//21
f 22//22 38//38 39//39
f 38//38 22//22 37//37

