# https://github.com/mikedh/trimesh
v -0.50745587 -0.01391379 -0.50745991
v 0.49254413 -0.01391379 -0.50745991
v -0.50745587 -0.01391379 0.49254009
v 0.49254413 -0.01391379 0.49254009
v 0.05340518 -0.00953485 0.05340115
v 0.06000518 -0.00859800 0.05333483
v -0.01491693 0.51410410 -0.02158833
v -0.02151798 0.51316726 -0.02152201
v 0.05333886 -0.00859800 0.06000115
v 0.05993886 -0.00766116 0.05993483
v -0.01498324 0.51504094 -0.01498728
v -0.02158430 0.51410410 -0.01492096
v 0.32621044 -0.01318011 0.32547378
v 0.28481044 0.00301989 0.25234009
v 0.25821044 0.01575252 0.18527378
v 0.24267781 0.02548621 0.12040641
v 0.23634413 0.03201989 0.05554009
v 0.23814413 0.03481989 -0.01105991
v 0.24747781 0.03308621 -0.08112622
v 0.26447781 0.02568621 -0.15679359
v 0.28987781 0.01095252 -0.24125991
v 0.32601044 -0.01378011 -0.34012622
v 0.25294413 0.00301989 0.28420641
v 0.23481044 0.01441989 0.23427378
v 0.21901044 0.02635252 0.17834009
v 0.20987781 0.03701989 0.12080641
v 0.20727781 0.04548621 0.06194009
v 0.21087781 0.05128621 0.00134009
v 0.22021044 0.05355252 -0.06152622
v 0.23487781 0.05155252 -0.12699359
v 0.25401044 0.04508621 -0.19459359
v 0.27394413 0.03641989 -0.25712622
v 0.18567781 0.01581989 0.25767378
v 0.17867781 0.02641989 0.21860641
v 0.17287781 0.03841989 0.17254009
v 0.17034413 0.05055252 0.12240641
v 0.17207781 0.06175252 0.07000641
v 0.17801044 0.07121989 0.01594009
v 0.18767781 0.07821989 -0.03912622
v 0.20034413 0.08235252 -0.09432622
v 0.21467781 0.08381989 -0.14712622
v 0.22814413 0.08361989 -0.19299359
v 0.12067781 0.02555252 0.24227378
v 0.12101044 0.03701989 0.20947378
v 0.12261044 0.05055252 0.17007378
v 0.12634413 0.06515252 0.12620641
v 0.13261044 0.07981989 0.07960641
v 0.14127781 0.09368621 0.03167378
v 0.15187781 0.10601989 -0.01639359
v 0.16381044 0.11635252 -0.06299359
v 0.17574413 0.12448621 -0.10585991
v 0.18641044 0.13061989 -0.14205991
v 0.05567781 0.03208621 0.23600641
v 0.06201044 0.04555252 0.20700641
v 0.07007781 0.06181989 0.17187378
v 0.07967781 0.07981989 0.13247378
v 0.09061044 0.09875252 0.09054009
v 0.10247781 0.11775252 0.04767378
v 0.11481044 0.13595252 0.00527378
v 0.12694413 0.15268621 -0.03499359
v 0.13821044 0.16735252 -0.07119359
v 0.14767781 0.17921989 -0.10125991
v -0.01105587 0.03488621 0.23780641
v 0.00134413 0.05135252 0.21067378
v 0.01594413 0.07128621 0.17780641
v 0.03167781 0.09368621 0.14114009
v 0.04767781 0.11775252 0.10240641
v 0.06321044 0.14255252 0.06314009
v 0.07774413 0.16735252 0.02487378
v 0.09094413 0.19121989 -0.01092622
v 0.10241044 0.21295252 -0.04272622
v 0.11167781 0.23115252 -0.06885991
v -0.08125587 0.03315252 0.24727378
v -0.06165587 0.05361989 0.22000641
v -0.03925587 0.07828621 0.18747378
v -0.01645587 0.10608621 0.15180641
v 0.00521044 0.13595252 0.11474009
v 0.02487781 0.16741989 0.07774009
v 0.04207781 0.19968621 0.04214009
v 0.05674413 0.23188621 0.00914009
v 0.06881044 0.26221989 -0.01992622
v 0.07814413 0.28815252 -0.04372622
v -0.15712219 0.02575252 0.26427378
v -0.12725587 0.05161989 0.23467378
v -0.09452219 0.08241989 0.20020641
v -0.06312219 0.11641989 0.16367378
v -0.03512219 0.15275252 0.12687378
v -0.01098956 0.19128621 0.09094009
v 0.00907781 0.23188621 0.05680641
v 0.02527781 0.27401989 0.02534009
v 0.03781044 0.31568621 -0.00245991
v 0.04721044 0.35255252 -0.02519359
v -0.24165587 0.01101989 0.28974009
v -0.19498956 0.04515252 0.25394009
v -0.14738956 0.08388621 0.21454009
v -0.10612219 0.12455252 0.17567378
v -0.07138956 0.16735252 0.13814009
v -0.04285587 0.21301989 0.10240641
v -0.02005587 0.26221989 0.06880641
v -0.00252219 0.31568621 0.03787378
v 0.01007781 0.37315252 0.01014009
v 0.01881044 0.42761989 -0.01305991
v -0.34078956 -0.01371379 0.32587378
v -0.25765587 0.03648621 0.27380641
v -0.19338956 0.08368621 0.22807378
v -0.14232219 0.13068621 0.18634009
v -0.10145587 0.17928621 0.14767378
v -0.06905587 0.23115252 0.11160641
v -0.04385587 0.28821989 0.07814009
v -0.02532219 0.35261989 0.04727378
v -0.01312219 0.42768621 0.01880641
v -0.00745587 0.51941989 -0.00745991
vn 0.00000000 0.00000000 0.00000000
vn 0.00000000 0.00000000 0.00000000
vn 0.00000000 0.00000000 0.00000000
vn 0.00000000 0.00000000 0.00000000
vn -0.48473632 -0.72805316 -0.48473632
vn 0.65845557 -0.56584429 -0.49624239
vn 0.49623777 0.56584237 -0.65846070
vn -0.64695447 0.40360850 -0.64695447
vn -0.49624239 -0.56584429 0.65845557
vn 0.64694851 -0.40362704 0.64694887
vn 0.48472755 0.72806484 0.48472755
vn -0.65846070 0.56584237 0.49623777
vn -0.14781996 -0.97790801 -0.14780119
vn -0.18587715 -0.97549461 -0.11772826
vn -0.25457253 -0.96237454 -0.09501621
vn -0.34580673 -0.93510090 -0.07748552
vn -0.44964097 -0.89022452 -0.07296096
vn -0.55871978 -0.82543224 -0.08058431
vn -0.65612618 -0.74806246 -0.09950370
vn -0.73215523 -0.66965114 -0.12456352
vn -0.78674086 -0.59897686 -0.14921641
vn -0.79612489 -0.58776970 -0.14391640
vn -0.11806306 -0.97545412 -0.18587730
vn -0.16493324 -0.97254196 -0.16419247
vn -0.23764366 -0.96072340 -0.14330400
vn -0.33238391 -0.93472489 -0.12573906
vn -0.44290510 -0.88900695 -0.11619691
vn -0.55602651 -0.82281875 -0.11748967
vn -0.65640257 -0.74346160 -0.12806449
vn -0.73409665 -0.66329365 -0.14540854
vn -0.78633708 -0.59582750 -0.16328992
vn -0.79544907 -0.58434590 -0.16062579
vn -0.09527641 -0.96228041 -0.25483096
vn -0.14333920 -0.96075586 -0.23749114
vn -0.22410044 -0.94855010 -0.22367766
vn -0.32957561 -0.91977209 -0.21307093
vn -0.45315347 -0.86715418 -0.20662905
vn -0.57648427 -0.79073991 -0.20590357
vn -0.68141799 -0.70097846 -0.21047260
vn -0.75842323 -0.61372169 -0.21940804
vn -0.80822784 -0.54177378 -0.23075730
vn -0.82038455 -0.52508028 -0.22640647
vn -0.07865666 -0.93556949 -0.34427148
vn -0.12611431 -0.93474625 -0.33218161
vn -0.21311662 -0.91961427 -0.32998622
vn -0.32805781 -0.88569820 -0.32850689
vn -0.46178689 -0.82470007 -0.32653125
vn -0.59302296 -0.73782820 -0.32238691
vn -0.70014077 -0.63910069 -0.31836020
vn -0.77542027 -0.54664444 -0.31607478
vn -0.82267643 -0.47217760 -0.31662565
vn -0.83760206 -0.45158556 -0.30739757
vn -0.07321831 -0.88978508 -0.45046819
vn -0.11685472 -0.88868052 -0.44338685
vn -0.20709153 -0.86696330 -0.45330755
vn -0.32628910 -0.82469070 -0.46197476
vn -0.46373225 -0.75456250 -0.46431437
vn -0.59635002 -0.66046027 -0.45624432
vn -0.70297124 -0.55849421 -0.44035855
vn -0.77580652 -0.46680581 -0.42451924
vn -0.82135287 -0.39570058 -0.41085339
vn -0.84018965 -0.37299718 -0.39364255
vn -0.08080855 -0.82432566 -0.56031883
vn -0.11743942 -0.82229927 -0.55680507
vn -0.20603682 -0.79050892 -0.57675339
vn -0.32254370 -0.73774171 -0.59304530
vn -0.45582424 -0.66002313 -0.59715469
vn -0.58363736 -0.56459662 -0.58360782
vn -0.68562221 -0.46747114 -0.55802591
vn -0.75670571 -0.38414504 -0.52898871
vn -0.80180401 -0.32204271 -0.50338734
vn -0.82433652 -0.29923714 -0.48054805
vn -0.09966644 -0.74799549 -0.65617784
vn -0.12838671 -0.74302486 -0.65683400
vn -0.21032034 -0.70042234 -0.68203658
vn -0.31821694 -0.63865393 -0.70061340
vn -0.44012814 -0.55793747 -0.70355738
vn -0.55779985 -0.46691932 -0.68618195
vn -0.65402325 -0.38053501 -0.65379407
vn -0.72317640 -0.31041480 -0.61697531
vn -0.76941048 -0.26072199 -0.58312224
vn -0.79637135 -0.23980369 -0.55523586
vn -0.12564985 -0.66861738 -0.73291398
vn -0.14574206 -0.66275716 -0.73451494
vn -0.21954769 -0.61302440 -0.75894657
vn -0.31564706 -0.54624504 -0.77587582
vn -0.42369023 -0.46649501 -0.77644639
vn -0.52806391 -0.38393462 -0.75745806
vn -0.61616846 -0.31075132 -0.72371959
vn -0.68388089 -0.25421484 -0.68387261
vn -0.73145607 -0.21550966 -0.64693710
vn -0.76048401 -0.19722478 -0.61868122
vn -0.14872480 -0.59891976 -0.78687741
vn -0.16351572 -0.59511545 -0.78682921
vn -0.23120022 -0.54096303 -0.80864421
vn -0.31682915 -0.47141104 -0.82303762
vn -0.41086396 -0.39528563 -0.82154737
vn -0.50170101 -0.32231501 -0.80275098
vn -0.58218752 -0.26078743 -0.77009584
vn -0.64621247 -0.21542485 -0.73212129
vn -0.69452126 -0.18605636 -0.69499874
vn -0.72617128 -0.17153959 -0.66576981
vn -0.14339710 -0.58810743 -0.79596917
vn -0.15967279 -0.58458501 -0.79546525
vn -0.22650619 -0.52488999 -0.82047879
vn -0.30747734 -0.45060961 -0.83809824
vn -0.39535544 -0.37186935 -0.83988527
vn -0.47818367 -0.29970675 -0.82553997
vn -0.55494494 -0.23941755 -0.79669025
vn -0.61800417 -0.19728921 -0.76101761
vn -0.66473486 -0.17163050 -0.72709734
vn -0.69656212 -0.16744936 -0.69768326
f 1//1 4//4 3//3
f 1//1 2//2 4//4
f 1//1 3//3 4//4
f 1//1 4//4 2//2
f 5//5 8//8 6//6
f 6//6 8//8 7//7
f 5//5 10//10 9//9
f 5//5 6//6 10//10
f 5//5 9//9 8//8
f 8//8 9//9 12//12
f 8//8 12//12 11//11
f 8//8 11//11 7//7
f 6//6 11//11 10//10
f 6//6 7//7 11//11
f 10//10 12//12 9//9
f 10//10 11//11 12//12
f 13//13 23//23 24//24
f 13//13 24//24 14//14
f 14//14 24//24 25//25
f 14//14 25//25 15//15
f 15//15 25//25 26//26
f 15//15 26//26 16//16
f 16//16 26//26 27//27
f 16//16 27//27 17//17
f 17//17 27//27 28//28
f 17//17 28//28 18//18
f 18//18 28//28 29//29
f 18//18 29//29 19//19
f 19//19 29//29 30//30
f 19//19 30//30 20//20
f 20//20 30//30 31//31
f 20//20 31//31 21//21
f 21//21 31//31 32//32
f 21//21 32//32 22//22
f 23//23 33//33 34//34
f 23//23 34//34 24//24
f 24//24 34//34 35//35
f 24//24 35//35 25//25
f 25//25 35//35 36//36
f 25//25 36//36 26//26
f 26//26 36//36 37//37
f 26//26 37//37 27//27
f 27//27 37//37 38//38
f 27//27 38//38 28//28
f 28//28 38//38 39//39
f 28//28 39//39 29//29
f 29//29 39//39 40//40
f 29//29 40//40 30//30
f 30//30 40//40 41//41
f 30//30 41//41 31//31
f 31//31 41//41 42//42
f 31//31 42//42 32//32
f 33//33 43//43 44//44
f 33//33 44//44 34//34
f 34//34 44//44 45//45
f 34//34 45//45 35//35
f 35//35 45//45 46//46
f 35//35 46//46 36//36
f 36//36 46//46 47//47
f 36//36 47//47 37//37
f 37//37 47//47 48//48
f 37//37 48//48 38//38
f 38//38 48//48 49//49
f 38//38 49//49 39//39
f 39//39 49//49 50//50
f 39//39 50//50 40//40
f 40//40 50//50 51//51
f 40//40 51//51 41//41
f 41//41 51//51 52//52
f 41//41 52//52 42//42
f 43//43 53//53 54//54
f 43//43 54//54 44//44
f 44//44 54//54 55//55
f 44//44 55//55 45//45
f 45//45 55//55 56//56
f 45//45 56//56 46//46
f 46//46 56//56 57//57
f 46//46 57//57 47//47
f 47//47 57//57 58//58
f 47//47 58//58 48//48
f 48//48 58//58 59//59
f 48//48 59//59 49//49
f 49//49 59//59 60//60
f 49//49 60//60 50//50
f 50//50 60//60 61//61
f 50//50 61//61 51//51
f 51//51 61//61 62//62
f 51//51 62//62 52//52
f 53//53 63//63 64//64
f 53//53 64//64 54//54
f 54//54 64//64 65//65
f 54//54 65//65 55//55
f 55//55 65//65 66//66
f 55//55 66//66 56//56
f 56//56 66//66 67//67
f 56//56 67//67 57//57
f 57//57 67//67 68//68
f 57//57 68//68 58//58
f 58//58 68//68 69//69
f 58//58 69//69 59//59
f 59//59 69//69 70//70
f 59//59 70//70 60//60
f 60//60 70//70 71//71
f 60//60 71//71 61//61
f 61//61 71//71 72//72
f 61//61 72//72 62//62
f 63//63 73//73 74//74
f 63//63 74//74 64//64
f 64//64 74//74 75//75
f 64//64 75//75 65//65
f 65//65 75//75 76//76
f 65//65 76//76 66//66
f 66//66 76//76 77//77
f 66//66 77//77 67//67
f 67//67 77//77 78//78
f 67//67 78//78 68//68
f 68//68 78//78 79//79
f 68//68 79//79 69//69
f 69//69 79//79 80//80
f 69//69 80//80 70//70
f 70//70 80//80 81//81
f 70//70 81//81 71//71
f 71//71 81//81 82//82
f 71//71 82//82 72//72
f 73//73 83//83 84//84
f 73//73 84//84 74//74
f 74//74 84//84 85//85
f 74//74 85//85 75//75
f 75//75 85//85 86//86
f 75//75 86//86 76//76
f 76//76 86//86 87//87
f 76//76 87//87 77//77
f 77//77 87//87 88//88
f 77//77 88//88 78//78
f 78//78 88//88 89//89
f 78//78 89//89 79//79
f 79//79 89//89 90//90
f 79//79 90//90 80//80
f 80//80 90//90 91//91
f 80//80 91//91 81//81
f 81//81 91//91 92//92
f 81//81 92//92 82//82
f 83//83 93//93 94//94
f 83//83 94//94 84//84
f 84//84 94//94 95//95
f 84//84 95//95 85//85
f 85//85 95//95 96//96
f 85//85 96//96 86//86
f 86//86 96//96 97//97
f 86//86 97//97 87//87
f 87//87 97//97 98//98
f 87//87 98//98 88//88
f 88//88 98//98 99//99
f 88//88 99//99 89//89
f 89//89 99//99 100//100
f 89//89 100//100 90//90
f 90//90 100//100 101//101
f 90//90 101//101 91//91
f 91//91 101//101 102//102
f 91//91 102//102 92//92
f 93//93 103//103 104//104
f 93//93 104//104 94//94
f 94//94 104//104 105//105
f 94//94 105//105 95//95
f 95//95 105//105 106//106
f 95//95 106//106 96//96
f 96//96 106//106 107//107
f 96//96 107//107 97//97
f 97//97 107//107 108//108
f 97//97 108//108 98//98
f 98//98 108//108 109//109
f 98//98 109//109 99//99
f 99//99 109//109 110//110
f 99//99 110//110 100//100
f 100//100 110//110 111//111
f 100//100 111//111 101//101
f 101//101 111//111 112//112
f 101//101 112//112 102//102

