# https://github.com/mikedh/trimesh
v 0.06324028 0.23492757 0.27718560
v 0.04545923 0.19630020 0.27657191
v -0.05018709 0.25945178 0.27779823
v 0.06324028 0.09636231 0.18031191
v -0.04160393 0.19630020 0.27657191
v 0.00192765 0.02278757 0.20483717
v 0.06324028 0.08409915 0.01476981
v 0.03871502 0.08409915 -0.24274072
v 0.03871502 -0.02626190 -0.24274072
v 0.03871502 -0.01399980 -0.04654283
v 0.06324028 -0.03852506 -0.07106704
v 0.06324028 -0.09983664 -0.20595335
v 0.06324028 -0.16114822 -0.23047862
v 0.06324028 -0.28377243 -0.13237967
v 0.05404344 -0.04159032 0.10183296
v 0.08776449 -0.30829769 0.16191928
v 0.06324028 -0.08757453 0.13739402
v 0.06324028 -0.04465559 0.10489823
v 0.02829186 0.01175178 0.16804981
v 0.03871502 -0.08757453 0.13739402
v 0.02645291 -0.30829769 0.16191928
v 0.04484660 -0.30829769 0.11286875
v 0.00192765 0.01052547 -0.23047862
v 0.03871502 -0.09983664 -0.20595335
v 0.04484660 -0.30829769 -0.18142914
v 0.04484660 -0.11823032 -0.12011651
v 0.03871502 -0.28377243 -0.13237967
v -0.04099130 -0.02626190 -0.24274072
v -0.04099130 -0.30829769 -0.18142914
v -0.03485972 -0.28377243 -0.13237967
v -0.04099130 -0.29603559 -0.15690388
v -0.04099130 -0.17341138 -0.18142914
v -0.03485972 -0.01399980 -0.04654283
v -0.08390919 -0.30829769 -0.12011651
v -0.05938393 -0.28377243 -0.13237967
v -0.05938393 -0.29603559 -0.15690388
v -0.05938393 -0.17341138 -0.18142914
v -0.05938393 -0.11209874 -0.12011651
v -0.05938393 -0.03852506 -0.07106704
v -0.05938393 -0.30829769 -0.18142914
v -0.03485972 0.08409915 -0.24274072
v -0.03485972 -0.08757453 0.13739402
v -0.02259656 -0.30829769 0.16191928
v -0.05938393 0.09636231 0.18031191
v -0.05938393 -0.28377243 0.14965612
v -0.05938393 0.04731283 -0.15690388
v 0.00192765 0.12088652 0.01476981
v 0.01418976 0.09023073 -0.21208493
v -0.01033445 0.09023073 -0.21208493
v -0.01033445 0.08409915 -0.34697125
v 0.01418976 0.10862441 -0.44507125
v 0.00192765 0.16380547 -0.52477651
v -0.05938393 0.23492757 0.27718560
v 0.00192765 0.28949494 0.27228033
v 0.04545923 0.27355389 0.27779823
v 0.00192765 0.17974652 0.27595928
v 0.00192765 0.16687073 0.47522349
v 0.02216028 0.28213810 0.28209086
v 0.05404344 0.25945178 0.27779823
v 0.06324028 0.28949494 0.31213296
v 0.07121081 0.31708547 0.29741823
v 0.04484660 0.32505599 0.30109717
v -0.05938393 0.28949494 0.31213296
v -0.04099130 0.32566968 0.30109717
v -0.06735551 0.31708547 0.29741823
v -0.01830498 0.28213810 0.28209086
v 0.03687607 0.13682757 0.16130560
v -0.03301972 0.13682757 0.16130560
v 0.00192765 0.16135283 0.14842981
v -0.04160393 0.27355389 0.27779823
v 0.06324028 0.04731283 -0.15690388
v 0.00192765 0.12088652 -0.18142914
v 0.06324028 -0.11209874 -0.12011651
v 0.06324028 -0.30829769 -0.18142914
v 0.08776449 -0.30829769 -0.12011651
v 0.06324028 -0.29603559 -0.15690388
v 0.06324028 -0.17341138 -0.18142914
v 0.00192765 -0.07531138 0.11286875
v 0.06324028 -0.07531138 0.08834454
v 0.06324028 -0.30829769 0.11286875
v 0.06324028 -0.28377243 0.14965612
v 0.06324028 -0.29603559 0.12513191
v 0.06324028 0.01849599 0.07117717
v 0.03871502 -0.29603559 0.12513191
v 0.03871502 -0.28377243 0.14965612
v 0.05097712 -0.07531138 0.08834454
v 0.03871502 -0.16114822 -0.23047862
v 0.04484660 -0.17341138 -0.18142914
v 0.04484660 -0.29603559 -0.15690388
v 0.02645291 -0.30829769 -0.12011651
v -0.02259656 -0.09983664 -0.20595335
v -0.03485972 -0.16114822 -0.23047862
v -0.02259656 -0.30829769 -0.12011651
v -0.04099130 -0.11823032 -0.12011651
v -0.05938393 -0.16114822 -0.23047862
v -0.05938393 -0.09983664 -0.20595335
v 0.00192765 0.09636231 -0.24274072
v 0.00192765 -0.03852506 -0.04654283
v -0.02443656 0.01175178 0.16804981
v -0.05018709 -0.04159032 0.10183296
v -0.04712182 -0.07531138 0.08834454
v -0.03485972 -0.28377243 0.14965612
v -0.03485972 -0.29603559 0.12513191
v -0.04099130 -0.30829769 0.11286875
v -0.05938393 -0.07531138 0.08834454
v -0.05938393 -0.30829769 0.11286875
v -0.05938393 -0.04465559 0.10489823
v -0.05938393 0.01849599 0.07117717
v -0.05938393 -0.29603559 0.12513191
v -0.08390919 -0.30829769 0.16191928
v -0.05938393 -0.08757453 0.13739402
v -0.05938393 0.08409915 0.01476981
v 0.01418976 0.08409915 -0.34697125
v -0.01033445 0.10862441 -0.44507125
v 0.00192765 0.03504968 -0.31631546
v 0.04484660 0.32566968 0.30170981
v 0.07121081 0.31769810 0.29803191
v 0.06324028 0.28949494 0.31274665
v -0.06735551 0.31708547 0.29803191
v -0.04099130 0.32566968 0.30170981
v -0.05938393 0.28949494 0.31274665
v 0.07121081 0.31708547 0.29680560
v 0.04484660 0.32566968 0.30048454
v 0.02216028 0.28213810 0.28147717
v 0.05404344 0.25945178 0.27718560
v -0.01830498 0.28213810 0.28147717
v -0.04099130 0.32566968 0.30048454
v -0.06735551 0.31708547 0.29680560
v -0.05018709 0.25945178 0.27718560
v -0.02934182 0.24780336 0.35198665
v -0.03118077 0.24044547 0.35811717
v -0.03301972 0.24412441 0.35321191
v -0.02688919 0.24289810 0.35995717
v -0.02627551 0.24718968 0.35627823
v 0.03319712 0.24780336 0.35198665
v 0.03687607 0.24412441 0.35321191
v 0.03503607 0.24044547 0.35873086
v 0.03074449 0.24289810 0.35995717
v 0.03013081 0.24718968 0.35627823
v 0.02093397 0.26374441 0.34585507
v 0.02522660 0.26864862 0.33359296
v 0.03319712 0.26374441 0.32684875
v 0.03994134 0.25148126 0.33052665
v 0.04239397 0.23983178 0.34217612
v 0.03810134 0.23492757 0.35505191
v 0.02951818 0.23983178 0.36240875
v 0.03013081 0.23983178 0.36179612
v 0.02277397 0.25148126 0.35811717
v -0.01707866 0.26374441 0.34585507
v -0.02137130 0.26864862 0.33359296
v -0.02934182 0.26374441 0.32684875
v -0.03608603 0.25148126 0.33052665
v -0.03853866 0.23983178 0.34217612
v -0.03424603 0.23492757 0.35505191
v -0.02566288 0.23983178 0.36240875
v -0.02627551 0.23983178 0.36179612
v -0.01891866 0.25148126 0.35811717
v -0.02627551 0.23983178 0.36240875
v -0.02627551 0.23983178 0.36302244
v -0.03424603 0.23492757 0.35566454
v -0.03853866 0.23983178 0.34278981
v -0.03608603 0.25148126 0.33114033
v -0.02934182 0.26374441 0.32746138
v -0.02137130 0.26864862 0.33420560
v -0.01707866 0.26374441 0.34646770
v -0.01891866 0.25148126 0.35873086
v 0.03319712 0.26374441 0.32746138
v 0.03994134 0.25148126 0.33114033
v 0.04239397 0.23983178 0.34278981
v 0.03810134 0.23492757 0.35566454
v 0.03013081 0.23983178 0.36302244
v 0.03013081 0.23983178 0.36240875
v 0.02277397 0.25148126 0.35873086
v 0.02093397 0.26374441 0.34646770
v 0.02522660 0.26864862 0.33420560
v 0.00192765 0.05957494 -0.50638283
vn 0.99062743 0.12730678 -0.04950035
vn 0.79364325 -0.55051637 0.25896355
vn 0.07214457 -0.33994350 0.93767456
vn 0.97273844 -0.02171833 0.23088577
vn -0.79364823 -0.55051069 0.25896036
vn -0.00000179 -0.57664640 0.81699384
vn 0.85975370 0.50528922 -0.07420499
vn 0.59179032 0.39996411 -0.69986637
vn -0.28404402 -0.49323999 -0.82221244
vn 0.74747525 -0.66353827 0.03158657
vn 0.80559625 -0.15048081 0.57303596
vn 0.82660833 0.15875906 -0.53992058
vn 0.63726191 0.02264104 -0.77031464
vn 0.31845740 0.91673725 0.24120055
vn 0.70618440 -0.59931368 -0.37699695
vn 0.59078292 0.72154252 0.36104285
vn 0.73464974 -0.11598617 0.66845865
vn -0.68706824 0.34523281 -0.63933680
vn 0.57422618 -0.41468282 0.70590541
vn -0.82019169 -0.10878989 0.56164967
vn -0.66328493 0.51611093 0.54192492
vn -0.57041926 -0.09918453 -0.81534305
vn -0.02785482 -0.51788872 -0.85499437
vn 0.54642698 -0.06925146 -0.83463872
vn -0.74870815 -0.11569183 -0.65272621
vn -0.58464648 -0.54394155 0.60192697
vn -0.49445190 0.84724195 0.19416075
vn 0.16088730 -0.46419661 -0.87099758
vn 0.73767634 -0.12047496 -0.66431875
vn 0.46484086 0.85816022 0.21790828
vn 0.37738701 0.92033041 -0.10281534
vn 0.80341365 -0.14580464 0.57729326
vn -0.74671650 -0.66465024 0.02558373
vn -0.56558606 0.74374802 0.35630224
vn -0.31845087 0.91673911 0.24120210
vn 0.56462623 0.74142418 0.36261192
vn -0.83866250 -0.16114330 0.52026728
vn -0.75898985 -0.40945200 0.50624448
vn -0.80559791 -0.15048248 0.57303319
vn -0.74522958 -0.05756777 -0.66431832
vn -0.58330053 0.41132113 -0.70041089
vn 0.81886515 -0.10205621 0.56484015
vn 0.66462709 0.52523404 0.53141323
vn -0.97273919 -0.02171744 0.23088271
vn 0.42184470 0.59043104 0.68806848
vn -0.95268690 0.29778951 -0.06090224
vn -0.00000227 0.98793533 -0.15486700
vn 0.28778190 0.95670803 -0.04348932
vn -0.28778226 0.95670792 -0.04348937
vn -0.83360637 0.55096913 0.03915913
vn 0.82074531 0.52723697 0.21999617
vn 0.00000000 0.76733400 -0.64124764
vn -0.99062772 0.12730439 -0.04950072
vn -0.00000025 0.98823514 -0.15294216
vn 0.64652662 0.75988014 -0.06771635
vn -0.00000036 -0.81134135 0.58457267
vn 0.00000000 -0.30528288 0.95226171
vn -0.12193869 -0.34730402 0.92979077
vn -0.07130917 -0.34267544 0.93674359
vn -0.24429985 -0.40043636 -0.88315814
vn -0.26682660 -0.95195401 0.15029017
vn -0.20040269 -0.73605673 0.64657501
vn 0.25253352 -0.39752266 -0.88215790
vn 0.21121449 -0.73033926 0.64960989
vn 0.28671613 -0.94583607 0.15227605
vn 0.11958573 -0.34426318 0.93122614
vn 0.79153045 0.50857418 -0.33886848
vn -0.79153231 0.50857215 -0.33886719
vn -0.00000451 0.83625434 -0.54834176
vn -0.64653021 0.75987711 -0.06771605
vn 0.95764254 0.27693896 -0.07890240
vn -0.00000223 0.99860864 -0.05273320
vn 0.77854040 -0.39389251 0.48859342
vn 0.74523122 -0.05757066 -0.66431623
vn 0.56558913 0.74374265 0.35630859
vn 0.75872489 0.65116397 -0.01794534
vn 0.83651646 -0.17058980 0.52071041
vn -0.00000212 -0.95374795 0.30060745
vn 0.65742522 0.11022041 -0.74541501
vn 0.64068048 0.07833032 -0.76380160
vn 0.31845740 0.91673725 0.24120055
vn 0.86940387 0.49255922 -0.03901687
vn 0.99329170 -0.10939534 0.03747343
vn -0.94641350 0.25929502 -0.19252945
vn -0.43403621 0.86843262 0.23966089
vn -0.58227118 0.14458889 -0.80003396
vn -0.68583247 0.03873392 -0.72672795
vn -0.79927654 -0.16065919 0.57909035
vn -0.80925661 0.58742318 -0.00614477
vn -0.63474195 0.60570175 0.47982084
vn -0.66865692 -0.08992702 -0.73811317
vn 0.69467458 0.08418261 -0.71438121
vn 0.64151722 0.57478229 0.50801671
vn 0.59966218 -0.53687980 0.59343521
vn -0.63726191 0.02264104 -0.77031464
vn 0.71031429 0.63534830 -0.30296229
vn -0.00000066 0.58365512 -0.81200166
vn -0.00000134 -0.97079650 -0.23990449
vn -0.57422907 -0.41468100 0.70590413
vn -0.70618301 -0.59932028 -0.37698906
vn 0.58091766 0.14674205 -0.80062566
vn 0.43403282 0.86843431 0.23966093
vn -0.43103114 0.70168681 0.56731630
vn 0.59305516 -0.06883487 -0.80221402
vn -0.65650949 0.11446852 -0.74558182
vn -0.53991846 -0.08811273 -0.83709271
vn 0.68706824 0.34523281 -0.63933680
vn -0.99329181 -0.10939440 0.03747316
vn 0.55474063 0.69461000 0.45801723
vn -0.72627345 0.36218969 0.58424782
vn -0.73464974 -0.11598617 0.66845865
vn -0.85975490 0.50528722 -0.07420470
vn 0.83360511 0.55097101 0.03915952
vn -0.82074644 0.52723551 0.21999546
vn 0.00000246 -0.99885914 -0.04775372
vn 0.24277630 0.39391429 0.88650505
vn 0.24277600 0.39391469 0.88650495
vn 0.24277543 0.39391485 0.88650504
vn -0.25250193 0.39753419 0.88216174
vn -0.25250222 0.39753403 0.88216173
vn -0.25250248 0.39753479 0.88216132
vn -0.02470017 0.32875140 -0.94409344
vn 0.02517076 0.33491049 -0.94191369
vn 0.11961526 0.34426576 -0.93122139
vn 0.07216543 0.33994529 -0.93767230
vn -0.11961909 0.34426598 -0.93122082
vn -0.02517098 0.33491100 -0.94191350
vn 0.02470018 0.32875104 -0.94409356
vn -0.07216693 0.33994525 -0.93767220
vn -0.54255694 0.60469799 0.58307144
vn -0.53642861 0.61533738 0.57758485
vn -0.42653768 0.63952626 0.63958718
vn -0.59603586 0.58891237 0.54582368
vn -0.63990553 0.55079288 0.53586203
vn 0.53681665 0.62423609 0.56758893
vn 0.46167867 0.65931728 0.59342525
vn 0.50751989 0.64769966 0.56825057
vn 0.55624424 0.62035657 0.55294672
vn 0.63978883 0.55088936 0.53590220
vn -0.68018040 -0.56683320 -0.46481689
vn -0.70541022 -0.55127384 -0.44552619
vn -0.71367817 -0.52989097 -0.45812556
vn -0.72728801 -0.55007021 -0.41045697
vn -0.71073159 -0.55294069 -0.43487608
vn -0.70261669 -0.55312411 -0.44764217
vn -0.95826044 -0.26050199 -0.11779494
vn 0.49034666 0.65078891 0.57968435
vn -0.67357443 -0.57216769 -0.46789061
vn 0.68025810 -0.56677154 -0.46477838
vn 0.70744762 -0.54381286 -0.45142601
vn 0.71638320 -0.53451363 -0.44843092
vn 0.70949310 -0.54930161 -0.44146041
vn 0.69446301 -0.57162737 -0.43699345
vn 0.69693041 -0.56310207 -0.44407663
vn 0.87867773 -0.44511621 0.17261811
vn -0.58729056 0.55651169 0.58769425
vn 0.70295863 -0.55841144 -0.44048364
vn 0.84549194 -0.53398818 0.00000000
vn -0.39351335 0.52622995 0.75380985
vn -0.70107050 0.56972777 0.42884778
vn -0.69446526 0.57161680 0.43700370
vn -0.70948426 0.54931734 0.44145503
vn -0.71637415 0.53453442 0.44842060
vn -0.70744137 0.54382850 0.45141696
vn -0.68022405 0.56680959 0.46478182
vn -0.69994703 0.56274074 0.43976926
vn 0.71367382 0.52991965 0.45809917
vn 0.72727475 0.55008323 0.41046299
vn 0.71070752 0.55295009 0.43490346
vn 0.71682401 0.54801703 0.43109242
vn 0.31437278 0.69747371 0.64397219
vn -0.98866336 -0.02304555 0.14837005
vn 0.67361040 0.57214937 0.46786122
vn 0.68014635 0.56687124 0.46482033
vn 0.70515777 0.55229938 0.44465482
vn 0.00000172 -0.70052035 -0.71363242
f 118//118 117//117 116//116
f 129//129 128//128 127//127
f 125//125 124//124 123//123
f 121//121 120//120 119//119
f 59//59 61//61 62//62
f 28//28 33//33 94//94
f 31//31 29//29 92//92
f 30//30 93//93 29//29
f 30//30 35//35 34//34
f 31//31 36//36 35//35
f 32//32 37//37 36//36
f 94//94 38//38 37//37
f 33//33 39//39 38//38
f 40//40 95//95 92//92
f 91//91 92//92 95//95
f 91//91 96//96 28//28
f 23//23 28//28 41//41
f 23//23 33//33 28//28
f 37//37 38//38 39//39
f 95//95 40//40 36//36
f 40//40 34//34 35//35
f 98//98 33//33 23//23
f 78//78 33//33 98//98
f 42//42 101//101 100//100
f 43//43 104//104 101//101
f 44//44 99//99 6//6
f 101//101 104//104 106//106
f 100//100 101//101 105//105
f 108//108 100//100 99//99
f 102//102 103//103 109//109
f 43//43 102//102 45//45
f 103//103 42//42 111//111
f 99//99 111//111 42//42
f 99//99 44//44 111//111
f 105//105 106//106 110//110
f 105//105 111//111 44//44
f 33//33 100//100 108//108
f 78//78 100//100 33//33
f 46//46 33//33 108//108
f 78//78 6//6 99//99
f 39//39 33//33 46//46
f 97//97 41//41 72//72
f 28//28 46//46 41//41
f 41//41 46//46 72//72
f 44//44 68//68 47//47
f 46//46 112//112 47//47
f 72//72 46//46 47//47
f 9//9 24//24 87//87
f 87//87 25//25 89//89
f 90//90 27//27 89//89
f 27//27 90//90 75//75
f 89//89 27//27 14//14
f 88//88 89//89 76//76
f 26//26 88//88 77//77
f 10//10 26//26 73//73
f 74//74 25//25 87//87
f 24//24 12//12 13//13
f 24//24 23//23 9//9
f 23//23 97//97 8//8
f 73//73 77//77 13//13
f 77//77 76//76 74//74
f 76//76 14//14 75//75
f 23//23 9//9 10//10
f 98//98 23//23 10//10
f 78//78 98//98 10//10
f 20//20 19//19 15//15
f 21//21 85//85 84//84
f 84//84 20//20 86//86
f 4//4 6//6 19//19
f 86//86 79//79 80//80
f 15//15 18//18 79//79
f 83//83 4//4 19//19
f 85//85 81//81 82//82
f 21//21 16//16 81//81
f 84//84 82//82 17//17
f 19//19 20//20 17//17
f 19//19 17//17 4//4
f 79//79 17//17 82//82
f 82//82 81//81 16//16
f 79//79 18//18 83//83
f 10//10 83//83 15//15
f 78//78 10//10 15//15
f 71//71 7//7 4//4
f 78//78 15//15 19//19
f 11//11 71//71 10//10
f 97//97 72//72 8//8
f 9//9 8//8 71//71
f 8//8 72//72 71//71
f 4//4 7//7 47//47
f 71//71 47//47 7//7
f 72//72 47//47 71//71
f 47//47 69//69 67//67
f 47//47 68//68 69//69
f 6//6 4//4 2//2
f 57//57 53//53 5//5
f 57//57 5//5 56//56
f 57//57 56//56 2//2
f 57//57 2//2 1//1
f 57//57 1//1 55//55
f 57//57 55//55 54//54
f 57//57 54//54 70//70
f 57//57 70//70 53//53
f 69//69 55//55 1//1
f 69//69 54//54 55//55
f 69//69 70//70 54//54
f 60//60 62//62 61//61
f 3//3 66//66 64//64
f 63//63 65//65 64//64
f 67//67 2//2 4//4
f 67//67 1//1 2//2
f 69//69 68//68 53//53
f 68//68 44//44 5//5
f 68//68 5//5 53//53
f 6//6 56//56 5//5
f 135//135 139//139 138//138
f 130//130 132//132 131//131
f 166//166 165//165 164//164
f 175//175 174//174 173//173
f 141//141 142//142 143//143
f 157//157 156//156 155//155
f 48//48 113//113 50//50
f 113//113 51//51 114//114
f 51//51 52//52 114//114
f 52//52 51//51 176//176
f 114//114 52//52 176//176
f 115//115 176//176 51//51
f 115//115 50//50 114//114
f 115//115 113//113 48//48
f 49//49 50//50 115//115
f 129//129 127//127 126//126
f 125//125 123//123 122//122
f 59//59 62//62 58//58
f 28//28 94//94 32//32
f 28//28 32//32 92//92
f 28//28 92//92 91//91
f 31//31 92//92 32//32
f 30//30 29//29 31//31
f 30//30 34//34 93//93
f 31//31 35//35 30//30
f 32//32 36//36 31//31
f 94//94 37//37 32//32
f 33//33 38//38 94//94
f 40//40 92//92 29//29
f 91//91 95//95 96//96
f 91//91 28//28 23//23
f 23//23 41//41 97//97
f 37//37 39//39 46//46
f 37//37 46//46 28//28
f 37//37 28//28 96//96
f 37//37 96//96 95//95
f 95//95 36//36 37//37
f 40//40 35//35 36//36
f 42//42 100//100 99//99
f 43//43 101//101 42//42
f 43//43 42//42 103//103
f 43//43 103//103 102//102
f 101//101 106//106 105//105
f 100//100 105//105 107//107
f 108//108 99//99 44//44
f 102//102 109//109 45//45
f 43//43 45//45 110//110
f 103//103 111//111 109//109
f 105//105 110//110 45//45
f 105//105 45//45 109//109
f 105//105 109//109 111//111
f 105//105 44//44 108//108
f 105//105 108//108 107//107
f 46//46 108//108 44//44
f 46//46 44//44 112//112
f 78//78 99//99 100//100
f 44//44 47//47 112//112
f 9//9 87//87 88//88
f 9//9 88//88 26//26
f 9//9 26//26 10//10
f 87//87 89//89 88//88
f 90//90 89//89 25//25
f 27//27 75//75 14//14
f 89//89 14//14 76//76
f 88//88 76//76 77//77
f 26//26 77//77 73//73
f 10//10 73//73 11//11
f 74//74 87//87 13//13
f 24//24 13//13 87//87
f 24//24 9//9 12//12
f 23//23 8//8 9//9
f 73//73 13//13 12//12
f 73//73 12//12 9//9
f 73//73 9//9 71//71
f 73//73 71//71 11//11
f 77//77 74//74 13//13
f 76//76 75//75 74//74
f 20//20 15//15 86//86
f 21//21 84//84 22//22
f 84//84 86//86 22//22
f 86//86 80//80 22//22
f 15//15 79//79 86//86
f 83//83 19//19 15//15
f 85//85 82//82 84//84
f 21//21 81//81 85//85
f 84//84 17//17 20//20
f 79//79 82//82 80//80
f 82//82 16//16 80//80
f 79//79 83//83 4//4
f 79//79 4//4 17//17
f 71//71 4//4 83//83
f 71//71 83//83 10//10
f 78//78 19//19 6//6
f 4//4 47//47 67//67
f 6//6 2//2 56//56
f 69//69 1//1 67//67
f 3//3 64//64 65//65
f 69//69 53//53 70//70
f 6//6 5//5 44//44
f 135//135 138//138 137//137
f 135//135 137//137 136//136
f 130//130 131//131 133//133
f 130//130 133//133 134//134
f 166//166 164//164 163//163
f 166//166 163//163 162//162
f 166//166 162//162 161//161
f 166//166 161//161 160//160
f 166//166 160//160 159//159
f 166//166 159//159 158//158
f 175//175 173//173 172//172
f 175//175 172//172 171//171
f 175//175 171//171 170//170
f 175//175 170//170 169//169
f 175//175 169//169 168//168
f 175//175 168//168 167//167
f 141//141 143//143 144//144
f 141//141 144//144 145//145
f 141//141 145//145 146//146
f 141//141 146//146 147//147
f 141//141 147//147 148//148
f 141//141 148//148 140//140
f 157//157 155//155 154//154
f 157//157 154//154 153//153
f 157//157 153//153 152//152
f 157//157 152//152 151//151
f 157//157 151//151 150//150
f 157//157 150//150 149//149
f 48//48 50//50 49//49
f 113//113 114//114 50//50
f 115//115 51//51 113//113
f 115//115 114//114 176//176

