# https://github.com/mikedh/trimesh
v 0.18698111 -0.01487433 -0.15705216
v 0.26348427 -0.01487433 -0.04126584
v -0.04706310 0.01552777 -0.04126584
v -0.28110942 -0.01487433 -0.15705216
v -0.35761258 -0.01487433 -0.04126584
v -0.28110942 -0.01487433 0.07452152
v 0.18698111 -0.01487433 0.07452152
v 0.18698111 -0.41482381 -0.13861111
v 0.24738427 -0.41482381 -0.04126584
v -0.28110942 -0.41482381 -0.13861427
v -0.34150942 -0.41482381 -0.04126584
v -0.28110942 -0.41482381 0.05608258
v 0.18698111 -0.41482381 0.05608258
v -0.04706310 -0.48244802 -0.04126584
v -0.23968415 0.18894777 -0.06982690
v -0.23968415 -0.02045644 -0.10305216
v -0.20400942 -0.02045644 -0.04126584
v -0.20400942 0.16982146 -0.01107427
v -0.31103047 0.18894777 -0.06982690
v -0.31103047 -0.02045644 -0.10305216
v -0.34670205 0.16982146 -0.01107427
v -0.34670205 -0.02045644 -0.04126584
v -0.31103047 0.15069198 0.04767942
v -0.31103047 -0.02045644 0.02052152
v -0.23968415 0.15069198 0.04767942
v -0.23968415 -0.02045644 0.02052152
v -0.27535573 -0.02045644 -0.04126584
v -0.27535573 0.40237303 0.12727205
v -0.23968415 0.42468040 0.06404468
v -0.20401258 0.38402040 0.11056889
v -0.31103047 0.42468040 0.06404468
v -0.34670205 0.38402040 0.11056889
v -0.31103047 0.34336356 0.15709310
v -0.23968415 0.34336356 0.15709310
v -0.08768731 0.26833093 -0.03831111
v -0.08768731 -0.02045644 -0.10305216
v -0.05201258 -0.02045644 -0.04126584
v -0.05201258 0.24195303 0.01756152
v -0.15903258 0.26833093 -0.03831111
v -0.15903258 -0.02045644 -0.10305216
v -0.19470521 0.24195303 0.01756152
v -0.19470521 -0.02045644 -0.04126584
v -0.15903258 0.21557514 0.07343521
v -0.15903258 -0.02045644 0.02052152
v -0.08768731 0.21557514 0.07343521
v -0.08768731 -0.02045644 0.02052152
v -0.12335889 -0.02045644 -0.04126584
v -0.12335889 0.45521725 0.18410679
v -0.08768731 0.48531514 0.12419626
v -0.05201258 0.43911725 0.16522573
v -0.15903258 0.48531514 0.12419626
v -0.19470521 0.43911725 0.16522573
v -0.15903258 0.39292146 0.20625626
v -0.08768731 0.39292146 0.20625626
v 0.06143058 0.31335409 -0.01495427
v 0.06143058 -0.02045644 -0.10305216
v 0.09710321 -0.02045644 -0.04126584
v 0.09710321 0.28286356 0.03878889
v -0.00991573 0.31335409 -0.01495427
v -0.00991573 -0.02045644 -0.10305216
v -0.04558942 0.28286356 0.03878889
v -0.04558942 -0.02045644 -0.04126584
v -0.00991573 0.25237409 0.09252784
v -0.00991573 -0.02045644 0.02052152
v 0.06143058 0.25237409 0.09252784
v 0.06143058 -0.02045644 0.02052152
v 0.02575690 -0.02045644 -0.04126584
v 0.02575690 0.48305198 0.22084468
v 0.06143058 0.51755198 0.16335521
v 0.09710321 0.46841093 0.20080994
v -0.00991573 0.51755198 0.16335521
v -0.04558942 0.46841093 0.20080994
v -0.00991573 0.41926988 0.23826363
v 0.06143058 0.41926988 0.23826363
v 0.21276532 0.25970040 -0.04231321
v 0.21276532 -0.02045644 -0.10305216
v 0.24844006 -0.02045644 -0.04126584
v 0.24844006 0.23410988 0.01392784
v 0.14142111 0.25970040 -0.04231321
v 0.14142111 -0.02045644 -0.10305216
v 0.10574742 0.23410988 0.01392784
v 0.10574742 -0.02045644 -0.04126584
v 0.14142111 0.20852251 0.07016573
v 0.14142111 -0.02045644 0.02052152
v 0.21276532 0.20852251 0.07016573
v 0.21276532 -0.02045644 0.02052152
v 0.17709374 -0.02045644 -0.04126584
v 0.17709374 0.44969619 0.17745731
v 0.21276532 0.47894777 0.11712679
v 0.24844006 0.43333303 0.15880363
v 0.14142111 0.47894777 0.11712679
v 0.10574742 0.43333303 0.15880363
v 0.14142111 0.38771830 0.20048047
v 0.21276532 0.38771830 0.20048047
v 0.41674427 -0.10136486 -0.07153742
v 0.29367058 -0.34709012 -0.11191532
v 0.33506848 -0.32606486 -0.03894690
v 0.45369585 -0.11538907 -0.00908374
v 0.34285269 -0.10136486 -0.07153742
v 0.21087479 -0.39213854 -0.11330269
v 0.30590742 -0.11538907 -0.00908374
v 0.16947690 -0.41467749 -0.04177427
v 0.34285269 -0.12904697 0.05342152
v 0.21087479 -0.39436591 0.03008679
v 0.41674427 -0.12904697 0.05342152
v 0.29367058 -0.35377223 0.03133521
v 0.25227269 -0.39021223 -0.04155848
v 0.34946321 0.12516777 0.06839205
v 0.40792111 0.10412146 0.00710468
v 0.43604006 0.08645619 0.05246784
v 0.35168216 0.10412146 0.00710468
v 0.32356321 0.08645619 0.05246784
v 0.35168216 0.06914040 0.09791731
v 0.40792111 0.06914040 0.09791731
vn 0.39741242 0.55883419 -0.72785144
vn 0.82933263 0.55875193 0.00191416
vn 0.00000016 1.00000000 -0.00000115
vn -0.39950997 0.55744647 -0.72776728
vn -0.82933317 0.55875111 -0.00191983
vn -0.39741296 0.55883567 0.72785001
vn 0.39950938 0.55744697 0.72776722
vn 0.43129563 -0.53786092 -0.72435469
vn 0.83414607 -0.55153922 0.00219768
vn -0.43375351 -0.53603539 -0.72424026
vn -0.83414280 -0.55154412 -0.00220635
vn -0.43130445 -0.53786099 0.72434938
vn 0.43374621 -0.53603619 0.72424403
vn 0.00000118 -1.00000000 -0.00000412
vn 0.47680786 0.29008768 -0.82976105
vn 0.39807181 -0.55756910 -0.72846107
vn 0.79389649 -0.60675376 -0.03972704
vn 0.99837184 0.02008887 -0.05338632
vn -0.47682092 0.29008282 -0.82975524
vn -0.39808500 -0.55756668 -0.72845572
vn -0.99837202 0.02008232 -0.05338545
vn -0.79389219 -0.60675946 -0.03972597
vn -0.52627066 -0.28182932 0.80225397
vn -0.39285949 -0.65996401 0.64039748
vn 0.52625569 -0.28183140 0.80226305
vn 0.39284695 -0.65996624 0.64040287
vn 0.00000000 -1.00000000 0.00000000
vn 0.00000822 0.75127315 0.65999141
vn 0.43258649 0.84602950 -0.31161357
vn 0.86492119 0.40563567 0.29558593
vn -0.43258620 0.84603056 -0.31161109
vn -0.86491942 0.40563760 0.29558845
vn -0.42835773 -0.02426491 0.90328338
vn 0.42835756 -0.02426717 0.90328340
vn 0.47309274 0.36884303 -0.80008629
vn 0.39852822 -0.53582496 -0.74435668
vn 0.79534321 -0.60359283 -0.05572144
vn 0.99775644 0.02741226 -0.06107910
vn -0.47310256 0.36884095 -0.80008144
vn -0.39853683 -0.53582373 -0.74435296
vn -0.99775666 0.02741055 -0.06107631
vn -0.79534034 -0.60359687 -0.05571861
vn -0.53126047 -0.35410297 0.76965797
vn -0.39094866 -0.67934971 0.62100170
vn 0.53124841 -0.35410573 0.76966503
vn 0.39093827 -0.67935232 0.62100539
vn 0.00000000 -1.00000000 0.00000000
vn 0.00000237 0.66212090 0.74939703
vn 0.43256922 0.87856135 -0.20251872
vn 0.86491737 0.36516390 0.34434470
vn -0.43257840 0.87855780 -0.20251450
vn -0.86491532 0.36516484 0.34434885
vn -0.42835204 -0.13789017 0.89302902
vn 0.42834215 -0.13789431 0.89303313
vn 0.47088997 0.41428559 -0.77886461
vn 0.39874413 -0.52273387 -0.75349347
vn 0.79643443 -0.60119620 -0.06523285
vn 0.99733921 0.03225277 -0.06537776
vn -0.47088615 0.41428613 -0.77886664
vn -0.39874125 -0.52273374 -0.75349509
vn -0.99733905 0.03225324 -0.06538001
vn -0.79643692 -0.60119266 -0.06523516
vn -0.53413335 -0.39513728 0.74737413
vn -0.38962353 -0.69068554 0.60921834
vn 0.53413883 -0.39513570 0.74737105
vn 0.38962780 -0.69068489 0.60921636
vn 0.00000000 -1.00000000 0.00000000
vn -0.00000128 0.60412177 0.79689202
vn 0.43257992 0.89125819 -0.13613762
vn 0.86491402 0.33834104 0.37074127
vn -0.43257613 0.89125970 -0.13613975
vn -0.86491560 0.33834051 0.37073806
vn -0.42834859 -0.20442398 0.88018652
vn 0.42835315 -0.20442148 0.88018489
vn 0.47351481 0.36020113 -0.80376543
vn 0.39848455 -0.53826618 -0.74261671
vn 0.79515698 -0.60399993 -0.05393944
vn 0.99783167 0.02653648 -0.06023098
vn -0.47352097 0.36019980 -0.80376240
vn -0.39848996 -0.53826476 -0.74261484
vn -0.99783177 0.02653577 -0.06022971
vn -0.79515662 -0.60400049 -0.05393851
vn -0.53070137 -0.34625275 0.77360526
vn -0.39117457 -0.67721145 0.62319107
vn 0.53069398 -0.34625501 0.77360931
vn 0.39116838 -0.67721340 0.62319283
vn 0.00000000 -1.00000000 0.00000000
vn 0.00000128 0.67260424 0.74000239
vn 0.43256781 0.87562350 -0.21486874
vn 0.86491431 0.36997978 0.33917281
vn -0.43257354 0.87562107 -0.21486713
vn -0.86491447 0.36997876 0.33917353
vn -0.42834990 -0.12532156 0.89488037
vn 0.42834324 -0.12532254 0.89488342
vn 0.53945484 0.08517474 -0.83769549
vn 0.45395292 -0.41094321 -0.79060257
vn 0.81079448 -0.58181008 -0.06410405
vn 0.98157738 -0.18019858 -0.06351632
vn -0.43171360 0.32087305 -0.84300881
vn -0.38055468 -0.47197664 -0.79524599
vn -0.96269341 0.26882914 0.03085918
vn -0.79108114 -0.61152344 -0.01515611
vn -0.44924444 -0.03122580 0.89286302
vn -0.40617942 -0.53026458 0.74420277
vn 0.56036370 -0.27962537 0.77961669
vn 0.47264984 -0.57808749 0.66514433
vn 0.44880628 -0.89324919 -0.02605390
vn -0.31179596 0.88299512 0.35086023
vn 0.45448036 0.69857825 -0.55266267
vn 0.86555660 0.47296633 0.16466521
vn -0.42905654 0.63882121 -0.63860626
vn -0.95602636 0.27890498 0.09069512
vn -0.43174585 0.10379279 0.89600367
vn 0.45337960 0.20884044 0.86650598
f 3//3 2//2 1//1
f 3//3 1//1 4//4
f 3//3 4//4 5//5
f 3//3 5//5 6//6
f 3//3 6//6 7//7
f 3//3 7//7 2//2
f 2//2 9//9 8//8
f 2//2 8//8 1//1
f 1//1 8//8 10//10
f 1//1 10//10 4//4
f 4//4 10//10 11//11
f 4//4 11//11 5//5
f 5//5 11//11 12//12
f 5//5 12//12 6//6
f 6//6 12//12 13//13
f 6//6 13//13 7//7
f 7//7 13//13 9//9
f 7//7 9//9 2//2
f 14//14 13//13 12//12
f 14//14 12//12 11//11
f 14//14 11//11 10//10
f 14//14 10//10 8//8
f 14//14 8//8 9//9
f 14//14 9//9 13//13
f 17//17 16//16 15//15
f 17//17 15//15 18//18
f 16//16 20//20 19//19
f 16//16 19//19 15//15
f 20//20 22//22 21//21
f 20//20 21//21 19//19
f 22//22 24//24 23//23
f 22//22 23//23 21//21
f 24//24 26//26 25//25
f 24//24 25//25 23//23
f 26//26 17//17 18//18
f 26//26 18//18 25//25
f 16//16 17//17 27//27
f 20//20 16//16 27//27
f 22//22 20//20 27//27
f 24//24 22//22 27//27
f 26//26 24//24 27//27
f 17//17 26//26 27//27
f 30//30 29//29 28//28
f 29//29 31//31 28//28
f 31//31 32//32 28//28
f 32//32 33//33 28//28
f 33//33 34//34 28//28
f 34//34 30//30 28//28
f 30//30 18//18 15//15
f 15//15 29//29 30//30
f 29//29 15//15 19//19
f 19//19 31//31 29//29
f 31//31 19//19 21//21
f 21//21 32//32 31//31
f 32//32 21//21 23//23
f 23//23 33//33 32//32
f 33//33 23//23 25//25
f 25//25 34//34 33//33
f 34//34 25//25 18//18
f 18//18 30//30 34//34
f 37//37 36//36 35//35
f 37//37 35//35 38//38
f 36//36 40//40 39//39
f 36//36 39//39 35//35
f 40//40 42//42 41//41
f 40//40 41//41 39//39
f 42//42 44//44 43//43
f 42//42 43//43 41//41
f 44//44 46//46 45//45
f 44//44 45//45 43//43
f 46//46 37//37 38//38
f 46//46 38//38 45//45
f 36//36 37//37 47//47
f 40//40 36//36 47//47
f 42//42 40//40 47//47
f 44//44 42//42 47//47
f 46//46 44//44 47//47
f 37//37 46//46 47//47
f 50//50 49//49 48//48
f 49//49 51//51 48//48
f 51//51 52//52 48//48
f 52//52 53//53 48//48
f 53//53 54//54 48//48
f 54//54 50//50 48//48
f 50//50 38//38 35//35
f 35//35 49//49 50//50
f 49//49 35//35 39//39
f 39//39 51//51 49//49
f 51//51 39//39 41//41
f 41//41 52//52 51//51
f 52//52 41//41 43//43
f 43//43 53//53 52//52
f 53//53 43//43 45//45
f 45//45 54//54 53//53
f 54//54 45//45 38//38
f 38//38 50//50 54//54
f 57//57 56//56 55//55
f 57//57 55//55 58//58
f 56//56 60//60 59//59
f 56//56 59//59 55//55
f 60//60 62//62 61//61
f 60//60 61//61 59//59
f 62//62 64//64 63//63
f 62//62 63//63 61//61
f 64//64 66//66 65//65
f 64//64 65//65 63//63
f 66//66 57//57 58//58
f 66//66 58//58 65//65
f 56//56 57//57 67//67
f 60//60 56//56 67//67
f 62//62 60//60 67//67
f 64//64 62//62 67//67
f 66//66 64//64 67//67
f 57//57 66//66 67//67
f 70//70 69//69 68//68
f 69//69 71//71 68//68
f 71//71 72//72 68//68
f 72//72 73//73 68//68
f 73//73 74//74 68//68
f 74//74 70//70 68//68
f 70//70 58//58 55//55
f 55//55 69//69 70//70
f 69//69 55//55 59//59
f 59//59 71//71 69//69
f 71//71 59//59 61//61
f 61//61 72//72 71//71
f 72//72 61//61 63//63
f 63//63 73//73 72//72
f 73//73 63//63 65//65
f 65//65 74//74 73//73
f 74//74 65//65 58//58
f 58//58 70//70 74//74
f 77//77 76//76 75//75
f 77//77 75//75 78//78
f 76//76 80//80 79//79
f 76//76 79//79 75//75
f 80//80 82//82 81//81
f 80//80 81//81 79//79
f 82//82 84//84 83//83
f 82//82 83//83 81//81
f 84//84 86//86 85//85
f 84//84 85//85 83//83
f 86//86 77//77 78//78
f 86//86 78//78 85//85
f 76//76 77//77 87//87
f 80//80 76//76 87//87
f 82//82 80//80 87//87
f 84//84 82//82 87//87
f 86//86 84//84 87//87
f 77//77 86//86 87//87
f 90//90 89//89 88//88
f 89//89 91//91 88//88
f 91//91 92//92 88//88
f 92//92 93//93 88//88
f 93//93 94//94 88//88
f 94//94 90//90 88//88
f 90//90 78//78 75//75
f 75//75 89//89 90//90
f 89//89 75//75 79//79
f 79//79 91//91 89//89
f 91//91 79//79 81//81
f 81//81 92//92 91//91
f 92//92 81//81 83//83
f 83//83 93//93 92//92
f 93//93 83//83 85//85
f 85//85 94//94 93//93
f 94//94 85//85 78//78
f 78//78 90//90 94//94
f 97//97 96//96 95//95
f 97//97 95//95 98//98
f 96//96 100//100 99//99
f 96//96 99//99 95//95
f 100//100 102//102 101//101
f 100//100 101//101 99//99
f 102//102 104//104 103//103
f 102//102 103//103 101//101
f 104//104 106//106 105//105
f 104//104 105//105 103//103
f 106//106 97//97 98//98
f 106//106 98//98 105//105
f 96//96 97//97 107//107
f 100//100 96//96 107//107
f 102//102 100//100 107//107
f 104//104 102//102 107//107
f 106//106 104//104 107//107
f 97//97 106//106 107//107
f 110//110 109//109 108//108
f 109//109 111//111 108//108
f 111//111 112//112 108//108
f 112//112 113//113 108//108
f 113//113 114//114 108//108
f 114//114 110//110 108//108
f 110//110 98//98 95//95
f 95//95 109//109 110//110
f 109//109 95//95 99//99
f 99//99 111//111 109//109
f 111//111 99//99 101//101
f 101//101 112//112 111//111
f 112//112 101//101 103//103
f 103//103 113//113 112//112
f 113//113 103//103 105//105
f 105//105 114//114 113//113
f 114//114 105//105 98//98
f 98//98 110//110 114//114

