# https://github.com/mikedh/trimesh
v -0.14482692 -0.06797034 0.00293039
v -0.14486166 0.31663703 0.00299776
v 0.14359413 0.31666335 0.00297144
v 0.14362886 -0.06794402 0.00290407
v -0.16405640 -0.08720086 -0.00668645
v -0.16409429 0.33586756 -0.00661277
v 0.16282150 0.33589703 -0.00664224
v 0.16286044 -0.08717139 -0.00671593
v -0.07731008 0.25162019 0.01259565
v -0.08506377 0.25161914 0.01259565
v -0.08210166 0.24332756 0.01259460
v -0.07709324 0.23998966 0.01259355
v -0.07585535 0.24768966 0.01259460
v -0.06912482 0.24537493 0.01259355
v -0.06853219 0.23869808 0.01259249
v -0.06368692 0.24634440 0.01259355
v -0.06104903 0.25038335 0.01259355
v -0.05964798 0.24063703 0.01259144
v -0.07472692 0.27170440 0.01259881
v -0.07725850 0.27811177 0.01259986
v -0.07693429 0.26809703 0.01259776
v -0.07020377 0.27272756 0.01259881
v -0.06961219 0.27940440 0.01259986
v -0.06368903 0.27046651 0.01259776
v -0.06228903 0.27811282 0.01259881
v -0.06228798 0.26691282 0.01259670
v -0.05765850 0.27493703 0.01259776
v -0.05453429 0.26691387 0.01259565
v -0.08178061 0.27504229 0.01259986
v -0.08447219 0.26750335 0.01259881
v -0.08344903 0.26233493 0.01259776
v -0.08070271 0.25915808 0.01259670
v -0.07553429 0.26508124 0.01259776
v -0.07284166 0.26405808 0.01259670
v -0.07219535 0.25614335 0.01259565
v -0.06804903 0.25517493 0.01259565
v -0.06341850 0.26174440 0.01259565
v -0.06304061 0.25350545 0.01259460
v -0.05641850 0.25862124 0.01259460
v -0.05523324 0.24446019 0.01259249
v -0.05329535 0.25135282 0.01259355
v -0.03159640 0.26034651 0.01259249
v -0.03908061 0.26034651 0.01259355
v -0.03908061 0.25366966 0.01259249
v -0.02981850 0.25367072 0.01259144
v -0.02631956 0.26271703 0.01259249
v -0.02351850 0.25507072 0.01259144
v -0.02556587 0.26637808 0.01259355
v -0.03907850 0.23972335 0.01258934
v -0.04715956 0.27838335 0.01259776
v -0.04715535 0.23972335 0.01259039
v -0.03908166 0.27170756 0.01259565
v -0.03267429 0.27170861 0.01259460
v -0.02949745 0.27838545 0.01259565
v -0.02729008 0.27041598 0.01259460
v -0.02072061 0.27499387 0.01259460
v -0.01980377 0.25851703 0.01259144
v -0.01748903 0.26600229 0.01259249
v 0.01551834 0.25658229 0.01258828
v -0.00332798 0.26341914 0.01259039
v -0.00332692 0.25658019 0.01258934
v 0.01551834 0.26342019 0.01258934
v -0.01124482 0.27838651 0.01259460
v -0.00332587 0.24656545 0.01258828
v -0.00332903 0.27154966 0.01259249
v 0.01718676 0.27155072 0.01259039
v 0.01718571 0.27838966 0.01259144
v -0.01124061 0.23972651 0.01258723
v 0.01810465 0.23972861 0.01258513
v 0.01810360 0.24656756 0.01258618
v 0.05143308 0.25658545 0.01258513
v 0.03258676 0.26342229 0.01258828
v 0.03258781 0.25658335 0.01258618
v 0.05143202 0.26342335 0.01258618
v 0.02466992 0.27838966 0.01259144
v 0.03258781 0.24656861 0.01258513
v 0.03258571 0.27155282 0.01258934
v 0.05310044 0.27155387 0.01258723
v 0.05310044 0.27839282 0.01258828
v 0.02467413 0.23972966 0.01258407
v 0.05401939 0.23973177 0.01258197
v 0.05401834 0.24657072 0.01258302
v 0.06850255 0.24640966 0.01258197
v 0.06058465 0.27839387 0.01258828
v 0.06058781 0.23973282 0.01258092
v 0.07636465 0.24641072 0.01258092
v 0.07733413 0.23973387 0.01257986
v 0.08045623 0.24754229 0.01258092
v 0.08320255 0.25050335 0.01258092
v 0.08519518 0.24172756 0.01257881
v 0.08513939 0.25938861 0.01258302
v 0.06850044 0.27171703 0.01258618
v 0.07625413 0.27171808 0.01258513
v 0.07765413 0.27839493 0.01258618
v 0.08196255 0.26983387 0.01258407
v 0.08422360 0.26611914 0.01258407
v 0.08556886 0.27651072 0.01258513
v 0.09009518 0.24673493 0.01257986
v 0.09036150 0.27193493 0.01258407
v 0.09337834 0.25998124 0.01258197
v -0.05576166 0.22069177 0.01258828
v -0.06383850 0.22069072 0.01258828
v -0.05575850 0.18903072 0.01258197
v -0.06383429 0.18203072 0.01258197
v -0.03653535 0.18203282 0.01257986
v -0.03653640 0.18903282 0.01258092
v -0.02350482 0.18203387 0.01257776
v -0.03158482 0.22069387 0.01258618
v -0.03158166 0.18203282 0.01257881
v -0.02350798 0.22069493 0.01258513
v 0.02113308 0.18203808 0.01257460
v 0.01359202 0.21434440 0.01258092
v 0.01359413 0.18203703 0.01257460
v -0.00880482 0.18203493 0.01257670
v -0.01634692 0.22069493 0.01258407
v -0.01634377 0.18203493 0.01257776
v -0.00880798 0.21434229 0.01258302
v -0.00870061 0.21434229 0.01258302
v -0.00455429 0.22069598 0.01258302
v -0.00164377 0.18203598 0.01257670
v 0.00244781 0.19022124 0.01257776
v 0.00255518 0.19022124 0.01257776
v 0.00627202 0.18203703 0.01257565
v 0.00944465 0.22069808 0.01258197
v 0.01348360 0.21434440 0.01258092
v 0.02112886 0.22069914 0.01258092
v 0.03631729 0.18203914 0.01257355
v 0.02823729 0.22069914 0.01258092
v 0.02824044 0.18203914 0.01257355
v 0.03631308 0.22070019 0.01257986
v 0.06027834 0.18204124 0.01257039
v 0.05219834 0.21386335 0.01257776
v 0.05220150 0.18204124 0.01257144
v 0.04051308 0.22070019 0.01257986
v 0.04051413 0.21386229 0.01257881
v 0.06027518 0.21386440 0.01257670
v 0.07195939 0.21386545 0.01257565
v 0.07195939 0.22070335 0.01257670
v -0.09675429 -0.02581455 0.01254828
v -0.11937324 0.02079808 0.01255881
v -0.11267850 -0.00943139 0.01255249
v -0.08798903 0.02056966 0.01255565
v -0.08775850 0.02080124 0.01255565
v -0.07137745 0.06534019 0.01256197
v -0.07645429 0.06533914 0.01256302
v -0.07645219 0.04226335 0.01255881
v -0.05407114 0.06834124 0.01256197
v -0.05268377 0.03880335 0.01255565
v -0.04391850 0.08749598 0.01256407
v -0.03975850 0.01895914 0.01255144
v -0.08661008 0.08172229 0.01256723
v -0.10345850 0.11933598 0.01257460
v -0.11660903 0.08172019 0.01256934
v -0.08661429 0.13041387 0.01257565
v -0.08384166 0.09718440 0.01256934
v -0.06445850 0.10849387 0.01256934
v -0.06238377 0.13433914 0.01257460
v -0.04761219 0.10018756 0.01256618
v -0.03122377 0.05703598 0.01255776
v -0.03122377 0.05749703 0.01255776
v -0.02892271 0.12441914 0.01256934
v -0.01807114 0.06834440 0.01255881
v -0.01669114 0.11034335 0.01256618
v -0.01161219 0.08865282 0.01256092
v -0.08429535 0.00280124 0.01255249
v -0.06398692 -0.00804297 0.01254828
v -0.06236903 -0.03388823 0.01254407
v -0.04714166 -0.00157981 0.01254828
v -0.02221745 -0.01911560 0.01254302
v -0.01691640 0.04780651 0.01255460
v -0.00652903 0.01896229 0.01254828
v 0.01331097 0.08750124 0.01255881
v 0.01008360 0.05034756 0.01255249
v 0.01331729 0.01273282 0.01254618
v 0.02393518 -0.01334192 0.01253986
v 0.02392360 0.11380861 0.01256302
v 0.04170465 -0.02880192 0.01253565
v 0.04169097 0.12927177 0.01256407
v 0.04331308 0.05035072 0.01254934
v 0.04423834 0.02335072 0.01254513
v 0.04816360 0.00512124 0.01254092
v 0.06685939 -0.03387665 0.01253249
v 0.06685623 -0.00803034 0.01253776
v 0.08554781 0.00512440 0.01253776
v 0.09178150 -0.02879771 0.01253144
v 0.09038886 0.05035493 0.01254618
v 0.08923834 0.02335493 0.01254092
v 0.04423413 0.07711914 0.01255460
v 0.04815518 0.09511914 0.01255776
v 0.06684571 0.10850545 0.01255776
v 0.06684360 0.13435072 0.01256302
v 0.08553939 0.09512229 0.01255460
v 0.09176676 0.12927598 0.01255986
v 0.08923308 0.07712335 0.01255039
v 0.10954886 -0.01333455 0.01253249
v 0.10953729 0.11381703 0.01255565
v 0.12016150 0.01274229 0.01253670
v 0.12015413 0.08751072 0.01254934
v 0.12361939 0.05035808 0.01254302
v -0.02458377 -0.66409981 0.00281355
v -0.01999114 -0.66410297 0.01694197
v -0.02463535 -0.08718928 0.00291670
v -0.02004271 -0.08719139 0.01704618
v -0.00059745 -0.08718718 0.00291460
v -0.00054482 -0.66409876 0.00281144
v -0.00797114 -0.66410297 0.02567355
v -0.00802377 -0.08719244 0.02577670
v 0.00688465 -0.66410192 0.02567249
v 0.00683308 -0.08719034 0.02577565
v 0.01890360 -0.66409876 0.01693881
v 0.01885097 -0.08718823 0.01704197
v 0.02349308 -0.66409560 0.00280934
v 0.02344044 -0.08718507 0.00291249
v 0.01890044 -0.66409349 -0.01131908
v 0.01884886 -0.08718297 -0.01121593
v 0.00688044 -0.66409349 -0.02005066
v 0.00682886 -0.08718297 -0.01994751
v -0.00797535 -0.66409455 -0.02004961
v -0.00802692 -0.08718402 -0.01994645
v -0.01999324 -0.66409771 -0.01131593
v -0.02004587 -0.08718613 -0.01121277
vn -0.00008976 0.00017507 -0.99999998
vn -0.00008976 0.00017507 -0.99999998
vn -0.00008976 0.00017507 -0.99999998
vn -0.00009040 0.00017571 -0.99999998
vn -0.00009040 0.00017571 -0.99999998
vn -0.00009040 0.00017571 -0.99999998
vn -0.00009040 0.00017571 -0.99999998
vn -0.00009040 0.00017571 -0.99999998
vn 0.00009350 -0.00018077 0.99999998
vn 0.00009529 -0.00018162 0.99999998
vn 0.00009233 -0.00018027 0.99999998
vn 0.00008545 -0.00017940 0.99999998
vn 0.00008940 -0.00017831 0.99999998
vn 0.00008577 -0.00018031 0.99999998
vn 0.00008534 -0.00018113 0.99999998
vn -0.00024183 0.00002931 0.99999997
vn 0.00009119 -0.00017911 0.99999998
vn 0.00008703 -0.00018087 0.99999998
vn 0.00009211 -0.00017712 0.99999998
vn 0.00009068 -0.00017879 0.99999998
vn 0.00008314 -0.00017550 0.99999998
vn 0.00008464 -0.00018036 0.99999998
vn 0.00008430 -0.00018074 0.99999998
vn 0.00007645 -0.00017938 0.99999998
vn 0.00008214 -0.00017974 0.99999998
vn 0.00008735 -0.00018241 0.99999998
vn 0.00008650 -0.00018126 0.99999998
vn 0.00009503 -0.00018590 0.99999998
vn 0.00009442 -0.00017848 0.99999998
vn 0.00005340 -0.00017286 0.99999998
vn 0.00009412 -0.00017796 0.99999998
vn 0.00008879 -0.00017872 0.99999998
vn 0.00008174 -0.00017805 0.99999998
vn 0.00008701 -0.00017954 0.99999998
vn 0.00008513 -0.00017918 0.99999998
vn 0.00008844 -0.00017657 0.99999998
vn 0.00008945 -0.00017585 0.99999998
vn 0.00009417 -0.00017448 0.99999998
vn 0.00008805 -0.00017777 0.99999998
vn 0.00008442 -0.00017861 0.99999998
vn 0.00009059 -0.00017833 0.99999998
vn 0.00008530 -0.00018042 0.99999998
vn 0.00009762 -0.00017444 0.99999998
vn 0.00008700 -0.00017910 0.99999998
vn 0.00008929 -0.00018337 0.99999998
vn 0.00011646 -0.00017616 0.99999998
vn 0.00009072 -0.00018336 0.99999998
vn 0.00009178 -0.00017902 0.99999998
vn 0.00009041 -0.00018018 0.99999998
vn 0.00008976 -0.00017953 0.99999998
vn 0.00009103 -0.00017951 0.99999998
vn 0.00009040 -0.00017444 0.99999998
vn 0.00008468 -0.00017913 0.99999998
vn 0.00008692 -0.00018105 0.99999998
vn 0.00019911 -0.00014289 0.99999997
vn 0.00008448 -0.00018165 0.99999998
vn 0.00008287 -0.00018063 0.99999998
vn 0.00008371 -0.00018064 0.99999998
vn 0.00008785 -0.00017251 0.99999998
vn 0.00007979 -0.00018314 0.99999998
vn 0.00008870 -0.00018122 0.99999998
vn 0.00008913 -0.00016935 0.99999998
vn 0.00008594 -0.00017762 0.99999998
vn 0.00008785 -0.00017762 0.99999998
vn 0.00008509 -0.00017867 0.99999998
vn 0.00008850 -0.00017063 0.99999998
vn 0.00008912 -0.00016934 0.99999998
vn 0.00008785 -0.00017825 0.99999998
vn 0.00008786 -0.00017062 0.99999998
vn 0.00008849 -0.00016933 0.99999998
vn 0.00008786 -0.00017253 0.99999998
vn 0.00007979 -0.00018314 0.99999998
vn 0.00008870 -0.00018123 0.99999998
vn 0.00008912 -0.00016933 0.99999998
vn 0.00008531 -0.00018016 0.99999998
vn 0.00008743 -0.00017867 0.99999998
vn 0.00008509 -0.00017867 0.99999998
vn 0.00008530 -0.00018334 0.99999998
vn 0.00008531 -0.00018463 0.99999998
vn 0.00008785 -0.00017825 0.99999998
vn 0.00008404 -0.00018336 0.99999998
vn 0.00008339 -0.00018461 0.99999998
vn 0.00008764 -0.00016743 0.99999998
vn 0.00008785 -0.00017953 0.99999998
vn 0.00009104 -0.00017316 0.99999998
vn 0.00009293 -0.00017354 0.99999998
vn 0.00008744 -0.00017420 0.99999998
vn 0.00006496 -0.00016077 0.99999998
vn 0.00006313 -0.00017607 0.99999998
vn 0.00008559 -0.00017427 0.99999998
vn 0.00021853 -0.00017786 0.99999996
vn 0.00008488 -0.00018314 0.99999998
vn 0.00008727 -0.00017743 0.99999998
vn 0.00008838 -0.00017539 0.99999998
vn 0.00005875 -0.00019185 0.99999998
vn 0.00009485 -0.00017478 0.99999998
vn 0.00008725 -0.00017566 0.99999998
vn 0.00009234 -0.00017701 0.99999998
vn 0.00007131 -0.00018021 0.99999998
vn 0.00008712 -0.00018066 0.99999998
vn 0.00009104 -0.00017953 0.99999998
vn 0.00009104 -0.00017952 0.99999998
vn 0.00008785 -0.00017571 0.99999998
vn 0.00008785 -0.00017698 0.99999998
vn 0.00008722 -0.00016680 0.99999998
vn 0.00008785 -0.00016552 0.99999998
vn 0.00007830 -0.00017952 0.99999998
vn 0.00007830 -0.00017952 0.99999998
vn 0.00007831 -0.00017953 0.99999998
vn 0.00007831 -0.00017953 0.99999998
vn 0.00008531 -0.00017889 0.99999998
vn 0.00007215 -0.00018738 0.99999998
vn 0.00008404 -0.00017890 0.99999998
vn 0.00008404 -0.00017954 0.99999998
vn 0.00009104 -0.00017953 0.99999998
vn 0.00008403 -0.00017952 0.99999998
vn 0.00054960 0.00037051 0.99999978
vn 0.00021768 -0.00001957 0.99999998
vn 0.00008405 -0.00018591 0.99999998
vn 0.00009240 -0.00017696 0.99999998
vn 0.00005372 -0.00015535 0.99999999
vn 0.00006748 -0.00016592 0.99999998
vn 0.00009103 -0.00017704 0.99999998
vn 0.00008700 -0.00017566 0.99999998
vn 0.00004407 -0.00020388 0.99999998
vn 0.00009167 -0.00017507 0.99999998
vn 0.00009104 -0.00017954 0.99999998
vn 0.00009103 -0.00017952 0.99999998
vn 0.00009103 -0.00017952 0.99999998
vn 0.00009104 -0.00017953 0.99999998
vn 0.00009104 -0.00017890 0.99999998
vn 0.00009104 -0.00017125 0.99999998
vn 0.00009103 -0.00017888 0.99999998
vn 0.00008913 -0.00017126 0.99999998
vn 0.00009040 -0.00016933 0.99999998
vn 0.00008531 -0.00018865 0.99999998
vn 0.00008594 -0.00017315 0.99999998
vn 0.00008722 -0.00016935 0.99999998
vn 0.00008746 -0.00017881 0.99999998
vn 0.00008574 -0.00017887 0.99999998
vn 0.00008654 -0.00017926 0.99999998
vn 0.00008716 -0.00012663 0.99999999
vn 0.00008639 -0.00008639 0.99999999
vn 0.00008451 -0.00017838 0.99999998
vn 0.00008275 -0.00017760 0.99999998
vn 0.00008744 -0.00018013 0.99999998
vn 0.00009079 -0.00018059 0.99999998
vn 0.00008570 -0.00017993 0.99999998
vn 0.00013547 -0.00016129 0.99999998
vn 0.00009080 -0.00017889 0.99999998
vn 0.00008753 -0.00017906 0.99999998
vn 0.00008719 -0.00017920 0.99999998
vn 0.00008749 -0.00017903 0.99999998
vn 0.00008528 -0.00017901 0.99999998
vn 0.00008784 -0.00017968 0.99999998
vn 0.00008842 -0.00017879 0.99999998
vn 0.00008764 -0.00017900 0.99999998
vn 0.00008889 -0.00017904 0.99999998
vn 0.00007996 -0.00018287 0.99999998
vn -0.00000298 -0.00021304 0.99999998
vn 0.00008701 -0.00017985 0.99999998
vn 0.00008449 -0.00017871 0.99999998
vn 0.00008734 -0.00017845 0.99999998
vn 0.00008795 -0.00017821 0.99999998
vn 0.00009236 -0.00017999 0.99999998
vn 0.00008678 -0.00017782 0.99999998
vn 0.00008755 -0.00017824 0.99999998
vn 0.00008848 -0.00017946 0.99999998
vn 0.00008902 -0.00017933 0.99999998
vn 0.00008356 -0.00017956 0.99999998
vn 0.00008815 -0.00018003 0.99999998
vn 0.00008647 -0.00017892 0.99999998
vn 0.00010137 -0.00017884 0.99999998
vn 0.00008695 -0.00017883 0.99999998
vn 0.00008715 -0.00017879 0.99999998
vn 0.00008501 -0.00017900 0.99999998
vn 0.00008915 -0.00017869 0.99999998
vn 0.00008725 -0.00017831 0.99999998
vn 0.00011027 -0.00017911 0.99999998
vn 0.00011418 -0.00017925 0.99999998
vn 0.00008695 -0.00017802 0.99999998
vn 0.00008791 -0.00017910 0.99999998
vn 0.00008723 -0.00017926 0.99999998
vn 0.00008745 -0.00017926 0.99999998
vn 0.00008643 -0.00017933 0.99999998
vn 0.00009915 -0.00017910 0.99999998
vn 0.00009003 -0.00017916 0.99999998
vn 0.00008189 -0.00017973 0.99999998
vn 0.00009313 -0.00017955 0.99999998
vn 0.00009055 -0.00017699 0.99999998
vn 0.00008937 -0.00017655 0.99999998
vn 0.00008023 -0.00017718 0.99999998
vn 0.00008643 -0.00017894 0.99999998
vn 0.00011906 -0.00017935 0.99999998
vn 0.00008603 -0.00017917 0.99999998
vn 0.00008651 -0.00017900 0.99999998
vn 0.00009098 -0.00017880 0.99999998
vn 0.00007892 -0.00018029 0.99999998
vn 0.00007271 -0.00018026 0.99999998
vn -0.76521326 -0.64377688 -0.00005635
vn -0.61900295 -0.64385321 0.44976482
vn -0.76532444 0.64364467 0.00020285
vn -0.61911532 0.64359211 0.44998379
vn -0.00008563 0.99999998 0.00017650
vn 0.00008945 -0.99999998 -0.00017857
vn -0.23635311 -0.64387019 0.72771449
vn -0.23649263 0.64354432 0.72795738
vn 0.23659214 -0.64382653 0.72767545
vn 0.23648447 0.64362109 0.72789216
vn 0.61920748 -0.64373845 0.44964754
vn 0.61910717 0.64368315 0.44986477
vn 0.76532492 -0.64364410 -0.00019824
vn 0.76520187 0.64379041 0.00006019
vn 0.61911987 -0.64358183 -0.44999224
vn 0.61901467 0.64385218 -0.44975017
vn 0.23646796 -0.64356720 -0.72794516
vn 0.23635294 0.64385526 -0.72772776
vn -0.23649406 -0.64360580 -0.72790256
vn -0.23657981 0.64382298 -0.72768260
vn -0.61907876 -0.64369767 -0.44988309
vn -0.61919639 0.64374803 -0.44964909
f 1//1 2//2 3//3
f 1//1 3//3 4//4
f 5//5 6//6 7//7
f 5//5 7//7 8//8
f 9//9 10//10 11//11
f 12//12 9//9 11//11
f 13//13 9//9 12//12
f 14//14 13//13 12//12
f 15//15 14//14 12//12
f 16//16 14//14 15//15
f 17//17 16//16 15//15
f 18//18 17//17 15//15
f 19//19 20//20 21//21
f 22//22 20//20 19//19
f 23//23 20//20 22//22
f 24//24 23//23 22//22
f 25//25 23//23 24//24
f 25//25 24//24 26//26
f 27//27 25//25 26//26
f 28//28 27//27 26//26
f 29//29 30//30 31//31
f 32//32 29//29 31//31
f 20//20 29//29 32//32
f 21//21 20//20 32//32
f 33//33 21//21 32//32
f 34//34 33//33 32//32
f 35//35 34//34 32//32
f 36//36 34//34 35//35
f 37//37 34//34 36//36
f 38//38 37//37 36//36
f 17//17 37//37 38//38
f 39//39 37//37 17//17
f 39//39 17//17 18//18
f 40//40 39//39 18//18
f 41//41 39//39 40//40
f 42//42 43//43 44//44
f 45//45 42//42 44//44
f 46//46 42//42 45//45
f 47//47 48//48 46//46
f 47//47 46//46 45//45
f 49//49 50//50 51//51
f 44//44 50//50 49//49
f 43//43 50//50 44//44
f 52//52 50//50 43//43
f 53//53 50//50 52//52
f 54//54 50//50 53//53
f 55//55 54//54 53//53
f 48//48 54//54 55//55
f 56//56 54//54 48//48
f 56//56 48//48 47//47
f 57//57 56//56 47//47
f 58//58 56//56 57//57
f 59//59 60//60 61//61
f 62//62 60//60 59//59
f 61//61 63//63 64//64
f 60//60 63//63 61//61
f 65//65 63//63 60//60
f 66//66 63//63 65//65
f 67//67 63//63 66//66
f 64//64 63//63 68//68
f 69//69 64//64 68//68
f 70//70 64//64 69//69
f 71//71 72//72 73//73
f 74//74 72//72 71//71
f 73//73 75//75 76//76
f 72//72 75//75 73//73
f 77//77 75//75 72//72
f 78//78 75//75 77//77
f 79//79 75//75 78//78
f 76//76 75//75 80//80
f 81//81 76//76 80//80
f 82//82 76//76 81//81
f 83//83 84//84 85//85
f 86//86 83//83 85//85
f 87//87 86//86 85//85
f 88//88 86//86 87//87
f 89//89 88//88 87//87
f 90//90 91//91 89//89
f 90//90 89//89 87//87
f 92//92 84//84 83//83
f 93//93 84//84 92//92
f 94//94 84//84 93//93
f 95//95 94//94 93//93
f 96//96 94//94 95//95
f 97//97 94//94 96//96
f 97//97 96//96 91//91
f 97//97 91//91 90//90
f 98//98 97//97 90//90
f 99//99 97//97 98//98
f 100//100 99//99 98//98
f 101//101 102//102 103//103
f 103//103 102//102 104//104
f 105//105 103//103 104//104
f 106//106 103//103 105//105
f 107//107 108//108 109//109
f 110//110 108//108 107//107
f 111//111 112//112 113//113
f 114//114 115//115 116//116
f 117//117 115//115 114//114
f 118//118 115//115 117//117
f 119//119 115//115 118//118
f 120//120 119//119 118//118
f 121//121 119//119 120//120
f 122//122 121//121 120//120
f 123//123 122//122 120//120
f 124//124 122//122 123//123
f 125//125 124//124 123//123
f 112//112 124//124 125//125
f 126//126 124//124 112//112
f 126//126 112//112 111//111
f 127//127 128//128 129//129
f 130//130 128//128 127//127
f 131//131 132//132 133//133
f 132//132 134//134 135//135
f 136//136 134//134 132//132
f 136//136 132//132 131//131
f 137//137 134//134 136//136
f 138//138 134//134 137//137
f 139//139 140//140 141//141
f 142//142 140//140 139//139
f 143//143 140//140 142//142
f 144//144 145//145 146//146
f 147//147 144//144 146//146
f 148//148 147//147 146//146
f 149//149 147//147 148//148
f 150//150 149//149 148//148
f 151//151 152//152 153//153
f 154//154 152//152 151//151
f 155//155 154//154 151//151
f 156//156 154//154 155//155
f 157//157 154//154 156//156
f 158//158 157//157 156//156
f 159//159 158//158 149//149
f 159//159 149//149 150//150
f 160//160 158//158 159//159
f 161//161 157//157 158//158
f 161//161 158//158 160//160
f 162//162 161//161 160//160
f 163//163 161//161 162//162
f 164//164 163//163 162//162
f 165//165 142//142 139//139
f 166//166 165//165 139//139
f 167//167 166//166 139//139
f 168//168 166//166 167//167
f 169//169 159//159 150//150
f 169//169 150//150 168//168
f 169//169 168//168 167//167
f 170//170 159//159 169//169
f 171//171 170//170 169//169
f 172//172 173//173 174//174
f 175//175 172//172 174//174
f 176//176 172//172 175//175
f 177//177 176//176 175//175
f 178//178 176//176 177//177
f 179//179 178//178 177//177
f 180//180 179//179 177//177
f 181//181 180//180 177//177
f 182//182 181//181 177//177
f 183//183 181//181 182//182
f 184//184 183//183 182//182
f 185//185 186//186 187//187
f 185//185 187//187 184//184
f 185//185 184//184 182//182
f 188//188 178//178 179//179
f 189//189 178//178 188//188
f 190//190 178//178 189//189
f 191//191 178//178 190//190
f 192//192 191//191 190//190
f 193//193 191//191 192//192
f 193//193 192//192 194//194
f 193//193 194//194 186//186
f 193//193 186//186 185//185
f 195//195 193//193 185//185
f 196//196 193//193 195//195
f 197//197 196//196 195//195
f 198//198 196//196 197//197
f 199//199 198//198 197//197
f 200//200 201//201 202//202
f 201//201 203//203 202//202
f 204//204 202//202 203//203
f 205//205 201//201 200//200
f 201//201 206//206 203//203
f 206//206 207//207 203//203
f 204//204 203//203 207//207
f 205//205 206//206 201//201
f 206//206 208//208 207//207
f 208//208 209//209 207//207
f 204//204 207//207 209//209
f 205//205 208//208 206//206
f 208//208 210//210 209//209
f 210//210 211//211 209//209
f 204//204 209//209 211//211
f 205//205 210//210 208//208
f 210//210 212//212 211//211
f 212//212 213//213 211//211
f 204//204 211//211 213//213
f 205//205 212//212 210//210
f 212//212 214//214 213//213
f 214//214 215//215 213//213
f 204//204 213//213 215//215
f 205//205 214//214 212//212
f 214//214 216//216 215//215
f 216//216 217//217 215//215
f 204//204 215//215 217//217
f 205//205 216//216 214//214
f 216//216 218//218 217//217
f 218//218 219//219 217//217
f 204//204 217//217 219//219
f 205//205 218//218 216//216
f 218//218 220//220 219//219
f 220//220 221//221 219//219
f 204//204 219//219 221//221
f 205//205 220//220 218//218
f 220//220 200//200 221//221
f 200//200 202//202 221//221
f 204//204 221//221 202//202
f 205//205 200//200 220//220

