# https://github.com/mikedh/trimesh
v -0.37897881 -0.47460489 0.16436529
v 0.37993382 -0.47460489 0.16436529
v 0.37993382 -0.49548383 0.16436529
v -0.37897881 -0.49548383 0.16436529
v -0.37954408 -0.48805962 -0.08476629
v -0.37954408 -0.48805962 -0.06561787
v -0.37954408 0.48061090 -0.06561787
v -0.37954408 0.48061090 -0.08476629
v 0.37755592 -0.48805962 -0.08476629
v 0.37755592 -0.48805962 -0.06561787
v 0.37755592 0.48061090 -0.06561787
v 0.37755592 0.48061090 -0.08476629
v -0.39985250 0.48363722 0.16436213
v -0.39985250 -0.49548383 0.16436213
v -0.37897355 -0.49548383 0.16436213
v -0.37897355 0.48363722 0.16436213
v 0.37993803 0.48363722 0.16436213
v 0.37993803 -0.49548383 0.16436213
v 0.40081803 -0.49548383 0.16436213
v 0.40081803 0.48363722 0.16436213
v -0.37897566 0.48363722 -0.08618418
v -0.37897566 -0.49548383 -0.08618418
v -0.39985460 0.48363722 -0.08618418
v -0.39985460 -0.49548383 -0.08618418
v 0.37993803 0.48363722 -0.08618629
v 0.37993803 -0.49548383 -0.08618629
v 0.40081803 -0.49548383 -0.08618629
v 0.40081803 0.48363722 -0.08618629
v -0.37897355 -0.47460489 0.16436213
v 0.37993803 -0.47460489 0.16436213
v 0.37993803 -0.47460489 -0.08618629
v -0.37897566 -0.47460489 -0.08618418
v 0.40081803 0.50451617 -0.08618629
v -0.39985460 0.50451617 -0.08618418
v 0.40081803 0.50451617 0.16436213
v -0.39985250 0.50451617 0.16436213
v 0.37993803 0.25119196 -0.08618629
v -0.37897566 0.25119196 -0.08618418
v -0.37897566 0.23031301 -0.08618418
v 0.37993803 0.23031301 -0.08618629
v -0.37897355 0.23031301 0.16436213
v 0.37993803 0.23031301 0.16436213
v -0.37897355 0.25119196 0.16436213
v 0.37993803 0.25119196 0.16436213
v 0.37993803 0.00728143 -0.08618629
v -0.37897566 0.00728143 -0.08618418
v -0.37897566 -0.01359752 -0.08618418
v 0.37993803 -0.01359752 -0.08618629
v -0.37897355 -0.01359752 0.16436213
v 0.37993803 -0.01359752 0.16436213
v -0.37897355 0.00728143 0.16436213
v 0.37993803 0.00728143 0.16436213
v 0.37993803 -0.21393962 -0.08618629
v -0.37897566 -0.21393962 -0.08618418
v -0.37897566 -0.23481857 -0.08618418
v 0.37993803 -0.23481857 -0.08618629
v -0.37897355 -0.23481857 0.16436213
v 0.37993803 -0.23481857 0.16436213
v -0.37897355 -0.21393962 0.16436213
v 0.37993803 -0.21393962 0.16436213
vn 0.00000000 0.00000000 1.00000000
vn 0.00000000 0.00000000 1.00000000
vn 0.00000000 0.00000000 1.00000000
vn 0.00000000 0.00000000 1.00000000
vn -0.57735027 -0.57735027 -0.57735027
vn -0.57735027 -0.57735027 0.57735027
vn -0.57735027 0.57735027 0.57735027
vn -0.57735027 0.57735027 -0.57735027
vn 0.57735027 -0.57735027 -0.57735027
vn 0.57735027 -0.57735027 0.57735027
vn 0.57735027 0.57735027 0.57735027
vn 0.57735027 0.57735027 -0.57735027
vn 0.00000000 0.89442799 0.44721200
vn -0.57734806 -0.57735064 0.57735211
vn 0.00000000 -0.89442725 0.44721348
vn 0.57735223 0.57735002 0.57734855
vn 0.57735027 -0.57735027 -0.57735027
vn 0.89442725 0.00000000 -0.44721348
vn -0.57735027 0.57735027 -0.57735027
vn -0.89442725 0.00000000 -0.44721348
vn 0.57734806 0.57735064 -0.57735211
vn -0.00000068 -0.70710701 -0.70710656
vn 0.00000095 1.00000000 0.00000000
vn -0.57735223 -0.57735002 -0.57734855
vn 0.57735027 -0.57735027 0.57735027
vn 1.00000000 0.00000064 0.00000000
vn -0.57735027 0.57735027 0.57735027
vn -0.70710633 -0.00000045 0.70710723
vn -0.70710521 0.70710836 0.00000495
vn 0.70710678 0.70710678 0.00000000
vn 0.57734978 0.57735015 -0.57735088
vn -0.57735296 0.57735002 -0.57734782
vn -0.57734978 -0.57735015 0.57735088
vn 0.57735296 -0.57735002 0.57734782
vn -0.70710678 -0.70710678 0.00000000
vn 0.70710521 -0.70710836 -0.00000495
vn 0.57734978 0.57735015 -0.57735088
vn -0.57735296 0.57735002 -0.57734782
vn -0.57735296 -0.57735002 -0.57734782
vn 0.57734978 -0.57735015 -0.57735088
vn -0.70710521 -0.70710836 0.00000495
vn 0.70710678 -0.70710678 0.00000000
vn -0.70710521 0.70710836 0.00000495
vn 0.70710678 0.70710678 0.00000000
vn 0.57734978 0.57735015 -0.57735088
vn -0.57735296 0.57735002 -0.57734782
vn -0.57735296 -0.57735002 -0.57734782
vn 0.57734978 -0.57735015 -0.57735088
vn -0.70710521 -0.70710836 0.00000495
vn 0.70710678 -0.70710678 0.00000000
vn -0.70710521 0.70710836 0.00000495
vn 0.70710678 0.70710678 0.00000000
vn 0.57734978 0.57735015 -0.57735088
vn -0.57735296 0.57735002 -0.57734782
vn -0.57735296 -0.57735002 -0.57734782
vn 0.57734978 -0.57735015 -0.57735088
vn -0.70710521 -0.70710836 0.00000495
vn 0.70710678 -0.70710678 0.00000000
vn -0.70710521 0.70710836 0.00000495
vn 0.70710678 0.70710678 0.00000000
f 3//3 2//2 1//1
f 1//1 4//4 3//3
f 5//5 6//6 7//7
f 5//5 7//7 8//8
f 5//5 9//9 10//10
f 5//5 10//10 6//6
f 6//6 10//10 11//11
f 6//6 11//11 7//7
f 7//7 11//11 12//12
f 7//7 12//12 8//8
f 8//8 12//12 9//9
f 8//8 9//9 5//5
f 9//9 12//12 11//11
f 9//9 11//11 10//10
f 13//13 14//14 15//15
f 15//15 16//16 13//13
f 19//19 18//18 17//17
f 17//17 20//20 19//19
f 21//21 16//16 15//15
f 15//15 22//22 21//21
f 14//14 13//13 23//23
f 23//23 24//24 14//14
f 22//22 15//15 14//14
f 14//14 24//24 22//22
f 13//13 16//16 21//21
f 21//21 23//23 13//13
f 22//22 24//24 23//23
f 23//23 21//21 22//22
f 25//25 26//26 27//27
f 27//27 28//28 25//25
f 28//28 20//20 17//17
f 17//17 25//25 28//28
f 18//18 19//19 27//27
f 27//27 26//26 18//18
f 25//25 17//17 18//18
f 18//18 26//26 25//25
f 19//19 20//20 28//28
f 28//28 27//27 19//19
f 26//26 18//18 15//15
f 15//15 22//22 26//26
f 29//29 30//30 31//31
f 31//31 32//32 29//29
f 22//22 15//15 29//29
f 29//29 32//32 22//22
f 30//30 18//18 26//26
f 26//26 31//31 30//30
f 22//22 32//32 31//31
f 31//31 26//26 22//22
f 33//33 34//34 23//23
f 23//23 28//28 33//33
f 28//28 20//20 35//35
f 35//35 33//33 28//28
f 36//36 13//13 23//23
f 23//23 34//34 36//36
f 33//33 35//35 36//36
f 36//36 34//34 33//33
f 13//13 20//20 28//28
f 28//28 23//23 13//13
f 39//39 38//38 37//37
f 37//37 40//40 39//39
f 40//40 42//42 41//41
f 41//41 39//39 40//40
f 39//39 41//41 43//43
f 43//43 38//38 39//39
f 44//44 42//42 40//40
f 40//40 37//37 44//44
f 43//43 44//44 37//37
f 37//37 38//38 43//43
f 47//47 46//46 45//45
f 45//45 48//48 47//47
f 48//48 50//50 49//49
f 49//49 47//47 48//48
f 47//47 49//49 51//51
f 51//51 46//46 47//47
f 52//52 50//50 48//48
f 48//48 45//45 52//52
f 51//51 52//52 45//45
f 45//45 46//46 51//51
f 55//55 54//54 53//53
f 53//53 56//56 55//55
f 56//56 58//58 57//57
f 57//57 55//55 56//56
f 55//55 57//57 59//59
f 59//59 54//54 55//55
f 60//60 58//58 56//56
f 56//56 53//53 60//60
f 59//59 60//60 53//53
f 53//53 54//54 59//59

