# https://github.com/mikedh/trimesh
v -0.48389952 -0.32302242 -0.13789554
v 0.48364469 -0.32302242 -0.13789554
v 0.48364469 0.32200811 -0.13789554
v -0.48389952 0.32200811 -0.13789554
v -0.48389952 -0.32302242 -0.10564396
v 0.48364469 -0.32302242 -0.10564396
v 0.48364469 0.32200811 -0.10564396
v -0.48389952 0.32200811 -0.10564396
v 0.46755206 -0.32302242 0.18462236
v 0.46748680 -0.32302242 -0.13789238
v 0.46748680 0.32200811 -0.13789238
v 0.46755206 0.32200811 0.18462236
v 0.49980364 -0.32302242 0.18461604
v 0.49973732 -0.32302242 -0.13789869
v 0.49973732 0.32200811 -0.13789869
v 0.49980364 0.32200811 0.18461604
v -0.49999320 -0.32302242 0.18482025
v -0.50005847 -0.32302242 -0.13769448
v -0.50005847 0.32200811 -0.13769448
v -0.49999320 0.32200811 0.18482025
v -0.46774162 -0.32302242 0.18481288
v -0.46780689 -0.32302242 -0.13770185
v -0.46780689 0.32200811 -0.13770185
v -0.46774162 0.32200811 0.18481288
v 0.49980680 -0.33904557 0.18461604
v 0.49974153 -0.33904557 -0.13789869
v -0.50005531 -0.33924979 -0.13769448
v -0.49998899 -0.33924979 0.18482025
v 0.49980048 -0.30679505 0.18461604
v 0.49973416 -0.30679505 -0.13789869
v -0.50006162 -0.30699821 -0.13769448
v -0.49999636 -0.30699821 0.18482025
v 0.49977416 -0.17778873 0.18461604
v 0.49970785 -0.17778873 -0.13789869
v -0.50008794 -0.17799189 -0.13769448
v -0.50002268 -0.17799189 0.18482025
v 0.49976785 -0.14553715 0.18461604
v 0.49970153 -0.14553715 -0.13789869
v -0.50009426 -0.14574031 -0.13769448
v -0.50002899 -0.14574031 0.18482025
v 0.49974153 -0.01653084 0.18461604
v 0.49967522 -0.01653084 -0.13789869
v -0.50012057 -0.01673505 -0.13769448
v -0.50005531 -0.01673505 0.18482025
v 0.49973416 0.01572074 0.18461604
v 0.49966890 0.01572074 -0.13789869
v -0.50012794 0.01551653 -0.13769448
v -0.50006162 0.01551653 0.18482025
v 0.49970785 0.14472600 0.18461604
v 0.49964259 0.14472600 -0.13789869
v -0.50015426 0.14452285 -0.13769448
v -0.50008794 0.14452285 0.18482025
v 0.49970153 0.17697758 0.18461604
v 0.49963627 0.17697758 -0.13789869
v -0.50016057 0.17677443 -0.13769448
v -0.50009426 0.17677443 0.18482025
v 0.49967522 0.30598390 0.18461604
v 0.49960995 0.30598390 -0.13789869
v -0.50018689 0.30577969 -0.13769448
v -0.50012057 0.30577969 0.18482025
v 0.49966890 0.33823548 0.18461604
v 0.49960364 0.33823548 -0.13789869
v -0.50019320 0.33803127 -0.13769448
v -0.50012794 0.33803127 0.18482025
v 0.33834890 0.32207969 0.18464867
v 0.33828364 0.32207969 -0.13786606
v 0.33854574 -0.32294979 -0.13786606
v 0.33861206 -0.32294979 0.18464867
v 0.30609732 0.32206706 0.18465604
v 0.30603206 0.32206706 -0.13785869
v 0.30629416 -0.32296347 -0.13785975
v 0.30636048 -0.32296347 0.18465604
v 0.17709101 0.32201443 0.18468236
v 0.17702574 0.32201443 -0.13783343
v 0.17728890 -0.32301610 -0.13783343
v 0.17735416 -0.32301610 0.18468236
v 0.14484048 0.32200074 0.18468867
v 0.14477416 0.32200074 -0.13782606
v 0.14503732 -0.32302873 -0.13782606
v 0.14510259 -0.32302873 0.18468867
v 0.01583416 0.32194811 0.18471499
v 0.01576785 0.32194811 -0.13779975
v 0.01603101 -0.32308136 -0.13779975
v 0.01609732 -0.32308136 0.18471499
v -0.01641741 0.32193548 0.18472131
v -0.01648268 0.32193548 -0.13779343
v -0.01622057 -0.32309400 -0.13779343
v -0.01615426 -0.32309400 0.18472131
v -0.14542373 0.32188285 0.18474762
v -0.14548899 0.32188285 -0.13776712
v -0.14522689 -0.32314663 -0.13776712
v -0.14516057 -0.32314663 0.18474762
v -0.17767531 0.32187021 0.18475394
v -0.17774057 0.32187021 -0.13776080
v -0.17747741 -0.32316031 -0.13776080
v -0.17741215 -0.32316031 0.18475394
v -0.30668057 0.32181758 0.18478025
v -0.30674689 0.32181758 -0.13773448
v -0.30648373 -0.32321294 -0.13773448
v -0.30641847 -0.32321294 0.18478025
v -0.33893215 0.32180390 0.18478657
v -0.33899847 0.32180390 -0.13772817
v -0.33873531 -0.32322557 -0.13772817
v -0.33867005 -0.32322557 0.18478657
v 0.11430469 0.26451969 0.06375183
v 0.11428785 0.26451969 -0.01687659
v 0.05789416 0.20689337 -0.01686606
v 0.05791101 0.20689337 0.06376341
v 0.10277943 0.27579864 0.06375394
v 0.10276259 0.27579864 -0.01687448
v 0.04636890 0.21817232 -0.01686291
v 0.04638574 0.21817232 0.06376552
vn -0.57735027 -0.57735027 -0.57735027
vn 0.57735027 -0.57735027 -0.57735027
vn 0.57735027 0.57735027 -0.57735027
vn -0.57735027 0.57735027 -0.57735027
vn -0.57735027 -0.57735027 0.57735027
vn 0.57735027 -0.57735027 0.57735027
vn 0.57735027 0.57735027 0.57735027
vn -0.57735027 0.57735027 0.57735027
vn -0.57723522 -0.57735063 0.57746494
vn -0.57746714 -0.57735026 -0.57723338
vn -0.57746714 0.57735026 -0.57723338
vn -0.57723522 0.57735063 0.57746494
vn 0.57746641 -0.57734989 0.57723448
vn 0.57723228 -0.57735063 -0.57746788
vn 0.57723228 0.57735063 -0.57746788
vn 0.57746641 0.57734989 0.57723448
vn -0.57722603 -0.57734916 0.57747560
vn -0.57746837 -0.57735038 -0.57723203
vn -0.57746837 0.57735038 -0.57723203
vn -0.57722603 0.57734916 0.57747560
vn 0.57747437 -0.57735161 0.57722480
vn 0.57723215 -0.57735014 -0.57746849
vn 0.57723215 0.57735014 -0.57746849
vn 0.57747437 0.57735161 0.57722480
vn 0.57758376 -0.57723459 0.57723238
vn 0.57735847 -0.57722615 -0.57746616
vn -0.57735063 -0.57746751 -0.57723264
vn -0.57711415 -0.57746847 0.57746811
vn 0.57735345 0.57746592 0.57723142
vn 0.57710754 0.57747435 -0.57746884
vn -0.57758511 0.57723300 -0.57723263
vn -0.57735063 0.57723228 0.57746788
vn 0.57758352 -0.57723471 0.57723251
vn 0.57734683 -0.57723510 -0.57746886
vn -0.57735075 -0.57746727 -0.57723277
vn -0.57711538 -0.57746749 0.57746786
vn 0.57735357 0.57746567 0.57723154
vn 0.57711697 0.57746578 -0.57746799
vn -0.57758487 0.57723312 -0.57723275
vn -0.57734965 0.57723313 0.57746800
vn 0.57759320 -0.57722601 0.57723152
vn 0.57734720 -0.57723473 -0.57746886
vn -0.57735038 -0.57746763 -0.57723277
vn -0.57711526 -0.57746774 0.57746774
vn 0.57734193 0.57747461 0.57723424
vn 0.57711673 0.57746627 -0.57746774
vn -0.57758523 0.57723275 -0.57723275
vn -0.57734977 0.57723289 0.57746812
vn 0.57758242 -0.57723508 0.57723324
vn 0.57734793 -0.57723473 -0.57746812
vn -0.57735075 -0.57746727 -0.57723277
vn -0.57711538 -0.57746749 0.57746786
vn 0.57735259 0.57746580 0.57723240
vn 0.57711807 0.57746541 -0.57746725
vn -0.57758487 0.57723312 -0.57723275
vn -0.57734965 0.57723313 0.57746800
vn 0.57758278 -0.57723471 0.57723324
vn 0.57734830 -0.57723436 -0.57746812
vn -0.57735038 -0.57746763 -0.57723277
vn -0.57711526 -0.57746774 0.57746774
vn 0.57735222 0.57746616 0.57723240
vn 0.57711771 0.57746578 -0.57746725
vn -0.57758523 0.57723275 -0.57723275
vn -0.57734977 0.57723289 0.57746812
vn 0.57724268 0.57758192 0.57722614
vn 0.57700141 0.57758030 -0.57746893
vn 0.57746651 -0.57711624 -0.57746798
vn 0.57770931 -0.57711719 0.57722414
vn -0.57745794 0.57711831 0.57747448
vn -0.57769890 0.57712037 -0.57723137
vn -0.57723385 -0.57758413 -0.57723275
vn -0.57699111 -0.57758324 0.57747628
vn 0.57722540 0.57759075 0.57723459
vn 0.57699270 0.57759072 -0.57746722
vn 0.57746811 -0.57711562 -0.57746700
vn 0.57769988 -0.57711547 0.57723529
vn -0.57747337 0.57711060 0.57746676
vn -0.57770845 0.57710971 -0.57723247
vn -0.57723226 -0.57758474 -0.57723373
vn -0.57700055 -0.57758496 0.57746514
vn 0.57723520 0.57757997 0.57723557
vn 0.57700031 0.57758067 -0.57746967
vn 0.57746700 -0.57711599 -0.57746774
vn 0.57770098 -0.57711510 0.57723456
vn -0.57746639 0.57712016 0.57746419
vn -0.57769890 0.57712037 -0.57723137
vn -0.57723385 -0.57758413 -0.57723275
vn -0.57699982 -0.57758496 0.57746587
vn 0.57723410 0.57758033 0.57723631
vn 0.57700141 0.57758030 -0.57746893
vn 0.57746651 -0.57711624 -0.57746798
vn 0.57770062 -0.57711547 0.57723456
vn -0.57746639 0.57712016 0.57746419
vn -0.57769902 0.57712013 -0.57723149
vn -0.57723226 -0.57758474 -0.57723373
vn -0.57700055 -0.57758496 0.57746514
vn 0.57722699 0.57759014 0.57723361
vn 0.57699221 0.57759059 -0.57746783
vn 0.57746811 -0.57711562 -0.57746700
vn 0.57769988 -0.57711547 0.57723529
vn -0.57747337 0.57711060 0.57746676
vn -0.57770845 0.57710971 -0.57723247
vn -0.57723226 -0.57758474 -0.57723373
vn -0.57700055 -0.57758496 0.57746514
vn 0.81656439 0.00882499 0.57718690
vn 0.81633293 0.00882074 -0.57751428
vn 0.00869737 -0.81643551 -0.57737112
vn 0.00894011 -0.81644567 0.57735305
vn -0.00870508 0.81645286 0.57734647
vn -0.00894011 0.81644567 -0.57735305
vn -0.81657634 -0.00881408 -0.57717015
vn -0.81633269 -0.00882001 0.57751463
f 1//1 4//4 2//2
f 2//2 4//4 3//3
f 1//1 6//6 5//5
f 1//1 2//2 6//6
f 1//1 5//5 4//4
f 4//4 5//5 8//8
f 4//4 8//8 7//7
f 4//4 7//7 3//3
f 2//2 7//7 6//6
f 2//2 3//3 7//7
f 6//6 8//8 5//5
f 6//6 7//7 8//8
f 9//9 12//12 10//10
f 10//10 12//12 11//11
f 9//9 14//14 13//13
f 9//9 10//10 14//14
f 9//9 13//13 12//12
f 12//12 13//13 16//16
f 12//12 16//16 15//15
f 12//12 15//15 11//11
f 10//10 15//15 14//14
f 10//10 11//11 15//15
f 14//14 16//16 13//13
f 14//14 15//15 16//16
f 17//17 20//20 18//18
f 18//18 20//20 19//19
f 17//17 22//22 21//21
f 17//17 18//18 22//22
f 17//17 21//21 20//20
f 20//20 21//21 24//24
f 20//20 24//24 23//23
f 20//20 23//23 19//19
f 18//18 23//23 22//22
f 18//18 19//19 23//23
f 22//22 24//24 21//21
f 22//22 23//23 24//24
f 25//25 28//28 26//26
f 26//26 28//28 27//27
f 25//25 30//30 29//29
f 25//25 26//26 30//30
f 25//25 29//29 28//28
f 28//28 29//29 32//32
f 28//28 32//32 31//31
f 28//28 31//31 27//27
f 26//26 31//31 30//30
f 26//26 27//27 31//31
f 30//30 32//32 29//29
f 30//30 31//31 32//32
f 33//33 36//36 34//34
f 34//34 36//36 35//35
f 33//33 38//38 37//37
f 33//33 34//34 38//38
f 33//33 37//37 36//36
f 36//36 37//37 40//40
f 36//36 40//40 39//39
f 36//36 39//39 35//35
f 34//34 39//39 38//38
f 34//34 35//35 39//39
f 38//38 40//40 37//37
f 38//38 39//39 40//40
f 41//41 44//44 42//42
f 42//42 44//44 43//43
f 41//41 46//46 45//45
f 41//41 42//42 46//46
f 41//41 45//45 44//44
f 44//44 45//45 48//48
f 44//44 48//48 47//47
f 44//44 47//47 43//43
f 42//42 47//47 46//46
f 42//42 43//43 47//47
f 46//46 48//48 45//45
f 46//46 47//47 48//48
f 49//49 52//52 50//50
f 50//50 52//52 51//51
f 49//49 54//54 53//53
f 49//49 50//50 54//54
f 49//49 53//53 52//52
f 52//52 53//53 56//56
f 52//52 56//56 55//55
f 52//52 55//55 51//51
f 50//50 55//55 54//54
f 50//50 51//51 55//55
f 54//54 56//56 53//53
f 54//54 55//55 56//56
f 57//57 60//60 58//58
f 58//58 60//60 59//59
f 57//57 62//62 61//61
f 57//57 58//58 62//62
f 57//57 61//61 60//60
f 60//60 61//61 64//64
f 60//60 64//64 63//63
f 60//60 63//63 59//59
f 58//58 63//63 62//62
f 58//58 59//59 63//63
f 62//62 64//64 61//61
f 62//62 63//63 64//64
f 65//65 68//68 66//66
f 66//66 68//68 67//67
f 65//65 70//70 69//69
f 65//65 66//66 70//70
f 65//65 69//69 68//68
f 68//68 69//69 72//72
f 68//68 72//72 71//71
f 68//68 71//71 67//67
f 66//66 71//71 70//70
f 66//66 67//67 71//71
f 70//70 72//72 69//69
f 70//70 71//71 72//72
f 73//73 76//76 74//74
f 74//74 76//76 75//75
f 73//73 78//78 77//77
f 73//73 74//74 78//78
f 73//73 77//77 76//76
f 76//76 77//77 80//80
f 76//76 80//80 79//79
f 76//76 79//79 75//75
f 74//74 79//79 78//78
f 74//74 75//75 79//79
f 78//78 80//80 77//77
f 78//78 79//79 80//80
f 81//81 84//84 82//82
f 82//82 84//84 83//83
f 81//81 86//86 85//85
f 81//81 82//82 86//86
f 81//81 85//85 84//84
f 84//84 85//85 88//88
f 84//84 88//88 87//87
f 84//84 87//87 83//83
f 82//82 87//87 86//86
f 82//82 83//83 87//87
f 86//86 88//88 85//85
f 86//86 87//87 88//88
f 89//89 92//92 90//90
f 90//90 92//92 91//91
f 89//89 94//94 93//93
f 89//89 90//90 94//94
f 89//89 93//93 92//92
f 92//92 93//93 96//96
f 92//92 96//96 95//95
f 92//92 95//95 91//91
f 90//90 95//95 94//94
f 90//90 91//91 95//95
f 94//94 96//96 93//93
f 94//94 95//95 96//96
f 97//97 100//100 98//98
f 98//98 100//100 99//99
f 97//97 102//102 101//101
f 97//97 98//98 102//102
f 97//97 101//101 100//100
f 100//100 101//101 104//104
f 100//100 104//104 103//103
f 100//100 103//103 99//99
f 98//98 103//103 102//102
f 98//98 99//99 103//103
f 102//102 104//104 101//101
f 102//102 103//103 104//104
f 105//105 108//108 106//106
f 106//106 108//108 107//107
f 105//105 110//110 109//109
f 105//105 106//106 110//110
f 105//105 109//109 108//108
f 108//108 109//109 112//112
f 108//108 112//112 111//111
f 108//108 111//111 107//107
f 106//106 111//111 110//110
f 106//106 107//107 111//111
f 110//110 112//112 109//109
f 110//110 111//111 112//112

