# https://github.com/mikedh/trimesh
v -0.23850808 -0.37763768 -0.42458213
v -0.21185019 -0.37763768 -0.42458213
v -0.20777440 -0.01226926 -0.42050529
v -0.24258492 -0.01226926 -0.42050529
v -0.21185019 -0.37763768 -0.45124002
v -0.23850808 -0.37763768 -0.45124002
v -0.24258492 -0.01226926 -0.45531687
v -0.20777440 -0.01226926 -0.45531687
v 0.24258560 -0.01226926 -0.45531687
v 0.24258560 -0.01226926 -0.42050529
v 0.23850876 -0.37763768 -0.42458213
v 0.23850876 -0.37763768 -0.45124002
v 0.20777402 -0.01226926 -0.42050529
v 0.20777402 -0.01226926 -0.45531687
v 0.21185086 -0.37763768 -0.45124002
v 0.21185086 -0.37763768 -0.42458213
v 0.23850876 -0.37763768 0.42457998
v 0.21185086 -0.37763768 0.42457998
v 0.20777402 -0.01226926 0.42050524
v 0.24258560 -0.01226926 0.42050524
v 0.21185086 -0.37763768 0.45123787
v 0.23850876 -0.37763768 0.45123787
v 0.24258560 -0.01226926 0.45531261
v 0.20777402 -0.01226926 0.45531261
v -0.24258492 -0.01226926 0.45531261
v -0.24258492 -0.01226926 0.42050524
v -0.23850808 -0.37763768 0.42457998
v -0.23850808 -0.37763768 0.45123787
v -0.20777440 -0.01226926 0.42050524
v -0.20777440 -0.01226926 0.45531261
v -0.21185019 -0.37763768 0.45123787
v -0.21185019 -0.37763768 0.42457998
v -0.28726703 0.05989811 0.50000103
v 0.28726665 0.05989811 0.50000103
v 0.28726665 0.05989811 -0.49999897
v -0.28726703 0.05989811 -0.49999897
v -0.27236598 0.02798758 0.48509998
v -0.28726703 0.02798758 0.50000103
v -0.28726703 0.02798758 -0.49999897
v -0.27236598 0.02798758 -0.48509792
v 0.28726665 0.02798758 -0.49999897
v 0.27236665 0.02798758 -0.48509792
v 0.28726665 0.02798758 0.50000103
v 0.27236665 0.02798758 0.48509998
v -0.27236598 -0.01226926 0.48509998
v -0.27236598 -0.01226926 -0.48509792
v 0.27236665 -0.01226926 -0.48509792
v 0.27236665 -0.01226926 0.48509998
vn -0.57440099 -0.58320408 0.57440099
vn 0.57440196 -0.58320325 0.57440087
vn 0.29793439 -0.90690124 0.29793496
vn -0.29793418 -0.90690156 0.29793418
vn 0.57440184 -0.58320348 -0.57440075
vn -0.57440087 -0.58320432 -0.57440087
vn -0.29793413 -0.90690160 -0.29793413
vn 0.29793434 -0.90690127 -0.29793491
vn 0.29793418 -0.90690156 -0.29793418
vn 0.29793424 -0.90690153 0.29793424
vn 0.57440099 -0.58320408 0.57440099
vn 0.57440099 -0.58320408 -0.57440099
vn -0.29793424 -0.90690153 0.29793424
vn -0.29793418 -0.90690156 -0.29793418
vn -0.57440099 -0.58320408 -0.57440099
vn -0.57440099 -0.58320408 0.57440099
vn 0.57440075 -0.58320241 -0.57440293
vn -0.57440075 -0.58320241 -0.57440293
vn -0.29793575 -0.90690091 -0.29793460
vn 0.29793575 -0.90690091 -0.29793460
vn -0.57440075 -0.58320241 0.57440293
vn 0.57440075 -0.58320241 0.57440293
vn 0.29793575 -0.90690091 0.29793460
vn -0.29793575 -0.90690091 0.29793460
vn -0.29793569 -0.90690095 0.29793455
vn -0.29793569 -0.90690095 -0.29793455
vn -0.57440051 -0.58320253 -0.57440305
vn -0.57440051 -0.58320253 0.57440305
vn 0.29793590 -0.90690062 -0.29793533
vn 0.29793590 -0.90690062 0.29793533
vn 0.57440160 -0.58320182 0.57440269
vn 0.57440160 -0.58320182 -0.57440269
vn -0.57735027 0.57735027 0.57735027
vn 0.57735027 0.57735027 0.57735027
vn 0.57735027 0.57735027 -0.57735027
vn -0.57735027 0.57735027 -0.57735027
vn -0.30151129 -0.90453407 0.30151129
vn -0.57735027 -0.57735027 0.57735027
vn -0.57735027 -0.57735027 -0.57735027
vn -0.30151129 -0.90453407 -0.30151129
vn 0.57735027 -0.57735027 -0.57735027
vn 0.30151129 -0.90453407 -0.30151129
vn 0.57735027 -0.57735027 0.57735027
vn 0.30151129 -0.90453407 0.30151129
vn -0.57735027 -0.57735027 0.57735027
vn -0.57735027 -0.57735027 -0.57735027
vn 0.57735027 -0.57735027 -0.57735027
vn 0.57735027 -0.57735027 0.57735027
f 1//1 2//2 3//3
f 5//5 6//6 7//7
f 6//6 5//5 2//2
f 2//2 5//5 8//8
f 6//6 1//1 4//4
f 9//9 10//10 11//11
f 13//13 14//14 15//15
f 11//11 16//16 15//15
f 14//14 9//9 12//12
f 10//10 13//13 16//16
f 17//17 18//18 19//19
f 21//21 22//22 23//23
f 22//22 21//21 18//18
f 18//18 21//21 24//24
f 22//22 17//17 20//20
f 25//25 26//26 27//27
f 29//29 30//30 31//31
f 27//27 32//32 31//31
f 30//30 25//25 28//28
f 26//26 29//29 32//32
f 33//33 34//34 35//35
f 37//37 38//38 39//39
f 40//40 39//39 41//41
f 38//38 33//33 36//36
f 39//39 36//36 35//35
f 41//41 35//35 34//34
f 42//42 41//41 43//43
f 43//43 34//34 33//33
f 44//44 43//43 38//38
f 13//13 10//10 20//20
f 4//4 3//3 29//29
f 3//3 8//8 14//14
f 45//45 37//37 40//40
f 46//46 40//40 42//42
f 47//47 42//42 44//44
f 45//45 48//48 44//44
f 46//46 8//8 7//7
f 45//45 25//25 30//30
f 19//19 24//24 30//30
f 46//46 7//7 4//4
f 10//10 9//9 47//47
f 3//3 13//13 19//19
f 47//47 9//9 14//14
f 48//48 23//23 20//20
f 46//46 47//47 14//14
f 4//4 26//26 45//45
f 26//26 25//25 45//45
f 30//30 24//24 48//48
f 24//24 23//23 48//48
f 20//20 10//10 47//47
f 1//1 3//3 4//4
f 5//5 7//7 8//8
f 6//6 2//2 1//1
f 2//2 8//8 3//3
f 6//6 4//4 7//7
f 9//9 11//11 12//12
f 13//13 15//15 16//16
f 11//11 15//15 12//12
f 14//14 12//12 15//15
f 10//10 16//16 11//11
f 17//17 19//19 20//20
f 21//21 23//23 24//24
f 22//22 18//18 17//17
f 18//18 24//24 19//19
f 22//22 20//20 23//23
f 25//25 27//27 28//28
f 29//29 31//31 32//32
f 27//27 31//31 28//28
f 30//30 28//28 31//31
f 26//26 32//32 27//27
f 33//33 35//35 36//36
f 37//37 39//39 40//40
f 40//40 41//41 42//42
f 38//38 36//36 39//39
f 39//39 35//35 41//41
f 41//41 34//34 43//43
f 42//42 43//43 44//44
f 43//43 33//33 38//38
f 44//44 38//38 37//37
f 13//13 20//20 19//19
f 4//4 29//29 26//26
f 3//3 14//14 13//13
f 45//45 40//40 46//46
f 46//46 42//42 47//47
f 47//47 44//44 48//48
f 45//45 44//44 37//37
f 19//19 30//30 29//29
f 3//3 19//19 29//29
f 46//46 14//14 8//8
f 4//4 45//45 46//46
f 30//30 48//48 45//45
f 20//20 47//47 48//48

