# https://github.com/mikedh/trimesh
v 0.50012368 0.02597259 -0.50095523
v 0.50012368 0.02597259 0.49904477
v -0.49987632 0.02597259 0.49904477
v -0.49987632 0.02597259 -0.50095523
v 0.50012368 -0.00088531 -0.50095523
v 0.50012368 -0.00088531 0.49904477
v -0.49987632 -0.00088531 0.49904477
v -0.49987632 -0.00088531 -0.50095523
v 0.35662368 -0.31755583 0.34879740
v 0.34043000 -0.31755583 0.36499214
v 0.34043000 -0.03079373 0.36499214
v 0.35662368 -0.03079373 0.34879740
v 0.33368157 -0.31755583 0.32585529
v 0.31748789 -0.31755583 0.34182477
v 0.31748789 -0.03079373 0.34182477
v 0.33368157 -0.03079373 0.32585529
v -0.31971422 -0.31755583 -0.33001523
v -0.33568369 -0.31755583 -0.31382050
v -0.33568369 -0.03079373 -0.31382050
v -0.31971422 -0.03079373 -0.33001523
v -0.34265632 -0.31755583 -0.35295734
v -0.35885106 -0.31755583 -0.33698786
v -0.35885106 -0.03079373 -0.33698786
v -0.34265632 -0.03079373 -0.35295734
v 0.35662368 -0.00190636 0.34879740
v 0.34043000 -0.00190636 0.36499214
v -0.35817632 -0.00190636 -0.33631313
v -0.34198158 -0.00190636 -0.35228260
v 0.35662368 -0.03017057 0.34879740
v 0.34043000 -0.03017057 0.36499214
v -0.35817632 -0.03017057 -0.33631313
v -0.34198158 -0.03017057 -0.35228260
v 0.34177947 -0.31755583 -0.35183207
v 0.35797315 -0.31755583 -0.33563839
v 0.35797315 -0.03079373 -0.33563839
v 0.34177947 -0.03079373 -0.35183207
v 0.31883736 -0.31755583 -0.32866576
v 0.33480684 -0.31755583 -0.31269628
v 0.33480684 -0.03079373 -0.31269628
v 0.31883736 -0.03079373 -0.32866576
v -0.33703316 -0.31755583 0.32450582
v -0.32083948 -0.31755583 0.34070056
v -0.32083948 -0.03079373 0.34070056
v -0.33703316 -0.03079373 0.32450582
v -0.35997527 -0.31755583 0.34744793
v -0.34400579 -0.31755583 0.36364266
v -0.34400579 -0.03079373 0.36364266
v -0.35997527 -0.03079373 0.34744793
v 0.34177947 -0.00190636 -0.35183207
v 0.35797315 -0.00190636 -0.33563839
v -0.34333106 -0.00190636 0.36296687
v -0.35952579 -0.00190636 0.34699845
v 0.34177947 -0.03017057 -0.35183207
v 0.35797315 -0.03017057 -0.33563839
v -0.34333106 -0.03017057 0.36296687
v -0.35952579 -0.03017057 0.34699845
vn 0.57735027 0.57735027 -0.57735027
vn 0.57735027 0.57735027 0.57735027
vn -0.57735027 0.57735027 0.57735027
vn -0.57735027 0.57735027 -0.57735027
vn 0.57735027 -0.57735027 -0.57735027
vn 0.57735027 -0.57735027 0.57735027
vn -0.57735027 -0.57735027 0.57735027
vn -0.57735027 -0.57735027 -0.57735027
vn 0.81649540 -0.57735195 -0.00001323
vn -0.00198165 -0.57709197 0.81667676
vn -0.00198165 0.57709197 0.81667676
vn 0.81649540 0.57735195 -0.00001323
vn 0.00284508 -0.57771769 -0.81623169
vn -0.81655970 -0.57724070 -0.00484066
vn -0.81655970 0.57724070 -0.00484066
vn 0.00284508 0.57771769 -0.81623169
vn 0.81623036 -0.57771950 -0.00285821
vn 0.00286021 -0.57698299 0.81675116
vn 0.00286021 0.57698299 0.81675116
vn 0.81623036 0.57771950 -0.00285821
vn 0.00285821 -0.57771950 -0.81623036
vn -0.81675116 -0.57698299 -0.00286021
vn -0.81675116 0.57698299 -0.00286021
vn 0.00285821 0.57771950 -0.81623036
vn 0.81642930 0.57744498 0.00070831
vn -0.00077379 0.57724726 0.81656904
vn -0.81667676 0.57708385 -0.00364704
vn 0.00358004 0.57762623 -0.81629353
vn 0.81642930 -0.57744498 0.00070831
vn -0.00077379 -0.57724726 0.81656904
vn -0.81667676 -0.57708385 -0.00364704
vn 0.00358004 -0.57762623 -0.81629353
vn -0.00198564 -0.57709513 -0.81667452
vn 0.81667452 -0.57709513 0.00198564
vn 0.81667452 0.57709513 0.00198564
vn -0.00198564 0.57709513 -0.81667452
vn -0.81631295 -0.57760647 0.00198467
vn -0.00198467 -0.57760647 0.81631295
vn -0.00198467 0.57760647 0.81631295
vn -0.81631295 0.57760647 0.00198467
vn 0.00001323 -0.57734867 -0.81649771
vn 0.81667336 -0.57709673 0.00199888
vn 0.81667336 0.57709673 0.00199888
vn 0.00001323 0.57734867 -0.81649771
vn -0.81623036 -0.57771950 -0.00285821
vn -0.00484486 -0.57723795 0.81656162
vn -0.00484486 0.57723795 0.81656162
vn -0.81623036 0.57771950 -0.00285821
vn 0.00072155 0.57744330 -0.81643047
vn 0.81656790 0.57724886 0.00078702
vn 0.00208450 0.57782316 0.81615933
vn -0.81682003 0.57688856 0.00215171
vn 0.00072155 -0.57744330 -0.81643047
vn 0.81656790 -0.57724886 0.00078702
vn 0.00208450 -0.57782316 0.81615933
vn -0.81682003 -0.57688856 0.00215171
f 3//3 2//2 1//1
f 4//4 3//3 1//1
f 6//6 5//5 1//1
f 2//2 6//6 1//1
f 7//7 6//6 2//2
f 3//3 7//7 2//2
f 8//8 7//7 3//3
f 4//4 8//8 3//3
f 5//5 8//8 4//4
f 1//1 5//5 4//4
f 7//7 8//8 5//5
f 6//6 7//7 5//5
f 11//11 10//10 9//9
f 12//12 11//11 9//9
f 14//14 13//13 9//9
f 10//10 14//14 9//9
f 15//15 14//14 10//10
f 11//11 15//15 10//10
f 16//16 15//15 11//11
f 12//12 16//16 11//11
f 13//13 16//16 12//12
f 9//9 13//13 12//12
f 15//15 16//16 13//13
f 14//14 15//15 13//13
f 19//19 18//18 17//17
f 20//20 19//19 17//17
f 22//22 21//21 17//17
f 18//18 22//22 17//17
f 23//23 22//22 18//18
f 19//19 23//23 18//18
f 24//24 23//23 19//19
f 20//20 24//24 19//19
f 21//21 24//24 20//20
f 17//17 21//21 20//20
f 23//23 24//24 21//21
f 22//22 23//23 21//21
f 27//27 26//26 25//25
f 28//28 27//27 25//25
f 30//30 29//29 25//25
f 26//26 30//30 25//25
f 31//31 30//30 26//26
f 27//27 31//31 26//26
f 32//32 31//31 27//27
f 28//28 32//32 27//27
f 29//29 32//32 28//28
f 25//25 29//29 28//28
f 31//31 32//32 29//29
f 30//30 31//31 29//29
f 35//35 34//34 33//33
f 36//36 35//35 33//33
f 38//38 37//37 33//33
f 34//34 38//38 33//33
f 39//39 38//38 34//34
f 35//35 39//39 34//34
f 40//40 39//39 35//35
f 36//36 40//40 35//35
f 37//37 40//40 36//36
f 33//33 37//37 36//36
f 39//39 40//40 37//37
f 38//38 39//39 37//37
f 43//43 42//42 41//41
f 44//44 43//43 41//41
f 46//46 45//45 41//41
f 42//42 46//46 41//41
f 47//47 46//46 42//42
f 43//43 47//47 42//42
f 48//48 47//47 43//43
f 44//44 48//48 43//43
f 45//45 48//48 44//44
f 41//41 45//45 44//44
f 47//47 48//48 45//45
f 46//46 47//47 45//45
f 51//51 50//50 49//49
f 52//52 51//51 49//49
f 54//54 53//53 49//49
f 50//50 54//54 49//49
f 55//55 54//54 50//50
f 51//51 55//55 50//50
f 56//56 55//55 51//51
f 52//52 56//56 51//51
f 53//53 56//56 52//52
f 49//49 53//53 52//52
f 55//55 56//56 53//53
f 54//54 55//55 53//53

