# https://github.com/mikedh/trimesh
v 0.49918810 0.03563127 0.31251940
v -0.50080979 0.03563127 0.31251624
v 0.49919021 0.03563127 -0.31247955
v -0.50080769 0.03563127 -0.31248270
v 0.49398178 0.04083969 -0.30727218
v 0.49398073 0.04083969 0.30731098
v -0.49560137 0.04083969 0.30730782
v -0.49559927 0.04083969 -0.30727428
v 0.38434178 0.00993337 0.16408151
v 0.38434178 -0.05256663 0.16408151
v 0.35309126 -0.05256663 0.16408151
v 0.35309126 0.00993337 0.16408151
v 0.38434284 0.00993337 -0.16404270
v 0.38434284 -0.05256663 -0.16404270
v 0.35309231 -0.05256663 -0.16404270
v 0.35309231 0.00993337 -0.16404270
v -0.34947295 0.00993337 0.16407940
v -0.34947295 -0.05256663 0.16407940
v -0.38072243 -0.05256663 0.16407940
v -0.38072243 0.00993337 0.16407940
v -0.38072137 0.00993337 -0.16404481
v -0.38072137 -0.05256663 -0.16404481
v -0.34947190 -0.05256663 -0.16404481
v -0.34947190 0.00993337 -0.16404481
v -0.34968979 0.00993337 0.19534045
v -0.34968979 -0.05256663 0.19534045
v -0.34968979 -0.05256663 0.16408993
v -0.34968979 0.00993337 0.16408993
v 0.35343336 0.00993337 0.16407940
v 0.35343336 -0.05256663 0.16407940
v 0.35343442 -0.05256663 0.19532993
v 0.35343442 0.00993337 0.19532993
v -0.34970032 0.00993337 -0.16381218
v -0.34970032 -0.05256663 -0.16381218
v -0.34970032 -0.05256663 -0.19506165
v -0.34970032 0.00993337 -0.19506165
v 0.35342284 0.00993337 -0.19507218
v 0.35342284 -0.05256663 -0.19507218
v 0.35342389 -0.05256663 -0.16382165
v 0.35342389 0.00993337 -0.16382165
v 0.39536178 0.00981232 -0.16467955
v 0.39536178 -0.27664557 -0.16467955
v 0.35369547 -0.27664557 -0.16467955
v 0.35369547 0.00981232 -0.16467955
v 0.39536178 0.00981232 -0.20634586
v 0.39536178 -0.27664557 -0.20634586
v 0.35369547 -0.27664557 -0.20634586
v 0.35369547 0.00981232 -0.20634586
v -0.39161085 0.00981232 -0.16434797
v -0.39161085 -0.27664557 -0.16434797
v -0.34994453 -0.27664557 -0.16434797
v -0.34994453 0.00981232 -0.16434797
v -0.34994453 0.00981232 -0.20601428
v -0.34994453 -0.27664557 -0.20601428
v -0.39161085 -0.27664557 -0.20601428
v -0.39161085 0.00981232 -0.20601428
v 0.39536073 0.00981232 0.20538466
v 0.39536073 -0.27664557 0.20538466
v 0.35369442 -0.27664557 0.20538466
v 0.35369442 0.00981232 0.20538466
v 0.35369442 0.00981232 0.16371835
v 0.35369442 -0.27664557 0.16371835
v 0.39536073 -0.27664557 0.16371835
v 0.39536073 0.00981232 0.16371835
v -0.34994558 0.00981232 0.20571624
v -0.34994558 -0.27664557 0.20571624
v -0.39161190 -0.27664557 0.20571624
v -0.39161190 0.00981232 0.20571624
v -0.39161190 0.00981232 0.16404993
v -0.39161190 -0.27664557 0.16404993
v -0.34994558 -0.27664557 0.16404993
v -0.34994558 0.00981232 0.16404993
v 0.49918810 0.00958916 0.31251940
v -0.50080979 0.00958916 0.31251624
v 0.49919021 0.00958916 -0.31247955
v -0.50080769 0.00958916 -0.31248270
v 0.41064810 0.04083969 -0.22393849
v 0.41064705 0.04083969 0.22397730
v -0.41226769 0.04083969 0.22397519
v -0.41226664 0.04083969 -0.22394060
vn 0.65070397 0.39134557 0.65071729
vn -0.65070763 0.39135989 0.65070502
vn 0.65070853 0.39135979 -0.65070418
vn -0.65070525 0.39135817 -0.65070843
vn 0.30019494 0.90540872 -0.30019668
vn 0.30023724 0.90539689 0.30019005
vn -0.30019991 0.90540870 0.30019176
vn -0.30019626 0.90540746 -0.30019917
vn 0.70710588 0.70710768 0.00000225
vn 0.70710588 -0.70710768 0.00000225
vn -0.70710746 -0.70710611 -0.00000225
vn -0.70710746 0.70710611 -0.00000225
vn 0.70710746 0.70710611 0.00000225
vn 0.70710746 -0.70710611 0.00000225
vn -0.70710588 -0.70710768 -0.00000225
vn -0.70710588 0.70710768 -0.00000225
vn 0.70710588 0.70710768 0.00000225
vn 0.70710588 -0.70710768 0.00000225
vn -0.70710746 -0.70710611 -0.00000225
vn -0.70710746 0.70710611 -0.00000225
vn -0.70710588 0.70710768 -0.00000225
vn -0.70710588 -0.70710768 -0.00000225
vn 0.70710746 -0.70710611 0.00000225
vn 0.70710746 0.70710611 0.00000225
vn 0.00001080 0.70710340 0.70711016
vn 0.00001080 -0.70710340 0.70711016
vn -0.00001080 -0.70711016 -0.70710340
vn -0.00001080 0.70711016 -0.70710340
vn -0.00001080 0.70711106 -0.70710250
vn -0.00001080 -0.70711106 -0.70710250
vn 0.00001080 -0.70710273 0.70711083
vn 0.00001080 0.70710273 0.70711083
vn 0.00000945 0.70710386 0.70710971
vn 0.00000945 -0.70710386 0.70710971
vn -0.00001080 -0.70711016 -0.70710340
vn -0.00001080 0.70711016 -0.70710340
vn -0.00001080 0.70711106 -0.70710250
vn -0.00001080 -0.70711106 -0.70710250
vn 0.00000945 -0.70710228 0.70711128
vn 0.00000945 0.70710228 0.70711128
vn 0.57735027 0.57735027 0.57735027
vn 0.70710678 0.00000000 0.70710678
vn -0.70710678 0.00000000 0.70710678
vn -0.57735027 0.57735027 0.57735027
vn 0.57735027 0.57735027 -0.57735027
vn 0.70710678 0.00000000 -0.70710678
vn -0.70710678 0.00000000 -0.70710678
vn -0.57735027 0.57735027 -0.57735027
vn -0.57735027 0.57735027 0.57735027
vn -0.70710678 0.00000000 0.70710678
vn 0.70710678 0.00000000 0.70710678
vn 0.57735027 0.57735027 0.57735027
vn 0.57735027 0.57735027 -0.57735027
vn 0.70710678 0.00000000 -0.70710678
vn -0.70710678 0.00000000 -0.70710678
vn -0.57735027 0.57735027 -0.57735027
vn 0.57735027 0.57735027 0.57735027
vn 0.70710678 0.00000000 0.70710678
vn -0.70710678 0.00000000 0.70710678
vn -0.57735027 0.57735027 0.57735027
vn -0.57735027 0.57735027 -0.57735027
vn -0.70710678 0.00000000 -0.70710678
vn 0.70710678 0.00000000 -0.70710678
vn 0.57735027 0.57735027 -0.57735027
vn 0.57735027 0.57735027 0.57735027
vn 0.70710678 0.00000000 0.70710678
vn -0.70710678 0.00000000 0.70710678
vn -0.57735027 0.57735027 0.57735027
vn -0.57735027 0.57735027 -0.57735027
vn -0.70710678 0.00000000 -0.70710678
vn 0.70710678 0.00000000 -0.70710678
vn 0.57735027 0.57735027 -0.57735027
vn 0.57734819 -0.57735039 0.57735223
vn -0.57735186 -0.57735039 0.57734855
vn 0.57735186 -0.57735039 -0.57734855
vn -0.57734868 -0.57735015 -0.57735198
vn 0.00000000 1.00000000 0.00000000
vn 0.00000000 1.00000000 0.00000000
vn 0.00000000 1.00000000 0.00000000
vn 0.00000000 1.00000000 0.00000000
f 5//5 6//6 1//1
f 3//3 5//5 1//1
f 6//6 7//7 2//2
f 1//1 6//6 2//2
f 7//7 8//8 4//4
f 2//2 7//7 4//4
f 8//8 5//5 3//3
f 4//4 8//8 3//3
f 15//15 11//11 12//12
f 16//16 15//15 12//12
f 12//12 9//9 13//13
f 16//16 12//12 13//13
f 10//10 14//14 13//13
f 9//9 10//10 13//13
f 15//15 14//14 10//10
f 11//11 15//15 10//10
f 22//22 19//19 20//20
f 21//21 22//22 20//20
f 20//20 17//17 24//24
f 21//21 20//20 24//24
f 18//18 23//23 24//24
f 17//17 18//18 24//24
f 22//22 23//23 18//18
f 19//19 22//22 18//18
f 30//30 27//27 28//28
f 29//29 30//30 28//28
f 28//28 25//25 32//32
f 29//29 28//28 32//32
f 26//26 31//31 32//32
f 25//25 26//26 32//32
f 30//30 31//31 26//26
f 27//27 30//30 26//26
f 38//38 35//35 36//36
f 37//37 38//38 36//36
f 36//36 33//33 40//40
f 37//37 36//36 40//40
f 34//34 39//39 40//40
f 33//33 34//34 40//40
f 38//38 39//39 34//34
f 35//35 38//38 34//34
f 43//43 42//42 41//41
f 44//44 43//43 41//41
f 46//46 47//47 48//48
f 45//45 46//46 48//48
f 47//47 43//43 44//44
f 48//48 47//47 44//44
f 44//44 41//41 45//45
f 48//48 44//44 45//45
f 42//42 46//46 45//45
f 41//41 42//42 45//45
f 50//50 51//51 52//52
f 49//49 50//50 52//52
f 54//54 55//55 56//56
f 53//53 54//54 56//56
f 51//51 54//54 53//53
f 52//52 51//51 53//53
f 49//49 52//52 53//53
f 56//56 49//49 53//53
f 55//55 50//50 49//49
f 56//56 55//55 49//49
f 59//59 58//58 57//57
f 60//60 59//59 57//57
f 63//63 62//62 61//61
f 64//64 63//63 61//61
f 62//62 59//59 60//60
f 61//61 62//62 60//60
f 60//60 57//57 64//64
f 61//61 60//60 64//64
f 58//58 63//63 64//64
f 57//57 58//58 64//64
f 67//67 66//66 65//65
f 68//68 67//67 65//65
f 71//71 70//70 69//69
f 72//72 71//71 69//69
f 66//66 71//71 72//72
f 65//65 66//66 72//72
f 68//68 65//65 72//72
f 69//69 68//68 72//72
f 70//70 67//67 68//68
f 69//69 70//70 68//68
f 74//74 73//73 1//1
f 2//2 74//74 1//1
f 75//75 76//76 4//4
f 3//3 75//75 4//4
f 76//76 74//74 2//2
f 4//4 76//76 2//2
f 73//73 75//75 3//3
f 1//1 73//73 3//3
f 76//76 75//75 73//73
f 74//74 76//76 73//73
f 77//77 78//78 6//6
f 5//5 77//77 6//6
f 78//78 79//79 7//7
f 6//6 78//78 7//7
f 79//79 80//80 8//8
f 7//7 79//79 8//8
f 80//80 77//77 5//5
f 8//8 80//80 5//5
f 79//79 78//78 77//77
f 80//80 79//79 77//77

