# https://github.com/mikedh/trimesh
v 0.17187046 0.29943601 0.37383563
v 0.17187046 -0.36938399 0.37383563
v 0.20311993 -0.36938399 0.37383563
v 0.20311993 0.29943601 0.37383563
v 0.20311993 0.29943601 0.38945984
v 0.20311993 -0.36938399 0.38945984
v 0.17187046 -0.36938399 0.38945984
v 0.17187046 0.29943601 0.38945984
v 0.04687151 0.29943601 0.37383457
v 0.04687151 -0.36938399 0.37383457
v 0.07812099 -0.36938399 0.37383457
v 0.07812099 0.29943601 0.37383457
v 0.07812099 0.29943601 0.38945984
v 0.07812099 -0.36938399 0.38945984
v 0.04687151 -0.36938399 0.38945984
v 0.04687151 0.29943601 0.38945984
v -0.07812743 0.29943601 0.37383457
v -0.07812743 -0.36938399 0.37383457
v -0.04687796 -0.36938399 0.37383457
v -0.04687796 0.29943601 0.37383457
v -0.04687796 0.29943601 0.38945984
v -0.04687796 -0.36938399 0.38945984
v -0.07812743 -0.36938399 0.38945984
v -0.07812743 0.29943601 0.38945984
v -0.20312638 0.29943601 0.37383457
v -0.20312638 -0.36938399 0.37383457
v -0.17187691 -0.36938399 0.37383457
v -0.17187691 0.29943601 0.37383457
v -0.17187691 0.29943601 0.38945878
v -0.17187691 -0.36938399 0.38945878
v -0.20312638 -0.36938399 0.38945878
v -0.20312638 0.29943601 0.38945878
v 0.17187257 0.29943601 -0.37382227
v 0.17187257 -0.36938399 -0.37382227
v 0.20312204 -0.36938399 -0.37382227
v 0.20312204 0.29943601 -0.37382227
v 0.20312204 0.29943601 -0.38944753
v 0.20312204 -0.36938399 -0.38944753
v 0.17187257 -0.36938399 -0.38944753
v 0.17187257 0.29943601 -0.38944753
v 0.04687362 0.29943601 -0.37382332
v 0.04687362 -0.36938399 -0.37382332
v 0.07812309 -0.36938399 -0.37382332
v 0.07812309 0.29943601 -0.37382332
v 0.07812309 0.29943601 -0.38944753
v 0.07812309 -0.36938399 -0.38944753
v 0.04687362 -0.36938399 -0.38944753
v 0.04687362 0.29943601 -0.38944753
v -0.07812638 0.29943601 -0.37382332
v -0.07812638 -0.36938399 -0.37382332
v -0.04687586 -0.36938399 -0.37382332
v -0.04687586 0.29943601 -0.37382332
v -0.04687586 0.29943601 -0.38944858
v -0.04687586 -0.36938399 -0.38944858
v -0.07812533 -0.36938399 -0.38944858
v -0.07812533 0.29943601 -0.38944858
v -0.20312533 0.29943601 -0.37382332
v -0.20312533 -0.36938399 -0.37382332
v -0.17187480 -0.36938399 -0.37382332
v -0.17187480 0.29943601 -0.37382332
v -0.17187480 0.29943601 -0.38944858
v -0.17187480 -0.36938399 -0.38944858
v -0.20312428 -0.36938399 -0.38944858
v -0.20312428 0.29943601 -0.38944858
v 0.39710941 0.28954443 0.36603457
v 0.36585993 0.28954443 0.36603352
v 0.36585993 0.35204338 0.36603352
v 0.39711151 0.28954443 -0.36625174
v 0.36586204 0.28954443 -0.36625174
v 0.36586204 0.35204338 -0.36625174
v -0.36586638 0.35204338 0.36603247
v -0.36586638 0.28954443 0.36603247
v -0.39711586 0.28954443 0.36603247
v -0.39711480 0.28954443 -0.36625385
v -0.36586428 0.28954443 -0.36625385
v -0.36586428 0.35204338 -0.36625385
v -0.36608322 0.28954443 0.39729142
v -0.36608322 0.28954443 0.36604194
v 0.36620204 0.28954443 0.36603247
v 0.36620204 0.28954443 0.39728194
v -0.36609270 0.28954443 -0.36602122
v -0.36609375 0.28954443 -0.39727069
v 0.36619151 0.28954443 -0.39728016
v 0.36619257 0.28954443 -0.36603069
v 0.39710941 0.35204338 0.36603457
v 0.39711151 0.35204338 -0.36625174
v -0.39711586 0.35204338 0.36603247
v -0.39711480 0.35204338 -0.36625385
v -0.36608322 0.35204338 0.39729142
v -0.36608322 0.35204338 0.36604194
v 0.36620204 0.35204338 0.36603247
v 0.36620204 0.35204338 0.39728194
v -0.36609270 0.35204338 -0.36602122
v -0.36609375 0.35204338 -0.39727069
v 0.36619151 0.35204338 -0.39728016
v 0.36619257 0.35204338 -0.36603069
v 0.40806625 0.35301180 -0.36643911
v 0.40806625 -0.61639662 -0.36643911
v 0.36639993 -0.61639662 -0.36643911
v 0.36639993 0.35301180 -0.36643911
v 0.40806625 0.35301180 -0.40810543
v 0.40806625 -0.61639662 -0.40810543
v 0.36639993 -0.61639662 -0.40810543
v 0.36639993 0.35301180 -0.40810543
v -0.40806954 0.35301180 -0.36610753
v -0.40806954 -0.61639662 -0.36610753
v -0.36640322 -0.61639662 -0.36610753
v -0.36640322 0.35301180 -0.36610753
v -0.36640217 0.35301180 -0.40777385
v -0.36640217 -0.61639662 -0.40777385
v -0.40806849 -0.61639662 -0.40777385
v -0.40806849 0.35301180 -0.40777385
v 0.40806414 0.35301180 0.40778615
v 0.40806414 -0.61639662 0.40778615
v 0.36639783 -0.61639662 0.40778510
v 0.36639783 0.35301180 0.40778510
v 0.36639783 0.35301180 0.36611878
v 0.36639783 -0.61639662 0.36611878
v 0.40806414 -0.61639662 0.36611984
v 0.40806414 0.35301180 0.36611984
v -0.36640533 0.35301180 0.40811668
v -0.36640533 -0.61639662 0.40811668
v -0.40807164 -0.61639662 0.40811668
v -0.40807164 0.35301180 0.40811668
v -0.40807059 0.35301180 0.36645036
v -0.40807059 -0.61639662 0.36645036
v -0.36640428 -0.61639662 0.36645036
v -0.36640428 0.35301180 0.36645036
v 0.40310309 -0.44771978 0.40579247
v 0.40310309 -0.35397136 0.40579247
v 0.40310520 -0.35401241 -0.40577911
v 0.40310520 -0.44776083 -0.40577911
v -0.40310849 -0.35401241 -0.40578122
v -0.40310849 -0.44776083 -0.40578122
v -0.40311059 -0.35397136 0.40579036
v -0.40311059 -0.44771978 0.40579036
v 0.43749257 0.35235391 0.43750299
v 0.43749467 0.35233917 -0.43748964
v -0.43749796 0.35233917 -0.43749174
v -0.43750007 0.35235391 0.43750089
v 0.43749257 0.38360338 0.43750299
v 0.43749467 0.38358864 -0.43748964
v -0.43749796 0.38358864 -0.43749174
v -0.43750007 0.38360338 0.43750089
vn -0.57735027 0.57735027 -0.57735027
vn -0.70710678 0.00000000 -0.70710678
vn 0.70710678 0.00000000 -0.70710678
vn 0.57735027 0.57735027 -0.57735027
vn 0.57735027 0.57735027 0.57735027
vn 0.70710678 0.00000000 0.70710678
vn -0.70710678 0.00000000 0.70710678
vn -0.57735027 0.57735027 0.57735027
vn -0.57735027 0.57735027 -0.57735027
vn -0.70710678 0.00000000 -0.70710678
vn 0.70710678 0.00000000 -0.70710678
vn 0.57735027 0.57735027 -0.57735027
vn 0.57735027 0.57735027 0.57735027
vn 0.70710678 0.00000000 0.70710678
vn -0.70710678 0.00000000 0.70710678
vn -0.57735027 0.57735027 0.57735027
vn -0.57735027 0.57735027 -0.57735027
vn -0.70710678 0.00000000 -0.70710678
vn 0.70710678 0.00000000 -0.70710678
vn 0.57735027 0.57735027 -0.57735027
vn 0.57735027 0.57735027 0.57735027
vn 0.70710678 0.00000000 0.70710678
vn -0.70710678 0.00000000 0.70710678
vn -0.57735027 0.57735027 0.57735027
vn -0.57735027 0.57735027 -0.57735027
vn -0.70710678 0.00000000 -0.70710678
vn 0.70710678 0.00000000 -0.70710678
vn 0.57735027 0.57735027 -0.57735027
vn 0.57735027 0.57735027 0.57735027
vn 0.70710678 0.00000000 0.70710678
vn -0.70710678 0.00000000 0.70710678
vn -0.57735027 0.57735027 0.57735027
vn -0.57735125 0.57735051 0.57734904
vn -0.70710813 0.00000000 0.70710543
vn 0.70710566 0.00000000 0.70710791
vn 0.57734941 0.57735015 0.57735125
vn 0.57735125 0.57735051 -0.57734904
vn 0.70710813 0.00000000 -0.70710543
vn -0.70710566 0.00000000 -0.70710791
vn -0.57734941 0.57735015 -0.57735125
vn -0.57735125 0.57735051 0.57734904
vn -0.70710813 0.00000000 0.70710543
vn 0.70710566 0.00000000 0.70710791
vn 0.57734941 0.57735015 0.57735125
vn 0.57735125 0.57735051 -0.57734904
vn 0.70710813 0.00000000 -0.70710543
vn -0.70710566 0.00000000 -0.70710791
vn -0.57734941 0.57735015 -0.57735125
vn -0.57737245 0.57734672 0.57733165
vn -0.70713177 0.00000000 0.70708180
vn 0.70710566 0.00000000 0.70710791
vn 0.57734941 0.57735015 0.57735125
vn 0.57735027 0.57735027 -0.57735027
vn 0.70710678 0.00000000 -0.70710678
vn -0.70708292 0.00000000 -0.70713064
vn -0.57732895 0.57735394 -0.57736791
vn -0.57737245 0.57734672 0.57733165
vn -0.70713177 0.00000000 0.70708180
vn 0.70710566 0.00000000 0.70710791
vn 0.57734941 0.57735015 0.57735125
vn 0.57735125 0.57735051 -0.57734904
vn 0.70710813 0.00000000 -0.70710543
vn -0.70708180 0.00000000 -0.70713176
vn -0.57732822 0.57735358 -0.57736901
vn 0.70711353 -0.70710003 0.00000225
vn -0.70709980 -0.70711376 -0.00000225
vn -1.00000000 0.00000000 -0.00000318
vn 0.70710746 -0.70710611 0.00000225
vn -0.70710611 -0.70710746 -0.00000225
vn -1.00000000 0.00000000 -0.00000318
vn 1.00000000 0.00000000 0.00000255
vn 0.70710611 -0.70710746 0.00000180
vn -0.70710723 -0.70710633 -0.00000180
vn -0.70710678 -0.70710678 -0.00000180
vn 0.70710656 -0.70710701 0.00000180
vn 1.00000000 0.00000000 0.00000255
vn 0.00000900 -0.70710318 0.70711038
vn -0.00000900 -0.70711061 -0.70710295
vn -0.00000900 -0.70710386 -0.70710971
vn 0.00000900 -0.70710971 0.70710386
vn 0.00000945 -0.70711533 0.70709823
vn -0.00000900 -0.70709845 -0.70711511
vn -0.00000900 -0.70711151 -0.70710205
vn 0.00000945 -0.70710228 0.70711128
vn 1.00000000 0.00000000 0.00000318
vn 1.00000000 0.00000000 0.00000318
vn -1.00000000 0.00000000 -0.00000255
vn -1.00000000 0.00000000 -0.00000255
vn 0.00001273 0.00000000 1.00000000
vn -0.00001273 0.00000000 -1.00000000
vn -0.00001273 0.00000000 -1.00000000
vn 0.00001273 0.00000000 1.00000000
vn 0.00001337 0.00000000 1.00000000
vn -0.00001273 0.00000000 -1.00000000
vn -0.00001273 0.00000000 -1.00000000
vn 0.00001337 0.00000000 1.00000000
vn 0.70710588 0.00000000 0.70710768
vn 0.70710588 0.00000000 0.70710768
vn -0.70710768 0.00000000 0.70710588
vn -0.70710768 0.00000000 0.70710588
vn 0.70710768 0.00000000 -0.70710588
vn 0.70710768 0.00000000 -0.70710588
vn -0.70710588 0.00000000 -0.70710768
vn -0.70710588 0.00000000 -0.70710768
vn -0.70710858 0.00000000 0.70710498
vn -0.70710858 0.00000000 0.70710498
vn 0.70710498 0.00000000 0.70710858
vn 0.70710498 0.00000000 0.70710858
vn 0.70710858 0.00000000 -0.70710498
vn 0.70710858 0.00000000 -0.70710498
vn -0.70710498 0.00000000 -0.70710858
vn -0.70710498 0.00000000 -0.70710858
vn 0.70709800 0.00000000 0.70711556
vn 0.70709800 0.00000000 0.70711556
vn -0.70711578 0.00000000 0.70709778
vn -0.70711578 0.00000000 0.70709778
vn -0.70709800 0.00000000 -0.70711556
vn -0.70709800 0.00000000 -0.70711556
vn 0.70711578 0.00000000 -0.70709778
vn 0.70711578 0.00000000 -0.70709778
vn 0.70710588 0.00000000 0.70710768
vn 0.70710588 0.00000000 0.70710768
vn -0.70710768 0.00000000 0.70710588
vn -0.70710768 0.00000000 0.70710588
vn -0.70710588 0.00000000 -0.70710768
vn -0.70710588 0.00000000 -0.70710768
vn 0.70710768 0.00000000 -0.70710588
vn 0.70710768 0.00000000 -0.70710588
vn 0.57735149 -0.57733422 0.57736509
vn 0.57734623 0.57736607 0.57733851
vn 0.57735443 0.57733422 -0.57736215
vn 0.57734917 -0.57736607 -0.57733557
vn -0.57735149 0.57733422 -0.57736509
vn -0.57734623 -0.57736607 -0.57733851
vn -0.57734917 0.57736607 0.57733557
vn -0.57735443 -0.57733422 0.57736215
vn 0.57734966 -0.57734488 0.57735627
vn 0.57735088 -0.57735566 -0.57734427
vn -0.57734782 -0.57735554 -0.57734745
vn -0.57735260 -0.57734488 0.57735333
vn 0.57734806 0.57735541 0.57734733
vn 0.57735247 0.57734512 -0.57735321
vn -0.57734966 0.57734488 -0.57735627
vn -0.57735076 0.57735554 0.57734451
f 3//3 2//2 1//1
f 4//4 3//3 1//1
f 7//7 6//6 5//5
f 8//8 7//7 5//5
f 2//2 7//7 8//8
f 1//1 2//2 8//8
f 4//4 1//1 8//8
f 5//5 4//4 8//8
f 6//6 3//3 4//4
f 5//5 6//6 4//4
f 11//11 10//10 9//9
f 12//12 11//11 9//9
f 15//15 14//14 13//13
f 16//16 15//15 13//13
f 10//10 15//15 16//16
f 9//9 10//10 16//16
f 12//12 9//9 16//16
f 13//13 12//12 16//16
f 14//14 11//11 12//12
f 13//13 14//14 12//12
f 19//19 18//18 17//17
f 20//20 19//19 17//17
f 23//23 22//22 21//21
f 24//24 23//23 21//21
f 18//18 23//23 24//24
f 17//17 18//18 24//24
f 20//20 17//17 24//24
f 21//21 20//20 24//24
f 22//22 19//19 20//20
f 21//21 22//22 20//20
f 27//27 26//26 25//25
f 28//28 27//27 25//25
f 31//31 30//30 29//29
f 32//32 31//31 29//29
f 26//26 31//31 32//32
f 25//25 26//26 32//32
f 28//28 25//25 32//32
f 29//29 28//28 32//32
f 30//30 27//27 28//28
f 29//29 30//30 28//28
f 34//34 35//35 36//36
f 33//33 34//34 36//36
f 38//38 39//39 40//40
f 37//37 38//38 40//40
f 39//39 34//34 33//33
f 40//40 39//39 33//33
f 33//33 36//36 37//37
f 40//40 33//33 37//37
f 35//35 38//38 37//37
f 36//36 35//35 37//37
f 42//42 43//43 44//44
f 41//41 42//42 44//44
f 46//46 47//47 48//48
f 45//45 46//46 48//48
f 47//47 42//42 41//41
f 48//48 47//47 41//41
f 41//41 44//44 45//45
f 48//48 41//41 45//45
f 43//43 46//46 45//45
f 44//44 43//43 45//45
f 50//50 51//51 52//52
f 49//49 50//50 52//52
f 54//54 55//55 56//56
f 53//53 54//54 56//56
f 55//55 50//50 49//49
f 56//56 55//55 49//49
f 49//49 52//52 53//53
f 56//56 49//49 53//53
f 51//51 54//54 53//53
f 52//52 51//51 53//53
f 58//58 59//59 60//60
f 57//57 58//58 60//60
f 62//62 63//63 64//64
f 61//61 62//62 64//64
f 63//63 58//58 57//57
f 64//64 63//63 57//57
f 57//57 60//60 61//61
f 64//64 57//57 61//61
f 59//59 62//62 61//61
f 60//60 59//59 61//61
f 69//69 66//66 67//67
f 70//70 69//69 67//67
f 69//69 68//68 65//65
f 66//66 69//69 65//65
f 72//72 75//75 76//76
f 71//71 72//72 76//76
f 74//74 75//75 72//72
f 73//73 74//74 72//72
f 79//79 80//80 77//77
f 78//78 79//79 77//77
f 83//83 84//84 81//81
f 82//82 83//83 81//81
f 65//65 68//68 86//86
f 85//85 65//65 86//86
f 74//74 73//73 87//87
f 88//88 74//74 87//87
f 79//79 78//78 90//90
f 91//91 79//79 90//90
f 77//77 80//80 92//92
f 89//89 77//77 92//92
f 83//83 82//82 94//94
f 95//95 83//83 94//94
f 81//81 84//84 96//96
f 93//93 81//81 96//96
f 99//99 98//98 97//97
f 100//100 99//99 97//97
f 102//102 103//103 104//104
f 101//101 102//102 104//104
f 103//103 99//99 100//100
f 104//104 103//103 100//100
f 98//98 102//102 101//101
f 97//97 98//98 101//101
f 106//106 107//107 108//108
f 105//105 106//106 108//108
f 110//110 111//111 112//112
f 109//109 110//110 112//112
f 107//107 110//110 109//109
f 108//108 107//107 109//109
f 111//111 106//106 105//105
f 112//112 111//111 105//105
f 115//115 114//114 113//113
f 116//116 115//115 113//113
f 119//119 118//118 117//117
f 120//120 119//119 117//117
f 118//118 115//115 116//116
f 117//117 118//118 116//116
f 114//114 119//119 120//120
f 113//113 114//114 120//120
f 123//123 122//122 121//121
f 124//124 123//123 121//121
f 127//127 126//126 125//125
f 128//128 127//127 125//125
f 122//122 127//127 128//128
f 121//121 122//122 128//128
f 126//126 123//123 124//124
f 125//125 126//126 124//124
f 130//130 131//131 133//133
f 135//135 130//130 133//133
f 136//136 134//134 132//132
f 129//129 136//136 132//132
f 131//131 130//130 129//129
f 132//132 131//131 129//129
f 135//135 133//133 134//134
f 136//136 135//135 134//134
f 133//133 131//131 132//132
f 134//134 133//133 132//132
f 130//130 135//135 136//136
f 129//129 130//130 136//136
f 139//139 138//138 137//137
f 140//140 139//139 137//137
f 142//142 143//143 144//144
f 141//141 142//142 144//144
f 142//142 141//141 137//137
f 138//138 142//142 137//137
f 144//144 143//143 139//139
f 140//140 144//144 139//139
f 143//143 142//142 138//138
f 139//139 143//143 138//138
f 141//141 144//144 140//140
f 137//137 141//141 140//140

