# https://github.com/mikedh/trimesh
v -0.50210737 0.07760538 0.50193810
v 0.49789263 0.07760538 0.50193810
v 0.49789263 0.07760538 -0.49806190
v -0.50210737 0.07760538 -0.49806190
v -0.50210737 0.04860538 0.50193810
v 0.49789263 0.04860538 0.50193810
v 0.49789263 0.04860538 -0.49806190
v -0.50210737 0.04860538 -0.49806190
v -0.50010737 0.04860538 0.49993810
v 0.49589263 0.04860538 0.49993810
v 0.49589263 0.04860538 -0.49606190
v -0.50010737 0.04860538 -0.49606190
v -0.50010737 0.01860538 0.49993810
v 0.49589263 0.01860538 0.49993810
v 0.49589263 0.01860538 -0.49606190
v -0.50010737 0.01860538 -0.49606190
v -0.47010737 0.04860538 0.46993810
v 0.46589263 0.04860538 0.46993810
v 0.46589263 0.04860538 -0.46606190
v -0.47010737 0.04860538 -0.46606190
v -0.47010737 0.01860538 0.46993810
v 0.46589263 0.01860538 0.46993810
v 0.46589263 0.01860538 -0.46606190
v -0.47010737 0.01860538 -0.46606190
v -0.47010737 0.01860538 0.49993810
v 0.46589263 0.01860538 0.49993810
v 0.49589263 0.01860538 0.46993810
v 0.49589263 0.01860538 -0.46606190
v 0.46589263 0.01860538 -0.49606190
v -0.47010737 0.01860538 -0.49606190
v -0.50010737 0.01860538 -0.46606190
v -0.50010737 0.01860538 0.46993810
v -0.50010737 -0.78139462 0.49993810
v -0.47010737 -0.78139462 0.49993810
v -0.47010737 -0.78139462 0.46993810
v -0.50010737 -0.78139462 0.46993810
v 0.46589263 -0.78139462 0.49993810
v 0.49589263 -0.78139462 0.49993810
v 0.49589263 -0.78139462 0.46993810
v 0.46589263 -0.78139462 0.46993810
v 0.49589263 -0.78139462 -0.46606190
v 0.49589263 -0.78139462 -0.49606190
v 0.46589263 -0.78139462 -0.49606190
v 0.46589263 -0.78139462 -0.46606190
v -0.47010737 -0.78139462 -0.49606190
v -0.50010737 -0.78139462 -0.49606190
v -0.50010737 -0.78139462 -0.46606190
v -0.47010737 -0.78139462 -0.46606190
vn -0.57735027 0.57735027 0.57735027
vn 0.57735027 0.57735027 0.57735027
vn 0.57735027 0.57735027 -0.57735027
vn -0.57735027 0.57735027 -0.57735027
vn -0.57735027 -0.57735027 0.57735027
vn 0.57735027 -0.57735027 0.57735027
vn 0.57735027 -0.57735027 -0.57735027
vn -0.57735027 -0.57735027 -0.57735027
vn -0.70710678 0.00000000 0.70710678
vn 0.70710678 0.00000000 0.70710678
vn 0.70710678 0.00000000 -0.70710678
vn -0.70710678 0.00000000 -0.70710678
vn -0.66666669 0.33333324 0.66666669
vn 0.66666669 0.33333324 0.66666669
vn 0.66666669 0.33333324 -0.66666669
vn -0.66666669 0.33333324 -0.66666669
vn 0.70710678 0.00000000 -0.70710678
vn -0.70710678 0.00000000 -0.70710678
vn -0.70710678 0.00000000 0.70710678
vn 0.70710678 0.00000000 0.70710678
vn 0.53905452 0.79904833 -0.26634939
vn -0.48507128 0.72760684 -0.48507128
vn -0.48507128 0.72760684 0.48507128
vn 0.48507128 0.72760684 0.48507128
vn 0.70710678 0.00000000 0.70710678
vn -0.70710678 0.00000000 0.70710678
vn 0.70710678 0.00000000 -0.70710678
vn 0.70710678 0.00000000 0.70710678
vn -0.70710678 0.00000000 -0.70710678
vn 0.70710678 0.00000000 -0.70710678
vn -0.70710678 0.00000000 0.70710678
vn -1.00000000 0.00000000 0.00000000
vn -0.70710678 0.00000000 0.70710678
vn 0.89226200 0.00000000 0.45151801
vn 1.00000000 0.00000000 0.00000000
vn -1.00000000 0.00000000 0.00000000
vn -0.70710678 0.00000000 0.70710678
vn 0.70710678 0.00000000 0.70710678
vn 0.70710678 0.00000000 -0.70710678
vn -0.70710678 0.00000000 -0.70710678
vn 0.70710678 0.00000000 0.70710678
vn 0.70710678 0.00000000 -0.70710678
vn -0.70710678 0.00000000 -0.70710678
vn -0.70710678 0.00000000 0.70710678
vn 0.70710678 0.00000000 -0.70710678
vn -0.70710678 0.00000000 -0.70710678
vn -0.70710678 0.00000000 0.70710678
vn 0.70710678 0.00000000 0.70710678
f 1//1 2//2 3//3
f 5//5 8//8 7//7
f 1//1 5//5 6//6
f 2//2 6//6 7//7
f 3//3 7//7 8//8
f 4//4 8//8 5//5
f 9//9 13//13 14//14
f 10//10 14//14 15//15
f 11//11 15//15 16//16
f 12//12 16//16 13//13
f 17//17 18//18 22//22
f 18//18 19//19 23//23
f 19//19 20//20 24//24
f 20//20 17//17 21//21
f 13//13 14//14 22//22
f 14//14 15//15 23//23
f 15//15 16//16 24//24
f 16//16 13//13 21//21
f 13//13 33//33 34//34
f 25//25 34//34 35//35
f 21//21 34//34 35//35
f 32//32 36//36 33//33
f 26//26 37//37 38//38
f 14//14 38//38 39//39
f 27//27 39//39 40//40
f 22//22 40//40 37//37
f 23//23 44//44 41//41
f 28//28 41//41 42//42
f 15//15 42//42 43//43
f 29//29 43//43 44//44
f 31//31 47//47 48//48
f 24//24 48//48 45//45
f 30//30 45//45 46//46
f 16//16 46//46 47//47
f 1//1 3//3 4//4
f 5//5 7//7 6//6
f 1//1 6//6 2//2
f 2//2 7//7 3//3
f 3//3 8//8 4//4
f 4//4 5//5 1//1
f 9//9 14//14 10//10
f 10//10 15//15 11//11
f 11//11 16//16 12//12
f 12//12 13//13 9//9
f 17//17 22//22 21//21
f 18//18 23//23 22//22
f 19//19 24//24 23//23
f 20//20 21//21 24//24
f 13//13 22//22 21//21
f 14//14 23//23 22//22
f 15//15 24//24 23//23
f 16//16 21//21 24//24
f 13//13 34//34 25//25
f 25//25 35//35 21//21
f 32//32 33//33 13//13
f 26//26 38//38 14//14
f 14//14 39//39 27//27
f 27//27 40//40 22//22
f 22//22 37//37 26//26
f 23//23 41//41 28//28
f 28//28 42//42 15//15
f 15//15 43//43 29//29
f 29//29 44//44 23//23
f 31//31 48//48 24//24
f 24//24 45//45 30//30
f 30//30 46//46 16//16
f 16//16 47//47 31//31

