# https://github.com/mikedh/trimesh
v 0.35961574 0.09986377 -0.42663294
v 0.41674311 0.09986377 -0.42663294
v 0.41674311 -0.85769834 -0.42663294
v 0.38409890 -0.85769834 -0.42663294
v 0.38409890 -0.85769834 -0.38990873
v 0.35961574 0.09986377 -0.36542557
v 0.41674311 0.09986377 -0.36542557
v 0.41674311 -0.85769834 -0.38990873
v -0.35983268 0.09986377 0.41940285
v -0.41696005 0.09986377 0.41942600
v -0.41696005 -0.85769834 0.41942600
v -0.38431584 -0.85769834 0.41941337
v -0.38433057 -0.85769834 0.38268811
v -0.35985794 0.09986377 0.35819548
v -0.41698531 0.09986377 0.35821864
v -0.41697478 -0.85769834 0.38270179
v 0.42217995 0.09986377 0.36230916
v 0.42216838 0.09986377 0.41943653
v 0.42216838 -0.85769834 0.41943653
v 0.42217469 -0.85769834 0.38679232
v 0.38545048 -0.85769834 0.38678495
v 0.36097259 0.09986377 0.36229653
v 0.36096101 0.09986377 0.41942390
v 0.38544311 -0.85769834 0.41942916
v -0.42112847 0.09986377 -0.36402347
v -0.42114005 0.09986377 -0.42115084
v -0.42114005 -0.85769834 -0.42115084
v -0.42113268 -0.85769834 -0.38850663
v -0.38440847 -0.85769834 -0.38851400
v -0.35992005 0.09986377 -0.36403610
v -0.35993162 0.09986377 -0.42116347
v -0.38441478 -0.85769834 -0.42115821
v -0.34948847 -0.03216360 -0.39942978
v 0.37593785 -0.03216360 -0.39942978
v 0.37593785 0.10385429 -0.39942978
v -0.34948847 0.10385429 -0.39942978
v -0.34948847 -0.03216360 -0.36315821
v 0.37593785 -0.03216360 -0.36315821
v 0.37593785 0.10385429 -0.36315821
v -0.34948847 0.10385429 -0.36315821
v -0.40389478 -0.03216360 -0.37585400
v -0.36762320 -0.03216360 -0.37585400
v -0.36762320 0.10385429 -0.37585400
v -0.40389478 0.10385429 -0.37585400
v -0.40389478 -0.03216360 0.36770811
v -0.36762320 -0.03216360 0.36770811
v -0.36762320 0.10385429 0.36770811
v -0.40389478 0.10385429 0.36770811
v -0.36218320 -0.03216360 0.36770811
v 0.36324311 -0.03216360 0.36770811
v 0.36324311 0.10385429 0.36770811
v -0.36218320 0.10385429 0.36770811
v -0.36218320 -0.03216360 0.40397969
v 0.36324311 -0.03216360 0.40397969
v 0.36324311 0.10385429 0.40397969
v -0.36218320 0.10385429 0.40397969
v 0.36324311 -0.03216360 -0.37585400
v 0.39951469 -0.03216360 -0.37585400
v 0.39951469 0.10385429 -0.37585400
v 0.36324311 0.10385429 -0.37585400
v 0.39951469 -0.03216360 0.36770811
v 0.39951469 0.10385429 0.36770811
v 0.42445259 0.14230166 -0.44192768
v 0.43569259 0.13142061 -0.46095400
v -0.43885162 0.13142061 -0.46077610
v -0.42760320 0.14230166 -0.44175400
v -0.43866320 0.13142061 0.46401443
v -0.42742320 0.14230166 0.44498811
v 0.43588101 0.13142061 0.46383653
v 0.42463259 0.14230166 0.44481443
v 0.43569259 0.10965745 -0.46095400
v 0.42445259 0.09877640 -0.44192768
v -0.42760320 0.09877640 -0.44175400
v -0.43885162 0.10965745 -0.46077610
v -0.42742320 0.09877640 0.44498811
v -0.43866320 0.10965745 0.46401443
v 0.42463259 0.09877640 0.44481443
v 0.43588101 0.10965745 0.46383653
vn -0.58535559 0.57058044 -0.57601805
vn 0.57735027 0.57735027 -0.57735027
vn 0.57735027 -0.57735027 -0.57735027
vn -0.56925341 -0.58399441 -0.57870639
vn -0.57052980 -0.59075503 0.57052980
vn -0.58394314 0.56393335 0.58394314
vn 0.57601805 0.57058044 0.58535559
vn 0.57870639 -0.58399441 0.56925341
vn 0.58559140 0.57058023 0.57577854
vn -0.57711537 0.57735060 0.57758474
vn -0.57711954 -0.57735110 0.57758008
vn 0.56948354 -0.58399306 0.57848130
vn 0.57029412 -0.59075438 -0.57076604
vn 0.58370405 0.56393363 -0.58418186
vn -0.57625587 0.57058043 -0.58512149
vn -0.57894213 -0.58399450 -0.56901357
vn 0.57613747 0.57058059 -0.58523791
vn 0.57723215 0.57735014 0.57746849
vn 0.57723656 -0.57734977 0.57746445
vn 0.57881813 -0.58399484 -0.56913935
vn -0.57040736 -0.59075637 -0.57065082
vn -0.58382343 0.56393345 -0.58406272
vn -0.58547309 0.57058094 0.57589813
vn -0.56937747 -0.58399288 0.57858587
vn -0.57589762 0.57058041 0.58547411
vn -0.57746788 0.57735026 -0.57723264
vn -0.57746763 -0.57735038 -0.57723277
vn -0.57859077 -0.58399444 0.56937089
vn 0.57064574 -0.59075513 0.57041372
vn 0.58406308 0.56393348 0.58382304
vn 0.58523828 0.57058058 -0.57613710
vn 0.56913579 -0.58399425 -0.57882223
vn -0.57735027 -0.57735027 -0.57735027
vn 0.57735027 -0.57735027 -0.57735027
vn 0.57735027 0.57735027 -0.57735027
vn -0.57735027 0.57735027 -0.57735027
vn -0.57735027 -0.57735027 0.57735027
vn 0.57735027 -0.57735027 0.57735027
vn 0.57735027 0.57735027 0.57735027
vn -0.57735027 0.57735027 0.57735027
vn -0.57735027 -0.57735027 -0.57735027
vn 0.57735027 -0.57735027 -0.57735027
vn 0.57735027 0.57735027 -0.57735027
vn -0.57735027 0.57735027 -0.57735027
vn -0.57735027 -0.57735027 0.57735027
vn 0.57735027 -0.57735027 0.57735027
vn 0.57735027 0.57735027 0.57735027
vn -0.57735027 0.57735027 0.57735027
vn -0.57735027 -0.57735027 -0.57735027
vn 0.00000000 -1.00000000 0.00000000
vn 0.00000000 1.00000000 0.00000000
vn -0.57735027 0.57735027 -0.57735027
vn -0.57735027 -0.57735027 0.57735027
vn 0.57735027 -0.57735027 0.57735027
vn 0.57735027 0.57735027 0.57735027
vn -0.57735027 0.57735027 0.57735027
vn -0.57735027 -0.57735027 -0.57735027
vn 0.57735027 -0.57735027 -0.57735027
vn 0.57735027 0.57735027 -0.57735027
vn -0.57735027 0.57735027 -0.57735027
vn 0.57735027 -0.57735027 0.57735027
vn 0.57735027 0.57735027 0.57735027
vn 0.31123601 0.93209427 -0.18529011
vn 0.62443105 0.44086503 -0.64476653
vn -0.62469383 0.44086561 -0.64451155
vn -0.31130578 0.93209594 -0.18516444
vn -0.62443200 0.44086454 0.64476595
vn -0.31122857 0.93209603 0.18529371
vn 0.62469375 0.44086754 0.64451030
vn 0.31129749 0.93209882 0.18516389
vn 0.62443093 -0.44086494 -0.64476671
vn 0.31123562 -0.93209436 -0.18529027
vn -0.31130595 -0.93209592 -0.18516426
vn -0.62469383 -0.44086561 -0.64451155
vn -0.31122857 -0.93209603 0.18529371
vn -0.62443200 -0.44086454 0.64476595
vn 0.31129710 -0.93209892 0.18516406
vn 0.62469375 -0.44086754 0.64451030
f 1//1 2//2 3//3
f 5//5 6//6 1//1
f 1//1 6//6 7//7
f 6//6 5//5 8//8
f 7//7 8//8 3//3
f 3//3 8//8 5//5
f 9//9 10//10 11//11
f 13//13 14//14 9//9
f 9//9 14//14 15//15
f 14//14 13//13 16//16
f 15//15 16//16 11//11
f 11//11 16//16 13//13
f 17//17 18//18 19//19
f 21//21 22//22 17//17
f 17//17 22//22 23//23
f 22//22 21//21 24//24
f 23//23 24//24 19//19
f 19//19 24//24 21//21
f 25//25 26//26 27//27
f 29//29 30//30 25//25
f 25//25 30//30 31//31
f 30//30 29//29 32//32
f 31//31 32//32 27//27
f 27//27 32//32 29//29
f 33//33 36//36 34//34
f 34//34 36//36 35//35
f 33//33 38//38 37//37
f 33//33 34//34 38//38
f 33//33 37//37 36//36
f 36//36 37//37 40//40
f 36//36 40//40 39//39
f 36//36 39//39 35//35
f 34//34 39//39 38//38
f 34//34 35//35 39//39
f 38//38 40//40 37//37
f 38//38 39//39 40//40
f 41//41 44//44 42//42
f 42//42 44//44 43//43
f 41//41 46//46 45//45
f 41//41 42//42 46//46
f 41//41 45//45 44//44
f 44//44 45//45 48//48
f 44//44 48//48 47//47
f 44//44 47//47 43//43
f 42//42 47//47 46//46
f 42//42 43//43 47//47
f 46//46 48//48 45//45
f 46//46 47//47 48//48
f 49//49 52//52 50//50
f 50//50 52//52 51//51
f 49//49 54//54 53//53
f 49//49 50//50 54//54
f 49//49 53//53 52//52
f 52//52 53//53 56//56
f 52//52 56//56 55//55
f 52//52 55//55 51//51
f 50//50 55//55 54//54
f 50//50 51//51 55//55
f 54//54 56//56 53//53
f 54//54 55//55 56//56
f 57//57 60//60 58//58
f 58//58 60//60 59//59
f 57//57 61//61 50//50
f 57//57 58//58 61//61
f 57//57 50//50 60//60
f 60//60 50//50 51//51
f 60//60 51//51 62//62
f 60//60 62//62 59//59
f 58//58 62//62 61//61
f 58//58 59//59 62//62
f 61//61 51//51 50//50
f 61//61 62//62 51//51
f 63//63 64//64 65//65
f 66//66 65//65 67//67
f 68//68 67//67 69//69
f 70//70 69//69 64//64
f 71//71 72//72 73//73
f 74//74 73//73 75//75
f 76//76 75//75 77//77
f 78//78 77//77 72//72
f 71//71 74//74 65//65
f 74//74 76//76 67//67
f 76//76 78//78 69//69
f 78//78 71//71 64//64
f 63//63 66//66 68//68
f 77//77 75//75 73//73
f 1//1 3//3 4//4
f 5//5 1//1 4//4
f 1//1 7//7 2//2
f 6//6 8//8 7//7
f 7//7 3//3 2//2
f 3//3 5//5 4//4
f 9//9 11//11 12//12
f 13//13 9//9 12//12
f 9//9 15//15 10//10
f 14//14 16//16 15//15
f 15//15 11//11 10//10
f 11//11 13//13 12//12
f 17//17 19//19 20//20
f 21//21 17//17 20//20
f 17//17 23//23 18//18
f 22//22 24//24 23//23
f 23//23 19//19 18//18
f 19//19 21//21 20//20
f 25//25 27//27 28//28
f 29//29 25//25 28//28
f 25//25 31//31 26//26
f 30//30 32//32 31//31
f 31//31 27//27 26//26
f 27//27 29//29 28//28
f 63//63 65//65 66//66
f 66//66 67//67 68//68
f 68//68 69//69 70//70
f 70//70 64//64 63//63
f 71//71 73//73 74//74
f 74//74 75//75 76//76
f 76//76 77//77 78//78
f 78//78 72//72 71//71
f 71//71 65//65 64//64
f 74//74 67//67 65//65
f 76//76 69//69 67//67
f 78//78 64//64 69//69
f 63//63 68//68 70//70
f 77//77 73//73 72//72

