# https://github.com/mikedh/trimesh
v 0.04336193 0.05146975 0.04697035
v 0.10541245 0.04187396 0.01629140
v -0.08432755 0.03965185 -0.04521913
v -0.06689702 0.05022448 0.01105350
v -0.03707281 0.06094975 0.18647561
v -0.11620123 0.06142764 0.07708929
v -0.07712650 0.06966238 0.32058298
v -0.17027702 0.07279290 0.16877456
v -0.06551176 0.03851711 0.63501350
v -0.17139492 0.06975922 0.35102929
v 0.07794403 0.00184343 -0.06178544
v 0.06968719 -0.13407025 -0.17876755
v -0.04006755 -0.08034289 -0.17944650
v -0.03115386 -0.00104394 -0.09073176
v 0.11541035 0.02354343 -0.01980123
v -0.07857492 0.03112869 -0.06564228
v 0.10197245 -0.24473657 -0.25669807
v -0.03730439 -0.14613341 -0.23638439
v 0.18653561 -0.45586499 -0.36498650
v 0.02052824 -0.24904710 -0.28953176
v -0.17764755 0.06558343 -0.06814860
v -0.17695492 0.03766659 -0.07737071
v -0.16793386 0.04680027 -0.10434439
v -0.08887597 0.00141606 -0.03443702
v -0.07276018 0.03825606 -0.07750228
v -0.08397807 0.05994659 -0.03570228
v -0.01593071 -0.03214289 -0.00559702
v 0.01898614 0.00321396 -0.11000860
v -0.01861492 0.07592132 0.03010193
v 0.08772508 -0.02266815 0.02437035
v 0.10862298 0.01903501 -0.03298755
v 0.09237140 0.05045922 0.02756719
v 0.30946824 -0.01350499 0.07596087
v 0.31675140 -0.00613025 0.05417982
v 0.30890824 0.00903711 0.08340824
v 0.56839350 -0.00833447 0.14496403
v -0.25329386 0.01975501 -0.07488544
v -0.22378439 0.05915185 -0.12306544
v -0.23447176 0.07516027 -0.08710965
v -0.07826860 0.15588869 -0.11155386
v -0.38119176 -0.00816815 -0.09521176
vn 0.05136515 0.98674511 -0.15393413
vn 0.05300903 0.97859130 -0.19886956
vn 0.05387341 0.97830756 -0.20002992
vn 0.04534116 0.98382474 -0.17330049
vn 0.06349225 0.99711605 -0.04157307
vn 0.06698967 0.99550198 -0.06699396
vn 0.03694232 0.99883469 0.03105690
vn 0.09522951 0.99473281 -0.03792072
vn 0.03245777 0.99472251 0.09733248
vn 0.02073917 0.99791990 0.06103897
vn 0.16131245 0.78291151 -0.60085594
vn -0.34240680 -0.61790989 0.70777465
vn 0.13425662 0.69718554 -0.70420698
vn 0.16604141 0.74800995 -0.64258179
vn 0.14414689 0.80419631 -0.57661942
vn 0.17858720 0.75513414 -0.63077654
vn -0.29849680 -0.55478501 0.77660366
vn -0.31072732 -0.60813601 0.73049238
vn -0.29369569 -0.52675838 0.79766437
vn -0.28769708 -0.54785072 0.78555075
vn -0.07436347 0.22724227 0.97099486
vn -0.18755668 -0.88962932 0.41639185
vn 0.43465668 -0.61187110 -0.66082322
vn -0.56618804 -0.73692695 0.36928278
vn -0.02508623 0.27341566 -0.96156880
vn -0.22270680 0.88048699 0.41850249
vn -0.26561856 -0.89098864 0.36822008
vn 0.24936814 -0.14070545 -0.95813230
vn -0.27688281 0.72836627 0.62675233
vn 0.01109716 -0.89354142 0.44884361
vn 0.46134530 0.10056504 -0.88150280
vn 0.13387885 0.84101089 0.52419189
vn -0.11348393 -0.88523441 0.45108916
vn 0.40455048 -0.10001058 -0.90903069
vn -0.07184285 0.73149694 0.67804928
vn 0.96091400 -0.01800073 0.27626121
vn 0.07242683 -0.76622593 0.63847645
vn -0.22057803 0.01501634 -0.97525373
vn -0.45329380 0.79060962 0.41165660
vn 0.77453411 0.62245130 -0.11247798
vn -0.92904944 -0.36969040 -0.01400524
f 1//1 2//2 3//3
f 3//3 4//4 1//1
f 4//4 6//6 1//1
f 6//6 5//5 1//1
f 5//5 6//6 7//7
f 6//6 8//8 7//7
f 7//7 10//10 9//9
f 7//7 8//8 10//10
f 11//11 12//12 13//13
f 13//13 14//14 11//11
f 15//15 11//11 14//14
f 14//14 16//16 15//15
f 17//17 20//20 19//19
f 17//17 18//18 20//20
f 12//12 18//18 17//17
f 12//12 13//13 18//18
f 22//22 23//23 25//25
f 21//21 22//22 24//24
f 23//23 21//21 26//26
f 24//24 25//25 28//28
f 26//26 24//24 27//27
f 25//25 26//26 29//29
f 27//27 28//28 31//31
f 29//29 27//27 30//30
f 28//28 29//29 32//32
f 30//30 31//31 34//34
f 32//32 30//30 33//33
f 31//31 32//32 35//35
f 36//36 35//35 33//33
f 36//36 33//33 34//34
f 35//35 36//36 34//34
f 23//23 22//22 37//37
f 22//22 21//21 39//39
f 40//40 23//23 38//38
f 40//40 21//21 23//23
f 21//21 40//40 39//39
f 40//40 38//38 39//39
f 39//39 41//41 37//37
f 41//41 38//38 37//37
f 39//39 38//38 41//41
f 22//22 25//25 24//24
f 21//21 24//24 26//26
f 23//23 26//26 25//25
f 24//24 28//28 27//27
f 26//26 27//27 29//29
f 25//25 29//29 28//28
f 27//27 31//31 30//30
f 29//29 30//30 32//32
f 28//28 32//32 31//31
f 30//30 34//34 33//33
f 32//32 33//33 35//35
f 31//31 35//35 34//34
f 23//23 37//37 38//38
f 22//22 39//39 37//37

