# https://github.com/mikedh/trimesh
v -0.00027173 0.33028594 0.19836556
v -0.07687594 0.30467436 0.19836556
v -0.05443909 0.30467436 0.26443925
v -0.00027173 0.30467436 0.29180767
v 0.05389670 0.30467436 0.26443925
v 0.07633354 0.30467436 0.19836556
v 0.05389670 0.30467436 0.13229188
v -0.00027173 0.30467436 0.10492346
v -0.05443909 0.30467436 0.13229188
v -0.10860646 0.24285015 0.19836556
v -0.07687594 0.23832068 0.30771819
v -0.00027173 0.23832068 0.35538451
v 0.07633354 0.23832068 0.30771819
v 0.10806301 0.24285015 0.19836556
v 0.07633248 0.24285015 0.10492346
v -0.00027173 0.24284594 0.06621819
v -0.07687594 0.24285015 0.10492346
v -0.07687594 0.16397542 0.19836556
v -0.05443909 0.15944910 0.28431714
v -0.00027173 0.15944910 0.30771819
v 0.05389670 0.15944910 0.28431714
v 0.07633354 0.16397542 0.19836556
v 0.05389670 0.16397542 0.13229188
v -0.00027173 0.16397542 0.10492346
v -0.05443909 0.16397542 0.13229188
v -0.00027173 -0.06746669 -0.41705760
v -0.07687594 0.08978805 0.15551293
v -0.05443909 0.08030699 0.22090240
v -0.00027173 0.07638068 0.24798767
v 0.05389670 0.08030699 0.22090240
v 0.07633354 0.08978805 0.15551293
v 0.05389670 0.09926910 0.09012240
v -0.00027173 0.10319647 0.06303714
v -0.05443909 0.09926910 0.09012240
v -0.10549699 0.02651647 0.14097609
v -0.09646962 -0.05096143 0.23450451
v -0.00027173 -0.08866669 0.27197503
v 0.09592722 -0.05096143 0.23450451
v 0.10495459 0.02651647 0.14097609
v 0.07413459 0.08176805 0.03262872
v -0.00027173 0.10465331 -0.01225128
v -0.07467699 0.08176805 0.03262872
v -0.18035488 -0.04584353 0.05345819
v -0.09876225 -0.17796143 0.12354346
v -0.00027173 -0.22040879 0.17098872
v 0.09821985 -0.17796037 0.12354346
v 0.17981248 -0.04584353 0.05345819
v 0.09821985 0.05663647 -0.06108391
v -0.00027173 0.09908384 -0.10852918
v -0.09876225 0.05663542 -0.06108391
v -0.20082330 -0.08315511 -0.08131128
v -0.14208330 -0.20575511 -0.04030707
v -0.00027173 -0.23738037 -0.02332286
v 0.14153985 -0.20575511 -0.04030707
v 0.20027985 -0.08315511 -0.08131128
v 0.10941354 0.04685542 -0.12231549
v -0.00027173 0.10070805 -0.13930075
v -0.10995699 0.04685542 -0.12231549
v -0.18360646 -0.07442879 -0.23116181
v -0.12990857 -0.18560143 -0.22164075
v -0.00027173 -0.23165090 -0.21769760
v 0.12936512 -0.18560143 -0.22164075
v 0.18306301 -0.07442879 -0.23116181
v 0.09999775 0.03674278 -0.24068286
v -0.00027173 0.08279331 -0.24462707
v -0.10054015 0.03674278 -0.24068286
v -0.13410541 -0.07740774 -0.33259865
v -0.09490646 -0.15856458 -0.31726812
v -0.00027173 -0.19217932 -0.31091865
v 0.09436301 -0.15856458 -0.31726812
v 0.13356301 -0.07740774 -0.33259865
v 0.07292512 0.00374699 -0.34792707
v -0.00027173 0.03736278 -0.35427654
v -0.07346752 0.00374699 -0.34792707
v -0.00027173 0.07744594 -0.49581865
v -0.07690857 0.21324068 0.35435714
v -0.00029383 0.22403857 0.44264240
v 0.07630091 0.21324068 0.35435714
v -0.05447173 0.15944910 0.31694346
v -0.00029909 0.17058278 0.39540977
v 0.05386406 0.15944910 0.31694346
v -0.05777067 0.22967015 0.42268556
v -0.00030752 0.22458910 0.47007609
v 0.05713880 0.22967015 0.42268556
v -0.04523804 0.17058278 0.39961714
v -0.00031594 0.17429331 0.42301819
v 0.04459670 0.17058278 0.39961714
v -0.04950015 0.22618278 0.45688872
v -0.00031909 0.22353121 0.50418135
v 0.04883670 0.22618278 0.45688872
v -0.03896015 0.17429331 0.43400767
v -0.00033173 0.18542699 0.45740767
v 0.03828301 0.17429331 0.43400767
vn -0.00000228 1.00000000 0.00000000
vn -0.68981512 0.72396787 -0.00506147
vn -0.51005538 0.76830661 0.38671496
vn 0.01528835 0.81904646 0.57352346
vn 0.51294074 0.76103187 0.39714266
vn 0.69222660 0.72168021 -0.00000019
vn 0.51620622 0.73730802 -0.43578439
vn 0.00000154 0.75357209 -0.65736527
vn -0.51620449 0.73731248 -0.43577888
vn -0.99843174 0.05080697 -0.02350989
vn -0.87930473 0.30683069 0.36425007
vn 0.07533486 0.91098530 0.40550023
vn 0.86601014 0.29845954 0.40118368
vn 0.99860007 0.05002673 -0.01718208
vn 0.74380706 0.04424251 -0.66692853
vn 0.00000347 0.04555104 -0.99896201
vn -0.74381177 0.04424382 -0.66692318
vn -0.97352191 -0.22841853 0.00894826
vn -0.74640908 -0.57770644 0.33034641
vn 0.02778647 -0.91165381 0.41001859
vn 0.73662875 -0.57393089 0.35774489
vn 0.97797111 -0.20851364 0.00972516
vn 0.79961126 -0.03237908 -0.59964442
vn -0.00491080 0.08219220 -0.99660440
vn -0.79979243 -0.04100169 -0.59887472
vn -0.00000212 -0.35258277 -0.93578063
vn -0.97149980 0.23702918 0.00230290
vn -0.78224102 -0.05697170 0.62036538
vn -0.00676101 -0.24150938 0.97037493
vn 0.78228434 -0.04773510 0.62108983
vn 0.96700055 0.25044602 0.04676248
vn 0.57695965 0.74824005 -0.32749715
vn -0.06556199 0.92414398 -0.37637684
vn -0.67651336 0.65212699 -0.34214041
vn -0.90956468 0.34023605 0.23860328
vn -0.76284157 -0.06551177 0.64325808
vn 0.00391236 -0.30362807 0.95278260
vn 0.70111313 -0.07603729 0.70898428
vn 0.86890475 0.43806125 0.23044928
vn 0.62702372 0.77736619 -0.05042876
vn -0.03478883 0.99739239 -0.06323106
vn -0.56637824 0.82377636 -0.02466178
vn -0.93717903 0.16024938 0.30986386
vn -0.68670164 -0.61156540 0.39297406
vn -0.00956859 -0.85020235 0.52636908
vn 0.68599088 -0.59538675 0.41824768
vn 0.96089859 0.15981311 0.22612757
vn 0.62374065 0.78142460 -0.01797789
vn -0.02439601 0.99967827 -0.00694169
vn -0.62752606 0.77792283 -0.03235917
vn -0.99917127 0.04045827 0.00446055
vn -0.64565363 -0.75719780 0.09890846
vn -0.01276542 -0.99894162 0.04418928
vn 0.65569006 -0.75171211 0.07070671
vn 0.99961247 0.02776299 0.00203172
vn 0.66258506 0.74496445 -0.07751773
vn -0.00288073 0.99762293 -0.06884905
vn -0.66072201 0.74897614 -0.04981121
vn -0.95857709 0.07659271 -0.27434197
vn -0.63873387 -0.72211628 -0.26564474
vn 0.01370500 -0.97635108 -0.21575621
vn 0.63313629 -0.73507781 -0.24248515
vn 0.96282708 0.08373164 -0.25681323
vn 0.62609449 0.74401361 -0.23334402
vn 0.00447468 0.96350675 -0.26764662
vn -0.62459076 0.73991991 -0.24980974
vn -0.78037657 -0.00429815 -0.62529508
vn -0.49477496 -0.64546668 -0.58186811
vn -0.00266600 -0.82749250 -0.56147045
vn 0.48760687 -0.64589398 -0.58741851
vn 0.77400162 -0.00687510 -0.63314629
vn 0.68282411 0.54408379 -0.48756955
vn -0.00204637 0.99886152 -0.04766000
vn -0.68613286 0.54491915 -0.48195935
vn -0.00000149 0.57292349 -0.81960885
vn -0.94513218 0.10082092 0.31074155
vn -0.08867155 0.99600738 0.01032749
vn 0.93744899 0.26502186 0.22572726
vn -0.54466697 -0.83418494 0.08644872
vn 0.00175691 -0.99168544 0.12867365
vn 0.50568582 -0.86240083 0.02338060
vn -0.68170732 0.73050235 -0.04051481
vn 0.00708032 0.99995632 0.00610152
vn 0.70692705 0.70528720 0.05314231
vn -0.59692647 -0.78178415 0.18025629
vn 0.04857884 -0.97355194 0.22324140
vn 0.54114180 -0.80766921 0.23417089
vn -0.72180831 0.40594999 0.56053312
vn -0.04842810 0.24839906 0.96744645
vn 0.72606150 0.47549324 0.49673019
vn -0.50475501 -0.75497356 0.41861354
vn -0.10891734 -0.81319237 0.57171251
vn 0.45511045 -0.82696095 0.33016673
f 1//1 2//2 3//3
f 1//1 3//3 4//4
f 1//1 4//4 5//5
f 1//1 5//5 6//6
f 1//1 6//6 7//7
f 1//1 7//7 8//8
f 1//1 8//8 9//9
f 1//1 9//9 2//2
f 2//2 10//10 11//11
f 2//2 11//11 3//3
f 3//3 11//11 12//12
f 3//3 12//12 4//4
f 4//4 12//12 13//13
f 4//4 13//13 5//5
f 5//5 13//13 14//14
f 5//5 14//14 6//6
f 6//6 14//14 15//15
f 6//6 15//15 7//7
f 7//7 15//15 16//16
f 7//7 16//16 8//8
f 8//8 16//16 17//17
f 8//8 17//17 9//9
f 9//9 17//17 10//10
f 9//9 10//10 2//2
f 10//10 18//18 19//19
f 10//10 19//19 11//11
f 13//13 21//21 22//22
f 13//13 22//22 14//14
f 14//14 22//22 23//23
f 14//14 23//23 15//15
f 15//15 23//23 24//24
f 15//15 24//24 16//16
f 16//16 24//24 25//25
f 16//16 25//25 17//17
f 17//17 25//25 18//18
f 17//17 18//18 10//10
f 26//26 72//72 71//71
f 26//26 71//71 70//70
f 26//26 70//70 69//69
f 26//26 69//69 68//68
f 26//26 68//68 67//67
f 26//26 67//67 74//74
f 34//34 25//25 24//24
f 24//24 33//33 34//34
f 33//33 24//24 23//23
f 23//23 32//32 33//33
f 32//32 23//23 22//22
f 22//22 31//31 32//32
f 31//31 22//22 21//21
f 21//21 30//30 31//31
f 30//30 21//21 20//20
f 20//20 29//29 30//30
f 29//29 20//20 19//19
f 19//19 28//28 29//29
f 28//28 19//19 18//18
f 18//18 27//27 28//28
f 27//27 18//18 25//25
f 25//25 34//34 27//27
f 42//42 34//34 33//33
f 33//33 41//41 42//42
f 41//41 33//33 32//32
f 32//32 40//40 41//41
f 40//40 32//32 31//31
f 31//31 39//39 40//40
f 39//39 31//31 30//30
f 30//30 38//38 39//39
f 38//38 30//30 29//29
f 29//29 37//37 38//38
f 37//37 29//29 28//28
f 28//28 36//36 37//37
f 36//36 28//28 27//27
f 27//27 35//35 36//36
f 35//35 27//27 34//34
f 34//34 42//42 35//35
f 50//50 42//42 41//41
f 41//41 49//49 50//50
f 49//49 41//41 40//40
f 40//40 48//48 49//49
f 48//48 40//40 39//39
f 39//39 47//47 48//48
f 47//47 39//39 38//38
f 38//38 46//46 47//47
f 46//46 38//38 37//37
f 37//37 45//45 46//46
f 45//45 37//37 36//36
f 36//36 44//44 45//45
f 44//44 36//36 35//35
f 35//35 43//43 44//44
f 43//43 35//35 42//42
f 42//42 50//50 43//43
f 58//58 50//50 49//49
f 49//49 57//57 58//58
f 57//57 49//49 48//48
f 48//48 56//56 57//57
f 56//56 48//48 47//47
f 47//47 55//55 56//56
f 55//55 47//47 46//46
f 46//46 54//54 55//55
f 54//54 46//46 45//45
f 45//45 53//53 54//54
f 53//53 45//45 44//44
f 44//44 52//52 53//53
f 52//52 44//44 43//43
f 43//43 51//51 52//52
f 51//51 43//43 50//50
f 50//50 58//58 51//51
f 66//66 58//58 57//57
f 57//57 65//65 66//66
f 65//65 57//57 56//56
f 56//56 64//64 65//65
f 64//64 56//56 55//55
f 55//55 63//63 64//64
f 63//63 55//55 54//54
f 54//54 62//62 63//63
f 62//62 54//54 53//53
f 53//53 61//61 62//62
f 61//61 53//53 52//52
f 52//52 60//60 61//61
f 60//60 52//52 51//51
f 51//51 59//59 60//60
f 59//59 51//51 58//58
f 58//58 66//66 59//59
f 74//74 66//66 65//65
f 65//65 73//73 74//74
f 73//73 65//65 64//64
f 64//64 72//72 73//73
f 72//72 64//64 63//63
f 63//63 71//71 72//72
f 71//71 63//63 62//62
f 62//62 70//70 71//71
f 70//70 62//62 61//61
f 61//61 69//69 70//70
f 69//69 61//61 60//60
f 60//60 68//68 69//69
f 68//68 60//60 59//59
f 59//59 67//67 68//68
f 67//67 59//59 66//66
f 66//66 74//74 67//67
f 75//75 26//26 74//74
f 75//75 74//74 73//73
f 75//75 73//73 72//72
f 75//75 72//72 26//26
f 88//88 91//91 92//92
f 88//88 92//92 89//89
f 89//89 92//92 93//93
f 89//89 93//93 90//90
f 76//76 11//11 19//19
f 19//19 79//79 76//76
f 79//79 19//19 20//20
f 20//20 80//80 79//79
f 77//77 12//12 11//11
f 11//11 76//76 77//77
f 80//80 20//20 21//21
f 21//21 81//81 80//80
f 81//81 21//21 13//13
f 13//13 78//78 81//81
f 78//78 13//13 12//12
f 12//12 77//77 78//78
f 82//82 76//76 79//79
f 79//79 85//85 82//82
f 85//85 79//79 80//80
f 80//80 86//86 85//85
f 83//83 77//77 76//76
f 76//76 82//82 83//83
f 86//86 80//80 81//81
f 81//81 87//87 86//86
f 87//87 81//81 78//78
f 78//78 84//84 87//87
f 84//84 78//78 77//77
f 77//77 83//83 84//84
f 88//88 82//82 85//85
f 85//85 91//91 88//88
f 91//91 85//85 86//86
f 86//86 92//92 91//91
f 89//89 83//83 82//82
f 82//82 88//88 89//89
f 92//92 86//86 87//87
f 87//87 93//93 92//92
f 93//93 87//87 84//84
f 84//84 90//90 93//93
f 90//90 84//84 83//83
f 83//83 89//89 90//90

