# https://github.com/mikedh/trimesh
v 0.29055264 -0.12591781 0.12021867
v 0.03625369 -0.12591781 0.12021867
v 0.03625369 -0.12591781 0.37451761
v 0.29055264 -0.12591781 0.37451761
v -0.02732105 -0.12591781 0.12021867
v -0.28162105 -0.12591781 0.12021867
v -0.28162105 -0.12591781 0.37451761
v -0.02732105 -0.12591781 0.37451761
v -0.31812841 -0.19394307 -0.05267291
v 0.31761895 -0.19394307 -0.05267291
v 0.31761895 -0.13036834 -0.05267291
v -0.31812841 -0.13036834 -0.05267291
v -0.31812841 -0.19394307 0.58307446
v 0.31761895 -0.19394307 0.58307446
v 0.31761895 -0.13036834 0.58307446
v -0.31812841 -0.13036834 0.58307446
v 0.28583159 0.39600956 -0.34344975
v -0.28634105 0.39600956 -0.34344975
v -0.28634105 -0.09945044 -0.05726554
v 0.28583159 -0.09945044 -0.05726554
v -0.31812841 -0.13056623 -0.04419923
v 0.31761895 -0.13056623 -0.04419923
v 0.31761895 -0.16233149 -0.09926975
v -0.31812841 -0.16233149 -0.09926975
v -0.31812841 0.42013272 -0.36185607
v 0.31761895 0.42013272 -0.36185607
v 0.31761895 0.38836745 -0.41692554
v -0.31812841 0.38836745 -0.41692554
vn 0.00000000 1.00000000 0.00000000
vn 0.00000000 1.00000000 0.00000000
vn 0.00000000 1.00000000 0.00000000
vn 0.00000000 1.00000000 0.00000000
vn 0.00000000 1.00000000 0.00000000
vn 0.00000000 1.00000000 0.00000000
vn 0.00000000 1.00000000 0.00000000
vn 0.00000000 1.00000000 0.00000000
vn -0.57735027 -0.57735027 -0.57735027
vn 0.57735027 -0.57735027 -0.57735027
vn 0.57735027 0.57735027 -0.57735027
vn -0.57735027 0.57735027 -0.57735027
vn -0.57735027 -0.57735027 0.57735027
vn 0.57735027 -0.57735027 0.57735027
vn 0.57735027 0.57735027 0.57735027
vn -0.57735027 0.57735027 0.57735027
vn 0.00000000 0.50017047 0.86592696
vn 0.00000000 0.50017047 0.86592696
vn 0.00000000 0.50017047 0.86592696
vn 0.00000000 0.50017047 0.86592696
vn -0.57735002 -0.21163851 0.78859121
vn 0.57735002 -0.21163851 0.78859121
vn 0.57735045 -0.78859082 -0.21163879
vn -0.57735045 -0.78859082 -0.21163879
vn -0.57735037 0.78859108 0.21163803
vn 0.57735037 0.78859108 0.21163803
vn 0.57735005 0.21163876 -0.78859112
vn -0.57735005 0.21163876 -0.78859112
f 3//3 4//4 1//1
f 3//3 1//1 2//2
f 7//7 8//8 5//5
f 7//7 5//5 6//6
f 9//9 12//12 10//10
f 10//10 12//12 11//11
f 9//9 14//14 13//13
f 9//9 10//10 14//14
f 9//9 13//13 12//12
f 12//12 13//13 16//16
f 12//12 16//16 15//15
f 12//12 15//15 11//11
f 10//10 15//15 14//14
f 10//10 11//11 15//15
f 14//14 16//16 13//13
f 14//14 15//15 16//16
f 19//19 20//20 17//17
f 18//18 19//19 17//17
f 21//21 24//24 22//22
f 22//22 24//24 23//23
f 21//21 26//26 25//25
f 21//21 22//22 26//26
f 21//21 25//25 24//24
f 24//24 25//25 28//28
f 24//24 28//28 27//27
f 24//24 27//27 23//23
f 22//22 27//27 26//26
f 22//22 23//23 27//27
f 26//26 28//28 25//25
f 26//26 27//27 28//28

