# https://github.com/mikedh/trimesh
v -0.41125923 0.31587866 -0.07095804
v 0.41125972 0.31587866 -0.07095804
v 0.41125972 0.31587866 -0.27658752
v 0.41125972 -0.50663923 -0.27658752
v -0.41125923 0.31587866 -0.27658752
v -0.41125923 -0.50663923 -0.27658752
v 0.41125972 -0.50663923 -0.17377278
v -0.41125923 -0.50663923 -0.17377278
v -0.35203081 0.31587866 -0.07095804
v -0.35203291 -0.50663923 -0.17377278
v 0.41125972 0.04726392 -0.10453489
v -0.35203186 0.04726603 -0.10453489
v -0.35203291 -0.45166871 -0.16690120
v 0.41125972 -0.45167081 -0.16690120
v 0.34578288 -0.45167081 -0.16690120
v 0.34578183 0.04726392 -0.10453489
v 0.41126077 0.11027761 -0.10244752
v -0.41125712 0.11027866 -0.10245068
v -0.41125712 0.31587866 -0.09899383
v -0.41126133 0.30204919 0.72340827
v 0.41126077 0.31587866 -0.09898962
v 0.41125656 0.30204813 0.72341248
v -0.41126133 0.19924813 0.72167985
v 0.41125656 0.19924813 0.72168406
v -0.34821081 0.19242813 0.65850617
v 0.34820709 0.19242813 0.65850932
v -0.34820765 0.11709866 -0.03927594
v 0.34821025 0.11709761 -0.03927278
v -0.00000028 0.15476287 0.30961669
vn -0.67738845 -0.09124294 0.72994494
vn 0.67738840 -0.09124347 0.72994492
vn 0.70710678 0.00000000 -0.70710678
vn 0.57735027 -0.57735027 -0.57735027
vn -0.70710678 0.00000000 -0.70710678
vn -0.57735027 -0.57735027 -0.57735027
vn 0.58417340 -0.60846272 0.53713551
vn -0.58417348 -0.60846115 0.53713720
vn 0.00000032 -0.12403485 0.99227786
vn 0.00000000 -0.74968002 0.66180047
vn 0.70710694 -0.08770542 0.70164630
vn 0.70215847 -0.08831734 0.70652214
vn -0.00000191 -0.12403662 0.99227764
vn 0.70710540 -0.08770877 0.70164744
vn -0.00000032 -0.12403836 0.99227742
vn -0.00000016 -0.12403423 0.99227794
vn 0.67738818 -0.73137590 0.07895915
vn -0.67739028 -0.73137458 0.07895334
vn -1.00000000 0.00000064 -0.00000446
vn -0.70711084 -0.01188641 0.70700281
vn 1.00000000 0.00000000 0.00000509
vn 0.70710363 -0.01188731 0.70701000
vn -0.58417596 -0.54729217 0.59934108
vn 0.58416948 -0.54729260 0.59934700
vn -0.00000080 -0.99422322 0.10733218
vn -0.00000111 -0.99422318 0.10733251
vn -0.00000159 -0.99422320 0.10733234
vn 0.00000000 -0.99422327 0.10733171
vn -0.00000127 -0.99422316 0.10733267
f 3//3 4//4 6//6
f 10//10 8//8 6//6
f 1//1 5//5 6//6
f 4//4 3//3 2//2
f 13//13 12//12 9//9
f 2//2 9//9 12//12
f 15//15 13//13 10//10
f 15//15 14//14 11//11
f 24//24 22//22 20//20
f 17//17 21//21 22//22
f 20//20 19//19 18//18
f 24//24 23//23 25//25
f 18//18 27//27 25//25
f 18//18 17//17 28//28
f 17//17 24//24 26//26
f 25//25 29//29 26//26
f 27//27 29//29 25//25
f 28//28 29//29 27//27
f 26//26 29//29 28//28
f 12//12 13//13 15//15
f 3//3 6//6 5//5
f 10//10 6//6 4//4
f 10//10 4//4 7//7
f 1//1 6//6 8//8
f 4//4 2//2 11//11
f 4//4 11//11 14//14
f 4//4 14//14 7//7
f 13//13 9//9 1//1
f 13//13 1//1 8//8
f 13//13 8//8 10//10
f 2//2 12//12 16//16
f 2//2 16//16 11//11
f 15//15 10//10 7//7
f 15//15 7//7 14//14
f 15//15 11//11 16//16
f 24//24 20//20 23//23
f 17//17 22//22 24//24
f 20//20 18//18 23//23
f 24//24 25//25 26//26
f 18//18 25//25 23//23
f 18//18 28//28 27//27
f 17//17 26//26 28//28
f 12//12 15//15 16//16

