# https://github.com/mikedh/trimesh
v -0.32142803 -0.47877445 -0.28089541
v 0.32142881 -0.47877445 -0.28089541
v 0.32142881 -0.28829866 -0.28089541
v -0.32142803 -0.28829866 -0.28089541
v -0.32142803 -0.47877445 0.19529512
v 0.32142881 -0.47877445 0.19529512
v 0.32142881 -0.28829866 0.19529512
v -0.32142803 -0.28829866 0.19529512
v 0.19262355 -0.19305971 0.09714880
v 0.19262355 -0.28829866 0.09714880
v 0.00000039 -0.28829866 -0.04279962
v 0.00000039 -0.19305971 -0.04279962
v 0.07357513 -0.19305971 0.18364249
v 0.07357513 -0.28829866 0.18364249
v -0.07357540 -0.19305971 0.18364249
v -0.07357540 -0.28829866 0.18364249
v -0.19262277 -0.19305971 0.09714880
v -0.19262277 -0.28829866 0.09714880
v -0.23809540 -0.19305971 -0.04279962
v -0.23809540 -0.28829866 -0.04279962
v -0.19262277 -0.19305971 -0.18274909
v -0.19262277 -0.28829866 -0.18274909
v -0.07357540 -0.19305971 -0.26924172
v -0.07357540 -0.28829866 -0.26924172
v 0.07357513 -0.19305971 -0.26924172
v 0.07357513 -0.28829866 -0.26924172
v 0.19262355 -0.19305971 -0.18274909
v 0.19262355 -0.28829866 -0.18274909
v 0.23809513 -0.19305971 -0.04279962
v 0.23809513 -0.28829866 -0.04279962
v -0.35714277 -0.19305971 0.07624775
v 0.35714250 -0.19305971 0.07624775
v 0.35714250 0.52122555 0.07624775
v -0.35714277 0.52122555 0.07624775
v -0.35714277 -0.19305971 0.31434354
v 0.35714250 -0.19305971 0.31434354
v 0.35714250 0.52122555 0.31434354
v -0.35714277 0.52122555 0.31434354
v -0.23809540 -0.14544077 -0.44756172
v -0.23809540 0.33074976 -0.44756172
v 0.23809513 0.33074976 -0.44756172
v 0.23809513 -0.14544077 -0.44756172
v -0.30952382 -0.16925024 0.08815301
v -0.30952382 0.47360660 0.08815301
v 0.30952355 0.47360660 0.08815301
v 0.30952355 -0.16925024 0.08815301
vn -0.57735027 -0.57735027 -0.57735027
vn 0.57735027 -0.57735027 -0.57735027
vn 0.57735027 0.57735027 -0.57735027
vn -0.57735027 0.57735027 -0.57735027
vn -0.57735027 -0.57735027 0.57735027
vn 0.57735027 -0.57735027 0.57735027
vn 0.57735027 0.57735027 0.57735027
vn -0.57735027 0.57735027 0.57735027
vn 0.61911217 0.64371649 0.44981019
vn 0.61911217 -0.64371649 0.44981019
vn 0.00000000 -1.00000000 0.00000000
vn 0.00000000 1.00000000 0.00000000
vn 0.23647951 0.64371668 0.72780923
vn 0.23647951 -0.64371668 0.72780923
vn -0.23648106 0.64371636 0.72780901
vn -0.23648106 -0.64371636 0.72780901
vn -0.61911093 0.64371749 0.44981046
vn -0.61911093 -0.64371749 0.44981046
vn -0.76526424 0.64371627 0.00000077
vn -0.76526424 -0.64371627 0.00000077
vn -0.61911066 0.64371676 -0.44981189
vn -0.61911066 -0.64371676 -0.44981189
vn -0.23647891 0.64371693 -0.72780920
vn -0.23647891 -0.64371693 -0.72780920
vn 0.23647713 0.64371729 -0.72780947
vn 0.23647713 -0.64371729 -0.72780947
vn 0.61911189 0.64371576 -0.44981162
vn 0.61911189 -0.64371576 -0.44981162
vn 0.76526322 0.64371749 0.00000077
vn 0.76526322 -0.64371749 0.00000077
vn -0.57735027 -0.57735027 -0.57735027
vn 0.57735027 -0.57735027 -0.57735027
vn 0.57735027 0.57735027 -0.57735027
vn -0.57735027 0.57735027 -0.57735027
vn -0.57735027 -0.57735027 0.57735027
vn 0.57735027 -0.57735027 0.57735027
vn 0.57735027 0.57735027 0.57735027
vn -0.57735027 0.57735027 0.57735027
vn -0.53604961 -0.56983400 -0.62284831
vn -0.64622692 -0.58506412 -0.48999055
vn -0.69651252 -0.63059039 -0.34238293
vn -0.58405589 -0.62086622 -0.52288034
vn -0.54440561 -0.51691476 -0.66062218
vn -0.55372625 -0.59335170 -0.58422685
vn -0.60085878 -0.64385665 -0.47372707
vn -0.59782764 -0.56763913 -0.56602821
f 1//1 4//4 2//2
f 2//2 4//4 3//3
f 1//1 6//6 5//5
f 1//1 2//2 6//6
f 1//1 5//5 4//4
f 4//4 5//5 8//8
f 4//4 8//8 7//7
f 4//4 7//7 3//3
f 2//2 7//7 6//6
f 2//2 3//3 7//7
f 6//6 8//8 5//5
f 6//6 7//7 8//8
f 29//29 9//9 30//30
f 9//9 10//10 30//30
f 11//11 30//30 10//10
f 12//12 9//9 29//29
f 9//9 13//13 10//10
f 13//13 14//14 10//10
f 11//11 10//10 14//14
f 12//12 13//13 9//9
f 13//13 15//15 14//14
f 15//15 16//16 14//14
f 11//11 14//14 16//16
f 12//12 15//15 13//13
f 15//15 17//17 16//16
f 17//17 18//18 16//16
f 11//11 16//16 18//18
f 12//12 17//17 15//15
f 17//17 19//19 18//18
f 19//19 20//20 18//18
f 11//11 18//18 20//20
f 12//12 19//19 17//17
f 19//19 21//21 20//20
f 21//21 22//22 20//20
f 11//11 20//20 22//22
f 12//12 21//21 19//19
f 21//21 23//23 22//22
f 23//23 24//24 22//22
f 11//11 22//22 24//24
f 12//12 23//23 21//21
f 23//23 25//25 24//24
f 25//25 26//26 24//24
f 11//11 24//24 26//26
f 12//12 25//25 23//23
f 25//25 27//27 26//26
f 27//27 28//28 26//26
f 11//11 26//26 28//28
f 12//12 27//27 25//25
f 27//27 29//29 28//28
f 29//29 30//30 28//28
f 11//11 28//28 30//30
f 12//12 29//29 27//27
f 31//31 34//34 32//32
f 32//32 34//34 33//33
f 31//31 36//36 35//35
f 31//31 32//32 36//36
f 31//31 35//35 34//34
f 34//34 35//35 38//38
f 34//34 38//38 37//37
f 34//34 37//37 33//33
f 32//32 37//37 36//36
f 32//32 33//33 37//37
f 36//36 38//38 35//35
f 36//36 37//37 38//38
f 39//39 40//40 41//41
f 43//43 44//44 45//45
f 40//40 41//41 45//45
f 41//41 42//42 46//46
f 39//39 42//42 46//46
f 39//39 43//43 44//44
f 39//39 41//41 42//42
f 43//43 45//45 46//46
f 40//40 45//45 44//44
f 41//41 46//46 45//45
f 39//39 46//46 43//43
f 39//39 44//44 40//40

