# https://github.com/mikedh/trimesh
v -0.48872770 0.10446354 0.00661497
v 0.51127230 0.10446354 -0.00390609
v 0.51127230 0.01249933 -0.19018609
v -0.48872770 0.01249933 -0.19018609
v -0.48872770 0.01160670 0.19490339
v 0.51127230 0.01160670 0.19490339
v -0.13277507 0.06004459 0.05130234
v -0.09021612 0.06004459 0.05130234
v -0.13277507 0.06004459 0.00475391
v -0.09021612 0.06004459 0.00475391
v -0.13277507 0.15054986 0.05130234
v -0.09021612 0.15054986 0.05130234
v -0.13277507 0.15054986 0.00475391
v -0.09021612 0.15054986 0.00475391
v -0.48756665 0.02486565 -0.11813240
v -0.45912770 0.02486565 -0.11813240
v -0.48756665 0.02486565 -0.15957556
v -0.45912770 0.02486565 -0.15957556
v -0.48756665 0.14101196 -0.11813240
v -0.45912770 0.14101196 -0.11813240
v -0.48756665 0.14101196 -0.15957556
v -0.45912770 0.14101196 -0.15957556
v 0.51127230 -0.14851225 -0.00390609
v 0.51127230 -0.14851225 -0.17920398
v 0.51127230 0.00133933 -0.00390609
v 0.51127230 0.00133933 -0.17920398
v 0.51127230 -0.14851225 0.18284970
v 0.51127230 0.00133933 0.18284970
v -0.48872770 -0.14851225 0.00564760
v -0.48872770 -0.14851225 -0.17920398
v -0.48872770 0.00133933 0.00564760
v -0.48872770 0.00133933 -0.17920398
v -0.48872770 -0.14851225 0.18284970
v -0.48872770 0.00133933 0.18284970
v -0.48872770 0.10446354 0.00564760
vn 0.00226180 0.99992530 0.01201181
vn 0.62058941 0.78407618 -0.00966024
vn 0.56124640 0.13910976 -0.81587435
vn -0.56212886 0.14655639 -0.81396092
vn -0.55700227 0.10366190 0.82401619
vn 0.55810907 0.11109726 0.82229658
vn -0.70710678 0.00000000 0.70710678
vn 0.70710678 0.00000000 0.70710678
vn -0.70710678 0.00000000 -0.70710678
vn 0.70710678 0.00000000 -0.70710678
vn -0.57735027 0.57735027 0.57735027
vn 0.57735027 0.57735027 0.57735027
vn -0.57735027 0.57735027 -0.57735027
vn 0.57735027 0.57735027 -0.57735027
vn -0.70710678 0.00000000 0.70710678
vn 0.70710678 0.00000000 0.70710678
vn -0.70710678 0.00000000 -0.70710678
vn 0.70710678 0.00000000 -0.70710678
vn -0.57735027 0.57735027 0.57735027
vn 0.57735027 0.57735027 0.57735027
vn -0.57735027 0.57735027 -0.57735027
vn 0.57735027 0.57735027 -0.57735027
vn 1.00000000 0.00000000 0.00000000
vn 0.70710678 0.00000000 -0.70710678
vn 1.00000000 0.00000000 0.00000000
vn 0.80313274 -0.22578975 -0.55135903
vn 0.70710678 0.00000000 0.70710678
vn 0.81468317 -0.24313059 0.52647778
vn -1.00000000 0.00000000 0.00000000
vn -0.70710678 0.00000000 -0.70710678
vn -1.00000000 0.00000000 0.00000000
vn -0.80313274 -0.22578975 -0.55135903
vn -0.70710678 0.00000000 0.70710678
vn -0.81468317 -0.24313059 0.52647778
vn -1.00000000 0.00000000 0.00000000
f 1//1 2//2 3//3
f 3//3 4//4 1//1
f 2//2 1//1 5//5
f 5//5 6//6 2//2
f 11//11 12//12 14//14
f 14//14 13//13 11//11
f 7//7 8//8 12//12
f 12//12 11//11 7//7
f 8//8 10//10 14//14
f 14//14 12//12 8//8
f 10//10 9//9 13//13
f 13//13 14//14 10//10
f 9//9 7//7 11//11
f 11//11 13//13 9//9
f 19//19 20//20 22//22
f 22//22 21//21 19//19
f 15//15 16//16 20//20
f 20//20 19//19 15//15
f 16//16 18//18 22//22
f 22//22 20//20 16//16
f 18//18 17//17 21//21
f 21//21 22//22 18//18
f 17//17 15//15 19//19
f 19//19 21//21 17//17
f 23//23 24//24 26//26
f 26//26 25//25 23//23
f 23//23 25//25 28//28
f 28//28 27//27 23//23
f 25//25 26//26 3//3
f 3//3 2//2 25//25
f 28//28 25//25 2//2
f 2//2 6//6 28//28
f 30//30 29//29 31//31
f 31//31 32//32 30//30
f 31//31 29//29 33//33
f 33//33 34//34 31//31
f 32//32 31//31 35//35
f 35//35 4//4 32//32
f 31//31 34//34 5//5
f 5//5 35//35 31//31
f 33//33 27//27 28//28
f 28//28 34//34 33//33
f 24//24 30//30 32//32
f 32//32 26//26 24//24
f 26//26 32//32 4//4
f 4//4 3//3 26//26
f 34//34 28//28 6//6
f 6//6 5//5 34//34

