# https://github.com/mikedh/trimesh
v 0.45613581 0.19599159 0.06417780
v 0.45613160 0.18845580 0.06416623
v 0.44653476 0.18846948 0.05884096
v 0.44654002 0.19600527 0.05885149
v 0.45610107 0.19605475 0.02154728
v 0.45609686 0.18851791 0.02153675
v 0.44650949 0.18851580 0.02686833
v 0.44651370 0.19605264 0.02687991
v 0.37936739 0.19610106 0.02157149
v 0.37936318 0.18856527 0.02156096
v 0.38895897 0.18855159 0.02688623
v 0.38896318 0.19608738 0.02689780
v 0.37940212 0.19603791 0.06420202
v 0.37939791 0.18850212 0.06419044
v 0.38898528 0.18850422 0.05885886
v 0.38898949 0.19604001 0.05887044
v 0.43659160 0.01358001 0.10376517
v 0.39891160 0.01358001 0.10376517
v 0.39891160 0.01377264 -0.01680956
v 0.43659160 0.01377264 -0.01680956
v 0.43659160 -0.13713894 0.10352517
v 0.39891160 -0.13713894 0.10352517
v 0.39891160 -0.13694630 -0.01704956
v 0.43659160 -0.13694630 -0.01704956
v 0.43659160 0.07390738 0.07919780
v 0.39891160 0.07390738 0.07919780
v 0.39891160 0.07402106 0.00775675
v 0.43659160 0.07402106 0.00775675
v 0.43659160 0.01358106 0.10321675
v 0.39891160 0.01358106 0.10321675
v 0.39891160 0.01377159 -0.01645377
v 0.43659160 0.01377159 -0.01645377
v 0.43659160 0.19146843 0.07859465
v 0.39891160 0.19146843 0.07859465
v 0.39891160 0.19158106 0.00835991
v 0.43659160 0.19158106 0.00835991
v 0.43659160 0.07089370 0.07840307
v 0.39891160 0.07089370 0.07840307
v 0.39891160 0.07100527 0.00816833
v 0.43659160 0.07100527 0.00816833
v 0.23876318 -0.00395157 0.18046412
v 0.23891581 -0.06423894 0.18061675
v 0.29302212 -0.00381367 0.18060096
v 0.29317476 -0.06410104 0.18075465
v 0.32814002 -0.00395157 0.18046412
v 0.32829265 -0.06423894 0.18061675
v 0.38239897 -0.00381367 0.18060096
v 0.38255160 -0.06410104 0.18075465
v 0.07146528 -0.00395157 0.18046412
v 0.07161791 -0.06423894 0.18061675
v 0.12572423 -0.00381367 0.18060096
v 0.12587686 -0.06410104 0.18075465
v -0.01791156 -0.00395157 0.18046412
v -0.01775893 -0.06423894 0.18061675
v 0.03634739 -0.00381367 0.18060096
v 0.03650002 -0.06410104 0.18075465
v -0.05074419 -0.00395788 0.09771254
v -0.05074419 -0.06424525 0.09775991
v -0.05074419 -0.00392209 0.14292833
v -0.05074419 -0.06420946 0.14297570
v -0.05074419 -0.00395788 0.00547254
v -0.05074419 -0.06424525 0.00551991
v -0.05074419 -0.00392209 0.05068728
v -0.05074419 -0.06420946 0.05073570
v 0.15958633 -0.01646104 0.18041465
v 0.15978844 -0.09619052 0.18061675
v 0.20736423 -0.01633999 0.18053570
v 0.20756633 -0.09606946 0.18073780
v 0.36357897 -0.00719052 -0.20491062
v 0.36339581 -0.07953578 -0.20472641
v 0.27314739 -0.00696104 -0.20468114
v 0.27296423 -0.07930525 -0.20449693
v 0.04253160 -0.00381473 -0.20489483
v 0.04237897 -0.06410209 -0.20474114
v -0.01172735 -0.00367683 -0.20475693
v -0.01187998 -0.06396420 -0.20460430
v 0.13952528 -0.09154209 0.19101675
v 0.13952949 -0.09711894 0.19102096
v 0.13951897 -0.09710841 0.20603254
v 0.13952528 -0.10701052 0.20603886
v 0.13951476 -0.10699999 0.22126202
v 0.13952212 -0.11714315 0.22126938
v 0.13951160 -0.11713262 0.23625044
v 0.13951897 -0.12703473 0.23625780
v 0.13950844 -0.12702420 0.25102833
v 0.13951476 -0.13671578 0.25103465
v 0.13956633 -0.13676630 0.17808623
v 0.13953476 -0.09185262 0.17805570
v 0.22995686 -0.09147894 0.19107991
v 0.22996107 -0.09705578 0.19108412
v 0.22995054 -0.09704525 0.20609570
v 0.22995686 -0.10694736 0.20610202
v 0.22994633 -0.10693683 0.22132517
v 0.22995370 -0.11707999 0.22133254
v 0.22994318 -0.11706946 0.23631359
v 0.22994949 -0.12697157 0.23632096
v 0.22994002 -0.12696104 0.25109149
v 0.22994633 -0.13665262 0.25109780
v 0.22999686 -0.13670315 0.17814938
v 0.22996633 -0.09178946 0.17811886
v -0.03442946 0.00071054 -0.12297062
v -0.27557998 0.00098106 -0.12280220
v -0.27557893 -0.00263367 -0.11978641
v -0.03442840 -0.00290315 -0.11995483
v -0.03431051 0.09367791 -0.01223272
v -0.27546103 0.09394738 -0.01206430
v -0.27546419 0.08791896 -0.01206114
v -0.03431367 0.08764948 -0.01222956
v -0.03427367 0.00095896 0.09858623
v -0.27542419 0.00122843 0.09875465
v -0.27542840 -0.00239262 0.09574202
v -0.03427788 -0.00266209 0.09557359
v -0.15500419 -0.00035788 -0.12137904
v -0.15485051 -0.00011367 0.09716412
v -0.04188735 0.00792317 0.08358096
v -0.04191788 0.08980738 -0.01216114
v -0.04202103 0.00770948 -0.10783167
v -0.26796524 0.00817580 0.08373886
v -0.26799682 0.09006001 -0.01200325
v -0.26809893 0.00796212 -0.10767483
v -0.04043472 -0.11058841 -0.10784430
v -0.26952735 -0.11058841 -0.10784430
v -0.26952735 -0.11058841 0.08356938
v -0.04043472 -0.11058841 0.08356938
v -0.04043472 0.00998633 -0.10784430
v -0.26952735 0.00998633 -0.10784430
v -0.26952735 0.00998633 0.08356938
v -0.04043472 0.00998633 0.08356938
v -0.04194209 -0.13686209 -0.10633693
v -0.26801998 -0.13686209 -0.10633693
v -0.26801998 -0.13686209 0.08206202
v -0.04194209 -0.13686209 0.08206202
v -0.04194209 -0.10671788 -0.10633693
v -0.26801998 -0.10671788 -0.10633693
v -0.26801998 -0.10671788 0.08206202
v -0.04194209 -0.10671788 0.08206202
v -0.25448314 0.00711580 -0.14513693
v -0.54386419 0.00741896 -0.14493483
v -0.54386314 0.00335370 -0.14131588
v -0.25448314 0.00305054 -0.14151798
v -0.25434209 0.11170422 -0.01225167
v -0.54372314 0.11200738 -0.01204956
v -0.54372630 0.10522422 -0.01204641
v -0.25434524 0.10492106 -0.01224851
v -0.25429788 0.00739475 0.12073149
v -0.54367788 0.00769791 0.12093359
v -0.54368314 0.00362422 0.11731780
v -0.25430209 0.00332106 0.11711570
v -0.39917367 0.00591370 -0.14322641
v -0.39899051 0.00618843 0.11902412
v -0.26343367 0.01522948 0.10272517
v -0.26347051 0.10734948 -0.01216641
v -0.26359367 0.01498948 -0.12697062
v -0.53472735 0.01551370 0.10291465
v -0.53476524 0.10763370 -0.01197693
v -0.53488840 0.01527370 -0.12678114
v -0.26169051 -0.11809578 -0.12698535
v -0.53660209 -0.11809578 -0.12698535
v -0.53660209 -0.11809578 0.10271044
v -0.26169051 -0.11809578 0.10271044
v -0.26169051 0.01755159 -0.12698535
v -0.53660209 0.01755159 -0.12698535
v -0.53660209 0.01755159 0.10271044
v -0.26169051 0.01755159 0.10271044
v -0.26349893 -0.14765367 -0.12517693
v -0.53479367 -0.14765367 -0.12517693
v -0.53479367 -0.14765367 0.10090202
v -0.26349893 -0.14765367 0.10090202
v -0.26349893 -0.11374209 -0.12517693
v -0.53479367 -0.11374209 -0.12517693
v -0.53479367 -0.11374209 0.10090202
v -0.26349893 -0.11374209 0.10090202
v 0.42072002 0.03507370 -0.23380325
v -0.06158103 0.03541159 -0.23346641
v -0.06157998 0.03089370 -0.22743483
v 0.42072107 0.03055685 -0.22777167
v 0.42095581 0.15128212 -0.01232746
v -0.06134524 0.15162001 -0.01199062
v -0.06135051 0.14408317 -0.01198535
v 0.42095054 0.14374633 -0.01232220
v 0.42102949 0.03538317 0.20931044
v -0.06127156 0.03572106 0.20964728
v -0.06127893 0.03119475 0.20362202
v 0.42102212 0.03085791 0.20328517
v 0.17957054 0.03373791 -0.23061904
v 0.17987581 0.03404317 0.20646623
v 0.40569370 -0.13704315 -0.20053693
v -0.04646314 -0.13704315 -0.20053693
v -0.04646314 -0.13704315 0.17626096
v 0.40569370 -0.13704315 0.17626096
v 0.40569370 -0.09936315 -0.20053693
v -0.04646314 -0.09936315 -0.20053693
v -0.04646314 -0.09936315 0.17626096
v 0.40569370 -0.09936315 0.17626096
v 0.40870844 -0.10403578 -0.20355062
v -0.04947788 -0.10403578 -0.20355062
v -0.04947788 -0.10403578 0.17927570
v 0.40870844 -0.10403578 0.17927570
v 0.40870844 0.04668317 -0.20355062
v -0.04947788 0.04668317 -0.20355062
v -0.04947788 0.04668317 0.17927570
v 0.40870844 0.04668317 0.17927570
v 0.40580318 0.04380317 0.17929991
v 0.40574107 0.14615791 -0.01218535
v 0.40553581 0.04353580 -0.20352641
v -0.04635367 0.04411896 0.17961570
v -0.04641577 0.14647370 -0.01186956
v -0.04662103 0.04385159 -0.20321062
v -0.21093577 -0.02849683 0.10007044
v -0.21081367 -0.07672630 0.10022307
v -0.16752840 -0.02838630 0.10020728
v -0.16740630 -0.07661683 0.10036096
v -0.13955472 -0.02849683 0.10007044
v -0.13943261 -0.07672630 0.10022307
v -0.09614840 -0.02838630 0.10020728
v -0.09602524 -0.07661683 0.10036096
v -0.50293577 -0.03339367 0.10843780
v -0.50267367 -0.13704315 0.10870096
v -0.31182524 -0.03290841 0.10892202
v -0.31156209 -0.13655788 0.10918517
vn 0.57802083 0.57611711 0.57791090
vn 0.57735694 -0.57852386 0.57616760
vn -0.30213623 -0.90396297 -0.30259650
vn -0.30106129 0.90522227 -0.29989123
vn 0.57734093 0.57787264 -0.57683677
vn 0.57667972 -0.57688476 -0.57848463
vn -0.30195882 -0.90475527 0.30039768
vn -0.30090028 0.90420061 0.30311760
vn -0.57735037 0.57849275 -0.57620542
vn -0.57802975 -0.57615265 -0.57786653
vn 0.30102627 -0.90522027 0.29993241
vn 0.30214959 0.90396354 0.30258146
vn -0.57667363 0.57684230 0.57853304
vn -0.57734825 -0.57790932 0.57679269
vn 0.30089568 -0.90419911 -0.30312664
vn 0.30195379 0.90475053 -0.30041702
vn 0.70710813 -0.00112584 0.70710453
vn -0.70710813 -0.00112584 0.70710453
vn -0.70710566 0.00112585 -0.70710701
vn 0.70710566 0.00112585 -0.70710701
vn 0.70710678 -0.00112585 0.70710588
vn -0.70710678 -0.00112585 0.70710588
vn -0.70710678 0.00112585 -0.70710588
vn 0.70710678 0.00112585 -0.70710588
vn 0.77896514 0.23195752 0.58258822
vn -0.77896514 0.23195752 0.58258822
vn -0.77896455 0.23380893 -0.58184845
vn 0.77896455 0.23380893 -0.58184845
vn 0.60395301 0.29482447 0.74048585
vn -0.60395301 0.29482447 0.74048585
vn -0.60395499 0.29717675 -0.73954333
vn 0.60395499 0.29717675 -0.73954333
vn 0.57735100 0.57642772 0.57827061
vn -0.57735100 0.57642772 0.57827061
vn -0.57734966 0.57827149 -0.57642819
vn 0.57734966 0.57827149 -0.57642819
vn 0.70710701 -0.00112359 0.70710566
vn -0.70710701 -0.00112359 0.70710566
vn -0.70710678 0.00112360 -0.70710588
vn 0.70710678 0.00112360 -0.70710588
vn -0.00253756 0.00253438 0.99999357
vn -0.00254776 0.00252548 0.99999357
vn -0.00252866 0.00254266 0.99999357
vn -0.00253884 0.00253374 0.99999357
vn -0.00253756 0.00253438 0.99999357
vn -0.00254776 0.00252548 0.99999357
vn -0.00252866 0.00254266 0.99999357
vn -0.00253884 0.00253374 0.99999357
vn -0.00253756 0.00253438 0.99999357
vn -0.00254776 0.00252548 0.99999357
vn -0.00252866 0.00254266 0.99999357
vn -0.00253884 0.00253374 0.99999357
vn -0.00253756 0.00253438 0.99999357
vn -0.00254776 0.00252548 0.99999357
vn -0.00252866 0.00254266 0.99999357
vn -0.00253884 0.00253374 0.99999357
vn -1.00000000 0.00000000 0.00000000
vn -1.00000000 0.00000000 0.00000000
vn -1.00000000 0.00000000 0.00000000
vn -1.00000000 0.00000000 0.00000000
vn -1.00000000 0.00000000 0.00000000
vn -1.00000000 0.00000000 0.00000000
vn -1.00000000 0.00000000 0.00000000
vn -1.00000000 0.00000000 0.00000000
vn -0.00254012 0.00252867 0.99999358
vn -0.00254011 0.00252865 0.99999358
vn -0.00254010 0.00252864 0.99999358
vn -0.00254011 0.00252866 0.99999358
vn -0.00254075 -0.00253502 -0.99999356
vn -0.00254075 -0.00253566 -0.99999356
vn -0.00254138 -0.00253375 -0.99999356
vn -0.00254138 -0.00253438 -0.99999356
vn -0.00254074 -0.00253502 -0.99999356
vn -0.00254203 -0.00253375 -0.99999356
vn -0.00254012 -0.00253566 -0.99999356
vn -0.00254138 -0.00253502 -0.99999356
vn -0.57697026 0.58462945 0.57036280
vn -0.90495061 0.30109675 0.30067446
vn -0.57813489 0.57735053 0.57656433
vn -0.90775008 0.29579989 0.29747642
vn -0.57816450 0.57735001 0.57653515
vn -0.90495825 0.30107376 0.30067451
vn -0.57817442 0.57735073 0.57652447
vn -0.90493846 0.30114082 0.30066691
vn -0.57814223 0.57734905 0.57655844
vn -0.57737012 -0.57734990 0.57733079
vn -0.57654017 -0.57815263 -0.57735688
vn -0.57857593 0.56918135 -0.58419387
vn 0.57531033 0.58546570 0.57118118
vn 0.90410844 0.30237235 0.30192530
vn 0.57655840 0.57812391 0.57736744
vn 0.90127259 0.30759028 0.30511626
vn 0.57653835 0.57817061 0.57734070
vn 0.90411562 0.30234128 0.30193493
vn 0.57656358 0.57815215 0.57733398
vn 0.90406151 0.30253900 0.30189888
vn 0.57655828 0.57813260 0.57735886
vn 0.57733925 -0.57656780 0.57814268
vn 0.57814700 -0.57735088 -0.57655183
vn 0.57859549 0.56998927 -0.58338624
vn 0.57612306 0.07087956 -0.81428392
vn -0.57723354 0.07190679 -0.81340695
vn -0.70574326 -0.45287305 -0.54482331
vn 0.70459226 -0.45344237 -0.54583859
vn 0.58778838 0.80901399 -0.00108942
vn -0.58652433 0.80993156 -0.00026672
vn -0.99999962 0.00052293 0.00070362
vn 0.99999962 -0.00052425 -0.00069767
vn 0.57732561 0.07214438 0.81332055
vn -0.57601099 0.07318381 0.81415937
vn -0.70509810 -0.45192840 0.54644065
vn 0.70534345 -0.45274271 0.54544904
vn -0.00126659 -0.66541443 -0.74647306
vn -0.00022021 -0.66427639 0.74748701
vn 0.99999966 -0.00044309 -0.00069851
vn 0.99999966 -0.00044351 -0.00069803
vn 0.99999966 -0.00044345 -0.00069766
vn -0.99999966 0.00043039 0.00069851
vn -0.99999966 0.00043018 0.00069803
vn -0.99999966 0.00043075 0.00069767
vn 0.70710678 0.00000000 -0.70710678
vn -0.70710678 0.00000000 -0.70710678
vn -0.70710678 0.00000000 0.70710678
vn 0.70710678 0.00000000 0.70710678
vn 0.70710678 0.00000000 -0.70710678
vn -0.70710678 0.00000000 -0.70710678
vn -0.70710678 0.00000000 0.70710678
vn 0.70710678 0.00000000 0.70710678
vn 0.70710678 0.00000000 -0.70710678
vn -0.70710678 0.00000000 -0.70710678
vn -0.70710678 0.00000000 0.70710678
vn 0.70710678 0.00000000 0.70710678
vn 0.70710678 0.00000000 -0.70710678
vn -0.70710678 0.00000000 -0.70710678
vn -0.70710678 0.00000000 0.70710678
vn 0.70710678 0.00000000 0.70710678
vn 0.57291791 0.07093995 -0.81653695
vn -0.57391725 0.07193250 -0.81574794
vn -0.71980774 -0.46059821 -0.51935163
vn 0.71855955 -0.46139292 -0.52037366
vn 0.59155376 0.80626483 -0.00108078
vn -0.59036819 0.80713402 -0.00025515
vn -0.99999965 0.00046595 0.00069836
vn 0.99999965 -0.00046572 -0.00069858
vn 0.57400095 0.07223689 0.81566215
vn -0.57276734 0.07320496 0.81644266
vn -0.71912103 -0.45981187 0.52099711
vn 0.71936481 -0.46049772 0.52005396
vn -0.00122760 -0.68781720 -0.72588291
vn -0.00021170 -0.68671952 0.72692246
vn 0.99999965 -0.00046832 -0.00069584
vn 0.99999965 -0.00046805 -0.00069620
vn 0.99999965 -0.00046863 -0.00069630
vn -0.99999965 0.00046685 0.00069879
vn -0.99999965 0.00046637 0.00069844
vn -0.99999965 0.00046716 0.00069778
vn 0.70710678 0.00000000 -0.70710678
vn -0.70710678 0.00000000 -0.70710678
vn -0.70710678 0.00000000 0.70710678
vn 0.70710678 0.00000000 0.70710678
vn 0.70710678 0.00000000 -0.70710678
vn -0.70710678 0.00000000 -0.70710678
vn -0.70710678 0.00000000 0.70710678
vn 0.70710678 0.00000000 0.70710678
vn 0.70710678 0.00000000 -0.70710678
vn -0.70710678 0.00000000 -0.70710678
vn -0.70710678 0.00000000 0.70710678
vn 0.70710678 0.00000000 0.70710678
vn 0.70710678 0.00000000 -0.70710678
vn -0.70710678 0.00000000 -0.70710678
vn -0.70710678 0.00000000 0.70710678
vn 0.70710678 0.00000000 0.70710678
vn 0.55611744 0.06514987 -0.82854625
vn -0.55718545 0.06597532 -0.82776303
vn -0.78870020 -0.49153658 -0.36924759
vn 0.78751218 -0.49266269 -0.37028103
vn 0.61661777 0.78726207 -0.00098047
vn -0.61551612 0.78812429 -0.00012029
vn -0.99999951 0.00069869 0.00069796
vn 0.99999951 -0.00069894 -0.00069796
vn 0.55727574 0.06631718 0.82767493
vn -0.55602984 0.06714210 0.82844599
vn -0.78817961 -0.49101424 0.37104975
vn 0.78802602 -0.49214007 0.36988261
vn -0.00097566 -0.81165867 -0.58413120
vn -0.00015850 -0.81083355 0.58527680
vn 0.70710678 0.00000000 -0.70710678
vn -0.70710678 0.00000000 -0.70710678
vn -0.70710678 0.00000000 0.70710678
vn 0.70710678 0.00000000 0.70710678
vn 0.70710678 0.00000000 -0.70710678
vn -0.70710678 0.00000000 -0.70710678
vn -0.70710678 0.00000000 0.70710678
vn 0.70710678 0.00000000 0.70710678
vn 0.70710678 0.00000000 -0.70710678
vn -0.70710678 0.00000000 -0.70710678
vn -0.70710678 0.00000000 0.70710678
vn 0.70710678 0.00000000 0.70710678
vn 0.70710678 0.00000000 -0.70710678
vn -0.70710678 0.00000000 -0.70710678
vn -0.70710678 0.00000000 0.70710678
vn 0.70710678 0.00000000 0.70710678
vn 0.99999951 -0.00069977 -0.00069774
vn 0.99999951 -0.00069912 -0.00069773
vn 0.99999951 -0.00069977 -0.00069774
vn -0.99999951 0.00069977 0.00069774
vn -0.99999951 0.00069912 0.00069773
vn -0.99999951 0.00069977 0.00069774
vn -0.00317163 0.00316845 0.99998995
vn -0.00318501 0.00315636 0.99998995
vn -0.00316083 0.00317865 0.99998995
vn -0.00317355 0.00316655 0.99998995
vn -0.00317163 0.00316845 0.99998995
vn -0.00318501 0.00315636 0.99998995
vn -0.00316078 0.00317861 0.99998995
vn -0.00317360 0.00316659 0.99998995
vn -0.00254011 0.00253248 0.99999357
vn -0.00254011 0.00253247 0.99999357
vn -0.00254010 0.00253246 0.99999357
vn -0.00254012 0.00253248 0.99999357
f 1//1 6//6 5//5
f 1//1 2//2 6//6
f 2//2 7//7 6//6
f 2//2 3//3 7//7
f 3//3 8//8 7//7
f 3//3 4//4 8//8
f 4//4 5//5 8//8
f 4//4 1//1 5//5
f 5//5 10//10 9//9
f 5//5 6//6 10//10
f 6//6 11//11 10//10
f 6//6 7//7 11//11
f 7//7 12//12 11//11
f 7//7 8//8 12//12
f 8//8 9//9 12//12
f 8//8 5//5 9//9
f 9//9 14//14 13//13
f 9//9 10//10 14//14
f 10//10 15//15 14//14
f 10//10 11//11 15//15
f 11//11 16//16 15//15
f 11//11 12//12 16//16
f 12//12 13//13 16//16
f 12//12 9//9 13//13
f 13//13 2//2 1//1
f 13//13 14//14 2//2
f 14//14 3//3 2//2
f 14//14 15//15 3//3
f 15//15 4//4 3//3
f 15//15 16//16 4//4
f 16//16 1//1 4//4
f 16//16 13//13 1//1
f 17//17 18//18 22//22
f 17//17 22//22 21//21
f 18//18 19//19 23//23
f 18//18 23//23 22//22
f 19//19 20//20 24//24
f 19//19 24//24 23//23
f 20//20 17//17 21//21
f 20//20 21//21 24//24
f 25//25 26//26 30//30
f 25//25 30//30 29//29
f 26//26 27//27 31//31
f 26//26 31//31 30//30
f 27//27 28//28 32//32
f 27//27 32//32 31//31
f 28//28 25//25 29//29
f 28//28 29//29 32//32
f 33//33 34//34 38//38
f 33//33 38//38 37//37
f 34//34 35//35 39//39
f 34//34 39//39 38//38
f 35//35 36//36 40//40
f 35//35 40//40 39//39
f 36//36 33//33 37//37
f 36//36 37//37 40//40
f 35//35 33//33 36//36
f 34//34 33//33 35//35
f 41//41 42//42 44//44
f 41//41 44//44 43//43
f 45//45 46//46 48//48
f 45//45 48//48 47//47
f 49//49 50//50 52//52
f 49//49 52//52 51//51
f 53//53 54//54 56//56
f 53//53 56//56 55//55
f 57//57 58//58 60//60
f 57//57 60//60 59//59
f 61//61 62//62 64//64
f 61//61 64//64 63//63
f 65//65 66//66 68//68
f 65//65 68//68 67//67
f 69//69 70//70 72//72
f 69//69 72//72 71//71
f 73//73 74//74 76//76
f 73//73 76//76 75//75
f 77//77 78//78 90//90
f 77//77 90//90 89//89
f 78//78 79//79 91//91
f 78//78 91//91 90//90
f 79//79 80//80 92//92
f 79//79 92//92 91//91
f 80//80 81//81 93//93
f 80//80 93//93 92//92
f 81//81 82//82 94//94
f 81//81 94//94 93//93
f 82//82 83//83 95//95
f 82//82 95//95 94//94
f 83//83 84//84 96//96
f 83//83 96//96 95//95
f 84//84 85//85 97//97
f 84//84 97//97 96//96
f 85//85 86//86 98//98
f 85//85 98//98 97//97
f 86//86 87//87 99//99
f 86//86 99//99 98//98
f 87//87 88//88 100//100
f 87//87 100//100 99//99
f 88//88 77//77 89//89
f 88//88 89//89 100//100
f 88//88 78//78 77//77
f 87//87 78//78 88//88
f 85//85 87//87 86//86
f 84//84 87//87 85//85
f 82//82 84//84 83//83
f 82//82 87//87 84//84
f 82//82 78//78 87//87
f 80//80 82//82 81//81
f 80//80 78//78 82//82
f 80//80 79//79 78//78
f 100//100 89//89 90//90
f 99//99 100//100 90//90
f 97//97 98//98 99//99
f 96//96 97//97 99//99
f 94//94 95//95 96//96
f 94//94 96//96 99//99
f 94//94 99//99 90//90
f 92//92 93//93 94//94
f 92//92 94//94 90//90
f 92//92 90//90 91//91
f 101//101 106//106 105//105
f 101//101 102//102 106//106
f 102//102 107//107 106//106
f 102//102 103//103 107//107
f 104//104 105//105 108//108
f 104//104 101//101 105//105
f 105//105 110//110 109//109
f 105//105 106//106 110//110
f 106//106 111//111 110//110
f 106//106 107//107 111//111
f 108//108 109//109 112//112
f 108//108 105//105 109//109
f 113//113 102//102 101//101
f 113//113 103//103 102//102
f 113//113 104//104 103//103
f 113//113 101//101 104//104
f 114//114 109//109 110//110
f 114//114 110//110 111//111
f 114//114 111//111 112//112
f 114//114 112//112 109//109
f 116//116 115//115 117//117
f 119//119 120//120 118//118
f 121//121 122//122 126//126
f 121//121 126//126 125//125
f 122//122 123//123 127//127
f 122//122 127//127 126//126
f 123//123 124//124 128//128
f 123//123 128//128 127//127
f 124//124 121//121 125//125
f 124//124 125//125 128//128
f 129//129 130//130 134//134
f 129//129 134//134 133//133
f 130//130 131//131 135//135
f 130//130 135//135 134//134
f 131//131 132//132 136//136
f 131//131 136//136 135//135
f 132//132 129//129 133//133
f 132//132 133//133 136//136
f 137//137 142//142 141//141
f 137//137 138//138 142//142
f 138//138 143//143 142//142
f 138//138 139//139 143//143
f 140//140 141//141 144//144
f 140//140 137//137 141//141
f 141//141 146//146 145//145
f 141//141 142//142 146//146
f 142//142 147//147 146//146
f 142//142 143//143 147//147
f 144//144 145//145 148//148
f 144//144 141//141 145//145
f 149//149 138//138 137//137
f 149//149 139//139 138//138
f 149//149 140//140 139//139
f 149//149 137//137 140//140
f 150//150 145//145 146//146
f 150//150 146//146 147//147
f 150//150 147//147 148//148
f 150//150 148//148 145//145
f 152//152 151//151 153//153
f 155//155 156//156 154//154
f 157//157 158//158 162//162
f 157//157 162//162 161//161
f 158//158 159//159 163//163
f 158//158 163//163 162//162
f 159//159 160//160 164//164
f 159//159 164//164 163//163
f 160//160 157//157 161//161
f 160//160 161//161 164//164
f 165//165 166//166 170//170
f 165//165 170//170 169//169
f 166//166 167//167 171//171
f 166//166 171//171 170//170
f 167//167 168//168 172//172
f 167//167 172//172 171//171
f 168//168 165//165 169//169
f 168//168 169//169 172//172
f 173//173 178//178 177//177
f 173//173 174//174 178//178
f 174//174 179//179 178//178
f 174//174 175//175 179//179
f 176//176 177//177 180//180
f 176//176 173//173 177//177
f 177//177 182//182 181//181
f 177//177 178//178 182//182
f 178//178 183//183 182//182
f 178//178 179//179 183//183
f 180//180 181//181 184//184
f 180//180 177//177 181//181
f 185//185 174//174 173//173
f 185//185 175//175 174//174
f 185//185 176//176 175//175
f 185//185 173//173 176//176
f 186//186 181//181 182//182
f 186//186 182//182 183//183
f 186//186 183//183 184//184
f 186//186 184//184 181//181
f 187//187 188//188 192//192
f 187//187 192//192 191//191
f 188//188 189//189 193//193
f 188//188 193//193 192//192
f 189//189 190//190 194//194
f 189//189 194//194 193//193
f 190//190 187//187 191//191
f 190//190 191//191 194//194
f 195//195 196//196 200//200
f 195//195 200//200 199//199
f 196//196 197//197 201//201
f 196//196 201//201 200//200
f 197//197 198//198 202//202
f 197//197 202//202 201//201
f 198//198 195//195 199//199
f 198//198 199//199 202//202
f 204//204 203//203 205//205
f 207//207 208//208 206//206
f 209//209 210//210 212//212
f 209//209 212//212 211//211
f 213//213 214//214 216//216
f 213//213 216//216 215//215
f 217//217 218//218 220//220
f 217//217 220//220 219//219

