# https://github.com/mikedh/trimesh
v 0.14104100 0.49370590 0.14106891
v 0.17610311 0.56217117 0.17603628
v 0.14554100 0.59805643 0.14547523
v 0.11497890 0.56217117 0.11491312
v 0.07643153 0.49370590 0.07646049
v 0.20308206 -0.25895620 0.17190575
v 0.21758521 -0.40194357 0.21751944
v 0.31101153 -0.25895620 0.26322365
v 0.14104100 0.49370590 -0.14104898
v 0.17610311 0.56217117 -0.17611109
v 0.14554100 0.59805643 -0.14554898
v 0.11497890 0.56217117 -0.11498688
v 0.07643153 0.49370590 -0.07644056
v 0.20308206 -0.25895620 -0.17188583
v 0.21758521 -0.40194357 -0.21759319
v 0.31101153 -0.25895620 -0.26320372
v -0.14107794 0.49370590 -0.14104898
v -0.17604531 0.56217117 -0.17611109
v -0.14548321 0.59805643 -0.14554898
v -0.11492110 0.56217117 -0.11498688
v -0.07646847 0.49370590 -0.07644056
v -0.20302847 -0.25895620 -0.17188583
v -0.21752742 -0.40194357 -0.21759319
v -0.31104847 -0.25895620 -0.26320372
v -0.14107794 0.49370590 0.14106891
v -0.17604531 0.56217117 0.17603628
v -0.14548321 0.59805643 0.14547523
v -0.11492110 0.56217117 0.11491312
v -0.07646847 0.49370590 0.07646049
v -0.20302847 -0.25895620 0.17190575
v -0.21752742 -0.40194357 0.21751944
v -0.31104847 -0.25895620 0.26322365
vn 0.68047328 -0.22638797 0.69692510
vn 0.70374524 0.09890349 0.70353447
vn 0.20569649 0.95675177 0.20570611
vn -0.48726386 0.72473070 -0.48717486
vn -0.67144207 0.29046802 -0.68175793
vn -0.73747416 0.10246556 -0.66755724
vn 0.07177724 -0.98430626 0.16121171
vn 0.72475936 -0.14552824 0.67345779
vn 0.68060932 -0.22682989 -0.69664851
vn 0.70365774 0.09864875 -0.70365774
vn 0.20569790 0.95675323 -0.20569790
vn -0.48711774 0.72486806 0.48711662
vn -0.67155865 0.29087660 0.68146884
vn -0.73758702 0.10223809 0.66746742
vn 0.07182937 -0.98426813 -0.16142114
vn 0.72481463 -0.14541973 -0.67342175
vn -0.68088941 -0.22638946 -0.69651807
vn -0.70353543 0.09890673 -0.70374382
vn -0.20569790 0.95675323 -0.20569790
vn 0.48717642 0.72472922 0.48726449
vn 0.67185899 0.29050538 0.68133114
vn 0.73757684 0.10228403 0.66747164
vn -0.07167662 -0.98426747 -0.16149308
vn -0.72482627 -0.14555857 -0.67337923
vn -0.68075319 -0.22594808 0.69679449
vn -0.70362288 0.09916160 0.70362051
vn -0.20569649 0.95675177 0.20570611
vn 0.48732283 0.72459156 -0.48732283
vn 0.67174237 0.29009719 -0.68161999
vn 0.73746397 0.10251150 -0.66756145
vn -0.07162478 -0.98430553 0.16128394
vn -0.72477130 -0.14566682 0.67341498
f 10//10 2//2 1//1
f 9//9 10//10 1//1
f 11//11 3//3 2//2
f 10//10 11//11 2//2
f 12//12 4//4 3//3
f 11//11 12//12 3//3
f 13//13 5//5 4//4
f 12//12 13//13 4//4
f 14//14 6//6 5//5
f 13//13 14//14 5//5
f 15//15 7//7 6//6
f 14//14 15//15 6//6
f 16//16 8//8 7//7
f 15//15 16//16 7//7
f 9//9 1//1 8//8
f 16//16 9//9 8//8
f 18//18 10//10 9//9
f 17//17 18//18 9//9
f 19//19 11//11 10//10
f 18//18 19//19 10//10
f 20//20 12//12 11//11
f 19//19 20//20 11//11
f 21//21 13//13 12//12
f 20//20 21//21 12//12
f 22//22 14//14 13//13
f 21//21 22//22 13//13
f 23//23 15//15 14//14
f 22//22 23//23 14//14
f 24//24 16//16 15//15
f 23//23 24//24 15//15
f 17//17 9//9 16//16
f 24//24 17//17 16//16
f 26//26 18//18 17//17
f 25//25 26//26 17//17
f 27//27 19//19 18//18
f 26//26 27//27 18//18
f 28//28 20//20 19//19
f 27//27 28//28 19//19
f 29//29 21//21 20//20
f 28//28 29//29 20//20
f 30//30 22//22 21//21
f 29//29 30//30 21//21
f 31//31 23//23 22//22
f 30//30 31//31 22//22
f 32//32 24//24 23//23
f 31//31 32//32 23//23
f 25//25 17//17 24//24
f 32//32 25//25 24//24
f 2//2 26//26 25//25
f 1//1 2//2 25//25
f 3//3 27//27 26//26
f 2//2 3//3 26//26
f 4//4 28//28 27//27
f 3//3 4//4 27//27
f 5//5 29//29 28//28
f 4//4 5//5 28//28
f 6//6 30//30 29//29
f 5//5 6//6 29//29
f 7//7 31//31 30//30
f 6//6 7//7 30//30
f 8//8 32//32 31//31
f 7//7 8//8 31//31
f 1//1 25//25 32//32
f 8//8 1//1 32//32
f 31//31 23//23 7//7
f 23//23 15//15 7//7
f 22//22 30//30 6//6
f 14//14 22//22 6//6

