# https://github.com/mikedh/trimesh
v 0.26666683 0.44769512 0.00000023
v 0.19845314 0.40241512 0.00000023
v 0.14165314 0.34769512 0.00000023
v 0.24384051 0.44769512 0.10101286
v 0.18181314 0.40241512 0.07530655
v 0.12954683 0.34769512 0.05365286
v 0.18858683 0.44769512 0.18858655
v 0.14032051 0.40241512 0.14032023
v 0.10016051 0.34769512 0.10016023
v 0.24384051 0.44769512 -0.10101345
v 0.18858683 0.44769512 -0.18858714
v 0.18181314 0.40241512 -0.07530714
v 0.14032051 0.40241512 -0.14031977
v 0.12954683 0.34769512 -0.05365345
v 0.10016051 0.34769512 -0.10015977
v 0.14213314 0.30038881 0.00000023
v 0.16666683 0.25601512 0.00000023
v 0.13072051 0.30038881 0.05413286
v 0.15242683 0.25601512 0.06314655
v 0.10048051 0.30038881 0.10048023
v 0.11786683 0.25601512 0.11786655
v 0.13072051 0.30038881 -0.05413345
v 0.10048051 0.30038881 -0.10047977
v 0.15242683 0.25601512 -0.06314714
v 0.11786683 0.25601512 -0.11786714
v 0.27312051 0.19548144 0.00000023
v 0.34165314 0.12268144 0.00000023
v 0.24858683 0.19548144 0.10298655
v 0.31242683 0.12268144 0.12944023
v 0.19312051 0.19548144 0.19312023
v 0.24160051 0.12268144 0.24160023
v 0.24858683 0.19548144 -0.10298714
v 0.19312051 0.19548144 -0.19311977
v 0.31242683 0.12268144 -0.12943977
v 0.24160051 0.12268144 -0.24159977
v 0.22341314 -0.17833119 0.00000023
v 0.09168051 -0.47731856 0.00000023
v 0.20389314 -0.17833119 0.08442655
v 0.08384051 -0.47731856 0.03472023
v 0.15797314 -0.17833119 0.15797286
v 0.06480051 -0.47731856 0.06480023
v 0.20389314 -0.17833119 -0.08442714
v 0.15797314 -0.17833119 -0.15797345
v 0.08384051 -0.47731856 -0.03471977
v 0.06480051 -0.47731856 -0.06479977
v 0.13386683 -0.52169119 0.00000023
v 0.20832051 -0.55230488 0.00000023
v 0.12336051 -0.52169119 0.05109286
v 0.19050683 -0.55230488 0.07893286
v 0.09466683 -0.52169119 0.09466655
v 0.14730683 -0.55230488 0.14730655
v 0.12336051 -0.52169119 -0.05109345
v 0.09466683 -0.52169119 -0.09466714
v 0.19050683 -0.55230488 -0.07893345
v 0.14730683 -0.55230488 -0.14730714
v 0.10101314 0.44769512 -0.24383977
v 0.00000051 0.44769512 -0.26666714
v 0.07530683 0.40241512 -0.18181345
v 0.00000051 0.40241512 -0.19845345
v 0.05365314 0.34769512 -0.12954714
v 0.00000051 0.34769512 -0.14165345
v -0.10101317 0.44769512 -0.24383977
v -0.18858686 0.44769512 -0.18858714
v -0.07530686 0.40241512 -0.18181345
v -0.14031949 0.40241512 -0.14031977
v -0.05365317 0.34769512 -0.12954714
v -0.10015949 0.34769512 -0.10015977
v -0.24383949 0.44769512 -0.10101345
v -0.26666686 0.44769512 0.00000023
v -0.18181317 0.40241512 -0.07530714
v -0.19845317 0.40241512 0.00000023
v -0.12954686 0.34769512 -0.05365345
v -0.14165317 0.34769512 0.00000023
v -0.24383949 0.44769512 0.10101286
v -0.18858686 0.44769512 0.18858655
v -0.18181317 0.40241512 0.07530655
v -0.14031949 0.40241512 0.14032023
v -0.12954686 0.34769512 0.05365286
v -0.10015949 0.34769512 0.10016023
v -0.10101317 0.44769512 0.24384023
v 0.00000051 0.44769512 0.26666655
v -0.07530686 0.40241512 0.18181286
v 0.00000051 0.40241512 0.19845286
v -0.05365317 0.34769512 0.12954655
v 0.00000051 0.34769512 0.14165286
v 0.10101314 0.44769512 0.24384023
v 0.07530683 0.40241512 0.18181286
v 0.05365314 0.34769512 0.12954655
v 0.05413314 0.30038881 -0.13071977
v 0.00000051 0.30038881 -0.14213345
v 0.06314683 0.25601512 -0.15242714
v 0.00000051 0.25601512 -0.16666714
v -0.05413317 0.30038881 -0.13071977
v -0.10047949 0.30038881 -0.10047977
v -0.06314686 0.25601512 -0.15242714
v -0.11786686 0.25601512 -0.11786714
v -0.13071949 0.30038881 -0.05413345
v -0.14213317 0.30038881 0.00000023
v -0.15242686 0.25601512 -0.06314714
v -0.16666686 0.25601512 0.00000023
v -0.13071949 0.30038881 0.05413286
v -0.10047949 0.30038881 0.10048023
v -0.15242686 0.25601512 0.06314655
v -0.11786686 0.25601512 0.11786655
v -0.05413317 0.30038881 0.13072023
v 0.00000051 0.30038881 0.14213286
v -0.06314686 0.25601512 0.15242655
v 0.00000051 0.25601512 0.16666655
v 0.05413314 0.30038881 0.13072023
v 0.06314683 0.25601512 0.15242655
v 0.10298683 0.19548144 -0.24858714
v 0.00000051 0.19548144 -0.27311977
v 0.12944051 0.12268144 -0.31242714
v 0.00000051 0.12268144 -0.34165345
v -0.10298686 0.19548144 -0.24858714
v -0.19311949 0.19548144 -0.19311977
v -0.12943949 0.12268144 -0.31242714
v -0.24159949 0.12268144 -0.24159977
v -0.24858686 0.19548144 -0.10298714
v -0.27311949 0.19548144 0.00000023
v -0.31242686 0.12268144 -0.12943977
v -0.34165317 0.12268144 0.00000023
v -0.24858686 0.19548144 0.10298655
v -0.19311949 0.19548144 0.19312023
v -0.31242686 0.12268144 0.12944023
v -0.24159949 0.12268144 0.24160023
v -0.10298686 0.19548144 0.24858655
v 0.00000051 0.19548144 0.27312023
v -0.12943949 0.12268144 0.31242655
v 0.00000051 0.12268144 0.34165286
v 0.10298683 0.19548144 0.24858655
v 0.12944051 0.12268144 0.31242655
v 0.08442683 -0.17833119 -0.20389345
v 0.00000051 -0.17833119 -0.22341345
v 0.03472051 -0.47731856 -0.08383977
v 0.00000051 -0.47731856 -0.09167977
v -0.08442686 -0.17833119 -0.20389345
v -0.15797317 -0.17833119 -0.15797345
v -0.03471949 -0.47731856 -0.08383977
v -0.06479949 -0.47731856 -0.06479977
v -0.20389317 -0.17833119 -0.08442714
v -0.22341317 -0.17833119 0.00000023
v -0.08383949 -0.47731856 -0.03471977
v -0.09167949 -0.47731856 0.00000023
v -0.20389317 -0.17833119 0.08442655
v -0.15797317 -0.17833119 0.15797286
v -0.08383949 -0.47731856 0.03472023
v -0.06479949 -0.47731856 0.06480023
v -0.08442686 -0.17833119 0.20389286
v 0.00000051 -0.17833119 0.22341286
v -0.03471949 -0.47731856 0.08384023
v 0.00000051 -0.47731856 0.09168023
v 0.08442683 -0.17833119 0.20389286
v 0.03472051 -0.47731856 0.08384023
v 0.05109314 -0.52169119 -0.12335977
v 0.00000051 -0.52169119 -0.13386714
v 0.07893314 -0.55230488 -0.19050714
v 0.00000051 -0.55230488 -0.20831977
v -0.05109317 -0.52169119 -0.12335977
v -0.09466686 -0.52169119 -0.09466714
v -0.07893317 -0.55230488 -0.19050714
v -0.14730686 -0.55230488 -0.14730714
v -0.12335949 -0.52169119 -0.05109345
v -0.13386686 -0.52169119 0.00000023
v -0.19050686 -0.55230488 -0.07893345
v -0.20831949 -0.55230488 0.00000023
v -0.12335949 -0.52169119 0.05109286
v -0.09466686 -0.52169119 0.09466655
v -0.19050686 -0.55230488 0.07893286
v -0.14730686 -0.55230488 0.14730655
v -0.05109317 -0.52169119 0.12336023
v 0.00000051 -0.52169119 0.13386655
v -0.07893317 -0.55230488 0.19050655
v 0.00000051 -0.55230488 0.20832023
v 0.05109314 -0.52169119 0.12336023
v 0.07893314 -0.55230488 0.19050655
vn 0.55414412 -0.83242075 0.00000073
vn 0.61780818 -0.78632885 0.00000096
vn 0.91462133 -0.40431154 0.00000202
vn 0.51579781 -0.82948971 0.21424155
vn 0.57599764 -0.78176906 0.23888041
vn 0.84788116 -0.39560522 0.35297883
vn 0.39088120 -0.83332093 0.39088120
vn 0.43759943 -0.78550205 0.43759943
vn 0.64526456 -0.40898325 0.64526456
vn 0.51579692 -0.82949020 -0.21424177
vn 0.39171449 -0.83292531 -0.39089025
vn 0.57599673 -0.78176929 -0.23888187
vn 0.43741438 -0.78596423 -0.43695411
vn 0.84787967 -0.39560610 -0.35298143
vn 0.64707473 -0.40671109 -0.64488789
vn 0.96574060 0.25950935 0.00000195
vn 0.69266963 0.72125501 0.00000114
vn 0.89188436 0.26096278 0.36937883
vn 0.65169521 0.70981163 0.26732155
vn 0.68141768 0.26709530 0.68141768
vn 0.49038198 0.72045196 0.49038198
vn 0.89188333 0.26096431 -0.36938023
vn 0.68198865 0.26330555 -0.68232080
vn 0.65169556 0.70981163 -0.26732068
vn 0.48828183 0.72101333 -0.49165093
vn 0.62937230 0.77710392 0.00000049
vn 0.98435452 0.17619923 0.00000021
vn 0.58113243 0.77700502 0.24196754
vn 0.90817982 0.18154670 0.37716071
vn 0.44691329 0.77494324 0.44691329
vn 0.69572891 0.17866887 0.69572891
vn 0.58113312 0.77700421 -0.24196851
vn 0.44689443 0.77603187 -0.44503921
vn 0.90818021 0.18154626 -0.37716000
vn 0.69650300 0.17746240 -0.69526302
vn 0.92364958 -0.38323812 0.00000131
vn 0.98172414 0.19030950 0.00000054
vn 0.85458947 -0.38023612 0.35369102
vn 0.90648322 0.18714440 0.37850383
vn 0.65281785 -0.38426254 0.65281785
vn 0.69457886 0.18740438 0.69457886
vn 0.85458976 -0.38023625 -0.35369017
vn 0.65278475 -0.38376791 -0.65314184
vn 0.90648331 0.18714651 -0.37850257
vn 0.69608508 0.18883481 -0.69268100
vn 0.54787030 0.83656329 0.00000097
vn 0.38028204 0.92487057 0.00000037
vn 0.50718428 0.83594351 0.20967250
vn 0.35772297 0.92219873 0.14691420
vn 0.38460652 0.83913983 0.38460652
vn 0.27088645 0.92371049 0.27088645
vn 0.50718281 0.83594466 -0.20967146
vn 0.38562889 0.83794248 -0.38619006
vn 0.35772304 0.92219878 -0.14691367
vn 0.26913093 0.92428241 -0.27068538
vn 0.21317139 -0.82945408 -0.51629825
vn 0.00053872 -0.83278495 -0.55359636
vn 0.23838535 -0.78179231 -0.57617117
vn 0.00028390 -0.78589127 -0.61836464
vn 0.35008373 -0.39555015 -0.84910627
vn 0.00148968 -0.40652693 -0.91363759
vn -0.21424487 -0.82948801 -0.51579917
vn -0.39088524 -0.83292745 -0.39171494
vn -0.23888668 -0.78176777 -0.57599679
vn -0.43695344 -0.78596453 -0.43741451
vn -0.35298453 -0.39561428 -0.84787456
vn -0.64489013 -0.40670932 -0.64707361
vn -0.51629841 -0.82945420 -0.21317055
vn -0.55359636 -0.83278495 -0.00053762
vn -0.57617027 -0.78179287 -0.23838569
vn -0.61836464 -0.78589128 -0.00028198
vn -0.84910489 -0.39555108 -0.35008604
vn -0.91363768 -0.40652673 -0.00148582
vn -0.51580016 -0.82948734 0.21424505
vn -0.39171641 -0.83292624 0.39088635
vn -0.57599781 -0.78176747 0.23888520
vn -0.43741329 -0.78596365 0.43695623
vn -0.84787605 -0.39561340 0.35298193
vn -0.64707315 -0.40670890 0.64489085
vn -0.21316987 -0.82945734 0.51629364
vn -0.00053690 -0.83278663 0.55359385
vn -0.23838376 -0.78179395 0.57616960
vn -0.00028134 -0.78589240 0.61836320
vn -0.35007861 -0.39554280 0.84911181
vn -0.00148851 -0.40652430 0.91363876
vn 0.21424155 -0.82948971 0.51579781
vn 0.23888041 -0.78176906 0.57599764
vn 0.35297883 -0.39560522 0.84788116
vn 0.36972369 0.26080896 -0.89178646
vn -0.00017507 0.26315474 -0.96475362
vn 0.27170301 0.70989854 -0.64978577
vn -0.00233452 0.72077046 -0.69316989
vn -0.36938723 0.26096529 -0.89188014
vn -0.68231991 0.26330846 -0.68198841
vn -0.26732125 0.70981546 -0.65169115
vn -0.49164761 0.72101651 -0.48828047
vn -0.89178516 0.26080917 -0.36972666
vn -0.96475362 0.26315474 0.00017896
vn -0.64978485 0.70989958 -0.27170248
vn -0.69316989 0.72077045 0.00233696
vn -0.89188117 0.26096375 0.36938583
vn -0.68199258 0.26330199 0.68231824
vn -0.65169080 0.70981545 0.26732213
vn -0.48828333 0.72101395 0.49164852
vn -0.36971772 0.26081095 0.89178835
vn 0.00017929 0.26315400 0.96475382
vn -0.27170525 0.70989432 0.64978944
vn 0.00233924 0.72076990 0.69317046
vn 0.36937883 0.26096278 0.89188436
vn 0.26732155 0.70981163 0.65169521
vn 0.23986566 0.77697985 -0.58203675
vn 0.00132885 0.77599288 -0.63074027
vn 0.37545779 0.18156567 -0.90888138
vn 0.00089224 0.17742619 -0.98413371
vn -0.24196923 0.77700332 -0.58113400
vn -0.44504104 0.77603120 -0.44689378
vn -0.37716206 0.18154648 -0.90817931
vn -0.69526478 0.17746325 -0.69650102
vn -0.58203748 0.77697875 -0.23986745
vn -0.63074001 0.77599309 -0.00132753
vn -0.90888152 0.18156530 -0.37545763
vn -0.98413379 0.17742575 -0.00089204
vn -0.58113350 0.77700400 0.24196827
vn -0.44689268 0.77603181 0.44504108
vn -0.90817892 0.18154709 0.37716269
vn -0.69649986 0.17746260 0.69526611
vn -0.23986593 0.77697936 0.58203729
vn -0.00132869 0.77599217 0.63074114
vn -0.37545424 0.18156572 0.90888283
vn -0.00089286 0.17742427 0.98413405
vn 0.24196754 0.77700502 0.58113243
vn 0.37716071 0.18154670 0.90817982
vn 0.35414841 -0.38021882 -0.85440772
vn -0.00026863 -0.38371629 -0.92345099
vn 0.37414445 0.18697068 -0.90832697
vn 0.00250492 0.18869768 -0.98203203
vn -0.35369009 -0.38023731 -0.85458932
vn -0.65314168 -0.38376817 -0.65278476
vn -0.37850079 0.18714680 -0.90648399
vn -0.69268123 0.18883843 -0.69608387
vn -0.85440811 -0.38021876 -0.35414754
vn -0.92345113 -0.38371595 0.00027091
vn -0.90832728 0.18697221 -0.37414295
vn -0.98203214 0.18869712 -0.00250438
vn -0.85458907 -0.38023713 0.35369089
vn -0.65278490 -0.38376822 0.65314150
vn -0.90648387 0.18714465 0.37850214
vn -0.69608469 0.18883639 0.69268097
vn -0.35414745 -0.38021819 0.85440840
vn 0.00027108 -0.38371489 0.92345158
vn -0.37414090 0.18697173 0.90832822
vn -0.00250672 0.18869377 0.98203278
vn 0.35369102 -0.38023612 0.85458947
vn 0.37850383 0.18714440 0.90648322
vn 0.21027033 0.83599827 -0.50684640
vn -0.00034978 0.83782575 -0.54593763
vn 0.14909019 0.92219092 -0.35684174
vn -0.00111471 0.92428927 -0.38169111
vn -0.20967218 0.83594526 -0.50718152
vn -0.38618483 0.83794455 -0.38562962
vn -0.14691254 0.92219960 -0.35772141
vn -0.27068358 0.92428292 -0.26913098
vn -0.50684476 0.83599957 -0.21026912
vn -0.54593725 0.83782599 0.00035188
vn -0.35684199 0.92219086 -0.14908994
vn -0.38169143 0.92428914 0.00111581
vn -0.50718311 0.83594404 0.20967320
vn -0.38563599 0.83794136 0.38618539
vn -0.35772102 0.92219966 0.14691309
vn -0.26913098 0.92428292 0.27068358
vn -0.21026957 0.83599960 0.50684452
vn 0.00035301 0.83782295 0.54594193
vn -0.14909423 0.92218955 0.35684358
vn 0.00111766 0.92429009 0.38168913
vn 0.20967250 0.83594351 0.50718428
vn 0.14691420 0.92219873 0.35772297
f 5//5 2//2 1//1
f 1//1 4//4 5//5
f 8//8 5//5 4//4
f 4//4 7//7 8//8
f 6//6 3//3 2//2
f 2//2 5//5 6//6
f 9//9 6//6 5//5
f 5//5 8//8 9//9
f 12//12 10//10 1//1
f 1//1 2//2 12//12
f 14//14 12//12 2//2
f 2//2 3//3 14//14
f 13//13 11//11 10//10
f 10//10 12//12 13//13
f 15//15 13//13 12//12
f 12//12 14//14 15//15
f 18//18 16//16 3//3
f 3//3 6//6 18//18
f 20//20 18//18 6//6
f 6//6 9//9 20//20
f 19//19 17//17 16//16
f 16//16 18//18 19//19
f 21//21 19//19 18//18
f 18//18 20//20 21//21
f 22//22 14//14 3//3
f 3//3 16//16 22//22
f 24//24 22//22 16//16
f 16//16 17//17 24//24
f 23//23 15//15 14//14
f 14//14 22//22 23//23
f 25//25 23//23 22//22
f 22//22 24//24 25//25
f 28//28 26//26 17//17
f 17//17 19//19 28//28
f 30//30 28//28 19//19
f 19//19 21//21 30//30
f 29//29 27//27 26//26
f 26//26 28//28 29//29
f 31//31 29//29 28//28
f 28//28 30//30 31//31
f 32//32 24//24 17//17
f 17//17 26//26 32//32
f 34//34 32//32 26//26
f 26//26 27//27 34//34
f 33//33 25//25 24//24
f 24//24 32//32 33//33
f 35//35 33//33 32//32
f 32//32 34//34 35//35
f 38//38 36//36 27//27
f 27//27 29//29 38//38
f 40//40 38//38 29//29
f 29//29 31//31 40//40
f 39//39 37//37 36//36
f 36//36 38//38 39//39
f 41//41 39//39 38//38
f 38//38 40//40 41//41
f 42//42 34//34 27//27
f 27//27 36//36 42//42
f 44//44 42//42 36//36
f 36//36 37//37 44//44
f 43//43 35//35 34//34
f 34//34 42//42 43//43
f 45//45 43//43 42//42
f 42//42 44//44 45//45
f 48//48 46//46 37//37
f 37//37 39//39 48//48
f 50//50 48//48 39//39
f 39//39 41//41 50//50
f 49//49 47//47 46//46
f 46//46 48//48 49//49
f 51//51 49//49 48//48
f 48//48 50//50 51//51
f 52//52 44//44 37//37
f 37//37 46//46 52//52
f 54//54 52//52 46//46
f 46//46 47//47 54//54
f 53//53 45//45 44//44
f 44//44 52//52 53//53
f 55//55 53//53 52//52
f 52//52 54//54 55//55
f 58//58 56//56 11//11
f 11//11 13//13 58//58
f 60//60 58//58 13//13
f 13//13 15//15 60//60
f 59//59 57//57 56//56
f 56//56 58//58 59//59
f 61//61 59//59 58//58
f 58//58 60//60 61//61
f 64//64 62//62 57//57
f 57//57 59//59 64//64
f 66//66 64//64 59//59
f 59//59 61//61 66//66
f 65//65 63//63 62//62
f 62//62 64//64 65//65
f 67//67 65//65 64//64
f 64//64 66//66 67//67
f 70//70 68//68 63//63
f 63//63 65//65 70//70
f 72//72 70//70 65//65
f 65//65 67//67 72//72
f 71//71 69//69 68//68
f 68//68 70//70 71//71
f 73//73 71//71 70//70
f 70//70 72//72 73//73
f 76//76 74//74 69//69
f 69//69 71//71 76//76
f 78//78 76//76 71//71
f 71//71 73//73 78//78
f 77//77 75//75 74//74
f 74//74 76//76 77//77
f 79//79 77//77 76//76
f 76//76 78//78 79//79
f 82//82 80//80 75//75
f 75//75 77//77 82//82
f 84//84 82//82 77//77
f 77//77 79//79 84//84
f 83//83 81//81 80//80
f 80//80 82//82 83//83
f 85//85 83//83 82//82
f 82//82 84//84 85//85
f 87//87 86//86 81//81
f 81//81 83//83 87//87
f 88//88 87//87 83//83
f 83//83 85//85 88//88
f 8//8 7//7 86//86
f 86//86 87//87 8//8
f 9//9 8//8 87//87
f 87//87 88//88 9//9
f 89//89 60//60 15//15
f 15//15 23//23 89//89
f 91//91 89//89 23//23
f 23//23 25//25 91//91
f 90//90 61//61 60//60
f 60//60 89//89 90//90
f 92//92 90//90 89//89
f 89//89 91//91 92//92
f 93//93 66//66 61//61
f 61//61 90//90 93//93
f 95//95 93//93 90//90
f 90//90 92//92 95//95
f 94//94 67//67 66//66
f 66//66 93//93 94//94
f 96//96 94//94 93//93
f 93//93 95//95 96//96
f 97//97 72//72 67//67
f 67//67 94//94 97//97
f 99//99 97//97 94//94
f 94//94 96//96 99//99
f 98//98 73//73 72//72
f 72//72 97//97 98//98
f 100//100 98//98 97//97
f 97//97 99//99 100//100
f 101//101 78//78 73//73
f 73//73 98//98 101//101
f 103//103 101//101 98//98
f 98//98 100//100 103//103
f 102//102 79//79 78//78
f 78//78 101//101 102//102
f 104//104 102//102 101//101
f 101//101 103//103 104//104
f 105//105 84//84 79//79
f 79//79 102//102 105//105
f 107//107 105//105 102//102
f 102//102 104//104 107//107
f 106//106 85//85 84//84
f 84//84 105//105 106//106
f 108//108 106//106 105//105
f 105//105 107//107 108//108
f 109//109 88//88 85//85
f 85//85 106//106 109//109
f 110//110 109//109 106//106
f 106//106 108//108 110//110
f 20//20 9//9 88//88
f 88//88 109//109 20//20
f 21//21 20//20 109//109
f 109//109 110//110 21//21
f 111//111 91//91 25//25
f 25//25 33//33 111//111
f 113//113 111//111 33//33
f 33//33 35//35 113//113
f 112//112 92//92 91//91
f 91//91 111//111 112//112
f 114//114 112//112 111//111
f 111//111 113//113 114//114
f 115//115 95//95 92//92
f 92//92 112//112 115//115
f 117//117 115//115 112//112
f 112//112 114//114 117//117
f 116//116 96//96 95//95
f 95//95 115//115 116//116
f 118//118 116//116 115//115
f 115//115 117//117 118//118
f 119//119 99//99 96//96
f 96//96 116//116 119//119
f 121//121 119//119 116//116
f 116//116 118//118 121//121
f 120//120 100//100 99//99
f 99//99 119//119 120//120
f 122//122 120//120 119//119
f 119//119 121//121 122//122
f 123//123 103//103 100//100
f 100//100 120//120 123//123
f 125//125 123//123 120//120
f 120//120 122//122 125//125
f 124//124 104//104 103//103
f 103//103 123//123 124//124
f 126//126 124//124 123//123
f 123//123 125//125 126//126
f 127//127 107//107 104//104
f 104//104 124//124 127//127
f 129//129 127//127 124//124
f 124//124 126//126 129//129
f 128//128 108//108 107//107
f 107//107 127//127 128//128
f 130//130 128//128 127//127
f 127//127 129//129 130//130
f 131//131 110//110 108//108
f 108//108 128//128 131//131
f 132//132 131//131 128//128
f 128//128 130//130 132//132
f 30//30 21//21 110//110
f 110//110 131//131 30//30
f 31//31 30//30 131//131
f 131//131 132//132 31//31
f 133//133 113//113 35//35
f 35//35 43//43 133//133
f 135//135 133//133 43//43
f 43//43 45//45 135//135
f 134//134 114//114 113//113
f 113//113 133//133 134//134
f 136//136 134//134 133//133
f 133//133 135//135 136//136
f 137//137 117//117 114//114
f 114//114 134//134 137//137
f 139//139 137//137 134//134
f 134//134 136//136 139//139
f 138//138 118//118 117//117
f 117//117 137//137 138//138
f 140//140 138//138 137//137
f 137//137 139//139 140//140
f 141//141 121//121 118//118
f 118//118 138//138 141//141
f 143//143 141//141 138//138
f 138//138 140//140 143//143
f 142//142 122//122 121//121
f 121//121 141//141 142//142
f 144//144 142//142 141//141
f 141//141 143//143 144//144
f 145//145 125//125 122//122
f 122//122 142//142 145//145
f 147//147 145//145 142//142
f 142//142 144//144 147//147
f 146//146 126//126 125//125
f 125//125 145//145 146//146
f 148//148 146//146 145//145
f 145//145 147//147 148//148
f 149//149 129//129 126//126
f 126//126 146//146 149//149
f 151//151 149//149 146//146
f 146//146 148//148 151//151
f 150//150 130//130 129//129
f 129//129 149//149 150//150
f 152//152 150//150 149//149
f 149//149 151//151 152//152
f 153//153 132//132 130//130
f 130//130 150//150 153//153
f 154//154 153//153 150//150
f 150//150 152//152 154//154
f 40//40 31//31 132//132
f 132//132 153//153 40//40
f 41//41 40//40 153//153
f 153//153 154//154 41//41
f 155//155 135//135 45//45
f 45//45 53//53 155//155
f 157//157 155//155 53//53
f 53//53 55//55 157//157
f 156//156 136//136 135//135
f 135//135 155//155 156//156
f 158//158 156//156 155//155
f 155//155 157//157 158//158
f 159//159 139//139 136//136
f 136//136 156//156 159//159
f 161//161 159//159 156//156
f 156//156 158//158 161//161
f 160//160 140//140 139//139
f 139//139 159//159 160//160
f 162//162 160//160 159//159
f 159//159 161//161 162//162
f 163//163 143//143 140//140
f 140//140 160//160 163//163
f 165//165 163//163 160//160
f 160//160 162//162 165//165
f 164//164 144//144 143//143
f 143//143 163//163 164//164
f 166//166 164//164 163//163
f 163//163 165//165 166//166
f 167//167 147//147 144//144
f 144//144 164//164 167//167
f 169//169 167//167 164//164
f 164//164 166//166 169//169
f 168//168 148//148 147//147
f 147//147 167//167 168//168
f 170//170 168//168 167//167
f 167//167 169//169 170//170
f 171//171 151//151 148//148
f 148//148 168//168 171//171
f 173//173 171//171 168//168
f 168//168 170//170 173//173
f 172//172 152//152 151//151
f 151//151 171//171 172//172
f 174//174 172//172 171//171
f 171//171 173//173 174//174
f 175//175 154//154 152//152
f 152//152 172//172 175//175
f 176//176 175//175 172//172
f 172//172 174//174 176//176
f 50//50 41//41 154//154
f 154//154 175//175 50//50
f 51//51 50//50 175//175
f 175//175 176//176 51//51

