# https://github.com/mikedh/trimesh
v 0.02740168 -0.25468129 0.38012331
v 0.07107010 -0.26637814 0.16591910
v 0.07107010 -0.26637814 0.38012331
v 0.10304273 -0.29834761 0.38012331
v 0.11473957 -0.34201603 0.38012331
v 0.10304273 -0.38568340 0.38012331
v 0.07107010 -0.41765498 0.38012331
v 0.02740168 -0.42935182 0.16591910
v 0.02740168 -0.42935182 0.38012331
v -0.01626780 -0.41765498 0.16591910
v -0.01626780 -0.41765498 0.38012331
v -0.04824043 -0.38568340 0.16591910
v -0.04824043 -0.38568340 0.38012331
v -0.05993727 -0.34201603 0.38012331
v -0.04824043 -0.29834761 0.38012331
v -0.01626780 -0.26637814 0.38012331
v 0.02740168 -0.25468129 0.16591910
v 0.10304273 -0.29834761 0.16591910
v 0.11473957 -0.34201603 0.16591910
v 0.10304273 -0.38568340 0.16591910
v 0.07107010 -0.41765498 0.16591910
v -0.05993727 -0.34201603 0.16591910
v -0.04824043 -0.29834761 0.16591910
v -0.01626780 -0.26637814 0.16591910
v 0.02740168 -0.34201603 0.16591910
v 0.02740168 -0.33637814 0.38012331
v 0.02740168 0.16388818 0.38012331
v 0.02740168 0.16388818 0.05317910
v 0.02740168 -0.07004024 0.05317910
v 0.02740168 -0.20814235 0.17155595
v 0.02740168 -0.33637814 0.17155595
v -0.05785832 -0.33644866 0.38012331
v -0.11070464 0.16388818 0.38012331
v -0.11070464 0.16388818 0.05317910
v -0.11070464 -0.07004024 0.05317910
v -0.04376569 -0.20821287 0.17155595
v -0.05785832 -0.33644866 0.17155595
v -0.04376569 -0.12154550 0.38012331
v -0.04376569 -0.12147498 0.09686542
v -0.11070464 -0.07004024 0.38012331
v -0.04376569 -0.20814235 0.38012331
v 0.02740168 0.21708713 -0.38207984
v 0.08659642 0.20247765 -0.56491563
v 0.08659642 0.20247765 -0.38207984
v 0.13000589 0.16230397 -0.38207984
v 0.14579115 0.10751976 -0.38207984
v 0.13000589 0.05273765 -0.38207984
v 0.08659642 0.01256186 -0.38207984
v 0.02740168 -0.00204656 -0.56491563
v 0.02740168 -0.00204656 -0.38207984
v -0.03179411 0.01256186 -0.56491563
v -0.03179411 0.01256186 -0.38207984
v -0.07520358 0.05273765 -0.56491563
v -0.07520358 0.05273765 -0.38207984
v -0.09098885 0.10751976 -0.38207984
v -0.07520358 0.16230397 -0.38207984
v -0.03179411 0.20247765 -0.38207984
v 0.02740168 0.21708713 -0.56491563
v 0.13000589 0.16230397 -0.56491563
v 0.14579115 0.10751976 -0.56491563
v 0.13000589 0.05273765 -0.56491563
v 0.08659642 0.01256186 -0.56491563
v -0.09098885 0.10751976 -0.56491563
v -0.07520358 0.16230397 -0.56491563
v -0.03179411 0.20247765 -0.56491563
v 0.02740168 0.10751976 -0.56491563
v 0.02740168 0.16388818 0.43508437
v 0.05558589 0.15637239 -0.53870405
v 0.05558589 0.15637239 0.43508437
v 0.07625536 0.13570502 0.43508437
v 0.08377115 0.10751976 0.43508437
v 0.07625536 0.07933660 0.43508437
v 0.05558589 0.05866818 0.43508437
v 0.02740168 0.05115239 -0.53870405
v 0.02740168 0.05115239 0.43508437
v -0.00078358 0.05866818 -0.53870405
v -0.00078358 0.05866818 0.43508437
v -0.02145201 0.07933660 -0.53870405
v -0.02145201 0.07933660 0.43508437
v -0.02896885 0.10751976 0.43508437
v -0.02145201 0.13570502 0.43508437
v -0.00078358 0.15637239 0.43508437
v 0.02740168 0.16388818 -0.53870405
v 0.07625536 0.13570502 -0.53870405
v 0.08377115 0.10751976 -0.53870405
v 0.07625536 0.07933660 -0.53870405
v 0.05558589 0.05866818 -0.53870405
v -0.02896885 0.10751976 -0.53870405
v -0.02145201 0.13570502 -0.53870405
v -0.00078358 0.15637239 -0.53870405
v 0.02740168 0.10751976 -0.53870405
vn 0.00000297 1.00000000 0.00000000
vn 0.37853798 0.65575030 -0.65322320
vn 0.49994093 0.86605951 0.00000000
vn 0.86603489 0.49998356 0.00000000
vn 1.00000000 -0.00000198 0.00000000
vn 0.86604116 -0.49997272 0.00000000
vn 0.49995266 -0.86605273 0.00000000
vn 0.00000225 -0.75714752 -0.65324393
vn 0.00000297 -1.00000000 0.00000000
vn -0.37854943 -0.65574787 -0.65321900
vn -0.49995366 -0.86605216 0.00000000
vn -0.65574074 -0.37856290 -0.65321835
vn -0.86604210 -0.49997108 0.00000000
vn -1.00000000 -0.00000198 0.00000000
vn -0.86603575 0.49998207 0.00000000
vn -0.49994193 0.86605893 0.00000000
vn 0.00000225 0.75714793 -0.65324346
vn 0.65573848 0.37857420 -0.65321407
vn 0.75714873 -0.00000150 -0.65324252
vn 0.65574087 -0.37856462 -0.65321722
vn 0.37854813 -0.65574737 -0.65322025
vn -0.75714942 -0.00000150 -0.65324173
vn -0.65573821 0.37857254 -0.65321530
vn -0.37853927 0.65575080 -0.65322194
vn 0.00000000 0.00000000 -1.00000000
vn 0.00000000 0.00000000 1.00000000
vn 0.00000000 0.70710678 0.70710678
vn 0.00000000 0.70710678 -0.70710678
vn 0.00104062 -0.34622536 -0.93815080
vn 0.00034417 -0.34714581 -0.93781110
vn 0.00000000 0.00000000 -1.00000000
vn -0.72795602 0.07995504 0.68094583
vn -0.57735027 0.57735027 0.57735027
vn -0.57735027 0.57735027 -0.57735027
vn -0.65614791 -0.40419311 -0.63725807
vn -0.78840268 -0.17468459 -0.58983600
vn -0.72795839 0.07998358 -0.68093994
vn -0.51197231 -0.25201534 0.82120194
vn -0.37775574 -0.75369393 -0.53781600
vn -0.70399311 -0.34664492 0.61986369
vn -0.69333009 0.03796090 0.71961959
vn 0.00000131 1.00000000 0.00000000
vn 0.35851196 0.66517887 -0.65498568
vn 0.47444728 0.88028392 0.00000000
vn 0.85131258 0.52465883 0.00000000
vn 1.00000000 -0.00000497 0.00000000
vn 0.85131672 -0.52465212 0.00000000
vn 0.47445144 -0.88028168 0.00000000
vn 0.00000099 -0.75393877 -0.65694469
vn 0.00000131 -1.00000000 0.00000000
vn -0.35851455 -0.66518155 -0.65498155
vn -0.47444846 -0.88028328 0.00000000
vn -0.64593387 -0.39808041 -0.65138424
vn -0.85131538 -0.52465430 0.00000000
vn -1.00000000 -0.00000497 0.00000000
vn -0.85131109 0.52466125 0.00000000
vn -0.47444456 0.88028539 0.00000000
vn 0.00000099 0.75394153 -0.65694152
vn 0.64593400 0.39808525 -0.65138115
vn 0.76012829 -0.00000378 -0.64977302
vn 0.64593477 -0.39807870 -0.65138439
vn 0.35851679 -0.66518032 -0.65498156
vn -0.76012856 -0.00000378 -0.64977271
vn -0.64593303 0.39808717 -0.65138094
vn -0.35850993 0.66518004 -0.65498561
vn 0.00000000 0.00000000 -1.00000000
vn 0.00000461 1.00000000 0.00000000
vn 0.37821782 0.65603745 -0.65312032
vn 0.49945955 0.86633721 0.00000000
vn 0.86631404 0.49949973 0.00000000
vn 1.00000000 -0.00000922 0.00000000
vn 0.86631577 -0.49949673 0.00000000
vn 0.49947061 -0.86633083 0.00000000
vn 0.00000349 -0.75696959 -0.65345010
vn 0.00000461 -1.00000000 0.00000000
vn -0.37823378 -0.65603373 -0.65311481
vn -0.49947750 -0.86632686 0.00000000
vn -0.65601991 -0.37824920 -0.65311976
vn -0.86631350 -0.49950067 0.00000000
vn -1.00000000 -0.00000922 0.00000000
vn -0.86631177 0.49950367 0.00000000
vn -0.49946658 0.86633316 0.00000000
vn 0.00000349 0.75696959 -0.65345010
vn 0.65602755 0.37825265 -0.65311009
vn 0.75697038 -0.00000698 -0.65344919
vn 0.65602583 -0.37824863 -0.65311415
vn 0.37822720 -0.65603437 -0.65311798
vn -0.75697593 -0.00000698 -0.65344276
vn -0.65602163 0.37825321 -0.65311570
vn -0.37822452 0.65603677 -0.65311712
vn 0.00000000 0.00000000 -1.00000000
f 17//17 2//2 25//25
f 2//2 18//18 25//25
f 18//18 19//19 25//25
f 19//19 20//20 25//25
f 20//20 21//21 25//25
f 21//21 8//8 25//25
f 8//8 10//10 25//25
f 10//10 12//12 25//25
f 12//12 22//22 25//25
f 22//22 23//23 25//25
f 23//23 24//24 25//25
f 24//24 17//17 25//25
f 39//39 35//35 29//29
f 26//26 41//41 32//32
f 3//3 2//2 17//17
f 1//1 3//3 17//17
f 4//4 18//18 2//2
f 3//3 4//4 2//2
f 5//5 19//19 18//18
f 4//4 5//5 18//18
f 6//6 20//20 19//19
f 5//5 6//6 19//19
f 7//7 21//21 20//20
f 6//6 7//7 20//20
f 9//9 8//8 21//21
f 7//7 9//9 21//21
f 11//11 10//10 8//8
f 9//9 11//11 8//8
f 13//13 12//12 10//10
f 11//11 13//13 10//10
f 14//14 22//22 12//12
f 13//13 14//14 12//12
f 15//15 23//23 22//22
f 14//14 15//15 22//22
f 16//16 24//24 23//23
f 15//15 16//16 23//23
f 1//1 17//17 24//24
f 16//16 1//1 24//24
f 36//36 30//30 31//31
f 37//37 36//36 31//31
f 33//33 27//27 28//28
f 34//34 33//33 28//28
f 35//35 34//34 28//28
f 29//29 35//35 28//28
f 36//36 39//39 29//29
f 30//30 36//36 29//29
f 40//40 35//35 39//39
f 38//38 40//40 39//39
f 34//34 35//35 40//40
f 33//33 34//34 40//40
f 40//40 38//38 27//27
f 33//33 40//40 27//27
f 41//41 36//36 37//37
f 32//32 41//41 37//37
f 38//38 39//39 36//36
f 41//41 38//38 36//36
f 41//41 26//26 27//27
f 38//38 41//41 27//27
f 58//58 43//43 66//66
f 43//43 59//59 66//66
f 59//59 60//60 66//66
f 60//60 61//61 66//66
f 61//61 62//62 66//66
f 62//62 49//49 66//66
f 49//49 51//51 66//66
f 51//51 53//53 66//66
f 53//53 63//63 66//66
f 63//63 64//64 66//66
f 64//64 65//65 66//66
f 65//65 58//58 66//66
f 44//44 43//43 58//58
f 42//42 44//44 58//58
f 45//45 59//59 43//43
f 44//44 45//45 43//43
f 46//46 60//60 59//59
f 45//45 46//46 59//59
f 47//47 61//61 60//60
f 46//46 47//47 60//60
f 48//48 62//62 61//61
f 47//47 48//48 61//61
f 50//50 49//49 62//62
f 48//48 50//50 62//62
f 52//52 51//51 49//49
f 50//50 52//52 49//49
f 54//54 53//53 51//51
f 52//52 54//54 51//51
f 55//55 63//63 53//53
f 54//54 55//55 53//53
f 56//56 64//64 63//63
f 55//55 56//56 63//63
f 57//57 65//65 64//64
f 56//56 57//57 64//64
f 42//42 58//58 65//65
f 57//57 42//42 65//65
f 83//83 68//68 91//91
f 68//68 84//84 91//91
f 84//84 85//85 91//91
f 85//85 86//86 91//91
f 86//86 87//87 91//91
f 87//87 74//74 91//91
f 74//74 76//76 91//91
f 76//76 78//78 91//91
f 78//78 88//88 91//91
f 88//88 89//89 91//91
f 89//89 90//90 91//91
f 90//90 83//83 91//91
f 69//69 68//68 83//83
f 67//67 69//69 83//83
f 70//70 84//84 68//68
f 69//69 70//70 68//68
f 71//71 85//85 84//84
f 70//70 71//71 84//84
f 72//72 86//86 85//85
f 71//71 72//72 85//85
f 73//73 87//87 86//86
f 72//72 73//73 86//86
f 75//75 74//74 87//87
f 73//73 75//75 87//87
f 77//77 76//76 74//74
f 75//75 77//77 74//74
f 79//79 78//78 76//76
f 77//77 79//79 76//76
f 80//80 88//88 78//78
f 79//79 80//80 78//78
f 81//81 89//89 88//88
f 80//80 81//81 88//88
f 82//82 90//90 89//89
f 81//81 82//82 89//89
f 67//67 83//83 90//90
f 82//82 67//67 90//90

