# https://github.com/mikedh/trimesh
v -0.03908001 -0.46354621 -0.05131084
v -0.03908001 -0.44401463 -0.05131084
v 0.03904526 -0.46354621 -0.05131084
v -0.03908001 -0.44401463 0.02681442
v -0.03908001 -0.46354621 0.02681442
v 0.03904526 -0.44401463 0.02681442
v 0.03904526 -0.46354621 0.02681442
v 0.03904526 -0.44401463 -0.05131084
v -0.01954843 -0.44401463 -0.01224874
v -0.00958738 0.51301590 -0.01224768
v -0.00568106 0.51301590 -0.02006032
v -0.00978317 -0.44401463 -0.02924032
v 0.00974841 -0.44401463 -0.02924032
v 0.00584210 0.51301590 -0.02006032
v 0.01951368 -0.44401463 -0.01224874
v 0.00955262 0.51301590 -0.01224768
v 0.00584210 0.51301590 -0.00463084
v 0.00974841 -0.44401463 0.00454810
v -0.00568106 0.51301590 -0.00463084
v -0.00978317 -0.44401463 0.00454810
v 0.00388841 0.50715695 0.07954916
v -0.00392422 0.50715695 0.07954916
v -0.00743896 0.51301590 0.06021232
v -0.01915790 0.51301590 0.08521232
v 0.01931789 0.51301590 0.08521232
v 0.00759999 0.51301590 0.06021232
v 0.00584210 0.50715695 0.09927547
v -0.00607264 0.50715695 0.09927547
v -0.01368948 0.51301590 0.11626705
v 0.01521683 0.51301590 0.11431442
v -0.00001790 0.51301590 0.12466600
v -0.00001790 0.50715695 0.10298600
v -0.00978317 0.51301590 0.02681442
v -0.00978317 0.51301590 -0.02201400
v 0.00974841 0.51301590 -0.02201400
v -0.01954843 0.51301590 0.12447126
v -0.02931369 0.51301590 0.08540810
v -0.00001790 0.51301590 0.13423653
v 0.01951368 0.51301590 0.12447126
v 0.02927894 0.51301590 0.08540810
v -0.01954843 0.51301590 0.04634600
v 0.00974841 0.51301590 0.02681442
v -0.00587685 0.53645379 -0.01420137
v 0.00584210 0.53645379 -0.01420137
v 0.00584210 0.53645379 0.02681442
v 0.01951368 0.51301590 0.04634600
v 0.01951368 0.53645379 0.04634600
v 0.02927894 0.53645379 0.08540810
v -0.00001790 0.53645379 0.13423653
v -0.01954843 0.53645379 0.12447126
v -0.02931369 0.53645379 0.08540810
v -0.00587685 0.53645379 0.02681442
v -0.01954843 0.53645379 0.04634600
v 0.01951368 0.53645379 0.12447126
vn -0.57735027 -0.57735027 -0.57735027
vn -0.57735027 0.57735027 -0.57735027
vn 0.57735027 -0.57735027 -0.57735027
vn -0.57735027 0.57735027 0.57735027
vn -0.57735027 -0.57735027 0.57735027
vn 0.57735027 0.57735027 0.57735027
vn 0.57735027 -0.57735027 0.57735027
vn 0.57735027 0.57735027 -0.57735027
vn -0.99994849 0.00983336 0.00251606
vn -0.99993273 0.01040748 0.00512103
vn -0.52578021 0.01110062 -0.85054802
vn -0.50052843 0.01044861 -0.86565704
vn 0.50048262 0.01034645 -0.86568475
vn 0.53431097 0.01122223 -0.84521349
vn 0.99995046 0.00963060 0.00251626
vn 0.99993352 0.01040759 0.00496341
vn 0.53013369 0.01116176 0.84784060
vn 0.49831979 0.01034941 0.86693153
vn -0.52144381 0.01103818 0.85321422
vn -0.49836565 0.01045068 0.86690395
vn 0.17999483 -0.97322749 -0.14293394
vn -0.18249514 -0.97256085 -0.14429452
vn -0.04476109 -0.99529311 -0.08595394
vn -0.17261882 -0.98467786 -0.02474366
vn 0.17020922 -0.98508119 -0.02537462
vn 0.04477279 -0.99532991 -0.08552062
vn 0.22557199 -0.97083830 0.08118047
vn -0.24037866 -0.96721989 0.08187659
vn -0.09416911 -0.99240739 0.07911858
vn 0.09975015 -0.99221170 0.07460463
vn 0.00149336 -0.99647503 0.08387656
vn 0.00471810 -0.98395201 0.17837089
vn -0.68574080 -0.70865750 -0.16602440
vn -0.60535834 -0.44940727 -0.65694321
vn 0.60535934 -0.44940642 -0.65694287
vn -0.60951690 -0.62403892 0.48894230
vn -0.75443594 -0.65637368 -0.00000248
vn 0.00000084 -0.61894606 0.78543349
vn 0.60951744 -0.62403917 0.48894131
vn 0.75443594 -0.65637368 -0.00000248
vn -0.68585606 -0.67046033 -0.28299190
vn 0.68574126 -0.70865662 -0.16602627
vn -0.53663457 0.69934709 -0.47216203
vn 0.53663310 0.69934814 -0.47216214
vn 0.55795047 0.81609893 -0.15057825
vn 0.68585582 -0.67045960 -0.28299421
vn 0.67677654 0.66837446 -0.30862453
vn 0.75443594 0.65637368 -0.00000248
vn 0.00000084 0.61894606 0.78543349
vn -0.60951690 0.62403892 0.48894230
vn -0.75443594 0.65637368 -0.00000248
vn -0.55795325 0.81609720 -0.15057733
vn -0.67677706 0.66837524 -0.30862170
vn 0.60951744 0.62403917 0.48894131
f 1//1 2//2 3//3
f 4//4 2//2 5//5
f 6//6 4//4 7//7
f 8//8 6//6 3//3
f 4//4 6//6 8//8
f 2//2 8//8 3//3
f 2//2 1//1 5//5
f 4//4 5//5 7//7
f 6//6 7//7 3//3
f 8//8 2//2 4//4
f 7//7 5//5 1//1
f 9//9 10//10 11//11
f 12//12 11//11 13//13
f 13//13 14//14 15//15
f 15//15 16//16 17//17
f 18//18 17//17 19//19
f 20//20 19//19 9//9
f 11//11 12//12 9//9
f 11//11 14//14 13//13
f 14//14 16//16 15//15
f 17//17 18//18 15//15
f 19//19 20//20 18//18
f 19//19 10//10 9//9
f 21//21 22//22 23//23
f 23//23 22//22 24//24
f 25//25 21//21 26//26
f 27//27 21//21 25//25
f 24//24 22//22 28//28
f 24//24 28//28 29//29
f 30//30 27//27 25//25
f 31//31 32//32 30//30
f 29//29 28//28 32//32
f 28//28 21//21 27//27
f 23//23 26//26 21//21
f 32//32 27//27 30//30
f 32//32 31//31 29//29
f 27//27 32//32 28//28
f 28//28 22//22 21//21
f 33//33 34//34 35//35
f 36//36 37//37 29//29
f 38//38 36//36 31//31
f 39//39 38//38 31//31
f 39//39 30//30 40//40
f 23//23 41//41 42//42
f 37//37 41//41 23//23
f 40//40 25//25 26//26
f 35//35 34//34 43//43
f 43//43 34//34 33//33
f 42//42 35//35 44//44
f 45//45 44//44 43//43
f 46//46 47//47 40//40
f 40//40 48//48 39//39
f 49//49 38//38 39//39
f 36//36 38//38 49//49
f 36//36 50//50 37//37
f 37//37 51//51 41//41
f 46//46 45//45 47//47
f 42//42 45//45 46//46
f 52//52 33//33 41//41
f 53//53 52//52 41//41
f 45//45 52//52 51//51
f 48//48 50//50 49//49
f 35//35 42//42 33//33
f 37//37 24//24 29//29
f 36//36 29//29 31//31
f 31//31 30//30 39//39
f 30//30 25//25 40//40
f 46//46 26//26 23//23
f 41//41 33//33 42//42
f 42//42 46//46 23//23
f 23//23 24//24 37//37
f 26//26 46//46 40//40
f 43//43 44//44 35//35
f 33//33 52//52 43//43
f 44//44 45//45 42//42
f 43//43 52//52 45//45
f 47//47 48//48 40//40
f 48//48 54//54 39//39
f 39//39 54//54 49//49
f 49//49 50//50 36//36
f 50//50 51//51 37//37
f 51//51 53//53 41//41
f 48//48 47//47 45//45
f 52//52 53//53 51//51
f 51//51 48//48 45//45
f 49//49 54//54 48//48
f 48//48 51//51 50//50
f 7//7 1//1 3//3

